<svg width="27" height="28" viewBox="0 0 27 28" fill="none" xmlns="http://www.w3.org/2000/svg">
<path d="M19.0217 28.0005C16.2725 28.0005 13.9422 27.2281 11.8475 25.733C10.7609 24.958 9.80003 24.0416 8.93338 23.0283C8.53801 22.5649 8.4359 22.0334 8.64798 21.4626C8.85483 20.8996 9.27114 20.5566 9.86811 20.4598C10.6484 20.3315 11.4155 20.1456 12.1539 19.8549C13.7563 19.2213 15.0497 18.1949 16.0525 16.7968C16.1285 16.6894 16.1992 16.5795 16.2882 16.4826C16.7726 15.9511 17.3722 15.7495 18.0739 15.8882C19.0924 16.0898 19.815 16.8334 19.98 17.8598C20.0847 18.5118 19.9276 19.1087 19.5375 19.6429C18.8463 20.5907 18.0398 21.4312 17.1156 22.159C17.0632 22.1983 17.0108 22.2376 16.9611 22.2795C16.8118 22.4052 16.7385 22.5649 16.7778 22.7613C16.8171 22.9602 16.9349 23.1016 17.1313 23.154C17.4167 23.2299 17.7047 23.3059 17.9953 23.3608C19.5584 23.6515 21.0797 23.4682 22.5642 22.9183C22.8182 22.8241 23.0696 22.722 23.3419 22.6853C24.4232 22.5387 25.4863 23.2195 25.7847 24.2694C25.9287 24.7721 25.9209 25.2774 25.7324 25.7671C25.5412 26.2619 25.193 26.6154 24.7008 26.8065C23.423 27.304 22.106 27.6706 20.7445 27.8617C20.1161 27.9507 19.4851 27.9926 19.0217 28.0005Z" fill="#5A5A5A"/>
<path d="M2.042 18.9009C1.37171 18.8564 0.696192 18.5317 0.251081 17.8195C-0.00813012 17.4032 -0.042168 16.9424 0.0389993 16.4659C0.240608 15.2981 0.520766 14.1539 0.939694 13.0438C1.61783 11.245 2.59708 9.63997 3.99525 8.30464C5.06613 7.28088 6.29673 6.50325 7.65301 5.91937C8.79459 5.42713 9.98068 5.08675 11.2008 4.86681C11.7821 4.76208 12.2795 4.94274 12.6618 5.39309C13.0519 5.85129 13.1462 6.38019 12.9394 6.94574C12.7718 7.40918 12.6094 7.87262 12.489 8.35177C12.256 9.28126 12.167 10.2238 12.2377 11.1795C12.3188 12.274 12.6173 13.3134 13.0807 14.3084C13.3557 14.8949 13.3347 15.4814 13.0074 16.0443C12.5414 16.8508 11.5752 17.3011 10.6536 17.1545C9.77907 17.0157 9.16115 16.5392 8.79721 15.7354C8.339 14.7221 8.03528 13.6617 7.85462 12.5646C7.83367 12.4363 7.81273 12.3054 7.79702 12.1771C7.75251 11.8262 7.28383 11.6037 6.96702 11.8969C6.76803 12.0828 6.57951 12.2792 6.40146 12.4834C5.42746 13.6014 4.81739 14.8975 4.52153 16.3454C4.46654 16.6099 4.4325 16.8822 4.37228 17.1466C4.14449 18.1756 3.24118 18.9009 2.03414 18.9035H2.042V18.9009Z" fill="#5A5A5A"/>
<path d="M26.743 10.7559C26.743 12.1724 26.5336 13.4841 26.1696 14.7723C26.0571 15.1729 25.9314 15.5735 25.79 15.9637C25.5962 16.5004 25.2087 16.8434 24.6484 16.9586C24.0279 17.0843 23.5042 16.8984 23.0984 16.4088C22.7449 15.982 22.3757 15.5709 21.9699 15.1939C20.6398 13.9685 19.0845 13.2171 17.2962 12.95C17.037 12.9107 16.7752 12.8976 16.5186 12.8558C15.9347 12.7641 15.4844 12.4578 15.2042 11.942C14.3821 10.426 15.377 8.72146 16.8878 8.47011C17.2203 8.41512 17.5502 8.44392 17.8801 8.48843C18.9929 8.63506 20.069 8.92045 21.1059 9.35247C21.4436 9.49386 21.7735 9.28701 21.8206 8.97806C21.8311 8.90213 21.8206 8.81572 21.8049 8.73979C21.5326 7.64272 21.064 6.6373 20.3806 5.73399C19.8936 5.0925 19.328 4.53219 18.697 4.03209C18.2493 3.67601 17.9587 3.22042 17.8749 2.65225C17.7387 1.72799 18.0451 0.976543 18.807 0.429319C19.095 0.222474 19.4144 0.0706125 19.7705 0.0208649C20.3256 -0.057684 20.8178 0.0863222 21.2499 0.439792C21.5248 0.667584 21.7971 0.897994 22.0641 1.13626C23.0958 2.06837 24.0174 3.09474 24.7793 4.25989C25.6355 5.57165 26.2377 6.98815 26.5362 8.52771C26.6828 9.2844 26.7535 10.0516 26.7483 10.7506L26.743 10.7559Z" fill="#5A5A5A"/>
</svg>
