<svg width="24" height="24" viewBox="0 0 24 24" fill="none" xmlns="http://www.w3.org/2000/svg">
<path d="M19.8257 5.32751C18.4283 4.69869 16.961 4.20961 15.4938 4C15.2842 4.34934 15.0746 4.76856 14.9348 5.1179C13.3278 4.9083 11.7209 4.9083 10.1139 5.1179C9.97413 4.69869 9.76451 4.34934 9.5549 4C8.08765 4.27948 6.62042 4.69869 5.22304 5.32751C2.49815 9.37991 1.72959 13.3624 2.07893 17.345C3.68592 18.5328 5.50252 19.441 7.38898 20C7.80819 19.441 8.22739 18.8122 8.50687 18.1834C7.87805 17.9738 7.24924 17.6943 6.69029 17.345C6.83003 17.2052 6.96975 17.1354 7.10949 16.9956C10.4632 18.6026 14.3759 18.6026 17.7296 16.9956C17.8693 17.1354 18.0091 17.2052 18.1488 17.345C17.5898 17.6943 16.961 17.9738 16.3322 18.1834C16.6815 18.8122 17.0309 19.441 17.4501 20C19.3366 19.441 21.1532 18.5328 22.7602 17.345C23.389 12.8035 22.2012 8.82096 19.8257 5.32751ZM9.06583 14.8996C8.0178 14.8996 7.17936 13.9214 7.17936 12.8035C7.17936 11.6856 8.0178 10.7074 9.06583 10.7074C10.1139 10.7074 10.9523 11.6856 10.9523 12.8035C10.9523 13.9913 10.1139 14.8996 9.06583 14.8996ZM16.0527 14.8996C15.0047 14.8996 14.1663 13.9214 14.1663 12.8035C14.1663 11.6856 15.0047 10.7074 16.0527 10.7074C17.1008 10.7074 17.9392 11.6856 17.9392 12.8035C17.8693 13.9913 17.1008 14.8996 16.0527 14.8996Z" fill="#F6F1F2"/>
</svg>
