<svg width="659" height="659" viewBox="0 0 659 659" fill="none" xmlns="http://www.w3.org/2000/svg">
<path d="M183.971 238.887C189.005 233.853 195.412 231.336 203.192 231.336C210.972 231.336 217.378 233.853 222.413 238.887L329.5 345.975L436.587 238.887C441.622 233.853 448.028 231.336 455.808 231.336C463.588 231.336 469.995 233.853 475.029 238.887C480.063 243.921 482.58 250.328 482.58 258.108C482.58 265.888 480.063 272.295 475.029 277.329L348.721 403.637C345.975 406.383 343 408.333 339.797 409.486C336.593 410.621 333.161 411.189 329.5 411.189C325.839 411.189 322.407 410.621 319.203 409.486C316 408.333 313.025 406.383 310.279 403.637L183.971 277.329C178.937 272.295 176.42 265.888 176.42 258.108C176.42 250.328 178.937 243.921 183.971 238.887Z" fill="#9FBFE5" fill-opacity="0.996078"/>
</svg>
