<svg width="32" height="32" viewBox="0 0 32 32" fill="none" xmlns="http://www.w3.org/2000/svg">
<path fill-rule="evenodd" clip-rule="evenodd" d="M14.6667 25.3306V10.004C14.6667 9.08398 14.1933 8.22931 13.4133 7.74264L8.08 4.40931C6.304 3.29998 4 4.57598 4 6.67064V21.996C4 22.916 4.47333 23.7706 5.25333 24.2573L10.5867 27.5906C12.3627 28.7013 14.6667 27.424 14.6667 25.3306Z" stroke="#F6F1F2" stroke-width="2" stroke-linecap="round" stroke-linejoin="round"/>
<path d="M28 14.6667H20" stroke="#F6F1F2" stroke-width="2" stroke-linecap="round" stroke-linejoin="round"/>
<path d="M22.6667 12L20 14.6667L22.6667 17.3333" stroke="#F6F1F2" stroke-width="2" stroke-linecap="round" stroke-linejoin="round"/>
<path d="M14.6665 25.3335H19.9998C21.4732 25.3335 22.6665 24.1402 22.6665 22.6668V21.3335" stroke="#F6F1F2" stroke-width="2" stroke-linecap="round" stroke-linejoin="round"/>
<path d="M22.6665 8V6.66667C22.6665 5.19333 21.4732 4 19.9998 4H6.6665" stroke="#F6F1F2" stroke-width="2" stroke-linecap="round" stroke-linejoin="round"/>
</svg>
