<svg width="30" height="32" viewBox="0 0 30 32" fill="none" xmlns="http://www.w3.org/2000/svg">
<path fill-rule="evenodd" clip-rule="evenodd" d="M2 14.082C2 20.9662 6.27342 27.1272 12.7213 29.5389L12.7681 29.5564C14.3509 30.1484 16.0945 30.1479 17.6769 29.5548L17.7148 29.5406C24.1685 27.122 28.4445 20.9532 28.4445 14.0612V8.26926C28.4445 6.90834 27.5599 5.70536 26.2609 5.29962L16.1498 2.14148C15.5458 1.95284 14.8987 1.95284 14.2947 2.14148L4.1836 5.29953C2.88456 5.70526 2 6.90823 2 8.26916V14.082Z" stroke="#E4E2E4" stroke-width="2.33236" stroke-linecap="round" stroke-linejoin="round"/>
<path fill-rule="evenodd" clip-rule="evenodd" d="M16.8714 10.4606L20.7608 14.3489C21.1985 14.7864 21.4445 15.3799 21.4445 15.9987C21.4445 16.6176 21.1988 17.2111 20.7613 17.6488L16.873 21.5381C16.4354 21.9758 15.842 22.2218 15.2231 22.2218C14.6043 22.2218 14.0107 21.9762 13.5731 21.5386L9.68368 17.6503C9.24602 17.2128 9 16.6193 9 16.0005C9 15.3816 9.24567 14.7881 9.68322 14.3504L13.5715 10.461C14.009 10.0234 14.6025 9.77734 15.2214 9.77734C15.8402 9.77734 16.4338 10.023 16.8714 10.4606V10.4606Z" stroke="#E4E2E4" stroke-width="2.33236" stroke-linecap="round" stroke-linejoin="round"/>
</svg>
