<svg width="32" height="32" viewBox="0 0 32 32" fill="none" xmlns="http://www.w3.org/2000/svg">
<rect x="3.99561" y="3.99561" width="24.01" height="24.01" rx="6.66667" stroke="#9FBFE5" stroke-opacity="0.996078" stroke-width="2" stroke-linecap="round" stroke-linejoin="round"/>
<path d="M12.6654 11.9985C12.6654 11.6301 12.3668 11.3315 11.9985 11.3315C11.6301 11.3315 11.3315 11.6301 11.3315 11.9985C11.3315 12.3668 11.6301 12.6654 11.9985 12.6654C12.3668 12.6654 12.6654 12.3668 12.6654 11.9985" stroke="#9FBFE5" stroke-opacity="0.996078" stroke-width="2" stroke-linecap="round" stroke-linejoin="round"/>
<path d="M20.6684 11.9985C20.6684 11.6301 20.3698 11.3315 20.0014 11.3315C19.6331 11.3315 19.3345 11.6301 19.3345 11.9985C19.3345 12.3668 19.6331 12.6654 20.0014 12.6654C20.3698 12.6654 20.6684 12.3668 20.6684 11.9985" stroke="#9FBFE5" stroke-opacity="0.996078" stroke-width="2" stroke-linecap="round" stroke-linejoin="round"/>
<path d="M12.6654 20.0014C12.6654 19.6331 12.3668 19.3345 11.9985 19.3345C11.6301 19.3345 11.3315 19.6331 11.3315 20.0014C11.3315 20.3698 11.6301 20.6684 11.9985 20.6684C12.3668 20.6684 12.6654 20.3698 12.6654 20.0014" stroke="#9FBFE5" stroke-opacity="0.996078" stroke-width="2" stroke-linecap="round" stroke-linejoin="round"/>
<path d="M20.6684 20.0014C20.6684 19.6331 20.3698 19.3345 20.0014 19.3345C19.6331 19.3345 19.3345 19.6331 19.3345 20.0014C19.3345 20.3698 19.6331 20.6684 20.0014 20.6684C20.3698 20.6684 20.6684 20.3698 20.6684 20.0014" stroke="#9FBFE5" stroke-opacity="0.996078" stroke-width="2" stroke-linecap="round" stroke-linejoin="round"/>
</svg>
