<svg width="24" height="25" viewBox="0 0 24 25" fill="none" xmlns="http://www.w3.org/2000/svg">
<path d="M17.2998 15.9516C17.1165 16.1349 16.8831 16.2266 16.5998 16.2266C16.3165 16.2266 16.0831 16.1349 15.8998 15.9516L11.9998 12.0516L8.0998 15.9516C7.91647 16.1349 7.68314 16.2266 7.3998 16.2266C7.11647 16.2266 6.88314 16.1349 6.6998 15.9516C6.51647 15.7682 6.4248 15.5349 6.4248 15.2516C6.4248 14.9682 6.51647 14.7349 6.6998 14.5516L11.2998 9.95156C11.3998 9.85156 11.5081 9.78056 11.6248 9.73856C11.7415 9.69723 11.8665 9.67656 11.9998 9.67656C12.1331 9.67656 12.2581 9.69723 12.3748 9.73856C12.4915 9.78056 12.5998 9.85156 12.6998 9.95156L17.2998 14.5516C17.4831 14.7349 17.5748 14.9682 17.5748 15.2516C17.5748 15.5349 17.4831 15.7682 17.2998 15.9516Z" fill="#9FBFE5" fill-opacity="0.996078"/>
</svg>
