<svg width="9" height="16" viewBox="0 0 9 16" fill="none" xmlns="http://www.w3.org/2000/svg">
<path d="M8.39994 0.933595C8.64438 1.17804 8.7666 1.48915 8.7666 1.86693C8.7666 2.2447 8.64438 2.55582 8.39994 2.80026L3.19994 8.00026L8.39994 13.2003C8.64438 13.4447 8.7666 13.7558 8.7666 14.1336C8.7666 14.5114 8.64438 14.8225 8.39994 15.0669C8.15549 15.3114 7.84438 15.4336 7.4666 15.4336C7.08882 15.4336 6.77771 15.3114 6.53327 15.0669L0.399935 8.93359C0.266602 8.80026 0.171936 8.65582 0.115935 8.50026C0.0608241 8.3447 0.0332686 8.17804 0.0332686 8.00026C0.0332686 7.82248 0.0608241 7.65582 0.115935 7.50026C0.171936 7.3447 0.266602 7.20026 0.399936 7.06693L6.53327 0.933595C6.77771 0.68915 7.08883 0.566926 7.4666 0.566926C7.84438 0.566926 8.15549 0.68915 8.39994 0.933595Z" fill="#9FBFE5" fill-opacity="0.996078"/>
</svg>
