<svg xmlns="http://www.w3.org/2000/svg" width="21" height="20" viewBox="0 0 21 20" fill="none">
  <path d="M19.2639 9.89262C18.616 8.70279 17.8597 7.80595 17.0105 7.20805C16.1709 6.61731 15.2407 6.31836 14.2319 6.31836C13.9162 6.31836 13.5947 6.34694 13.2659 6.4053C12.83 6.48153 12.3822 6.60897 11.9236 6.78881C11.8057 6.83407 11.7354 6.96866 11.7748 7.09729C12.4227 9.18515 12.5048 11.1027 12.0344 12.6784C11.8355 13.3466 11.5365 13.9528 11.1399 14.4852C10.6719 15.1141 10.0859 15.6167 9.40819 15.9799C9.22239 16.08 9.02825 16.1693 8.82935 16.2479C8.12426 16.529 7.33819 16.6731 6.49852 16.6731H6.41633C6.196 16.6731 6.08047 16.9423 6.23768 17.1019C7.41203 18.2977 8.87699 19.3231 10.2729 19.9306C10.3122 19.9484 10.3515 19.9651 10.3896 19.9818C10.4182 19.9937 10.4503 20.0008 10.4849 20.0008C10.5194 20.0008 10.554 19.9949 10.5873 19.9806C10.5873 19.9806 10.5885 19.9806 10.5909 19.9806C10.9065 19.8365 11.2245 19.6805 11.5449 19.5101C11.5449 19.5101 11.5449 19.5101 11.5473 19.5101C12.9777 18.7515 14.4355 17.7391 15.7016 16.5052C17.4834 14.7675 18.884 12.5891 19.2901 10.057C19.2997 9.99981 19.2901 9.94384 19.2627 9.89619L19.2639 9.89262ZM15.2681 16.0562C14.133 17.1626 12.7502 18.1643 11.2674 18.9504C11.2614 18.9539 11.2543 18.9575 11.2471 18.9623C10.9958 19.0945 10.7386 19.2219 10.4825 19.3434C9.4058 18.8682 8.28029 18.1274 7.30007 17.2543C7.9206 17.1888 8.50896 17.0459 9.05683 16.8268C9.28432 16.7362 9.50109 16.6362 9.70118 16.5266C10.4658 16.1157 11.1173 15.5547 11.6366 14.8568C12.0737 14.2684 12.4084 13.5967 12.6287 12.8559C13.1099 11.2421 13.0539 9.31021 12.4679 7.25093C12.7776 7.14493 13.0801 7.06751 13.3731 7.0163C13.6649 6.96389 13.9532 6.93888 14.2319 6.93888C14.6678 6.93888 15.0918 7.00439 15.4944 7.13421C15.8981 7.26403 16.2852 7.45817 16.6508 7.71424C17.3976 8.24067 18.0717 9.03508 18.6541 10.0772C18.2849 12.1877 17.1153 14.253 15.2669 16.055L15.2681 16.0562Z" fill="#9FBFE5" fill-opacity="0.996078"/>
  <path d="M20.1874 3.51947C20.1838 3.47898 20.1778 3.43849 20.1731 3.39918C20.1635 3.32772 20.123 3.2634 20.0695 3.22529C17.635 1.49235 14.2203 0 10.8069 0C9.56345 0 8.32002 0.19771 7.12423 0.655063C7.07182 0.67531 7.02776 0.711041 6.99917 0.758682C6.24406 1.99377 5.83316 3.1717 5.7748 4.25791C5.77123 4.34009 5.76765 4.41989 5.76765 4.50088C5.76051 5.80148 6.26074 6.98059 7.2612 8.01678C7.47796 8.24069 7.71736 8.45865 7.98058 8.66946C8.02583 8.70638 8.08181 8.72425 8.13779 8.72425C8.20449 8.72425 8.26999 8.69804 8.32002 8.64564C8.32002 8.64564 8.3224 8.64564 8.32359 8.64326C8.72377 8.20973 9.13468 7.81788 9.55154 7.47129C9.98388 7.11041 10.4246 6.79598 10.8676 6.53038C11.6799 6.04325 12.5041 5.7181 13.3223 5.56565C13.6856 5.49777 14.0464 5.46322 14.4049 5.46322C14.6181 5.46322 14.8289 5.47514 15.0398 5.50015C16.0057 5.61329 16.893 5.98013 17.6588 6.5685C17.716 6.61256 17.772 6.65782 17.8268 6.70427C18.3961 7.17711 18.8915 7.77738 19.2941 8.492C19.3429 8.57894 19.4275 8.61944 19.5121 8.61944C19.6181 8.61944 19.7229 8.55512 19.7562 8.43602C20.0218 7.47486 20.185 6.45535 20.2374 5.46918C20.2731 4.79506 20.2576 4.13643 20.1874 3.52067V3.51947ZM19.6157 5.43464C19.5799 6.10042 19.4918 6.7805 19.356 7.43794C19.0214 6.9794 18.6438 6.57445 18.2269 6.22667C18.171 6.17903 18.1126 6.13258 18.0483 6.08256C18.0447 6.08018 18.0411 6.0766 18.0376 6.07422C17.1717 5.40844 16.1879 5.00587 15.1124 4.88081C14.8802 4.85342 14.642 4.83913 14.4049 4.83913C14.0131 4.83913 13.6105 4.87724 13.208 4.95228C12.3171 5.11902 11.4226 5.47037 10.5484 5.99561C10.0756 6.27789 9.60632 6.61375 9.15254 6.9925C8.8 7.28668 8.44984 7.61302 8.10921 7.96438C7.96867 7.84051 7.83408 7.71307 7.70902 7.58444C6.82766 6.67211 6.38341 5.63592 6.38937 4.50088C6.38937 4.42703 6.39294 4.35319 6.39532 4.29126C6.44654 3.33963 6.80503 2.29748 7.46367 1.19221C8.49748 0.813469 9.62181 0.621714 10.8069 0.621714C14.7646 0.621714 18.1674 2.65836 19.574 3.63739C19.6347 4.20431 19.649 4.80816 19.6157 5.43345V5.43464Z" fill="#9FBFE5" fill-opacity="0.996078"/>
  <path d="M11.3497 12.1678C11.4486 11.845 11.5248 11.5032 11.5796 11.1411C11.5998 11.0089 11.5117 10.8874 11.389 10.8589C11.389 10.8589 11.3882 10.8589 11.3866 10.8589C10.7983 10.7255 10.2432 10.5611 9.72395 10.3682C9.40595 10.2503 9.09986 10.1216 8.80925 9.98108C7.89692 9.54397 7.12395 9.00563 6.50938 8.37915C5.99009 7.84915 5.58515 7.25721 5.30645 6.61286C4.59898 4.97283 4.76453 3.13269 5.76975 1.43191C5.87218 1.25802 5.73998 1.05078 5.55537 1.05078C5.53393 1.05078 5.51249 1.05316 5.49106 1.05912C4.04634 1.43429 2.60521 2.07268 1.44157 2.84685C1.26173 2.96714 1.08665 3.09101 0.921097 3.21607C0.869883 3.25418 0.830579 3.32207 0.823433 3.38876C0.823433 3.38876 0.791275 3.69009 0.767455 4.13434C0.6686 5.99115 0.686465 12.3274 5.06943 15.8885C5.1135 15.9243 5.16591 15.9433 5.22188 15.9445C5.31717 15.9469 5.41007 15.9481 5.50297 15.9481C6.89289 15.9481 8.06367 15.6861 8.99743 15.1727C10.1432 14.5439 10.9364 13.5351 11.3497 12.1678ZM5.50297 15.3276C5.45771 15.3276 5.41126 15.3276 5.36362 15.3276C1.30818 11.9367 1.29508 5.93755 1.38917 4.16888C1.40227 3.93544 1.41656 3.7425 1.42728 3.61625C1.54281 3.53169 1.6631 3.44832 1.78578 3.36613C2.67905 2.773 3.73549 2.26682 4.82646 1.90594C4.09399 3.55432 4.05706 5.28606 4.73476 6.8606C5.04085 7.57045 5.48748 8.22908 6.06394 8.81626C6.72257 9.48919 7.54914 10.0656 8.51745 10.5325C8.52459 10.5361 8.53174 10.5397 8.53769 10.5432C8.83783 10.6874 9.16298 10.8255 9.506 10.953C9.94787 11.1173 10.4171 11.2614 10.9043 11.3841C10.8626 11.5937 10.8114 11.7962 10.753 11.9891C10.3897 13.1909 9.69775 14.0794 8.6961 14.6296C7.85405 15.0929 6.77855 15.3288 5.50177 15.3288L5.50297 15.3276Z" fill="#9FBFE5" fill-opacity="0.996078"/>
</svg>