<svg width="28" height="28" viewBox="0 0 28 28" fill="none" xmlns="http://www.w3.org/2000/svg">
<path d="M25.9278 13.8477C25.0207 12.182 23.9619 10.9264 22.773 10.0893C21.5975 9.26228 20.2952 8.84375 18.8829 8.84375C18.441 8.84375 17.9908 8.88377 17.5306 8.96547C16.9203 9.07219 16.2933 9.2506 15.6514 9.50239C15.4863 9.56575 15.3879 9.75417 15.443 9.93425C16.35 12.8573 16.4651 15.5418 15.8065 17.7478C15.528 18.6833 15.1095 19.532 14.5542 20.2773C13.8989 21.1577 13.0785 21.8614 12.1298 22.37C11.8696 22.51 11.5978 22.6351 11.3194 22.7451C10.3323 23.1387 9.23176 23.3404 8.05622 23.3404H7.94117C7.63269 23.3404 7.47095 23.7173 7.69105 23.9407C9.33514 25.6148 11.3861 27.0505 13.3403 27.9008C13.3953 27.9259 13.4504 27.9492 13.5037 27.9725C13.5437 27.9892 13.5888 27.9992 13.6371 27.9992C13.6855 27.9992 13.7338 27.9909 13.7805 27.9709C13.7805 27.9709 13.7822 27.9709 13.7855 27.9709C14.2274 27.7691 14.6726 27.5507 15.1211 27.3122C15.1211 27.3122 15.1211 27.3122 15.1245 27.3122C17.1271 26.2501 19.168 24.8328 20.9405 23.1053C23.435 20.6725 25.3959 17.6228 25.9645 14.0778C25.9778 13.9978 25.9645 13.9194 25.9261 13.8527L25.9278 13.8477ZM20.3336 22.4767C18.7445 24.0257 16.8086 25.428 14.7326 26.5285C14.7243 26.5335 14.7143 26.5385 14.7043 26.5452C14.3524 26.7303 13.9923 26.9087 13.6338 27.0788C12.1264 26.4135 10.5507 25.3763 9.1784 24.1541C10.0471 24.0624 10.8708 23.8623 11.6379 23.5555C11.9563 23.4288 12.2598 23.2887 12.5399 23.1353C13.6104 22.5601 14.5225 21.7747 15.2495 20.7976C15.8615 19.9739 16.33 19.0334 16.6385 17.9963C17.3122 15.7369 17.2338 13.0323 16.4134 10.1493C16.847 10.0009 17.2705 9.89257 17.6807 9.82087C18.0892 9.7475 18.4927 9.71248 18.8829 9.71248C19.4932 9.71248 20.0868 9.80419 20.6504 9.98594C21.2157 10.1677 21.7576 10.4395 22.2695 10.798C23.315 11.535 24.2587 12.6472 25.0741 14.1062C24.5572 17.0609 22.9198 19.9522 20.3319 22.475L20.3336 22.4767Z" fill="#F6F1F2" fill-opacity="0.996078"/>
<path d="M27.2204 4.92726C27.2154 4.87057 27.2071 4.81388 27.2004 4.75885C27.1871 4.65881 27.1304 4.56877 27.0553 4.51541C23.6471 2.08929 18.8666 0 14.0877 0C12.3469 0 10.6061 0.276794 8.93203 0.917088C8.85866 0.945434 8.79696 0.995457 8.75695 1.06215C7.69979 2.79128 7.12453 4.44037 7.04282 5.96107C7.03782 6.07613 7.03282 6.18784 7.03282 6.30123C7.02282 8.12207 7.72314 9.77282 9.12378 11.2235C9.42725 11.537 9.76241 11.8421 10.1309 12.1372C10.1943 12.1889 10.2726 12.2139 10.351 12.2139C10.4444 12.2139 10.5361 12.1773 10.6061 12.1039C10.6061 12.1039 10.6095 12.1039 10.6111 12.1006C11.1714 11.4936 11.7467 10.945 12.3303 10.4598C12.9355 9.95457 13.5525 9.51437 14.1728 9.14254C15.31 8.46056 16.4638 8.00535 17.6093 7.79191C18.1179 7.69687 18.6231 7.64851 19.125 7.64851C19.4235 7.64851 19.7186 7.66519 20.0138 7.70021C21.3661 7.85861 22.6083 8.37218 23.6805 9.19589C23.7605 9.25759 23.8389 9.32095 23.9156 9.38598C24.7126 10.048 25.4062 10.8883 25.9698 11.8888C26.0382 12.0105 26.1566 12.0672 26.275 12.0672C26.4234 12.0672 26.5701 11.9772 26.6168 11.8104C26.9886 10.4648 27.2171 9.03749 27.2904 7.65685C27.3405 6.71308 27.3188 5.79099 27.2204 4.92893V4.92726ZM26.42 7.6085C26.37 8.54059 26.2466 9.4927 26.0565 10.4131C25.588 9.77116 25.0594 9.20423 24.4758 8.71734C24.3975 8.65064 24.3157 8.58561 24.2257 8.51558C24.2207 8.51225 24.2157 8.50724 24.2107 8.50391C22.9985 7.57181 21.6212 7.00822 20.1155 6.83314C19.7903 6.79479 19.4568 6.77478 19.125 6.77478C18.5764 6.77478 18.0129 6.82814 17.4493 6.93319C16.202 7.16663 14.9498 7.65852 13.7259 8.39386C13.0639 8.78904 12.407 9.25925 11.7717 9.7895C11.2781 10.2014 10.7879 10.6582 10.311 11.1501C10.1142 10.9767 9.92582 10.7983 9.75074 10.6182C8.51684 9.34096 7.89488 7.89029 7.90322 6.30123C7.90322 6.19785 7.90822 6.09447 7.91156 6.00776C7.98326 4.67548 8.48515 3.21648 9.40724 1.6691C10.8546 1.13886 12.4286 0.8704 14.0877 0.8704C19.6286 0.8704 24.3924 3.72171 26.3617 5.09234C26.4467 5.88604 26.4667 6.73143 26.42 7.60683V7.6085Z" fill="#F6F1F2" fill-opacity="0.996078"/>
<path d="M14.8478 17.0345C14.9862 16.5827 15.0929 16.1041 15.1696 15.5972C15.1979 15.4121 15.0746 15.242 14.9028 15.202C14.9028 15.202 14.9017 15.202 14.8995 15.202C14.0758 15.0153 13.2987 14.7852 12.5717 14.515C12.1265 14.35 11.698 14.1699 11.2911 13.9731C10.0139 13.3612 8.93173 12.6075 8.07134 11.7304C7.34433 10.9884 6.77741 10.1597 6.38723 9.25762C5.39677 6.96156 5.62855 4.38538 7.03586 2.00429C7.17926 1.76084 6.99417 1.4707 6.73572 1.4707C6.70571 1.4707 6.67569 1.47404 6.64568 1.48238C4.62308 2.00762 2.60549 2.90137 0.976407 3.9852C0.724625 4.15361 0.479512 4.32702 0.247739 4.5021C0.176039 4.55546 0.121014 4.6505 0.111009 4.74388C0.111009 4.74388 0.0659885 5.16574 0.0326399 5.78769C-0.105757 8.38722 -0.0807453 17.2579 6.05541 22.2436C6.1171 22.2936 6.19047 22.3203 6.26884 22.3219C6.40224 22.3253 6.5323 22.3269 6.66235 22.3269C8.60825 22.3269 10.2473 21.9601 11.5546 21.2414C13.1587 20.361 14.2692 18.9487 14.8478 17.0345ZM6.66235 21.4582C6.59899 21.4582 6.53396 21.4582 6.46727 21.4582C0.789654 16.711 0.771313 8.31219 0.90304 5.83605C0.921382 5.50923 0.941391 5.23911 0.956398 5.06236C1.11814 4.94397 1.28655 4.82725 1.4583 4.7122C2.70887 3.88182 4.18788 3.17316 5.71525 2.66792C4.68978 4.97565 4.63809 7.4001 5.58686 9.60445C6.01539 10.5982 6.64068 11.5203 7.44772 12.3424C8.36981 13.2845 9.52701 14.0915 10.8826 14.7451C10.8926 14.7501 10.9026 14.7551 10.911 14.7601C11.3312 14.9619 11.7864 15.1553 12.2666 15.3337C12.8852 15.5639 13.5422 15.7656 14.2242 15.9374C14.1658 16.2308 14.0941 16.5143 14.0124 16.7844C13.5038 18.4668 12.5351 19.7107 11.1327 20.4811C9.95387 21.1297 8.44818 21.4599 6.66069 21.4599L6.66235 21.4582Z" fill="#F6F1F2" fill-opacity="0.996078"/>
</svg>
