<svg width="12" height="12" viewBox="0 0 12 12" fill="none" xmlns="http://www.w3.org/2000/svg">
<path fill-rule="evenodd" clip-rule="evenodd" d="M5.80373 5.80485C6.94104 4.63711 7.22211 2.88076 6.50602 1.41642C6.46122 1.30981 6.48165 1.18695 6.55854 1.10058C6.63543 1.01421 6.7551 0.979691 6.86617 1.01185C7.7215 1.23232 8.50223 1.67771 9.12731 2.30179C11.062 4.18656 11.1028 7.28272 9.21855 9.21787C7.28357 11.1023 4.18741 11.0617 2.30247 9.12723C1.67803 8.50257 1.2324 7.72198 1.01193 6.86669C0.979611 6.75546 1.01417 6.63557 1.10074 6.55862C1.18731 6.48167 1.31044 6.4614 1.4171 6.50654C2.8808 7.2223 4.63634 6.94148 5.80373 5.80485Z" stroke="#1B2A42" stroke-width="0.9" stroke-linecap="round" stroke-linejoin="round"/>
</svg>
