<svg width="108" height="40" viewBox="0 0 108 40" fill="none" xmlns="http://www.w3.org/2000/svg">
<path d="M37.3229 19.783C36.027 17.4032 34.5144 15.6095 32.816 14.4137C31.1366 13.2322 29.2762 12.6343 27.2585 12.6343C26.6273 12.6343 25.9841 12.6914 25.3266 12.8082C24.4548 12.9606 23.5591 13.2155 22.6419 13.5752C22.4061 13.6657 22.2656 13.9349 22.3442 14.1922C23.64 18.368 23.8044 22.2032 22.8635 25.3547C22.4657 26.691 21.8678 27.9035 21.0745 28.9683C20.1384 30.2261 18.9664 31.2313 17.6109 31.9579C17.2393 32.158 16.8511 32.3366 16.4532 32.4938C15.043 33.056 13.4709 33.3443 11.7915 33.3443H11.6271C11.1864 33.3443 10.9554 33.8826 11.2698 34.2018C13.6186 36.5934 16.5485 38.6444 19.3404 39.8593C19.419 39.895 19.4976 39.9284 19.5738 39.9617C19.631 39.9855 19.6953 39.9998 19.7644 39.9998C19.8334 39.9998 19.9025 39.9879 19.9692 39.9593C19.9692 39.9593 19.9716 39.9593 19.9764 39.9593C20.6076 39.6711 21.2437 39.3591 21.8844 39.0184C21.8844 39.0184 21.8844 39.0184 21.8892 39.0184C24.7502 37.501 27.6659 35.4762 30.198 33.0084C33.7617 29.5329 36.563 25.176 37.3753 20.1117C37.3944 19.9973 37.3753 19.8854 37.3205 19.7901L37.3229 19.783ZM29.331 32.1103C27.0608 34.3233 24.2952 36.3266 21.3294 37.8988C21.3175 37.906 21.3032 37.9131 21.2889 37.9226C20.7863 38.1871 20.2718 38.4419 19.7596 38.6849C17.6062 37.7345 15.3551 36.2528 13.3946 34.5067C14.6357 34.3757 15.8125 34.0899 16.9082 33.6515C17.3632 33.4705 17.7968 33.2704 18.1969 33.0513C19.7263 32.2294 21.0293 31.1075 22.0679 29.7116C22.9421 28.5348 23.6115 27.1913 24.0521 25.7096C25.0146 22.4819 24.9026 18.6181 23.7306 14.4995C24.35 14.2875 24.955 14.1326 25.541 14.0302C26.1246 13.9254 26.7011 13.8754 27.2585 13.8754C28.1304 13.8754 28.9784 14.0064 29.7836 14.266C30.5911 14.5257 31.3653 14.9139 32.0966 15.4261C33.5901 16.479 34.9384 18.0678 36.1033 20.1522C35.3648 24.3733 33.0256 28.5038 29.3286 32.1079L29.331 32.1103Z" fill="#9FBFE5" fill-opacity="0.996078"/>
<path d="M39.1688 7.0391C39.1617 6.95811 39.1498 6.87712 39.1402 6.79851C39.1212 6.65559 39.0402 6.52695 38.933 6.45073C34.064 2.98477 27.2345 0 20.4074 0C17.9205 0 15.4336 0.395429 13.042 1.31015C12.9372 1.35065 12.849 1.42211 12.7919 1.5174C11.2816 3.98763 10.4598 6.34353 10.3431 8.51601C10.3359 8.68037 10.3288 8.83997 10.3288 9.00196C10.3145 11.6032 11.315 13.9615 13.3159 16.0339C13.7495 16.4817 14.2283 16.9177 14.7547 17.3393C14.8452 17.4131 14.9572 17.4489 15.0691 17.4489C15.2025 17.4489 15.3336 17.3965 15.4336 17.2917C15.4336 17.2917 15.4384 17.2917 15.4408 17.2869C16.2411 16.4198 17.063 15.6361 17.8967 14.9429C18.7614 14.2211 19.6428 13.5923 20.5289 13.0611C22.1535 12.0868 23.8019 11.4365 25.4384 11.1316C26.1649 10.9958 26.8867 10.9267 27.6037 10.9267C28.0301 10.9267 28.4518 10.9505 28.8734 11.0005C30.8053 11.2268 32.5799 11.9605 34.1116 13.1373C34.226 13.2254 34.3379 13.3159 34.4475 13.4088C35.5861 14.3545 36.5771 15.5551 37.3823 16.9844C37.4799 17.1583 37.649 17.2393 37.8182 17.2393C38.0302 17.2393 38.2398 17.1106 38.3065 16.8724C38.8377 14.9501 39.1641 12.911 39.2689 10.9386C39.3403 9.59033 39.3094 8.27303 39.1688 7.04149V7.0391ZM38.0254 10.8695C37.954 12.2011 37.7777 13.5613 37.5061 14.8762C36.8367 13.9591 36.0816 13.1492 35.2479 12.4536C35.1359 12.3583 35.0192 12.2654 34.8906 12.1654C34.8834 12.1606 34.8763 12.1535 34.8691 12.1487C33.1373 10.8171 31.1697 10.012 29.0187 9.76184C28.5542 9.70706 28.0778 9.67847 27.6037 9.67847C26.82 9.67847 26.0149 9.7547 25.2097 9.90477C23.4279 10.2383 21.639 10.941 19.8905 11.9915C18.9448 12.556 18.0063 13.2278 17.0987 13.9853C16.3936 14.5737 15.6933 15.2264 15.012 15.9291C14.7309 15.6814 14.4617 15.4265 14.2116 15.1692C12.4488 13.3445 11.5603 11.2721 11.5722 9.00196C11.5722 8.85427 11.5794 8.70657 11.5841 8.58271C11.6866 6.67941 12.4036 4.59507 13.7209 2.38448C15.7885 1.62697 18.0372 1.24346 20.4074 1.24346C28.3231 1.24346 35.1288 5.31685 37.942 7.27493C38.0635 8.40881 38.0921 9.61654 38.0254 10.8671V10.8695Z" fill="#9FBFE5" fill-opacity="0.996078"/>
<path d="M21.4938 24.3356C21.6915 23.6901 21.844 23.0064 21.9536 22.2822C21.9941 22.0178 21.8178 21.7748 21.5724 21.7177C21.5724 21.7177 21.5708 21.7177 21.5677 21.7177C20.3909 21.4509 19.2808 21.1222 18.2422 20.7362C17.6062 20.5004 16.994 20.2432 16.4128 19.9621C14.5881 19.0878 13.0421 18.0111 11.813 16.7581C10.7744 15.6981 9.96445 14.5142 9.40704 13.2255C7.99207 9.94534 8.32318 6.26499 10.3337 2.86335C10.5385 2.51557 10.2741 2.10107 9.9049 2.10107C9.86202 2.10107 9.81914 2.10584 9.77627 2.11775C6.88678 2.86812 4.00444 4.14492 1.67712 5.69329C1.31743 5.93388 0.967259 6.18162 0.636147 6.43174C0.533717 6.50797 0.455107 6.64375 0.440815 6.77714C0.440815 6.77714 0.376498 7.37981 0.328856 8.26834C0.131142 11.982 0.166874 24.6548 8.933 31.7773C9.02114 31.8487 9.12595 31.8868 9.23791 31.8892C9.42848 31.894 9.61428 31.8964 9.80009 31.8964C12.58 31.8964 14.9216 31.3723 16.7892 30.3456C19.0807 29.0879 20.6672 27.0702 21.4938 24.3356ZM9.80009 30.6553C9.70957 30.6553 9.61666 30.6553 9.52138 30.6553C1.41033 23.8735 1.38413 11.8748 1.57231 8.33742C1.59852 7.87053 1.6271 7.48463 1.64854 7.23212C1.8796 7.063 2.1202 6.89625 2.36555 6.73188C4.15213 5.5456 6.26505 4.53321 8.44705 3.81143C6.98206 7.10826 6.90822 10.5718 8.26363 13.721C8.87583 15.1407 9.76912 16.458 10.9221 17.6324C12.2394 18.9783 13.8925 20.1312 15.8292 21.065C15.8435 21.0721 15.8578 21.0793 15.8697 21.0864C16.47 21.3747 17.1203 21.651 17.8063 21.9059C18.6901 22.2346 19.6286 22.5228 20.6029 22.7682C20.5195 23.1874 20.4171 23.5924 20.3004 23.9783C19.5738 26.3818 18.1898 28.1588 16.1865 29.2594C14.5024 30.186 12.3513 30.6577 9.7977 30.6577L9.80009 30.6553Z" fill="#9FBFE5" fill-opacity="0.996078"/>
<path d="M52.316 15.4816C52.316 15.1028 52.1826 14.8098 51.9158 14.5978C51.649 14.3858 51.1797 14.1691 50.5056 13.9428C49.8338 13.7165 49.2835 13.4997 48.8572 13.2877C47.4684 12.6064 46.7752 11.6678 46.7752 10.4768C46.7752 9.88365 46.9491 9.35959 47.2945 8.90461C47.6399 8.44963 48.1306 8.09708 48.7619 7.84457C49.3955 7.59207 50.1054 7.46582 50.8962 7.46582C51.6871 7.46582 52.3565 7.60398 52.9687 7.87792C53.5809 8.15187 54.0549 8.54491 54.3931 9.0523C54.7314 9.55969 54.9005 10.1409 54.9005 10.7936H52.3255C52.3255 10.3577 52.1921 10.0194 51.9253 9.77884C51.6585 9.53825 51.2964 9.41914 50.8391 9.41914C50.3817 9.41914 50.0125 9.52157 49.7457 9.72405C49.4789 9.92891 49.3455 10.1862 49.3455 10.5006C49.3455 10.7746 49.4932 11.0247 49.7862 11.2486C50.0815 11.4725 50.5985 11.7036 51.3393 11.9394C52.0801 12.1776 52.6876 12.4349 53.164 12.7088C54.3217 13.3758 54.9005 14.2953 54.9005 15.4673C54.9005 16.4035 54.548 17.1395 53.8405 17.6755C53.1354 18.2115 52.1659 18.4783 50.9343 18.4783C50.0673 18.4783 49.2788 18.3234 48.5761 18.0114C47.871 17.6993 47.3421 17.2729 46.9872 16.7298C46.6323 16.1867 46.4536 15.5626 46.4536 14.8575H49.0453C49.0453 15.4316 49.193 15.8556 49.4908 16.1271C49.7886 16.3987 50.2697 16.5345 50.9367 16.5345C51.3631 16.5345 51.7014 16.4416 51.9491 16.2582C52.1969 16.0747 52.3207 15.8151 52.3207 15.4816H52.316Z" fill="#F5F5F5"/>
<path d="M61.2367 18.3308H58.6616V7.61377H61.2367V18.3285V18.3308Z" fill="#F5F5F5"/>
<path d="M67.8781 16.3418H72.3755V18.3285H65.2959V7.61377H67.8781V16.3418Z" fill="#F5F5F5"/>
<path d="M82.3682 13.781H78.3067V16.3418H83.1043V18.3285H75.7222V7.61377H83.1186V9.60759H78.3044V11.8658H82.3658V13.7786L82.3682 13.781Z" fill="#F5F5F5"/>
<path d="M95.3676 18.3308H92.7997L89.0026 11.6633V18.3308H86.4204V7.61377H89.0026L92.7925 14.2813V7.61377H95.3676V18.3285V18.3308Z" fill="#F5F5F5"/>
<path d="M107.459 9.60954H104.243V18.3304H101.661V9.60954H98.5049V7.61572H107.462V9.60954H107.459Z" fill="#F5F5F5"/>
<path d="M47.8638 28.1897V32.3846H46.4512V21.6699H50.4031C51.5751 21.6699 52.4946 21.9701 53.1592 22.568C53.8238 23.1659 54.1573 23.9591 54.1573 24.9453C54.1573 25.9862 53.8333 26.7866 53.183 27.3488C52.5327 27.911 51.6013 28.1921 50.3912 28.1921H47.8661L47.8638 28.1897ZM47.8638 27.0344H50.4031C51.1582 27.0344 51.7371 26.8557 52.1396 26.5008C52.5422 26.1435 52.7423 25.6289 52.7423 24.9572C52.7423 24.3188 52.5422 23.8067 52.1396 23.4231C51.7371 23.0396 51.1844 22.8395 50.4841 22.8252H47.8638V27.0344Z" fill="#F5F5F5"/>
<path d="M63.1213 29.5808H58.631L57.6234 32.3846H56.1655L60.258 21.6699H61.4943L65.5939 32.3846H64.1432L63.1213 29.5808ZM59.0598 28.4231H62.702L60.8773 23.4112L59.0598 28.4231Z" fill="#F5F5F5"/>
<path d="M72.4544 27.6092C71.2419 27.2614 70.3605 26.8326 69.8079 26.3252C69.2552 25.8179 68.9789 25.1914 68.9789 24.4458C68.9789 23.6025 69.3171 22.9046 69.9913 22.3519C70.6654 21.7993 71.542 21.5229 72.6211 21.5229C73.3572 21.5229 74.0123 21.6659 74.5887 21.9493C75.1652 22.2328 75.6106 22.6259 75.9275 23.1261C76.2443 23.6263 76.4015 24.1742 76.4015 24.7673H74.9818C74.9818 24.117 74.7769 23.6073 74.3648 23.2357C73.9527 22.8641 73.3715 22.6783 72.6211 22.6783C71.9255 22.6783 71.38 22.8307 70.9918 23.138C70.6035 23.4453 70.4058 23.8717 70.4058 24.4172C70.4058 24.8555 70.5916 25.2247 70.9608 25.5272C71.33 25.8298 71.9613 26.1061 72.8522 26.3562C73.7431 26.6063 74.4387 26.8827 74.9413 27.1852C75.4439 27.4877 75.8179 27.8379 76.0609 28.2404C76.3038 28.643 76.4253 29.1171 76.4253 29.6602C76.4253 30.5296 76.0871 31.2228 75.4106 31.7469C74.734 32.2686 73.8288 32.5306 72.695 32.5306C71.9589 32.5306 71.2728 32.3901 70.6344 32.1066C69.996 31.8255 69.5053 31.4372 69.1599 30.9465C68.8145 30.4558 68.6406 29.8984 68.6406 29.2767H70.0604C70.0604 29.9246 70.2986 30.4367 70.7774 30.8107C71.2562 31.1871 71.8946 31.3729 72.695 31.3729C73.4406 31.3729 74.0123 31.2205 74.4101 30.9155C74.8079 30.6106 75.0056 30.1962 75.0056 29.6721C75.0056 29.148 74.8222 28.7407 74.4529 28.4548C74.0861 28.1666 73.4167 27.8855 72.452 27.6044L72.4544 27.6092Z" fill="#F5F5F5"/>
<path d="M83.6569 27.6092C82.4445 27.2614 81.5631 26.8326 81.0104 26.3252C80.4578 25.8179 80.1815 25.1914 80.1815 24.4458C80.1815 23.6025 80.5197 22.9046 81.1939 22.3519C81.868 21.7993 82.7446 21.5229 83.8237 21.5229C84.5598 21.5229 85.2148 21.6659 85.7913 21.9493C86.3678 22.2328 86.8132 22.6259 87.13 23.1261C87.4469 23.6263 87.6041 24.1742 87.6041 24.7673H86.1843C86.1843 24.117 85.9771 23.6073 85.565 23.2357C85.1529 22.8641 84.5717 22.6783 83.8213 22.6783C83.1257 22.6783 82.5802 22.8307 82.192 23.138C81.8013 23.4453 81.606 23.8717 81.606 24.4172C81.606 24.8555 81.7918 25.2247 82.161 25.5272C82.5302 25.8298 83.1615 26.1061 84.0524 26.3562C84.9433 26.6063 85.6388 26.8827 86.1415 27.1852C86.6441 27.4877 87.0181 27.8379 87.2611 28.2404C87.504 28.643 87.6255 29.1171 87.6255 29.6602C87.6255 30.5296 87.2873 31.2228 86.6107 31.7469C85.9342 32.2686 85.029 32.5306 83.8952 32.5306C83.1591 32.5306 82.473 32.3901 81.8346 32.1066C81.1962 31.8255 80.7055 31.4372 80.3601 30.9465C80.0147 30.4558 79.8408 29.8984 79.8408 29.2767H81.2605C81.2605 29.9246 81.4988 30.4367 81.9776 30.8107C82.4564 31.1871 83.0948 31.3729 83.8952 31.3729C84.6407 31.3729 85.2125 31.2205 85.6103 30.9155C86.0081 30.6106 86.2058 30.1962 86.2058 29.6721C86.2058 29.148 86.0224 28.7407 85.6531 28.4548C85.2863 28.1666 84.6169 27.8855 83.6522 27.6044L83.6569 27.6092Z" fill="#F5F5F5"/>
</svg>
