<svg width="14" height="15" viewBox="0 0 14 15" fill="none" xmlns="http://www.w3.org/2000/svg">
<mask id="mask0_11000_13158" style="mask-type:alpha" maskUnits="userSpaceOnUse" x="0" y="0" width="14" height="15">
<rect y="0.5" width="14" height="14" fill="#D9D9D9"/>
</mask>
<g mask="url(#mask0_11000_13158)">
<path d="M6.41699 10.416H7.58366V6.91602H6.41699V10.416ZM7.00033 5.74935C7.1656 5.74935 7.30415 5.69345 7.41595 5.58164C7.52776 5.46984 7.58366 5.33129 7.58366 5.16602C7.58366 5.00074 7.52776 4.8622 7.41595 4.75039C7.30415 4.63859 7.1656 4.58268 7.00033 4.58268C6.83505 4.58268 6.69651 4.63859 6.5847 4.75039C6.4729 4.8622 6.41699 5.00074 6.41699 5.16602C6.41699 5.33129 6.4729 5.46984 6.5847 5.58164C6.69651 5.69345 6.83505 5.74935 7.00033 5.74935ZM7.00033 13.3327C6.19338 13.3327 5.43505 13.1796 4.72533 12.8733C4.0156 12.5671 3.39824 12.1514 2.87324 11.6264C2.34824 11.1014 1.93262 10.4841 1.62637 9.77435C1.32012 9.06463 1.16699 8.30629 1.16699 7.49935C1.16699 6.6924 1.32012 5.93407 1.62637 5.22435C1.93262 4.51463 2.34824 3.89727 2.87324 3.37227C3.39824 2.84727 4.0156 2.43164 4.72533 2.12539C5.43505 1.81914 6.19338 1.66602 7.00033 1.66602C7.80727 1.66602 8.5656 1.81914 9.27533 2.12539C9.98505 2.43164 10.6024 2.84727 11.1274 3.37227C11.6524 3.89727 12.068 4.51463 12.3743 5.22435C12.6805 5.93407 12.8337 6.6924 12.8337 7.49935C12.8337 8.30629 12.6805 9.06463 12.3743 9.77435C12.068 10.4841 11.6524 11.1014 11.1274 11.6264C10.6024 12.1514 9.98505 12.5671 9.27533 12.8733C8.5656 13.1796 7.80727 13.3327 7.00033 13.3327ZM7.00033 12.166C8.3031 12.166 9.40658 11.7139 10.3107 10.8098C11.2149 9.9056 11.667 8.80213 11.667 7.49935C11.667 6.19657 11.2149 5.0931 10.3107 4.18893C9.40658 3.28477 8.3031 2.83268 7.00033 2.83268C5.69755 2.83268 4.59408 3.28477 3.68991 4.18893C2.78574 5.0931 2.33366 6.19657 2.33366 7.49935C2.33366 8.80213 2.78574 9.9056 3.68991 10.8098C4.59408 11.7139 5.69755 12.166 7.00033 12.166Z" fill="#9FBFE5" fill-opacity="0.996078"/>
</g>
</svg>
