<svg width="151" height="56" viewBox="0 0 151 56" fill="none" xmlns="http://www.w3.org/2000/svg">
<path d="M52.7026 27.6976C50.8884 24.366 48.7707 21.8548 46.3929 20.1807C44.0418 18.5265 41.4372 17.6895 38.6125 17.6895C37.7288 17.6895 36.8283 17.7695 35.9079 17.9329C34.6873 18.1463 33.4333 18.5032 32.1493 19.0068C31.8191 19.1335 31.6224 19.5103 31.7324 19.8705C33.5466 25.7167 33.7768 31.0859 32.4595 35.498C31.9025 37.3689 31.0655 39.0664 29.9549 40.5571C28.6443 42.318 27.0035 43.7253 25.1059 44.7425C24.5857 45.0226 24.0421 45.2727 23.4851 45.4928C21.5108 46.2799 19.3098 46.6834 16.9587 46.6834H16.7285C16.1116 46.6834 15.7881 47.4371 16.2283 47.884C19.5166 51.2323 23.6185 54.1037 27.5271 55.8045C27.6371 55.8545 27.7472 55.9012 27.8539 55.9479C27.9339 55.9812 28.024 56.0012 28.1207 56.0012C28.2174 56.0012 28.3141 55.9846 28.4075 55.9445C28.4075 55.9445 28.4108 55.9445 28.4175 55.9445C29.3013 55.541 30.1917 55.1041 31.0888 54.6272C31.0888 54.6272 31.0888 54.6272 31.0955 54.6272C35.1008 52.5029 39.1828 49.6682 42.7278 46.2132C47.7169 41.3475 51.6388 35.2479 52.776 28.1578C52.8027 27.9978 52.776 27.841 52.6993 27.7076L52.7026 27.6976ZM41.5139 44.9559C38.3357 48.0541 34.4639 50.8588 30.3118 53.0598C30.2951 53.0698 30.2751 53.0798 30.2551 53.0932C29.5514 53.4634 28.831 53.8202 28.114 54.1604C25.0992 52.8297 21.9477 50.7554 19.2031 48.3109C20.9406 48.1274 22.588 47.7273 24.1221 47.1136C24.7591 46.8602 25.366 46.58 25.9263 46.2732C28.0673 45.1227 29.8916 43.5519 31.3456 41.5976C32.5695 39.9502 33.5066 38.0693 34.1236 35.9949C35.471 31.4761 35.3143 26.0668 33.6734 20.3007C34.5406 20.0039 35.3876 19.7871 36.208 19.6437C37.0251 19.497 37.8321 19.427 38.6125 19.427C39.8331 19.427 41.0203 19.6104 42.1476 19.9739C43.2781 20.3374 44.362 20.881 45.3858 21.598C47.4768 23.072 49.3644 25.2965 50.9952 28.2145C49.9613 34.124 46.6864 39.9068 41.5106 44.9526L41.5139 44.9559Z" fill="#9FBFE5" fill-opacity="0.996078"/>
<path d="M55.2874 9.85475C55.2774 9.74136 55.2607 9.62797 55.2474 9.51792C55.2207 9.31782 55.1073 9.13774 54.9573 9.03102C48.1407 4.17868 38.5794 0 29.0215 0C25.5398 0 22.0581 0.5536 18.7098 1.83422C18.5631 1.89091 18.4397 1.99096 18.3597 2.12436C16.2453 5.58269 15.0948 8.88094 14.9314 11.9224C14.9213 12.1525 14.9113 12.376 14.9113 12.6027C14.8913 16.2445 16.292 19.5461 19.0934 22.4475C19.7003 23.0744 20.3706 23.6847 21.1077 24.275C21.2344 24.3784 21.3911 24.4284 21.5479 24.4284C21.7346 24.4284 21.9181 24.3551 22.0581 24.2083C22.0581 24.2083 22.0648 24.2083 22.0681 24.2017C23.1887 22.9877 24.3392 21.8905 25.5064 20.9201C26.717 19.9096 27.951 19.0292 29.1916 18.2855C31.466 16.9215 33.7738 16.011 36.0648 15.5842C37.082 15.3941 38.0925 15.2974 39.0963 15.2974C39.6933 15.2974 40.2835 15.3307 40.8738 15.4008C43.5785 15.7176 46.063 16.7447 48.2074 18.3922C48.3674 18.5156 48.5242 18.6423 48.6776 18.7724C50.2717 20.0963 51.659 21.7772 52.7862 23.7781C52.923 24.0216 53.1597 24.135 53.3965 24.135C53.6933 24.135 53.9868 23.9549 54.0802 23.6214C54.8239 20.9301 55.2808 18.0754 55.4275 15.314C55.5275 13.4265 55.4842 11.5822 55.2874 9.85808V9.85475ZM53.6867 15.2173C53.5866 17.0816 53.3398 18.9858 52.9596 20.8267C52.0225 19.5427 50.9653 18.4089 49.7981 17.4351C49.6414 17.3017 49.478 17.1716 49.2979 17.0315C49.2879 17.0249 49.2779 17.0149 49.2679 17.0082C46.8434 15.144 44.0887 14.0168 41.0772 13.6666C40.4269 13.5899 39.76 13.5499 39.0963 13.5499C37.9991 13.5499 36.8719 13.6566 35.7447 13.8667C33.2502 14.3336 30.7456 15.3174 28.2978 16.7881C26.9738 17.5785 25.6599 18.5189 24.3892 19.5794C23.4021 20.4032 22.4216 21.3169 21.4678 22.3007C21.0743 21.9539 20.6975 21.5971 20.3473 21.2369C17.8794 18.6823 16.6355 15.7809 16.6522 12.6027C16.6522 12.396 16.6622 12.1892 16.6689 12.0158C16.8123 9.35117 17.8161 6.4331 19.6603 3.33827C22.555 2.27776 25.7032 1.74084 29.0215 1.74084C40.1034 1.74084 49.6314 7.44359 53.5699 10.1849C53.74 11.7723 53.78 13.4632 53.6867 15.214V15.2173Z" fill="#9FBFE5" fill-opacity="0.996078"/>
<path d="M30.5419 34.0697C30.8187 33.166 31.0322 32.2088 31.1856 31.195C31.2423 30.8248 30.9955 30.4847 30.652 30.4046C30.652 30.4046 30.6497 30.4046 30.6453 30.4046C28.9979 30.0311 27.4438 29.5709 25.9897 29.0307C25.0993 28.7005 24.2422 28.3403 23.4285 27.9468C20.8739 26.7229 18.7096 25.2155 16.9887 23.4613C15.5347 21.9773 14.4008 20.3198 13.6204 18.5156C11.6395 13.9234 12.103 8.77089 14.9177 4.0086C15.2045 3.5217 14.8344 2.94141 14.3174 2.94141C14.2574 2.94141 14.1974 2.94808 14.1374 2.96475C10.0921 4.01527 6.0568 5.80279 2.79856 7.97051C2.29498 8.30733 1.80475 8.65417 1.34119 9.00434C1.19779 9.11105 1.08774 9.30115 1.06773 9.4879C1.06773 9.4879 0.977683 10.3316 0.910984 11.5756C0.634184 16.7747 0.684209 34.5166 12.9568 44.4881C13.0802 44.5881 13.2269 44.6415 13.3837 44.6448C13.6505 44.6515 13.9106 44.6548 14.1707 44.6548C18.0626 44.6548 21.3408 43.9211 23.9554 42.4838C27.1636 40.7229 29.3847 37.8982 30.5419 34.0697ZM14.1707 42.9173C14.044 42.9173 13.9139 42.9173 13.7805 42.9173C2.42505 33.4227 2.38836 16.6247 2.65182 11.6723C2.68851 11.0186 2.72853 10.4784 2.75854 10.1249C3.08203 9.8881 3.41886 9.65465 3.76236 9.42454C6.26357 7.76374 9.22166 6.34639 12.2765 5.3359C10.2255 9.95146 10.1221 14.8005 12.0197 19.2093C12.8768 21.1969 14.1274 23.0411 15.7415 24.6852C17.5857 26.5695 19.9001 28.1836 22.6114 29.4909C22.6315 29.5009 22.6515 29.5109 22.6681 29.5209C23.5085 29.9244 24.419 30.3113 25.3794 30.6681C26.6167 31.1283 27.9307 31.5319 29.2947 31.8754C29.1779 32.4623 29.0345 33.0292 28.8711 33.5695C27.854 36.9344 25.9164 39.4223 23.1117 40.963C20.7539 42.2603 17.7424 42.9206 14.1674 42.9206L14.1707 42.9173Z" fill="#9FBFE5" fill-opacity="0.996078"/>
<path d="M73.6934 21.6713C73.6934 21.141 73.5066 20.7308 73.1331 20.434C72.7596 20.1372 72.1026 19.8337 71.1588 19.5169C70.2184 19.2001 69.448 18.8966 68.851 18.5998C66.9068 17.646 65.9363 16.3321 65.9363 14.6646C65.9363 13.8342 66.1798 13.1005 66.6633 12.4635C67.1469 11.8265 67.8339 11.333 68.7176 10.9795C69.6047 10.626 70.5985 10.4492 71.7057 10.4492C72.8129 10.4492 73.7501 10.6426 74.6071 11.0262C75.4642 11.4097 76.1279 11.9599 76.6014 12.6703C77.075 13.3806 77.3118 14.1944 77.3118 15.1081H73.7067C73.7067 14.4978 73.5199 14.0243 73.1464 13.6874C72.7729 13.3506 72.266 13.1839 71.6257 13.1839C70.9854 13.1839 70.4685 13.3273 70.095 13.6107C69.7215 13.8975 69.5347 14.2577 69.5347 14.6979C69.5347 15.0815 69.7415 15.4316 70.1517 15.7451C70.5652 16.0586 71.2889 16.3821 72.326 16.7122C73.3632 17.0457 74.2136 17.4059 74.8806 17.7894C76.5014 18.7232 77.3118 20.0105 77.3118 21.6513C77.3118 22.9619 76.8182 23.9924 75.8277 24.7428C74.8406 25.4931 73.4833 25.8666 71.7591 25.8666C70.5452 25.8666 69.4413 25.6499 68.4575 25.213C67.4704 24.7761 66.73 24.1792 66.2331 23.4188C65.7362 22.6584 65.4861 21.7847 65.4861 20.7975H69.1145C69.1145 21.6013 69.3213 22.1949 69.7381 22.5751C70.155 22.9552 70.8287 23.1453 71.7624 23.1453C72.3594 23.1453 72.833 23.0153 73.1798 22.7585C73.5266 22.5017 73.7 22.1382 73.7 21.6713H73.6934Z" fill="#F5F5F5"/>
<path d="M86.1827 25.6601H82.5776V10.6562H86.1827V25.6568V25.6601Z" fill="#F5F5F5"/>
<path d="M95.4803 22.8755H101.777V25.6568H91.8652V10.6562H95.4803V22.8755Z" fill="#F5F5F5"/>
<path d="M115.767 19.2904H110.081V22.8755H116.797V25.6568H106.462V10.6562H116.817V13.4476H110.077V16.6091H115.764V19.2871L115.767 19.2904Z" fill="#F5F5F5"/>
<path d="M133.966 25.6601H130.371L125.055 16.3256V25.6601H121.44V10.6562H125.055L130.361 19.9907V10.6562H133.966V25.6568V25.6601Z" fill="#F5F5F5"/>
<path d="M150.894 13.4515H146.392V25.6607H142.777V13.4515H138.358V10.6602H150.897V13.4515H150.894Z" fill="#F5F5F5"/>
<path d="M67.4603 39.4636V45.3364H65.4827V30.3359H71.0153C72.6561 30.3359 73.9434 30.7561 74.8739 31.5932C75.8043 32.4303 76.2712 33.5407 76.2712 34.9214C76.2712 36.3788 75.8176 37.4993 74.9072 38.2864C73.9968 39.0734 72.6928 39.4669 70.9987 39.4669H67.4636L67.4603 39.4636ZM67.4603 37.8462H71.0153C72.0725 37.8462 72.8829 37.596 73.4465 37.0991C74.0101 36.5989 74.2902 35.8785 74.2902 34.9381C74.2902 34.0443 74.0101 33.3274 73.4465 32.7905C72.8829 32.2535 72.1092 31.9734 71.1287 31.9534H67.4603V37.8462Z" fill="#F5F5F5"/>
<path d="M88.8205 41.4112H82.5342L81.1235 45.3364H79.0825L84.8119 30.3359H86.5428L92.2822 45.3364H90.2512L88.8205 41.4112ZM83.1345 39.7904H88.2336L85.679 32.7738L83.1345 39.7904Z" fill="#F5F5F5"/>
<path d="M101.887 38.6496C100.189 38.1627 98.9554 37.5625 98.1817 36.8521C97.408 36.1418 97.0212 35.2647 97.0212 34.2208C97.0212 33.0403 97.4947 32.0632 98.4385 31.2895C99.3823 30.5158 100.61 30.1289 102.12 30.1289C103.151 30.1289 104.068 30.329 104.875 30.7259C105.682 31.1227 106.306 31.673 106.749 32.3733C107.193 33.0737 107.413 33.8407 107.413 34.6711H105.425C105.425 33.7606 105.138 33.047 104.561 32.5267C103.985 32.0065 103.171 31.7464 102.12 31.7464C101.146 31.7464 100.383 31.9598 99.8392 32.39C99.2956 32.8202 99.0188 33.4171 99.0188 34.1808C99.0188 34.7945 99.2789 35.3114 99.7958 35.7349C100.313 36.1584 101.197 36.5453 102.444 36.8955C103.691 37.2456 104.665 37.6325 105.369 38.056C106.072 38.4796 106.596 38.9698 106.936 39.5334C107.276 40.097 107.446 40.7607 107.446 41.521C107.446 42.7383 106.973 43.7087 106.026 44.4424C105.078 45.1728 103.811 45.5396 102.224 45.5396C101.193 45.5396 100.233 45.3429 99.339 44.946C98.4452 44.5525 97.7582 44.0089 97.2746 43.3219C96.7911 42.6349 96.5476 41.8545 96.5476 40.9841H98.5352C98.5352 41.8912 98.8687 42.6082 99.539 43.1318C100.209 43.6587 101.103 43.9188 102.224 43.9188C103.268 43.9188 104.068 43.7054 104.625 43.2785C105.182 42.8517 105.459 42.2714 105.459 41.5377C105.459 40.804 105.202 40.2337 104.685 39.8335C104.171 39.43 103.234 39.0365 101.884 38.643L101.887 38.6496Z" fill="#F5F5F5"/>
<path d="M117.571 38.6496C115.874 38.1627 114.64 37.5625 113.866 36.8521C113.092 36.1418 112.705 35.2647 112.705 34.2208C112.705 33.0403 113.179 32.0632 114.123 31.2895C115.067 30.5158 116.294 30.1289 117.805 30.1289C118.835 30.1289 119.752 30.329 120.559 30.7259C121.366 31.1227 121.99 31.673 122.433 32.3733C122.877 33.0737 123.097 33.8407 123.097 34.6711H121.109C121.109 33.7606 120.819 33.047 120.242 32.5267C119.665 32.0065 118.852 31.7464 117.801 31.7464C116.827 31.7464 116.064 31.9598 115.52 32.39C114.973 32.8202 114.7 33.4171 114.7 34.1808C114.7 34.7945 114.96 35.3114 115.477 35.7349C115.994 36.1584 116.877 36.5453 118.125 36.8955C119.372 37.2456 120.346 37.6325 121.049 38.056C121.753 38.4796 122.277 38.9698 122.617 39.5334C122.957 40.097 123.127 40.7607 123.127 41.521C123.127 42.7383 122.654 43.7087 121.706 44.4424C120.759 45.1728 119.492 45.5396 117.905 45.5396C116.874 45.5396 115.914 45.3429 115.02 44.946C114.126 44.5525 113.439 44.0089 112.956 43.3219C112.472 42.6349 112.229 41.8545 112.229 40.9841H114.216C114.216 41.8912 114.55 42.6082 115.22 43.1318C115.89 43.6587 116.784 43.9188 117.905 43.9188C118.948 43.9188 119.749 43.7054 120.306 43.2785C120.863 42.8517 121.139 42.2714 121.139 41.5377C121.139 40.804 120.883 40.2337 120.366 39.8335C119.852 39.43 118.915 39.0365 117.564 38.643L117.571 38.6496Z" fill="#F5F5F5"/>
</svg>
