<svg width="14" height="14" viewBox="0 0 14 14" fill="none" xmlns="http://www.w3.org/2000/svg">
<path d="M7 5.5C6.175 5.5 5.5 6.175 5.5 7C5.5 7.825 6.175 8.5 7 8.5C7.825 8.5 8.5 7.825 8.5 7C8.5 6.175 7.825 5.5 7 5.5ZM12.25 0.25H1.75C0.9175 0.25 0.25 0.925 0.25 1.75V12.25C0.25 13.075 0.9175 13.75 1.75 13.75H12.25C13.0825 13.75 13.75 13.075 13.75 12.25V1.75C13.75 0.925 13.0825 0.25 12.25 0.25ZM10.9375 7C10.9375 7.1725 10.9225 7.345 10.9 7.51L12.01 8.38C12.1075 8.4625 12.1375 8.605 12.07 8.7175L11.02 10.5325C10.9525 10.645 10.8175 10.69 10.6975 10.645L9.3925 10.12C9.1225 10.33 8.8225 10.5025 8.5075 10.6375L8.3125 12.025C8.29 12.1525 8.1775 12.25 8.05 12.25H5.95C5.8225 12.25 5.71 12.1525 5.6875 12.0325L5.4925 10.645C5.17 10.51 4.8775 10.3375 4.6075 10.1275L3.3025 10.6525C3.1825 10.6975 3.0475 10.6525 2.98 10.54L1.93 8.725C1.8625 8.6125 1.8925 8.47 1.99 8.3875L3.1 7.5175C3.0775 7.345 3.0625 7.1725 3.0625 7C3.0625 6.8275 3.0775 6.655 3.1 6.49L1.99 5.62C1.8925 5.5375 1.8625 5.395 1.93 5.2825L2.98 3.4675C3.0475 3.355 3.1825 3.31 3.3025 3.355L4.6075 3.88C4.8775 3.67 5.1775 3.4975 5.4925 3.3625L5.6875 1.975C5.71 1.8475 5.8225 1.75 5.95 1.75H8.05C8.1775 1.75 8.29 1.8475 8.3125 1.9675L8.5075 3.355C8.83 3.49 9.1225 3.6625 9.3925 3.8725L10.6975 3.3475C10.8175 3.3025 10.9525 3.3475 11.02 3.46L12.07 5.275C12.1375 5.3875 12.1075 5.53 12.01 5.6125L10.9 6.4825C10.9225 6.655 10.9375 6.8275 10.9375 7Z" fill="#4E72B6"/>
</svg>
