<svg width="21" height="20" viewBox="0 0 21 20" fill="none" xmlns="http://www.w3.org/2000/svg">
<g clip-path="url(#clip0_10934_3660)">
<path d="M9 18.5C13.9706 18.5 18 14.4706 18 9.5C18 4.52944 13.9706 0.5 9 0.5C4.02944 0.5 0 4.52944 0 9.5C0 14.4706 4.02944 18.5 9 18.5Z" fill="#627EEA"/>
<path d="M9.28125 2.75V7.73938L13.4983 9.62377L9.28125 2.75Z" fill="white" fill-opacity="0.602"/>
<path d="M9.28012 2.75L5.0625 9.62377L9.28012 7.73938V2.75Z" fill="white"/>
<path d="M9.28125 12.8601V16.2503L13.5011 10.4121L9.28125 12.8601Z" fill="white" fill-opacity="0.602"/>
<path d="M9.28012 16.2503V12.8595L5.0625 10.4121L9.28012 16.2503Z" fill="white"/>
<path d="M9.28125 12.072L13.4983 9.62347L9.28125 7.74023V12.072Z" fill="white" fill-opacity="0.2"/>
<path d="M5.0625 9.62347L9.28012 12.072V7.74023L5.0625 9.62347Z" fill="white" fill-opacity="0.602"/>
</g>
<g clip-path="url(#clip1_10934_3660)">
<path d="M16 20C18.4853 20 20.5 17.9853 20.5 15.5C20.5 13.0147 18.4853 11 16 11C13.5147 11 11.5 13.0147 11.5 15.5C11.5 17.9853 13.5147 20 16 20Z" fill="#8DA8FF"/>
<path d="M17.0834 18.2492C16.4931 18.2492 15.9928 18.0836 15.5431 17.7633C15.3099 17.5972 15.1036 17.4008 14.9175 17.1837C14.8326 17.0844 14.8107 16.9705 14.8562 16.8482C14.9006 16.7275 14.99 16.654 15.1182 16.6333C15.2857 16.6058 15.4504 16.5659 15.6089 16.5037C15.9529 16.3679 16.2306 16.1479 16.4459 15.8483C16.4622 15.8253 16.4774 15.8018 16.4965 15.781C16.6005 15.6671 16.7292 15.6239 16.8799 15.6536C17.0985 15.6968 17.2537 15.8562 17.2891 16.0761C17.3116 16.2158 17.2779 16.3438 17.1941 16.4582C17.0457 16.6613 16.8726 16.8414 16.6741 16.9974C16.6629 17.0058 16.6517 17.0142 16.641 17.0232C16.6089 17.0501 16.5932 17.0844 16.6016 17.1265C16.6101 17.1691 16.6354 17.1994 16.6775 17.2106C16.7388 17.2269 16.8006 17.2432 16.863 17.2549C17.1986 17.3172 17.5252 17.2779 17.8439 17.1601C17.8984 17.1399 17.9524 17.118 18.0109 17.1102C18.243 17.0788 18.4712 17.2246 18.5353 17.4496C18.5662 17.5574 18.5646 17.6656 18.5241 17.7706C18.4831 17.8766 18.4083 17.9523 18.3026 17.9933C18.0283 18.0999 17.7455 18.1785 17.4532 18.2194C17.3183 18.2385 17.1829 18.2475 17.0834 18.2492Z" fill="white"/>
<path d="M13.4384 16.3006C13.2945 16.2911 13.1495 16.2215 13.0539 16.0689C12.9983 15.9797 12.9909 15.881 13.0084 15.7789C13.0517 15.5286 13.1118 15.2834 13.2017 15.0455C13.3473 14.6601 13.5576 14.3161 13.8577 14.03C14.0876 13.8106 14.3518 13.644 14.643 13.5189C14.8881 13.4134 15.1428 13.3404 15.4047 13.2933C15.5295 13.2709 15.6363 13.3096 15.7184 13.4061C15.8021 13.5043 15.8224 13.6176 15.778 13.7388C15.742 13.8381 15.7071 13.9374 15.6813 14.0401C15.6312 14.2393 15.6121 14.4413 15.6273 14.646C15.6447 14.8806 15.7088 15.1033 15.8083 15.3165C15.8673 15.4422 15.8628 15.5679 15.7926 15.6885C15.6925 15.8613 15.4851 15.9578 15.2872 15.9264C15.0995 15.8967 14.9668 15.7946 14.8887 15.6223C14.7903 15.4052 14.7251 15.1779 14.6863 14.9429C14.6818 14.9154 14.6773 14.8873 14.6739 14.8598C14.6644 14.7846 14.5638 14.7369 14.4958 14.7998C14.453 14.8396 14.4126 14.8817 14.3743 14.9255C14.1652 15.165 14.0342 15.4428 13.9707 15.753C13.9589 15.8097 13.9516 15.8681 13.9387 15.9247C13.8898 16.1452 13.6958 16.3006 13.4367 16.3012H13.4384V16.3006Z" fill="white"/>
<path d="M18.7411 14.5549C18.7411 14.8584 18.6961 15.1395 18.618 15.4155C18.5938 15.5014 18.5668 15.5872 18.5365 15.6708C18.4949 15.7859 18.4117 15.8594 18.2914 15.884C18.1582 15.911 18.0457 15.8711 17.9586 15.7662C17.8827 15.6748 17.8035 15.5867 17.7163 15.5059C17.4308 15.2433 17.0969 15.0823 16.7129 15.025C16.6573 15.0166 16.6011 15.0138 16.546 15.0048C16.4206 14.9852 16.3239 14.9196 16.2638 14.809C16.0873 14.4842 16.3009 14.1189 16.6252 14.065C16.6966 14.0533 16.7675 14.0594 16.8383 14.069C17.0772 14.1004 17.3082 14.1616 17.5308 14.2541C17.6033 14.2844 17.6742 14.2401 17.6843 14.1739C17.6865 14.1576 17.6843 14.1391 17.6809 14.1228C17.6224 13.8877 17.5218 13.6723 17.3751 13.4787C17.2706 13.3413 17.1491 13.2212 17.0137 13.114C16.9175 13.0377 16.8552 12.9401 16.8372 12.8183C16.8079 12.6203 16.8737 12.4593 17.0373 12.342C17.0991 12.2977 17.1677 12.2651 17.2441 12.2545C17.3633 12.2376 17.469 12.2685 17.5617 12.3442C17.6208 12.3931 17.6792 12.4424 17.7366 12.4935C17.958 12.6932 18.1559 12.9132 18.3195 13.1628C18.5033 13.4439 18.6326 13.7475 18.6967 14.0774C18.7281 14.2395 18.7433 14.4039 18.7422 14.5537L18.7411 14.5549Z" fill="white"/>
</g>
<defs>
<clipPath id="clip0_10934_3660">
<rect width="18" height="18" fill="white" transform="translate(0 0.5)"/>
</clipPath>
<clipPath id="clip1_10934_3660">
<rect width="9" height="9" fill="white" transform="translate(11.5 11)"/>
</clipPath>
</defs>
</svg>
