<svg xmlns="http://www.w3.org/2000/svg" width="18" height="19" viewBox="0 0 18 19" fill="none">
  <g clip-path="url(#clip0_10893_19009)">
    <path d="M9 18.5C13.9706 18.5 18 14.4706 18 9.5C18 4.52944 13.9706 0.5 9 0.5C4.02944 0.5 0 4.52944 0 9.5C0 14.4706 4.02944 18.5 9 18.5Z" fill="#8DA8FF"/>
    <path d="M11.1672 15.0003C9.98676 15.0003 8.98618 14.6692 8.08679 14.0285C7.62022 13.6963 7.20763 13.3036 6.8355 12.8693C6.66574 12.6707 6.62189 12.4429 6.71296 12.1983C6.80177 11.957 6.98053 11.81 7.23686 11.7685C7.57188 11.7135 7.90129 11.6338 8.21832 11.5093C8.90636 11.2377 9.46174 10.7978 9.89233 10.1986C9.92493 10.1526 9.95528 10.1055 9.99351 10.064C10.2015 9.83617 10.4589 9.74977 10.7602 9.80924C11.1976 9.89564 11.5079 10.2143 11.5787 10.6542C11.6237 10.9336 11.5562 11.1895 11.3887 11.4184C11.0919 11.8246 10.7456 12.1848 10.3488 12.4968C10.3263 12.5136 10.3038 12.5304 10.2824 12.5484C10.2184 12.6022 10.1869 12.6707 10.2037 12.7549C10.2206 12.8401 10.2712 12.9007 10.3555 12.9232C10.4781 12.9557 10.6017 12.9883 10.7265 13.0118C11.3977 13.1364 12.0509 13.0578 12.6883 12.8222C12.7974 12.7818 12.9053 12.738 13.0222 12.7223C13.4865 12.6595 13.943 12.9512 14.0712 13.4012C14.133 13.6167 14.1296 13.8332 14.0487 14.0431C13.9666 14.2552 13.8171 14.4067 13.6057 14.4886C13.0571 14.7018 12.4916 14.8589 11.907 14.9408C11.6372 14.9789 11.3662 14.9969 11.1672 15.0003Z" fill="white"/>
    <path d="M3.87679 11.1013C3.58899 11.0822 3.29893 10.9431 3.10781 10.6378C2.99651 10.4594 2.98189 10.2619 3.01675 10.0577C3.10331 9.55723 3.22361 9.06685 3.40349 8.59106C3.69467 7.82015 4.11513 7.13228 4.71548 6.55999C5.1753 6.12123 5.7037 5.78795 6.28606 5.53772C6.77623 5.32675 7.28551 5.18087 7.80941 5.08661C8.05899 5.04173 8.2726 5.11916 8.43674 5.31216C8.60425 5.50854 8.64473 5.73521 8.55591 5.97759C8.48396 6.17621 8.41426 6.37483 8.36254 6.58018C8.26248 6.97854 8.22426 7.38252 8.25461 7.7921C8.28946 8.26115 8.41763 8.70664 8.61662 9.13306C8.73467 9.38442 8.72567 9.63578 8.58514 9.87704C8.38503 10.2227 7.97018 10.4157 7.57444 10.3528C7.19894 10.2934 6.93362 10.0891 6.77735 9.74462C6.58061 9.31035 6.4502 8.85589 6.37262 8.38571C6.36363 8.33073 6.35463 8.27462 6.34789 8.21963C6.32878 8.06927 6.12754 7.97388 5.9915 8.09956C5.90606 8.17924 5.82511 8.2634 5.74867 8.35092C5.33045 8.83008 5.0685 9.38554 4.94146 10.0061C4.91785 10.1194 4.90323 10.2361 4.87737 10.3495C4.77956 10.7905 4.3917 11.1013 3.87342 11.1024H3.87679V11.1013Z" fill="white"/>
    <path d="M14.4826 7.60972C14.4826 8.2168 14.3927 8.77899 14.2364 9.33109C14.1881 9.50277 14.1341 9.67446 14.0734 9.84166C13.9902 10.0717 13.8238 10.2187 13.5832 10.2681C13.3168 10.3219 13.0919 10.2423 12.9177 10.0324C12.7659 9.84952 12.6074 9.67334 12.4331 9.51175C11.862 8.98659 11.1942 8.66454 10.4264 8.55008C10.3151 8.53325 10.2026 8.52763 10.0925 8.50968C9.84175 8.4704 9.64838 8.33911 9.52808 8.11805C9.17507 7.46833 9.60228 6.73782 10.251 6.63009C10.3938 6.60653 10.5354 6.61887 10.6771 6.63795C11.1549 6.70079 11.6169 6.8231 12.0621 7.00825C12.2072 7.06885 12.3488 6.9802 12.3691 6.84779C12.3736 6.81525 12.3691 6.77822 12.3623 6.74567C12.2454 6.2755 12.0441 5.84459 11.7507 5.45745C11.5416 5.18253 11.2988 4.94239 11.0278 4.72806C10.8356 4.57545 10.7108 4.3802 10.6748 4.13669C10.6164 3.74058 10.7479 3.41852 11.075 3.184C11.1987 3.09535 11.3359 3.03026 11.4888 3.00894C11.7271 2.97528 11.9385 3.037 12.124 3.18848C12.242 3.28611 12.3589 3.38486 12.4736 3.48697C12.9166 3.88646 13.3123 4.32634 13.6395 4.82569C14.0071 5.38788 14.2657 5.99496 14.3938 6.65478C14.4568 6.97908 14.4871 7.30787 14.4849 7.60748L14.4826 7.60972Z" fill="white"/>
  </g>
  <defs>
    <clipPath id="clip0_10893_19009">
      <rect width="18" height="18" fill="white" transform="translate(0 0.5)"/>
    </clipPath>
  </defs>
</svg>