<?xml version="1.0" encoding="UTF-8"?>
<svg id="Layer_1" data-name="Layer 1" xmlns="http://www.w3.org/2000/svg" viewBox="0 0 1009.74 781">
  <defs>
    <style>
      .cls-1 {
        fill: #f9ecb4;
      }

      .cls-2 {
        fill: #facf01;
      }

      .cls-3 {
        fill: #deca6b;
      }

      .cls-4 {
        fill: #e3b206;
      }

      .cls-5 {
        fill: #fdfdfd;
      }
    </style>
  </defs>
   <g>
    <path class="cls-4" d="M354.58,343.67c.31-5.39,1.1-10.95,1.75-16.33s1.71-10.39,2.14-15.63c-.39-1.19-3.8-.96-4.87-1.26-11.48-3.2-17.46-15.11-15.04-26.57,3.67-17.36,27.79-21.98,38.49-7.99,6.66,8.71,5.75,20.43-1.55,28.37-.95,1.04-2.17,2.47-3.5,2.83v.86s55.75,68.39,55.75,68.39c-.06.13-.57.28-.7.58-8.83,18.69-17.41,37.5-26.54,56.04-.53.12-2.46-1.32-3.02-1.75-14.02-10.59-28.03-23.23-41.83-34.4-1.67-1.35-6.34-3.9-6.75-6.1-.16-.87-.02-2.48,0-3.48.19-11.64,3.34-24.77,4.36-36.59,1.52.05,1.2.27,1.31-1.07.15-1.93-.11-3.96,0-5.9Z"/>
    <path class="cls-4" d="M577.62,374.17l53.6-66.44c.14-1.39-2.4-2.36-3.47-3.6-6.44-7.42-7.18-19.18-1.76-27.21,9.17-13.58,30.46-12.14,37.39,2.66,5.71,12.2-1.13,27.45-14.2,30.89-.85.22-3.83-.08-4.05.83l9.6,80.29c-12.5,10.28-25.14,20.62-37.67,30.94-2.9,2.38-7.02,6.89-10,8.72-.57.35-1.04.53-1.73.44-4.9-10.1-9.6-20.31-14.51-30.4-4.33-8.9-8.92-18.02-13.19-27.13Z"/>
    <path class="cls-3" d="M354.58,343.67c-.11,1.94.15,3.97,0,5.9-.11,1.34.21,1.12-1.31,1.07.16-1.91-.22-3.88.11-5.79.13-.73.24-1.39,1.19-1.18Z"/>
    <path class="cls-2" d="M427.77,376.34c1.36-2.89,2.25-6.2,3.64-9,.12-.25,1.14-.46.78-1.85l1.19-.07c-.56-2.26.66-2.31,1.06-3.12,9-18.54,17.51-38.1,26.16-56.8,9.11-19.71,18.84-39.25,27.19-58.83.52-1.21,1.77-2.11,1.37-3.57-2.27-1.18-5.18-3.15-6.9-5.17-15.41-18.03-3.84-46.69,19.77-47.15,11.61-.23,22.51,5.95,26.86,16.65,2.55,6.28,3.63,12.11,1.49,19.54-1.85,6.41-7.72,13.75-13.73,16.54v.86c.51-.04.75.1,1,.54,2.46,4.22,4.32,9.53,6.3,13.71,18.15,38.33,35.84,77.51,53.68,115.56,4.27,9.1,8.86,18.23,13.19,27.13,4.91,10.1,9.62,20.31,14.51,30.4.69.09,1.15-.09,1.73-.44,2.99-1.84,7.11-6.34,10-8.72,12.53-10.32,25.17-20.66,37.67-30.94,26.37-21.68,53.63-42.98,79.38-65.36.7-.61,3.47-3.31,3.3-4.04-.25-1.13-2.36-2.33-2.83-3.04-1.38-2.11-3.32-8.6-3.64-11.39-3.3-28.84,34.92-40.88,49.11-16.89,9.06,15.32.94,34.56-15.56,39.53-4.45,1.34-9.22,1.67-13.66.19-.27.06-.85,1.43-.94,1.76-3.74,14.38-9.84,29.74-13.73,45-3.31,12.99-8.54,27.19-12.28,39.19-10.59,33.99-21.04,66.29-31.29,101.06-.09.3-1.61,1.13-.84,2.94l-381.96-.08c-2.56-8.48-5.31-16.99-7.81-25.51-8-27.2-15.52-55.12-23.74-82.97-.6-2.04-1.87-3.99-1.6-6.19l-1.29-.27c.7-1.8-.87-2.72-.91-2.89-1.69-7.62-4.15-15.77-6.22-22.88-4.08-14-8.41-28.59-12.18-41.83-.6-2.09-1.82-4.16-1.64-6.42-2.81-.27-6.18.37-8.91-.02-14.65-2.09-26.3-17.41-22.47-32.45.88-3.45,1.34-5.58,3.52-9.01,11.15-17.55,38.89-15.13,46.8,4.03,4.25,10.3,1.81,22.32-5.87,29.82.3.59,1.22.48,1.6.79,23.97,20.08,48.05,40.64,72.37,60.81,1.44,1.2,3.51,2.27,4.87,3.52.6.55.64,2.42,2.61,1.74.41,2.2,5.08,4.74,6.75,6.1,13.79,11.17,27.8,23.81,41.83,34.4.56.42,2.48,1.87,3.02,1.75,9.14-18.54,17.72-37.36,26.54-56.04.14-.29.64-.45.7-.58Z"/>
    <path class="cls-1" d="M348.92,387.23c-.02,1-.16,2.61,0,3.48-1.97.68-2.02-1.2-2.61-1.74,1.23.16,1.38-1.9,2.61-1.74Z"/>
    <g>
      <path class="cls-2" d="M303.62,554.5c-.21-2.52.17-5.05.27-7.55.03-.9-.44-1.97-.3-3.14.04-.33.83-3.55.92-3.8.11-.33.62-.24.82-.67.91-2,3.4-5.19,5.4-6.48,1.39-.9,3.62-.63,4.85-1.91l369,.02c4.78.99,9.69,4.06,11.57,8.36.19.43.7.35.81.68.17.51.33,2.34.46,3.17-1.12,1.18.08,4.04-.55,5.13-.29.5-4.23,3.53-4.97,3.96-6.98,4.03-20.88,3.94-29.12,4.86-87.79,9.77-175.43,11.11-263.55,5.23-26.04-1.74-53.43-3.28-79.22-7.03-4.55-.66-9.33-2-13.05-4.81-1.19-.9-1.69-2.77-2.91-1.86-.09,1.59.14,3.21.02,4.8-.04.56-.45,1-.45,1.05Z"/>
      <path class="cls-4" d="M697.41,543.17c.9,5.68,1.14,21.74-.64,27.02-3.43,10.18-13.19,9.51-21.75,10.49-113.25,12.99-235.74,13.88-349.02,0-5.49-.67-11.38-.12-16-3.61-7.66-5.79-6.87-13.62-6.38-22.58,0-.06.41-.49.45-1.05.12-1.58-.11-3.21-.02-4.8,1.22-.91,1.72.96,2.91,1.86,3.73,2.81,8.5,4.14,13.05,4.81,25.8,3.75,53.18,5.29,79.22,7.03,88.12,5.88,175.76,4.54,263.55-5.23,8.24-.92,22.14-.83,29.12-4.86.74-.43,4.68-3.45,4.97-3.96.63-1.09-.58-3.95.55-5.13Z"/>
    </g>
  </g>
</svg>