<svg width="32" height="32" viewBox="0 0 32 32" fill="none" xmlns="http://www.w3.org/2000/svg">
<path d="M25.7675 7.10302C23.9044 6.26459 21.948 5.61248 19.9917 5.33301C19.7122 5.7988 19.4327 6.35775 19.2464 6.82355C17.1038 6.54407 14.9611 6.54407 12.8185 6.82355C12.6322 6.26459 12.3527 5.7988 12.0732 5.33301C10.1169 5.70564 8.16056 6.26459 6.29738 7.10302C2.66419 12.5062 1.63945 17.8163 2.10524 23.1263C4.24789 24.71 6.67002 25.9211 9.18531 26.6663C9.74426 25.9211 10.3032 25.0826 10.6758 24.2442C9.83739 23.9647 8.99899 23.5921 8.25372 23.1263C8.44004 22.94 8.62633 22.8468 8.81265 22.6605C13.2843 24.8032 18.5012 24.8032 22.9728 22.6605C23.1591 22.8468 23.3454 22.94 23.5317 23.1263C22.7865 23.5921 21.948 23.9647 21.1096 24.2442C21.5754 25.0826 22.0412 25.9211 22.6001 26.6663C25.1154 25.9211 27.5376 24.71 29.6802 23.1263C30.5186 17.071 28.9349 11.761 25.7675 7.10302ZM11.4211 19.8658C10.0237 19.8658 8.90581 18.5615 8.90581 17.071C8.90581 15.5805 10.0237 14.2762 11.4211 14.2762C12.8185 14.2762 13.9364 15.5805 13.9364 17.071C13.9364 18.6547 12.8185 19.8658 11.4211 19.8658ZM20.737 19.8658C19.3396 19.8658 18.2217 18.5615 18.2217 17.071C18.2217 15.5805 19.3396 14.2762 20.737 14.2762C22.1344 14.2762 23.2522 15.5805 23.2522 17.071C23.1591 18.6547 22.1344 19.8658 20.737 19.8658Z" fill="white"/>
</svg>
  