<?xml version="1.0" encoding="UTF-8"?>
<svg id="katman_1" data-name="katman 1" xmlns="http://www.w3.org/2000/svg" version="1.1" viewBox="0 0 2500 2500">
  <defs>
    <style>
      .cls-1 {
        fill-opacity: .2;
      }

      .cls-1, .cls-2, .cls-3, .cls-4, .cls-5 {
        stroke-width: 0px;
      }

      .cls-1, .cls-3, .cls-5 {
        fill: #fff;
      }

      .cls-2 {
        fill: #627eea;
      }

      .cls-3 {
        fill-opacity: .6;
      }

      .cls-4 {
        fill: #fcfc03;
      }
    </style>
  </defs>
  <g>
    <circle class="cls-2" cx="1250" cy="1250" r="1250"/>
    <g>
      <path class="cls-3" d="M1288.9,312.5v693l585.7,261.7-585.7-954.7Z"/>
      <path class="cls-5" d="M1288.9,312.5l-585.8,954.7,585.8-261.7V312.5Z"/>
      <path class="cls-3" d="M1288.9,1716.2v470.9l586.1-810.9-586.1,340Z"/>
      <path class="cls-5" d="M1288.9,2187.1v-470.9l-585.8-339.9,585.8,810.9Z"/>
      <path class="cls-1" d="M1288.9,1607.3l585.7-340.1-585.7-261.6v601.6h0Z"/>
      <path class="cls-3" d="M703.1,1267.2l585.8,340.1v-601.6l-585.8,261.6Z"/>
    </g>
  </g>
  <text/>
  <path class="cls-4" d="M2174.8,436.6l149.2-74.4,51.4-157.9-102.9-74.9h-685.1l-158.4,117.7h805.3l-42.8,132.4h-322.9l-31.1,96.8h322.9l-90.7,278.6,151.3-74.9,54-167.1-101.4-74.4,1-2Z"/>
  <path class="cls-4" d="M1656.8,635.2l93.2-290.3-103.4-77.4-155.3,487.4h578.6l38.7-119.7h-451.8Z"/>
</svg>