<svg viewBox="0 0 2500 2500" xmlns="http://www.w3.org/2000/svg"><circle cx="1250" cy="1250" fill="#627eea" r="1250"/><g fill="#fff"><path d="m1288.9 312.5v693l585.7 261.7z" fill-opacity=".6"/><path d="m1288.9 312.5-585.8 954.7 585.8-261.7z"/><path d="m1288.9 1716.2v470.9l586.1-810.9z" fill-opacity=".6"/><path d="m1288.9 2187.1v-470.9l-585.8-339.9 585.8 810.9z"/><path d="m1288.9 1607.3 585.7-340.1-585.7-261.6v601.6z" fill-opacity=".2"/><path d="m703.1 1267.2 585.8 340.1v-601.6l-585.8 261.6z" fill-opacity=".6"/></g><text/><path d="m2174.8 436.6 149.2-74.4 51.4-157.9-102.9-74.9h-685.1l-158.4 117.7h805.3l-42.8 132.4h-322.9l-31.1 96.8h322.9l-90.7 278.6 151.3-74.9 54-167.1-101.4-74.4 1-2z" fill="#fcfc03"/><path d="m1656.8 635.2 93.2-290.3-103.4-77.4-155.3 487.4h578.6l38.7-119.7z" fill="#fcfc03"/></svg>