<svg width="14" height="14" viewBox="0 0 14 14" fill="none" xmlns="http://www.w3.org/2000/svg">
<path d="M7 6.25C7.4125 6.25 7.76563 6.10313 8.05938 5.80938C8.35313 5.51562 8.5 5.1625 8.5 4.75C8.5 4.3375 8.35313 3.98438 8.05938 3.69063C7.76563 3.39688 7.4125 3.25 7 3.25C6.5875 3.25 6.23438 3.39688 5.94063 3.69063C5.64688 3.98438 5.5 4.3375 5.5 4.75C5.5 5.1625 5.64688 5.51562 5.94063 5.80938C6.23438 6.10313 6.5875 6.25 7 6.25ZM3.25 6.1V3.25H1.75V4C1.75 4.475 1.8875 4.90313 2.1625 5.28438C2.4375 5.66563 2.8 5.9375 3.25 6.1ZM10.75 6.1C11.2 5.9375 11.5625 5.66563 11.8375 5.28438C12.1125 4.90313 12.25 4.475 12.25 4V3.25H10.75V6.1ZM6.25 12.25V9.925C5.6375 9.7875 5.09063 9.52813 4.60938 9.14688C4.12813 8.76562 3.775 8.2875 3.55 7.7125C2.6125 7.6 1.82813 7.19063 1.19688 6.48438C0.565625 5.77813 0.25 4.95 0.25 4V3.25C0.25 2.8375 0.396875 2.48438 0.690625 2.19063C0.984375 1.89688 1.3375 1.75 1.75 1.75H3.25C3.25 1.3375 3.39688 0.984375 3.69063 0.690625C3.98438 0.396875 4.3375 0.25 4.75 0.25H9.25C9.6625 0.25 10.0156 0.396875 10.3094 0.690625C10.6031 0.984375 10.75 1.3375 10.75 1.75H12.25C12.6625 1.75 13.0156 1.89688 13.3094 2.19063C13.6031 2.48438 13.75 2.8375 13.75 3.25V4C13.75 4.95 13.4344 5.77813 12.8031 6.48438C12.1719 7.19063 11.3875 7.6 10.45 7.7125C10.225 8.2875 9.87188 8.76562 9.39062 9.14688C8.90938 9.52813 8.3625 9.7875 7.75 9.925V12.25H10C10.2125 12.25 10.3906 12.3219 10.5344 12.4656C10.6781 12.6094 10.75 12.7875 10.75 13C10.75 13.2125 10.6781 13.3906 10.5344 13.5344C10.3906 13.6781 10.2125 13.75 10 13.75H4C3.7875 13.75 3.60938 13.6781 3.46563 13.5344C3.32188 13.3906 3.25 13.2125 3.25 13C3.25 12.7875 3.32188 12.6094 3.46563 12.4656C3.60938 12.3219 3.7875 12.25 4 12.25H6.25Z" fill="#4E72B6"/>
</svg>
