<svg width="14" height="14" viewBox="0 0 14 14" fill="none" xmlns="http://www.w3.org/2000/svg">
<path d="M7 11.5C7.2625 11.5 7.48438 11.4094 7.66562 11.2281C7.84687 11.0469 7.9375 10.825 7.9375 10.5625C7.9375 10.3 7.84687 10.0781 7.66562 9.89688C7.48438 9.71562 7.2625 9.625 7 9.625C6.7375 9.625 6.51562 9.71562 6.33438 9.89688C6.15313 10.0781 6.0625 10.3 6.0625 10.5625C6.0625 10.825 6.15313 11.0469 6.33438 11.2281C6.51562 11.4094 6.7375 11.5 7 11.5ZM6.325 8.6125H7.7125C7.7125 8.1625 7.7625 7.83125 7.8625 7.61875C7.9625 7.40625 8.175 7.1375 8.5 6.8125C8.9375 6.375 9.24687 6.00938 9.42813 5.71562C9.60938 5.42188 9.7 5.0875 9.7 4.7125C9.7 4.05 9.475 3.51562 9.025 3.10938C8.575 2.70312 7.96875 2.5 7.20625 2.5C6.51875 2.5 5.93437 2.66875 5.45312 3.00625C4.97188 3.34375 4.6375 3.8125 4.45 4.4125L5.6875 4.9C5.775 4.5625 5.95 4.29063 6.2125 4.08438C6.475 3.87813 6.78125 3.775 7.13125 3.775C7.46875 3.775 7.75 3.86562 7.975 4.04688C8.2 4.22813 8.3125 4.46875 8.3125 4.76875C8.3125 4.98125 8.24375 5.20625 8.10625 5.44375C7.96875 5.68125 7.7375 5.94375 7.4125 6.23125C7 6.59375 6.71563 6.94063 6.55938 7.27188C6.40313 7.60313 6.325 8.05 6.325 8.6125ZM1.75 13.75C1.3375 13.75 0.984375 13.6031 0.690625 13.3094C0.396875 13.0156 0.25 12.6625 0.25 12.25V1.75C0.25 1.3375 0.396875 0.984375 0.690625 0.690625C0.984375 0.396875 1.3375 0.25 1.75 0.25H12.25C12.6625 0.25 13.0156 0.396875 13.3094 0.690625C13.6031 0.984375 13.75 1.3375 13.75 1.75V12.25C13.75 12.6625 13.6031 13.0156 13.3094 13.3094C13.0156 13.6031 12.6625 13.75 12.25 13.75H1.75ZM1.75 12.25H12.25V1.75H1.75V12.25Z" fill="#4E72B6"/>
</svg>
