<svg width="32" height="32" viewBox="0 0 32 32" fill="none" xmlns="http://www.w3.org/2000/svg">
<path fill-rule="evenodd" clip-rule="evenodd" d="M7.2 7.86667C5.33333 9.86667 4 12.6667 4 16.2667C4 18.9333 4.93333 21.4667 6.4 23.4667C8.13333 25.7333 10.6667 27.0667 12 27.6V26.6667C12 26.6667 12 24.5333 13.2 22.6667C10.5333 22.5333 8.4 20 8.4 17.0667C8.4 16 8.8 15.0667 9.46667 14.2667L9.6 11.7333C9.6 11.0667 10.2667 10.6667 10.9333 10.8L13.7333 11.8667C14.5333 11.7333 15.3333 11.6 16.2667 11.6C17.2 11.6 18 11.7333 18.8 11.8667L21.2 10.6667C21.8667 10.4 22.5333 10.9333 22.5333 11.6L22.6667 14.1333C23.3333 14.9333 23.7333 16 23.7333 16.9333C23.7333 19.8667 21.6 22.2667 18.9333 22.5333C20.1333 24.4 20.1333 26.5333 20.1333 26.5333V27.4667C21.4667 26.9333 24 25.6 25.7333 23.3333C27.2 21.4667 28.1333 18.8 28.1333 16.1333C28.1333 12.5333 26.8 9.73333 24.9333 7.73333C22.4 5.2 18.9333 4 16 4C13.0667 4 9.6 5.2 7.2 7.86667V7.86667Z" stroke="white" stroke-width="2" stroke-linecap="round" stroke-linejoin="round"/>
</svg>
