<svg width="38" height="39" viewBox="0 0 38 39" fill="none" xmlns="http://www.w3.org/2000/svg">
<path d="M31.094 28.146C31.6328 28.6831 32.0832 29.1448 32.5528 29.5855C32.6396 29.667 32.8034 29.6977 32.9313 29.6994C34.1282 29.7108 35.1314 30.6089 35.2987 31.8312C35.4573 32.9886 34.6907 34.1381 33.5429 34.4623C32.4048 34.7838 31.1588 34.2249 30.7137 33.1445C30.5771 32.8125 30.5797 32.4243 30.5114 32.0633C30.4903 31.9529 30.4781 31.818 30.4088 31.7444C29.9646 31.2774 29.5064 30.8236 28.9351 30.2479C28.8484 30.396 28.7949 30.5528 28.6889 30.6553C28.1553 31.1732 27.4097 31.2652 26.7876 30.9077C26.1805 30.559 25.8878 29.8756 26.028 29.1676C26.0482 29.0651 26.0429 28.91 25.9807 28.8461C25.3174 28.167 24.6393 27.5011 23.9602 26.8256C23.5774 27.1787 23.2295 27.5598 22.823 27.8639C21.7821 28.6419 20.7149 29.3849 19.6591 30.1428C19.4532 30.2909 19.2587 30.2637 19.0502 30.1393C17.3776 29.1404 15.705 28.1425 14.4135 26.6048C14.3329 26.6705 14.2646 26.7178 14.2067 26.7757C13.618 27.3627 13.0353 27.9541 12.4413 28.5359C12.309 28.6656 12.2757 28.7803 12.3195 28.967C12.4789 29.646 12.1714 30.332 11.5791 30.6808C10.9895 31.0268 10.2412 30.9559 9.71988 30.4915C9.59897 30.3837 9.50435 30.2462 9.38081 30.1016C8.85248 30.6238 8.36182 31.1022 7.88431 31.5928C7.83174 31.6472 7.84138 31.7751 7.84401 31.8688C7.88081 33.2155 6.93893 34.2327 5.56247 34.3291C4.33758 34.415 3.20908 33.4459 3.05224 32.1729C2.89892 30.934 3.79524 29.7257 5.0245 29.5154C5.03501 29.5137 5.0464 29.5093 5.05692 29.5111C5.62555 29.6206 5.95061 29.2587 6.29231 28.8977C6.5832 28.5902 6.90826 28.3142 7.27713 27.9699C7.05896 27.785 6.88636 27.665 6.74617 27.5152C6.25113 26.9868 6.16352 26.2447 6.50873 25.6358C6.85481 25.0251 7.53034 24.7342 8.24442 24.8595C8.36445 24.8805 8.54319 24.8253 8.62993 24.7403C9.5429 23.8449 10.4375 22.9293 11.3522 22.0356C11.5362 21.856 11.5721 21.7079 11.4845 21.4687C10.7082 19.3615 10.4243 17.1702 10.4112 14.9378C10.4086 14.4147 10.4559 13.8899 10.5058 13.3677C10.5268 13.1495 10.4708 13.0041 10.3166 12.8516C9.42111 11.9684 8.5467 11.0651 7.64512 10.1881C6.27129 8.8519 5.76399 7.2082 5.86913 5.33583C5.88577 5.04582 6.04085 4.91527 6.33174 4.89687C8.33641 4.77158 10.0414 5.37701 11.4302 6.87263C12.3598 7.87322 13.3586 8.80984 14.3154 9.78502C14.4705 9.94273 14.5949 9.96813 14.7982 9.88753C16.2193 9.32503 17.4232 8.46463 18.4123 7.30108C18.4693 7.23449 18.5227 7.16527 18.5806 7.09956C18.8347 6.81393 19.0073 6.82357 19.299 7.07152C19.9632 7.63665 20.6107 8.22806 21.3221 8.72923C22.1843 9.33642 23.1664 9.71492 24.1898 9.97865C24.3957 10.0312 24.5289 10.0014 24.6805 9.8481C25.7091 8.80458 26.7649 7.78823 27.7768 6.72894C29.148 5.29378 30.8373 4.77947 32.7692 4.8995C33.033 4.91615 33.1705 5.06072 33.1854 5.31393C33.2923 7.13285 32.8376 8.75639 31.5189 10.0777C30.422 11.1764 29.3294 12.2795 28.2254 13.3712C28.0625 13.5324 27.9976 13.6848 28.0248 13.9153C28.3481 16.6112 27.9249 19.2073 26.9357 21.7193C26.8297 21.9874 26.8796 22.1434 27.0803 22.3388C27.9573 23.1939 28.8186 24.0639 29.6772 24.9366C29.8218 25.0838 29.9489 25.1381 30.1609 25.0908C30.8101 24.9454 31.4795 25.2503 31.8203 25.8154C32.1664 26.3884 32.1174 27.1445 31.6758 27.651C31.5198 27.8297 31.3113 27.9629 31.0923 28.146H31.094ZM11.6475 11.2815C11.6255 11.3306 11.601 11.3683 11.5923 11.4094C10.9956 14.2508 11.0779 17.0774 11.8174 19.8811C12.3142 21.7631 13.0371 23.5417 14.1997 25.1276C15.5298 26.9413 17.2891 28.2284 19.2246 29.3078C19.299 29.349 19.4532 29.3157 19.5347 29.2622C20.0096 28.9512 20.4687 28.6147 20.9427 28.302C23.3294 26.7301 25.0204 24.6089 26.0245 21.9313C26.7684 19.9477 27.3659 17.943 27.3423 15.7894C27.3239 14.1816 27.0917 12.6185 26.6098 11.073C23.6431 11.0204 21.1004 9.94535 18.9687 7.87935C16.9982 10.0733 14.5616 11.1992 11.6466 11.2815H11.6475ZM25.5128 10.167C25.5111 10.2038 25.5084 10.2406 25.5067 10.2774C25.9711 10.2774 26.4363 10.2581 26.898 10.2862C27.1074 10.2993 27.2371 10.2389 27.3764 10.0987C28.3998 9.06743 29.4284 8.04144 30.4588 7.0172C30.6813 6.79553 30.931 6.77187 31.087 6.95937C31.2692 7.17754 31.207 7.38256 31.0195 7.56743C30.9652 7.62088 30.9109 7.6752 30.8574 7.72952C29.7911 8.79494 28.7231 9.85949 27.6603 10.9284C27.5823 11.0064 27.4737 11.1317 27.4903 11.2132C27.5849 11.6802 27.7129 12.1402 27.8355 12.6256C27.8986 12.5774 27.9363 12.5546 27.9661 12.5248C29.007 11.4804 30.0522 10.4404 31.087 9.38899C31.5768 8.89132 31.9202 8.29728 32.1437 7.63665C32.3557 7.01194 32.4345 6.36971 32.3907 5.69857C31.0038 5.61533 29.7666 5.95704 28.7722 6.89278C27.6515 7.94681 26.5975 9.07269 25.5146 10.167H25.5128ZM6.66206 5.69769C6.60335 7.16702 7.03355 8.4217 8.03852 9.45645C8.83758 10.2792 9.6568 11.0835 10.4681 11.8948C10.5189 11.9456 10.5785 11.9886 10.6696 12.0648C10.7468 11.6548 10.8344 11.285 10.8755 10.91C10.8904 10.7742 10.8379 10.5867 10.745 10.4895C9.9179 9.61767 9.07502 8.76077 8.23741 7.89862C8.17608 7.83642 8.11124 7.77684 8.05516 7.71025C7.90184 7.52625 7.87818 7.32298 8.05078 7.15038C8.22251 6.97865 8.42491 6.9953 8.60803 7.15476C8.67374 7.21171 8.73244 7.27742 8.7929 7.3405C9.74529 8.31918 10.6968 9.29962 11.6518 10.2757C11.7316 10.3572 11.8446 10.4719 11.934 10.4649C12.4903 10.4229 13.0449 10.3501 13.6399 10.2827C13.5785 10.1784 13.568 10.146 13.547 10.125C12.4737 9.05079 11.424 7.95119 10.3166 6.91206C9.31071 5.96843 8.07006 5.61358 6.66118 5.69681L6.66206 5.69769ZM11.5817 29.1939C11.5195 29.087 11.4372 28.8539 11.2803 28.6927C10.3674 27.7552 9.44126 26.83 8.50639 25.9126C8.37409 25.783 8.18396 25.6796 8.00347 25.6393C7.66615 25.5622 7.34109 25.7462 7.18425 26.0441C7.01953 26.356 7.06948 26.7231 7.3481 27.007C8.00522 27.6764 8.67111 28.337 9.33437 29.0003C9.6349 29.3008 9.92929 29.6092 10.2412 29.8983C10.4979 30.1358 10.8063 30.1743 11.1226 30.0271C11.4161 29.8913 11.559 29.6451 11.5817 29.1939ZM31.3183 26.6661C31.2508 26.2911 31.087 26.0449 30.7838 25.9083C30.4483 25.7567 30.1399 25.8382 29.8849 26.0931C28.9342 27.0403 27.9836 27.9883 27.0409 28.9433C26.6974 29.2911 26.6921 29.7625 27.0032 30.0858C27.3247 30.4205 27.8084 30.4232 28.1685 30.0674C29.1147 29.1308 30.0566 28.1907 30.9862 27.2374C31.1352 27.085 31.2097 26.8589 31.3183 26.667V26.6661ZM34.5268 32.1168C34.5268 31.3081 33.931 30.6177 33.1328 30.502C32.9068 30.4696 32.7149 30.4985 32.5423 30.6851C32.2015 31.054 31.8274 31.3913 31.4874 31.7611C31.3884 31.8688 31.3104 32.0406 31.3052 32.1851C31.2727 33.0534 31.9851 33.757 32.8779 33.7631C33.776 33.7684 34.5268 33.0192 34.5277 32.1168H34.5268ZM3.82765 31.8793C3.8224 32.7003 4.41293 33.3899 5.23303 33.5204C6.00668 33.644 6.77245 33.1761 6.99325 32.4322C7.10715 32.0493 7.11153 31.7015 6.75318 31.4018C6.40271 31.1092 6.10657 30.7517 5.77012 30.4398C5.67812 30.3539 5.5283 30.2909 5.40213 30.2873C4.55838 30.2628 3.83291 31.0049 3.82765 31.8793ZM11.905 22.6813C10.9816 23.5925 10.0642 24.4959 9.15125 25.3966C9.46229 25.7059 9.77859 26.0204 10.1028 26.3437C10.8624 25.5858 11.6308 24.8244 12.3878 24.0534C12.4421 23.9982 12.4614 23.8519 12.429 23.7783C12.2625 23.3998 12.0741 23.0318 11.9042 22.6822L11.905 22.6813ZM29.184 25.613C28.2903 24.7246 27.3869 23.8265 26.481 22.9249C26.2847 23.3279 26.0779 23.7529 25.8904 24.1384C26.7097 24.9506 27.5052 25.7392 28.2771 26.5041C28.5689 26.2167 28.8852 25.9056 29.184 25.6121V25.613ZM25.4243 24.9305C25.1159 25.3545 24.8049 25.7838 24.5315 26.1606C25.2403 26.865 25.9264 27.5467 26.5791 28.1959C26.9234 27.8639 27.2967 27.5029 27.6585 27.1524C26.9199 26.4182 26.1778 25.6805 25.4243 24.9305ZM12.9389 24.6886C12.1854 25.4421 11.4372 26.1895 10.7143 26.9124C11.0779 27.2733 11.4547 27.6475 11.7903 27.9804C12.4535 27.3198 13.1396 26.6355 13.8282 25.9494C13.5382 25.5376 13.2307 25.1022 12.9389 24.6886ZM7.37263 30.8779C7.8186 30.4337 8.2707 29.9824 8.69126 29.5636C8.38548 29.2535 8.05955 28.924 7.76428 28.6261C7.3297 29.059 6.87847 29.5084 6.44126 29.9439C6.75055 30.2541 7.07999 30.5844 7.37263 30.877V30.8779ZM30.9258 31.0934C31.2535 30.7666 31.5882 30.4319 31.8685 30.1533C31.4392 29.7266 30.988 29.278 30.5911 28.8837C30.2958 29.1772 29.9681 29.5041 29.6431 29.8282C30.0566 30.2365 30.4982 30.672 30.9258 31.0934Z" fill="white"/>
<path d="M18.7827 18.2367C18.7354 15.7545 18.6889 13.3074 18.6407 10.7796C17.1337 12.1806 15.3919 12.9043 13.3496 12.9709C13.2672 13.5562 13.1875 14.1266 13.1051 14.6961C13.0543 15.0509 12.901 15.2165 12.66 15.1876C12.4015 15.1561 12.2798 14.9432 12.3323 14.5813C12.4252 13.9329 12.5295 13.2863 12.6241 12.6388C12.6714 12.3164 12.8353 12.1745 13.1752 12.1727C15.3823 12.1631 17.2003 11.3123 18.6223 9.62044C18.9132 9.27435 19.0876 9.26647 19.4021 9.58714C20.9714 11.1897 22.8674 12.0185 25.1183 12.0036C25.4144 12.0019 25.5835 12.1193 25.6641 12.4075C26.0593 13.8243 26.309 15.256 26.2722 16.7376C26.2319 18.3479 25.785 19.855 25.2365 21.3471C24.398 23.6286 22.9708 25.4379 20.9381 26.7714C20.5087 27.0527 20.1031 27.3707 19.6632 27.6353C19.5195 27.7212 19.2584 27.7711 19.1296 27.6984C17.6699 26.8731 16.2795 25.9601 15.1834 24.6529C13.9024 23.1248 13.1586 21.3497 12.6942 19.4414C12.5523 18.8596 12.4813 18.2612 12.384 17.6689C12.3437 17.421 12.4322 17.2212 12.6933 17.1756C12.9711 17.1266 13.1226 17.2808 13.1586 17.5541C13.1647 17.5971 13.1735 17.64 13.1805 17.6829C13.2856 18.3348 13.2856 18.3313 13.9655 18.3208C15.4848 18.2989 17.0041 18.2805 18.5225 18.2603C18.5969 18.2595 18.6714 18.2472 18.7836 18.2367H18.7827ZM19.4275 10.7489C19.4766 13.2706 19.5239 15.7457 19.5712 18.1745H25.3539C25.6159 16.317 25.4854 14.5498 24.9343 12.8202C22.9629 12.5147 21.1276 11.8246 19.4284 10.7498L19.4275 10.7489ZM19.5826 19.0042C19.6308 21.581 19.6773 24.0842 19.7246 26.5909C22.7841 24.9166 24.3998 22.2609 25.1367 19.0042H19.5826ZM13.4494 19.1015C13.7377 21.9122 16.806 26.0968 18.936 26.5979C18.8887 24.0842 18.8423 21.5775 18.7958 19.1015H13.4494Z" fill="white"/>
</svg>
