<svg width="38" height="39" viewBox="0 0 38 39" fill="none" xmlns="http://www.w3.org/2000/svg">
<path d="M30.9378 28.146C31.4766 28.6831 31.9269 29.1448 32.3966 29.5855C32.4833 29.667 32.6472 29.6977 32.7751 29.6994C33.9719 29.7108 34.9751 30.6089 35.1425 31.8312C35.3011 32.9886 34.5344 34.1381 33.3866 34.4623C32.2485 34.7838 31.0026 34.2249 30.5575 33.1445C30.4208 32.8125 30.4234 32.4243 30.3551 32.0633C30.3341 31.9529 30.3218 31.818 30.2526 31.7444C29.8084 31.2774 29.3501 30.8236 28.7789 30.2479C28.6921 30.396 28.6387 30.5528 28.5327 30.6553C27.9991 31.1732 27.2535 31.2652 26.6314 30.9077C26.0242 30.559 25.7316 29.8756 25.8718 29.1676C25.8919 29.0651 25.8866 28.91 25.8244 28.8461C25.1612 28.167 24.483 27.5011 23.804 26.8256C23.4211 27.1787 23.0733 27.5598 22.6667 27.8639C21.6258 28.6419 20.5587 29.3849 19.5029 30.1428C19.297 30.2909 19.1025 30.2637 18.8939 30.1393C17.2213 29.1404 15.5487 28.1425 14.2573 26.6048C14.1767 26.6705 14.1083 26.7178 14.0505 26.7757C13.4617 27.3627 12.8791 27.9541 12.285 28.5359C12.1527 28.6656 12.1194 28.7803 12.1632 28.967C12.3227 29.646 12.0152 30.332 11.4229 30.6808C10.8332 31.0268 10.085 30.9559 9.56363 30.4915C9.44272 30.3837 9.3481 30.2462 9.22456 30.1016C8.69623 30.6238 8.20557 31.1022 7.72806 31.5928C7.67549 31.6472 7.68513 31.7751 7.68776 31.8688C7.72456 33.2155 6.78268 34.2327 5.40622 34.3291C4.18133 34.415 3.05283 33.4459 2.89599 32.1729C2.74267 30.934 3.63899 29.7257 4.86825 29.5154C4.87876 29.5137 4.89015 29.5093 4.90067 29.5111C5.4693 29.6206 5.79436 29.2587 6.13606 28.8977C6.42695 28.5902 6.75201 28.3142 7.12088 27.9699C6.90271 27.785 6.73011 27.665 6.58992 27.5152C6.09488 26.9868 6.00727 26.2447 6.35248 25.6358C6.69856 25.0251 7.37409 24.7342 8.08817 24.8595C8.2082 24.8805 8.38694 24.8253 8.47368 24.7403C9.38665 23.8449 10.2812 22.9293 11.1959 22.0356C11.3799 21.856 11.4159 21.7079 11.3282 21.4687C10.552 19.3615 10.2681 17.1702 10.2549 14.9378C10.2523 14.4147 10.2996 13.8899 10.3496 13.3677C10.3706 13.1495 10.3145 13.0041 10.1603 12.8516C9.26486 11.9684 8.39045 11.0651 7.48887 10.1881C6.11504 8.8519 5.60774 7.2082 5.71288 5.33583C5.72952 5.04582 5.8846 4.91527 6.17549 4.89687C8.18016 4.77158 9.88519 5.37701 11.2739 6.87263C12.2035 7.87322 13.2024 8.80984 14.1591 9.78502C14.3142 9.94273 14.4386 9.96813 14.6419 9.88753C16.063 9.32503 17.2669 8.46463 18.2561 7.30108C18.313 7.23449 18.3665 7.16527 18.4243 7.09956C18.6784 6.81393 18.851 6.82357 19.1428 7.07152C19.8069 7.63665 20.4544 8.22806 21.1659 8.72923C22.028 9.33642 23.0102 9.71492 24.0336 9.97865C24.2394 10.0312 24.3726 10.0014 24.5242 9.8481C25.5528 8.80458 26.6086 7.78823 27.6206 6.72894C28.9918 5.29378 30.681 4.77947 32.613 4.8995C32.8767 4.91615 33.0143 5.06072 33.0292 5.31393C33.1361 7.13285 32.6813 8.75639 31.3627 10.0777C30.2657 11.1764 29.1732 12.2795 28.0692 13.3712C27.9062 13.5324 27.8414 13.6848 27.8685 13.9153C28.1918 16.6112 27.7687 19.2073 26.7795 21.7193C26.6734 21.9874 26.7234 22.1434 26.924 22.3388C27.8011 23.1939 28.6623 24.0639 29.521 24.9366C29.6656 25.0838 29.7926 25.1381 30.0046 25.0908C30.6539 24.9454 31.3233 25.2503 31.6641 25.8154C32.0102 26.3884 31.9611 27.1445 31.5195 27.651C31.3636 27.8297 31.155 27.9629 30.936 28.146H30.9378ZM11.4912 11.2815C11.4693 11.3306 11.4448 11.3683 11.436 11.4094C10.8393 14.2508 10.9217 17.0774 11.6612 19.8811C12.158 21.7631 12.8808 23.5417 14.0435 25.1276C15.3735 26.9413 17.1329 28.2284 19.0683 29.3078C19.1428 29.349 19.297 29.3157 19.3785 29.2622C19.8534 28.9512 20.3125 28.6147 20.7865 28.302C23.1732 26.7301 24.8642 24.6089 25.8682 21.9313C26.6121 19.9477 27.2097 17.943 27.186 15.7894C27.1676 14.1816 26.9354 12.6185 26.4535 11.073C23.4868 11.0204 20.9442 9.94535 18.8125 7.87935C16.842 10.0733 14.4053 11.1992 11.4903 11.2815H11.4912ZM25.3566 10.167C25.3548 10.2038 25.3522 10.2406 25.3504 10.2774C25.8148 10.2774 26.28 10.2581 26.7418 10.2862C26.9512 10.2993 27.0809 10.2389 27.2202 10.0987C28.2435 9.06743 29.2722 8.04144 30.3025 7.0172C30.5251 6.79553 30.7748 6.77187 30.9307 6.95937C31.113 7.17754 31.0508 7.38256 30.8633 7.56743C30.809 7.62088 30.7546 7.6752 30.7012 7.72952C29.6349 8.79494 28.5668 9.85949 27.5041 10.9284C27.4261 11.0064 27.3174 11.1317 27.3341 11.2132C27.4287 11.6802 27.5566 12.1402 27.6793 12.6256C27.7424 12.5774 27.78 12.5546 27.8098 12.5248C28.8507 11.4804 29.896 10.4404 30.9307 9.38899C31.4205 8.89132 31.764 8.29728 31.9874 7.63665C32.1994 7.01194 32.2783 6.36971 32.2345 5.69857C30.8475 5.61533 29.6104 5.95704 28.6159 6.89278C27.4953 7.94681 26.4413 9.07269 25.3583 10.167H25.3566ZM6.50581 5.69769C6.4471 7.16702 6.8773 8.4217 7.88227 9.45645C8.68133 10.2792 9.50055 11.0835 10.3119 11.8948C10.3627 11.9456 10.4223 11.9886 10.5134 12.0648C10.5905 11.6548 10.6781 11.285 10.7193 10.91C10.7342 10.7742 10.6816 10.5867 10.5888 10.4895C9.76165 9.61767 8.91877 8.76077 8.08116 7.89862C8.01983 7.83642 7.95499 7.77684 7.89891 7.71025C7.74559 7.52625 7.72193 7.32298 7.89453 7.15038C8.06626 6.97865 8.26866 6.9953 8.45178 7.15476C8.51749 7.21171 8.57619 7.27742 8.63665 7.3405C9.58904 8.31918 10.5406 9.29962 11.4956 10.2757C11.5753 10.3572 11.6883 10.4719 11.7777 10.4649C12.3341 10.4229 12.8887 10.3501 13.4836 10.2827C13.4223 10.1784 13.4118 10.146 13.3907 10.125C12.3174 9.05079 11.2678 7.95119 10.1603 6.91206C9.15446 5.96843 7.91381 5.61358 6.50493 5.69681L6.50581 5.69769ZM11.4255 29.1939C11.3633 29.087 11.2809 28.8539 11.1241 28.6927C10.2111 27.7552 9.28501 26.83 8.35014 25.9126C8.21784 25.783 8.02771 25.6796 7.84722 25.6393C7.5099 25.5622 7.18484 25.7462 7.028 26.0441C6.86328 26.356 6.91323 26.7231 7.19185 27.007C7.84897 27.6764 8.51486 28.337 9.17812 29.0003C9.47865 29.3008 9.77304 29.6092 10.085 29.8983C10.3417 30.1358 10.6501 30.1743 10.9664 30.0271C11.2599 29.8913 11.4027 29.6451 11.4255 29.1939ZM31.1621 26.6661C31.0946 26.2911 30.9307 26.0449 30.6276 25.9083C30.292 25.7567 29.9836 25.8382 29.7286 26.0931C28.778 27.0403 27.8274 27.9883 26.8846 28.9433C26.5411 29.2911 26.5359 29.7625 26.8469 30.0858C27.1685 30.4205 27.6521 30.4232 28.0122 30.0674C28.9585 29.1308 29.9004 28.1907 30.83 27.2374C30.9789 27.085 31.0534 26.8589 31.1621 26.667V26.6661ZM34.3706 32.1168C34.3706 31.3081 33.7748 30.6177 32.9766 30.502C32.7505 30.4696 32.5587 30.4985 32.3861 30.6851C32.0452 31.054 31.6711 31.3913 31.3312 31.7611C31.2321 31.8688 31.1542 32.0406 31.1489 32.1851C31.1165 33.0534 31.8288 33.757 32.7216 33.7631C33.6197 33.7684 34.3706 33.0192 34.3715 32.1168H34.3706ZM3.6714 31.8793C3.66615 32.7003 4.25668 33.3899 5.07678 33.5204C5.85043 33.644 6.6162 33.1761 6.837 32.4322C6.9509 32.0493 6.95528 31.7015 6.59693 31.4018C6.24646 31.1092 5.95032 30.7517 5.61387 30.4398C5.52187 30.3539 5.37205 30.2909 5.24588 30.2873C4.40213 30.2628 3.67666 31.0049 3.6714 31.8793ZM11.7488 22.6813C10.8253 23.5925 9.90797 24.4959 8.995 25.3966C9.30604 25.7059 9.62234 26.0204 9.94652 26.3437C10.7062 25.5858 11.4746 24.8244 12.2316 24.0534C12.2859 23.9982 12.3052 23.8519 12.2727 23.7783C12.1063 23.3998 11.9179 23.0318 11.7479 22.6822L11.7488 22.6813ZM29.0277 25.613C28.134 24.7246 27.2307 23.8265 26.3247 22.9249C26.1285 23.3279 25.9217 23.7529 25.7342 24.1384C26.5534 24.9506 27.349 25.7392 28.1209 26.5041C28.4126 26.2167 28.7289 25.9056 29.0277 25.6121V25.613ZM25.2681 24.9305C24.9597 25.3545 24.6486 25.7838 24.3753 26.1606C25.0841 26.865 25.7701 27.5467 26.4229 28.1959C26.7672 27.8639 27.1404 27.5029 27.5023 27.1524C26.7637 26.4182 26.0216 25.6805 25.2681 24.9305ZM12.7827 24.6886C12.0292 25.4421 11.2809 26.1895 10.5581 26.9124C10.9217 27.2733 11.2984 27.6475 11.634 27.9804C12.2973 27.3198 12.9833 26.6355 13.672 25.9494C13.382 25.5376 13.0744 25.1022 12.7827 24.6886ZM7.21638 30.8779C7.66235 30.4337 8.11445 29.9824 8.53501 29.5636C8.22923 29.2535 7.9033 28.924 7.60803 28.6261C7.17345 29.059 6.72222 29.5084 6.28501 29.9439C6.5943 30.2541 6.92374 30.5844 7.21638 30.877V30.8779ZM30.7695 31.0934C31.0972 30.7666 31.4319 30.4319 31.7123 30.1533C31.283 29.7266 30.8317 29.278 30.4348 28.8837C30.1396 29.1772 29.8119 29.5041 29.4868 29.8282C29.9004 30.2365 30.342 30.672 30.7695 31.0934Z" fill="#989899"/>
<path d="M18.6264 18.2367C18.5791 15.7545 18.5327 13.3074 18.4845 10.7796C16.9775 12.1806 15.2357 12.9043 13.1933 12.9709C13.111 13.5562 13.0312 14.1266 12.9489 14.6961C12.898 15.0509 12.7447 15.2165 12.5038 15.1876C12.2453 15.1561 12.1235 14.9432 12.1761 14.5813C12.269 13.9329 12.3732 13.2863 12.4678 12.6388C12.5152 12.3164 12.679 12.1745 13.019 12.1727C15.226 12.1631 17.0441 11.3123 18.4661 9.62044C18.757 9.27435 18.9313 9.26647 19.2459 9.58714C20.8151 11.1897 22.7111 12.0185 24.962 12.0036C25.2581 12.0019 25.4273 12.1193 25.5079 12.4075C25.903 13.8243 26.1527 15.256 26.1159 16.7376C26.0756 18.3479 25.6288 19.855 25.0803 21.3471C24.2418 23.6286 22.8145 25.4379 20.7818 26.7714C20.3525 27.0527 19.9468 27.3707 19.507 27.6353C19.3633 27.7212 19.1022 27.7711 18.9734 27.6984C17.5137 26.8731 16.1232 25.9601 15.0271 24.6529C13.7462 23.1248 13.0023 21.3497 12.5379 19.4414C12.396 18.8596 12.325 18.2612 12.2278 17.6689C12.1875 17.421 12.276 17.2212 12.5371 17.1756C12.8148 17.1266 12.9664 17.2808 13.0023 17.5541C13.0084 17.5971 13.0172 17.64 13.0242 17.6829C13.1294 18.3348 13.1294 18.3313 13.8093 18.3208C15.3285 18.2989 16.8478 18.2805 18.3662 18.2603C18.4407 18.2595 18.5152 18.2472 18.6273 18.2367H18.6264ZM19.2713 10.7489C19.3204 13.2706 19.3677 15.7457 19.415 18.1745H25.1977C25.4597 16.317 25.3291 14.5498 24.778 12.8202C22.8066 12.5147 20.9714 11.8246 19.2722 10.7498L19.2713 10.7489ZM19.4264 19.0042C19.4746 21.581 19.521 24.0842 19.5683 26.5909C22.6279 24.9166 24.2435 22.2609 24.9804 19.0042H19.4264ZM13.2932 19.1015C13.5815 21.9122 16.6498 26.0968 18.7798 26.5979C18.7324 24.0842 18.686 21.5775 18.6396 19.1015H13.2932Z" fill="#989899"/>
</svg>
