<svg fill="none" height="39" viewBox="0 0 38 39" width="38" xmlns="http://www.w3.org/2000/svg"><g fill="#989899"><path d="m30.9378 28.146c.5388.5371.9891.9988 1.4588 1.4395.0867.0815.2506.1122.3785.1139 1.1968.0114 2.2.9095 2.3674 2.1318.1586 1.1574-.6081 2.3069-1.7559 2.6311-1.1381.3215-2.384-.2374-2.8291-1.3178-.1367-.332-.1341-.7202-.2024-1.0812-.021-.1104-.0333-.2453-.1025-.3189-.4442-.467-.9025-.9208-1.4737-1.4965-.0868.1481-.1402.3049-.2462.4074-.5336.5179-1.2792.6099-1.9013.2524-.6072-.3487-.8998-1.0321-.7596-1.7401.0201-.1025.0148-.2576-.0474-.3215-.6632-.6791-1.3414-1.345-2.0204-2.0205-.3829.3531-.7307.7342-1.1373 1.0383-1.0409.778-2.108 1.521-3.1638 2.2789-.2059.1481-.4004.1209-.609-.0035-1.6726-.9989-3.3452-1.9968-4.6366-3.5345-.0806.0657-.149.113-.2068.1709-.5888.587-1.1714 1.1784-1.7655 1.7602-.1323.1297-.1656.2444-.1218.4311.1595.679-.148 1.365-.7403 1.7138-.5897.346-1.3379.2751-1.85927-.1893-.12091-.1078-.21553-.2453-.33907-.3899-.52833.5222-1.01899 1.0006-1.4965 1.4912-.05257.0544-.04293.1823-.0403.276.0368 1.3467-.90508 2.3639-2.28154 2.4603-1.22489.0859-2.35339-.8832-2.51023-2.1562-.15332-1.2389.743-2.4472 1.97226-2.6575.01051-.0017.0219-.0061.03242-.0043.56863.1095.89369-.2524 1.23539-.6134.29089-.3075.61595-.5835.98482-.9278-.21817-.1849-.39077-.3049-.53096-.4547-.49504-.5284-.58265-1.2705-.23744-1.8794.34608-.6107 1.02161-.9016 1.73569-.7763.12003.021.29877-.0342.38551-.1192.91297-.8954 1.80752-1.811 2.72222-2.7047.184-.1796.22-.3277.1323-.5669-.7762-2.1072-1.0601-4.2985-1.0733-6.5309-.0026-.5231.0447-1.0479.0947-1.5701.021-.2182-.0351-.3636-.1893-.5161-.89544-.8832-1.76985-1.7865-2.67143-2.6635-1.37383-1.3362-1.88113-2.9799-1.77599-4.85227.01664-.29001.17172-.42056.46261-.43896 2.00467-.12529 3.7097.48014 5.09841 1.97576.9296 1.00059 1.9285 1.93721 2.8852 2.91239.1551.15771.2795.18311.4828.10251 1.4211-.5625 2.625-1.4229 3.6142-2.58645.0569-.06659.1104-.13581.1682-.20152.2541-.28563.4267-.27599.7185-.02804.6641.56513 1.3116 1.15654 2.0231 1.65771.8621.60719 1.8443.98569 2.8677 1.24942.2058.05255.339.02275.4906-.13055 1.0286-1.04352 2.0844-2.05987 3.0964-3.11916 1.3712-1.43516 3.0604-1.94947 4.9924-1.82944.2637.01665.4013.16122.4162.41443.1069 1.81892-.3479 3.44246-1.6665 4.76377-1.097 1.0987-2.1895 2.2018-3.2935 3.2935-.163.1612-.2278.3136-.2007.5441.3233 2.6959-.0998 5.292-1.089 7.804-.1061.2681-.0561.4241.1445.6195.8771.8551 1.7383 1.7251 2.597 2.5978.1446.1472.2716.2015.4836.1542.6493-.1454 1.3187.1595 1.6595.7246.3461.573.297 1.3291-.1446 1.8356-.1559.1787-.3645.3119-.5835.495zm-19.4466-16.8645c-.0219.0491-.0464.0868-.0552.1279-.5967 2.8414-.5143 5.668.2252 8.4717.4968 1.882 1.2196 3.6606 2.3823 5.2465 1.33 1.8137 3.0894 3.1008 5.0248 4.1802.0745.0412.2287.0079.3102-.0456.4749-.311.934-.6475 1.408-.9602 2.3867-1.5719 4.0777-3.6931 5.0817-6.3707.7439-1.9836 1.3415-3.9883 1.3178-6.1419-.0184-1.6078-.2506-3.1709-.7325-4.7164-2.9667-.0526-5.5093-1.12765-7.641-3.19365-1.9705 2.19395-4.4072 3.31985-7.3222 3.40215zm13.8654-1.1145c-.0018.0368-.0044.0736-.0062.1104.4644 0 .9296-.0193 1.3914.0088.2094.0131.3391-.0473.4784-.1875 1.0233-1.03127 2.052-2.05726 3.0823-3.0815.2226-.22167.4723-.24533.6282-.05783.1823.21817.1201.42319-.0674.60806-.0543.05345-.1087.10777-.1621.16209-1.0663 1.06542-2.1344 2.12997-3.1971 3.19888-.078.078-.1867.2033-.17.2848.0946.467.2225.927.3452 1.4124.0631-.0482.1007-.071.1305-.1008 1.0409-1.0444 2.0862-2.0844 3.1209-3.13581.4898-.49767.8333-1.09171 1.0567-1.75234.212-.62471.2909-1.26694.2471-1.93808-1.387-.08324-2.6241.25847-3.6186 1.19421-1.1206 1.05403-2.1746 2.17991-3.2576 3.27422zm-18.85079-4.46931c-.05871 1.46933.37149 2.72401 1.37646 3.75876.79906.82275 1.61828 1.62705 2.42963 2.43835.0508.0508.1104.0938.2015.17.0771-.41.1647-.7798.2059-1.1548.0149-.1358-.0377-.3233-.1305-.4205-.82715-.87183-1.67003-1.72873-2.50764-2.59088-.06133-.0622-.12617-.12178-.18225-.18837-.15332-.184-.17698-.38727-.00438-.55987.17173-.17173.37413-.15508.55725.00438.06571.05695.12441.12266.18487.18574.95239.97868 1.90395 1.95912 2.85895 2.9352.0797.0815.1927.1962.2821.1892.5564-.042 1.111-.1148 1.7059-.1822-.0613-.1043-.0718-.1367-.0929-.1577-1.0733-1.07421-2.1229-2.17381-3.2304-3.21294-1.00584-.94363-2.24649-1.29848-3.65537-1.21525zm4.91969 23.49621c-.0622-.1069-.1446-.34-.3014-.5012-.913-.9375-1.83909-1.8627-2.77396-2.7801-.1323-.1296-.32243-.233-.50292-.2733-.33732-.0771-.66238.1069-.81922.4048-.16472.3119-.11477.679.16385.9629.65712.6694 1.32301 1.33 1.98627 1.9933.30053.3005.59492.6089.90688.898.2567.2375.5651.276.8814.1288.2935-.1358.4363-.382.4591-.8332zm19.7366-2.5278c-.0675-.375-.2314-.6212-.5345-.7578-.3356-.1516-.644-.0701-.899.1848-.9506.9472-1.9012 1.8952-2.844 2.8502-.3435.3478-.3487.8192-.0377 1.1425.3216.3347.8052.3374 1.1653-.0184.9463-.9366 1.8882-1.8767 2.8178-2.83.1489-.1524.2234-.3785.3321-.5704zm3.2085 5.4507c0-.8087-.5958-1.4991-1.394-1.6148-.2261-.0324-.4179-.0035-.5905.1831-.3409.3689-.715.7062-1.0549 1.076-.0991.1077-.177.2795-.1823.424-.0324.8683.6799 1.5719 1.5727 1.578.8981.0053 1.649-.7439 1.6499-1.6463zm-30.6992-.2375c-.00525.821.58528 1.5106 1.40538 1.6411.77365.1236 1.53942-.3443 1.76022-1.0882.1139-.3829.11828-.7307-.24007-1.0304-.35047-.2926-.64661-.6501-.98306-.962-.092-.0859-.24182-.1489-.36799-.1525-.84375-.0245-1.56922.7176-1.57448 1.592zm8.0774-9.198c-.9235.9112-1.84083 1.8146-2.7538 2.7153.31104.3093.62734.6238.95152.9471.75968-.7579 1.52808-1.5193 2.28508-2.2903.0543-.0552.0736-.2015.0411-.2751-.1664-.3785-.3548-.7465-.5248-1.0961zm17.2789 2.9317c-.8937-.8884-1.797-1.7865-2.703-2.6881-.1962.403-.403.828-.5905 1.2135.8192.8122 1.6148 1.6008 2.3867 2.3657.2917-.2874.608-.5985.9068-.892zm-3.7596-.6825c-.3084.424-.6195.8533-.8928 1.2301.7088.7044 1.3948 1.3861 2.0476 2.0353.3443-.332.7175-.693 1.0794-1.0435-.7386-.7342-1.4807-1.4719-2.2342-2.2219zm-12.4854-.2419c-.7535.7535-1.5018 1.5009-2.2246 2.2238.3636.3609.7403.7351 1.0759 1.068.6633-.6606 1.3493-1.3449 2.038-2.031-.29-.4118-.5976-.8472-.8893-1.2608zm-5.56632 6.1893c.44597-.4442.89807-.8955 1.31863-1.3143-.30578-.3101-.63171-.6396-.92698-.9375-.43458.4329-.88581.8823-1.32302 1.3178.30929.3102.63873.6405.93137.9331zm23.55312.2155c.3277-.3268.6624-.6615.9428-.9401-.4293-.4267-.8806-.8753-1.2775-1.2696-.2952.2935-.6229.6204-.948.9445.4136.4083.8552.8438 1.2827 1.2652z"/><path d="m18.6264 18.2367c-.0473-2.4822-.0937-4.9293-.1419-7.4571-1.507 1.401-3.2488 2.1247-5.2912 2.1913-.0823.5853-.1621 1.1557-.2444 1.7252-.0509.3548-.2042.5204-.4451.4915-.2585-.0315-.3803-.2444-.3277-.6063.0929-.6484.1971-1.295.2917-1.9425.0474-.3224.2112-.4643.5512-.4661 2.207-.0096 4.0251-.8604 5.4471-2.55226.2909-.34609.4652-.35397.7798-.0333 1.5692 1.60256 3.4652 2.43136 5.7161 2.41646.2961-.0017.4653.1157.5459.4039.3951 1.4168.6448 2.8485.608 4.3301-.0403 1.6103-.4871 3.1174-1.0356 4.6095-.8385 2.2815-2.2658 4.0908-4.2985 5.4243-.4293.2813-.835.5993-1.2748.8639-.1437.0859-.4048.1358-.5336.0631-1.4597-.8253-2.8502-1.7383-3.9463-3.0455-1.2809-1.5281-2.0248-3.3032-2.4892-5.2115-.1419-.5818-.2129-1.1802-.3101-1.7725-.0403-.2479.0482-.4477.3093-.4933.2777-.049.4293.1052.4652.3785.0061.043.0149.0859.0219.1288.1052.6519.1052.6484.7851.6379 1.5192-.0219 3.0385-.0403 4.5569-.0605.0745-.0008.149-.0131.2611-.0236zm.6449-7.4878c.0491 2.5217.0964 4.9968.1437 7.4256h5.7827c.262-1.8575.1314-3.6247-.4197-5.3543-1.9714-.3055-3.8066-.9956-5.5058-2.0704zm.1551 8.2553c.0482 2.5768.0946 5.08.1419 7.5867 3.0596-1.6743 4.6752-4.33 5.4121-7.5867zm-6.1332.0973c.2883 2.8107 3.3566 6.9953 5.4866 7.4964-.0474-2.5137-.0938-5.0204-.1402-7.4964z"/></g></svg>