<svg width="48" height="48" viewBox="0 0 48 48" fill="none" xmlns="http://www.w3.org/2000/svg">
<path d="M39.2806 34.8263C39.9703 35.5137 40.5467 36.1048 41.1479 36.6689C41.2589 36.7732 41.4686 36.8124 41.6323 36.8147C43.1643 36.8292 44.4484 37.9788 44.6626 39.5433C44.8656 41.0248 43.8843 42.4962 42.4151 42.9111C40.9583 43.3227 39.3636 42.6072 38.7938 41.2244C38.6189 40.7993 38.6222 40.3025 38.5348 39.8405C38.5079 39.6991 38.4922 39.5264 38.4036 39.4322C37.835 38.8345 37.2484 38.2535 36.5172 37.5167C36.4062 37.7062 36.3378 37.907 36.2021 38.0382C35.5191 38.701 34.5647 38.8188 33.7684 38.3612C32.9912 37.9148 32.6166 37.0401 32.7961 36.1339C32.8219 36.0027 32.8151 35.8042 32.7355 35.7223C31.8865 34.8532 31.0185 34.0008 30.1493 33.1362C29.6593 33.5881 29.214 34.076 28.6936 34.4651C27.3613 35.461 25.9953 36.412 24.6439 37.3821C24.3804 37.5717 24.1314 37.5369 23.8645 37.3777C21.7236 36.0991 19.5826 34.8218 17.9295 32.8535C17.8264 32.9376 17.7389 32.9982 17.6649 33.0722C16.9112 33.8236 16.1654 34.5806 15.4051 35.3253C15.2357 35.4913 15.1931 35.6382 15.2492 35.8771C15.4533 36.7463 15.0596 37.6244 14.3015 38.0707C13.5467 38.5137 12.589 38.4229 11.9217 37.8285C11.7669 37.6905 11.6458 37.5145 11.4877 37.3294C10.8114 37.9978 10.1834 38.6102 9.57215 39.2382C9.50486 39.3077 9.5172 39.4715 9.52057 39.5915C9.56767 41.3152 8.36206 42.6173 6.60019 42.7406C5.03234 42.8505 3.58786 41.6102 3.38711 39.9806C3.19085 38.3948 4.33814 36.8483 5.91159 36.5791C5.92505 36.5769 5.93963 36.5713 5.95309 36.5735C6.68094 36.7137 7.09701 36.2505 7.5344 35.7885C7.90673 35.3948 8.32281 35.0416 8.79496 34.6008C8.51571 34.3642 8.29477 34.2105 8.11533 34.0188C7.48169 33.3425 7.36954 32.3926 7.81141 31.6132C8.2544 30.8315 9.11907 30.4591 10.0331 30.6195C10.1867 30.6464 10.4155 30.5758 10.5265 30.467C11.6951 29.3208 12.8402 28.1489 14.011 27.0049C14.2465 26.775 14.2925 26.5855 14.1804 26.2793C13.1867 23.5821 12.8234 20.7773 12.8065 17.9197C12.8032 17.2502 12.8637 16.5784 12.9277 15.91C12.9546 15.6307 12.8828 15.4446 12.6854 15.2494C11.5393 14.119 10.42 12.9627 9.26599 11.8401C7.50748 10.1298 6.85814 8.02588 6.99272 5.62924C7.01402 5.25803 7.21253 5.09092 7.58486 5.06737C10.1508 4.907 12.3333 5.68195 14.1108 7.59634C15.3008 8.87709 16.5793 10.076 17.8039 11.3242C18.0024 11.5261 18.1617 11.5586 18.4219 11.4554C20.2409 10.7354 21.7819 9.6341 23.048 8.14475C23.1209 8.05952 23.1893 7.97092 23.2634 7.88681C23.5886 7.5212 23.8095 7.53354 24.183 7.85092C25.0331 8.57429 25.8619 9.3313 26.7725 9.97279C27.8761 10.75 29.1333 11.2345 30.4432 11.572C30.7067 11.6393 30.8772 11.6012 31.0712 11.4049C32.3879 10.0692 33.7393 8.76831 35.0346 7.41242C36.7897 5.57541 38.952 4.91709 41.4249 5.07074C41.7624 5.09204 41.9385 5.27709 41.9576 5.6012C42.0944 7.92943 41.5123 10.0076 39.8245 11.6988C38.4204 13.1051 37.0219 14.5171 35.6088 15.9145C35.4002 16.1208 35.3172 16.316 35.352 16.6109C35.7658 20.0618 35.2241 23.3848 33.9579 26.6001C33.8222 26.9433 33.8862 27.1429 34.143 27.393C35.2656 28.4876 36.368 29.6012 37.4671 30.7182C37.6522 30.9066 37.8148 30.9762 38.0862 30.9156C38.9172 30.7294 39.774 31.1197 40.2103 31.8431C40.6533 32.5765 40.5905 33.5444 40.0252 34.1926C39.8256 34.4214 39.5587 34.5919 39.2783 34.8263H39.2806ZM14.389 13.2397C14.3609 13.3025 14.3295 13.3507 14.3183 13.4034C13.5546 17.0405 13.66 20.6584 14.6065 24.2472C15.2424 26.6562 16.1677 28.9328 17.6559 30.9627C19.3583 33.2842 21.6103 34.9317 24.0877 36.3134C24.183 36.3661 24.3804 36.3234 24.4847 36.255C25.0925 35.8569 25.6802 35.4263 26.2869 35.0259C29.3419 33.0139 31.5064 30.2988 32.7916 26.8715C33.7437 24.3324 34.5086 21.7664 34.4783 19.0098C34.4548 16.9519 34.1576 14.9511 33.5407 12.9728C29.7434 12.9055 26.4888 11.5294 23.7602 8.88494C21.2379 11.6932 18.1191 13.1343 14.3879 13.2397H14.389ZM32.1366 11.8132C32.1344 11.8603 32.131 11.9074 32.1288 11.9545C32.7232 11.9545 33.3187 11.9298 33.9097 11.9657C34.1778 11.9825 34.3437 11.9051 34.5221 11.7257C35.832 10.4057 37.1486 9.09242 38.4675 7.78139C38.7523 7.49765 39.072 7.46737 39.2716 7.70737C39.5049 7.98662 39.4252 8.24905 39.1852 8.48569C39.1157 8.5541 39.0462 8.62363 38.9778 8.69317C37.6129 10.0569 36.2458 11.4195 34.8854 12.7877C34.7856 12.8876 34.6465 13.0479 34.6679 13.1522C34.789 13.75 34.9527 14.3388 35.1097 14.9601C35.1905 14.8984 35.2387 14.8692 35.2768 14.8311C36.6092 13.4943 37.9471 12.1631 39.2716 10.8173C39.8985 10.1803 40.3381 9.41989 40.6241 8.57429C40.8955 7.77466 40.9965 6.95261 40.9404 6.09354C39.1651 5.987 37.5815 6.42438 36.3086 7.62214C34.8742 8.9713 33.525 10.4124 32.1389 11.8132H32.1366ZM8.00767 6.09242C7.93253 7.97317 8.48318 9.57915 9.76954 10.9036C10.7923 11.9567 11.8409 12.9863 12.8794 14.0248C12.9445 14.0898 13.0208 14.1448 13.1374 14.2423C13.2361 13.7175 13.3482 13.2442 13.4009 12.7642C13.42 12.5904 13.3527 12.3504 13.2338 12.2259C12.1751 11.11 11.0963 10.0132 10.0241 8.90961C9.94561 8.82999 9.86262 8.75373 9.79085 8.66849C9.59458 8.43298 9.5643 8.17279 9.78524 7.95186C10.0051 7.73204 10.2641 7.75335 10.4985 7.95746C10.5826 8.03036 10.6578 8.11447 10.7351 8.19522C11.9542 9.44793 13.1722 10.7029 14.3946 11.9522C14.4966 12.0565 14.6413 12.2034 14.7557 12.1945C15.4679 12.1406 16.1778 12.0476 16.9393 11.9612C16.8608 11.8277 16.8473 11.7863 16.8204 11.7593C15.4465 10.3844 14.103 8.9769 12.6854 7.64681C11.3979 6.43896 9.80991 5.98475 8.00655 6.0913L8.00767 6.09242ZM14.3049 36.1676C14.2252 36.0307 14.1198 35.7324 13.9191 35.5261C12.7505 34.3261 11.5651 33.1418 10.3684 31.9676C10.1991 31.8016 9.95571 31.6692 9.72468 31.6177C9.2929 31.519 8.87683 31.7545 8.67608 32.1358C8.46524 32.535 8.52916 33.0049 8.8858 33.3683C9.72692 34.2251 10.5793 35.0707 11.4282 35.9197C11.8129 36.3044 12.1897 36.6991 12.589 37.0692C12.9176 37.3732 13.3123 37.4225 13.7172 37.2341C14.0929 37.0603 14.2757 36.7451 14.3049 36.1676ZM39.5677 32.932C39.4813 32.452 39.2716 32.1369 38.8836 31.962C38.454 31.7679 38.0593 31.8722 37.7329 32.1986C36.5161 33.4109 35.2993 34.6244 34.0925 35.8468C33.6529 36.292 33.6462 36.8954 34.0443 37.3092C34.4559 37.7377 35.075 37.741 35.5359 37.2857C36.7471 36.0868 37.9527 34.8834 39.1426 33.6633C39.3333 33.4681 39.4286 33.1788 39.5677 32.9332V32.932ZM43.6746 39.9089C43.6746 38.8737 42.912 37.99 41.8903 37.8419C41.6009 37.8005 41.3553 37.8375 41.1344 38.0763C40.6981 38.5485 40.2193 38.9803 39.7841 39.4535C39.6574 39.5915 39.5576 39.8113 39.5508 39.9963C39.5093 41.1077 40.4211 42.0083 41.5639 42.0162C42.7135 42.0229 43.6746 41.064 43.6757 39.9089H43.6746ZM4.37963 39.6049C4.3729 40.6558 5.12879 41.5384 6.17851 41.7055C7.16879 41.8636 8.14898 41.2648 8.43159 40.3126C8.57739 39.8225 8.583 39.3773 8.1243 38.9937C7.67571 38.6191 7.29664 38.1616 6.86599 37.7623C6.74823 37.6524 6.55645 37.5717 6.39496 37.5672C5.31496 37.5358 4.38636 38.4857 4.37963 39.6049ZM14.7187 27.8315C13.5366 28.9978 12.3624 30.1541 11.1938 31.307C11.592 31.7029 11.9968 32.1055 12.4118 32.5193C13.3841 31.5492 14.3677 30.5747 15.3366 29.5877C15.4062 29.5171 15.4308 29.3298 15.3893 29.2356C15.1763 28.7511 14.9351 28.2801 14.7176 27.8326L14.7187 27.8315ZM36.8357 31.584C35.6918 30.4468 34.5355 29.2973 33.3759 28.1433C33.1247 28.6591 32.86 29.2031 32.62 29.6965C33.6686 30.7362 34.6869 31.7455 35.675 32.7246C36.0484 32.3567 36.4533 31.9586 36.8357 31.5829V31.584ZM32.0234 30.7104C31.6286 31.2532 31.2305 31.8027 30.8806 32.2849C31.7879 33.1866 32.666 34.0591 33.5015 34.8902C33.9422 34.4651 34.42 34.0031 34.8832 33.5545C33.9378 32.6147 32.9879 31.6704 32.0234 30.7104ZM16.0421 30.4008C15.0776 31.3653 14.1198 32.3219 13.1946 33.2472C13.66 33.7092 14.1422 34.1881 14.5718 34.6143C15.4208 33.7687 16.2989 32.8928 17.1804 32.0147C16.8092 31.4876 16.4155 30.9302 16.0421 30.4008ZM8.9172 38.3231C9.48804 37.7545 10.0667 37.1769 10.6051 36.6408C10.2136 36.2438 9.79645 35.8221 9.41851 35.4408C8.86225 35.9948 8.28468 36.5702 7.72505 37.1276C8.12094 37.5246 8.54262 37.9474 8.9172 38.3219V38.3231ZM39.0652 38.599C39.4847 38.1806 39.9131 37.7522 40.272 37.3956C39.7224 36.8494 39.1449 36.2752 38.6368 35.7705C38.2589 36.1462 37.8394 36.5646 37.4234 36.9795C37.9527 37.5021 38.5179 38.0595 39.0652 38.599Z" fill="#B1B1B2"/>
<path d="M23.5218 22.1439C23.4613 18.9667 23.4018 15.8343 23.3402 12.5988C21.4112 14.3921 19.1816 15.3185 16.5674 15.4037C16.462 16.1529 16.36 16.8829 16.2545 17.6119C16.1895 18.0661 15.9932 18.2781 15.6848 18.2411C15.354 18.2007 15.1981 17.9282 15.2654 17.465C15.3843 16.6351 15.5177 15.8074 15.6388 14.9786C15.6994 14.5659 15.9091 14.3843 16.3443 14.382C19.1693 14.3697 21.4964 13.2807 23.3166 11.1151C23.6889 10.6721 23.9121 10.662 24.3147 11.0725C26.3233 13.1237 28.7502 14.1846 31.6314 14.1656C32.0104 14.1633 32.2269 14.3136 32.3301 14.6826C32.8359 16.496 33.1555 18.3286 33.1084 20.225C33.0568 22.2863 32.4848 24.2153 31.7828 26.1252C30.7095 29.0456 28.8826 31.3615 26.2807 33.0684C25.7312 33.4284 25.2119 33.8355 24.6489 34.1742C24.465 34.2841 24.1308 34.348 23.9659 34.2549C22.0975 33.1985 20.3177 32.0299 18.9147 30.3566C17.2751 28.4007 16.323 26.1286 15.7286 23.6859C15.5469 22.9413 15.456 22.1753 15.3316 21.4172C15.28 21.0998 15.3932 20.8441 15.7274 20.7858C16.083 20.7229 16.277 20.9203 16.323 21.2702C16.3308 21.3252 16.342 21.3801 16.351 21.4351C16.4856 22.2695 16.4856 22.265 17.3559 22.2515C19.3005 22.2235 21.2452 22.2 23.1888 22.1742C23.2841 22.173 23.3794 22.1573 23.523 22.1439H23.5218ZM24.3473 12.5596C24.4101 15.7872 24.4706 18.9555 24.5312 22.0643H31.933C32.2684 19.6867 32.1013 17.4246 31.3959 15.2108C28.8725 14.8198 26.5233 13.9364 24.3484 12.5607L24.3473 12.5596ZM24.5458 23.1263C24.6074 26.4246 24.6669 29.6287 24.7274 32.8373C28.6437 30.6942 30.7117 27.2949 31.6549 23.1263H24.5458ZM16.6953 23.2508C17.0643 26.8486 20.9917 32.2048 23.7181 32.8463C23.6575 29.6287 23.5981 26.4201 23.5387 23.2508H16.6953Z" fill="#B1B1B2"/>
</svg>
