<svg width="16" height="16" viewBox="0 0 16 16" fill="none" xmlns="http://www.w3.org/2000/svg">
<g clip-path="url(#clip0_3493_13830)">
<path d="M8.00065 1.33301C4.32065 1.33301 1.33398 4.31967 1.33398 7.99967C1.33398 11.6797 4.32065 14.6663 8.00065 14.6663C11.6807 14.6663 14.6673 11.6797 14.6673 7.99967C14.6673 4.31967 11.6807 1.33301 8.00065 1.33301ZM8.66732 12.6663H7.33398V11.333H8.66732V12.6663ZM10.0473 7.49967L9.44732 8.11301C8.96732 8.59967 8.66732 8.99967 8.66732 9.99967H7.33398V9.66634C7.33398 8.93301 7.63398 8.26634 8.11398 7.77967L8.94065 6.93967C9.18732 6.69967 9.33398 6.36634 9.33398 5.99967C9.33398 5.26634 8.73398 4.66634 8.00065 4.66634C7.26732 4.66634 6.66732 5.26634 6.66732 5.99967H5.33398C5.33398 4.52634 6.52732 3.33301 8.00065 3.33301C9.47398 3.33301 10.6673 4.52634 10.6673 5.99967C10.6673 6.58634 10.4273 7.11967 10.0473 7.49967Z" fill="#111113"/>
</g>
<defs>
<clipPath id="clip0_3493_13830">
<rect width="16" height="16" fill="white"/>
</clipPath>
</defs>
</svg>
