<svg width="24" height="24" viewBox="0 0 24 24" fill="none" xmlns="http://www.w3.org/2000/svg">
<path d="M6.126 13.8L3 17L5.5 18.5L7 21L10.899 16.905" stroke="#F6F1F2" stroke-width="1.5" stroke-linecap="round" stroke-linejoin="round"/>
<path d="M13.1011 16.905L17.0001 21L18.5001 18.5L21.0001 17L17.8741 13.8" stroke="#F6F1F2" stroke-width="1.5" stroke-linecap="round" stroke-linejoin="round"/>
<path d="M16.9497 5.05025C19.6834 7.78392 19.6834 12.2161 16.9497 14.9497C14.2161 17.6834 9.78392 17.6834 7.05025 14.9497C4.31658 12.2161 4.31658 7.78392 7.05025 5.05025C9.78392 2.31658 14.2161 2.31658 16.9497 5.05025" stroke="#F6F1F2" stroke-width="1.5" stroke-linecap="round" stroke-linejoin="round"/>
<path fill-rule="evenodd" clip-rule="evenodd" d="M11.9989 12.584L13.7959 13.528C14.1459 13.712 14.5549 13.415 14.4879 13.025L14.1449 11.024L15.5989 9.60804C15.8819 9.33204 15.7259 8.85104 15.3349 8.79404L13.3259 8.50204L12.4279 6.68104C12.2529 6.32604 11.7479 6.32604 11.5729 6.68104L10.6749 8.50204L8.66491 8.79504C8.27391 8.85204 8.11791 9.33305 8.40091 9.60905L9.85491 11.025L9.51191 13.026C9.44491 13.416 9.85391 13.713 10.2039 13.529L12.0009 12.585H11.9989V12.584Z" stroke="#F6F1F2" stroke-width="1.5" stroke-linecap="round" stroke-linejoin="round"/>
</svg>
