<svg width="24" height="24" viewBox="0 0 24 24" fill="none" xmlns="http://www.w3.org/2000/svg">
<rect x="2.99634" y="2.99634" width="18.0075" height="18.0075" rx="5" stroke="currentColor" fill="transparent" stroke-width="1.5" stroke-linecap="round" stroke-linejoin="round"/>
<path d="M9.4992 8.99899C9.4992 8.72273 9.27525 8.49878 8.99899 8.49878C8.72273 8.49878 8.49878 8.72273 8.49878 8.99899C8.49878 9.27525 8.72273 9.4992 8.99899 9.4992C9.27525 9.4992 9.4992 9.27525 9.4992 8.99899" stroke="currentColor" stroke-width="1.5" stroke-linecap="round" stroke-linejoin="round"/>
<path d="M15.5016 8.99899C15.5016 8.72273 15.2777 8.49878 15.0014 8.49878C14.7252 8.49878 14.5012 8.72273 14.5012 8.99899C14.5012 9.27525 14.7252 9.4992 15.0014 9.4992C15.2777 9.4992 15.5016 9.27525 15.5016 8.99899" stroke="currentColor" stroke-width="1.5" stroke-linecap="round" stroke-linejoin="round"/>
<path d="M9.4992 15.0014C9.4992 14.7252 9.27525 14.5012 8.99899 14.5012C8.72273 14.5012 8.49878 14.7252 8.49878 15.0014C8.49878 15.2777 8.72273 15.5016 8.99899 15.5016C9.27525 15.5016 9.4992 15.2777 9.4992 15.0014" stroke="currentColor" stroke-width="1.5" stroke-linecap="round" stroke-linejoin="round"/>
<path d="M15.5016 15.0014C15.5016 14.7252 15.2777 14.5012 15.0014 14.5012C14.7252 14.5012 14.5012 14.7252 14.5012 15.0014C14.5012 15.2777 14.7252 15.5016 15.0014 15.5016C15.2777 15.5016 15.5016 15.2777 15.5016 15.0014" stroke="currentColor" stroke-width="1.5" stroke-linecap="round" stroke-linejoin="round"/>
</svg>
