<svg width="24" height="24" viewBox="0 0 24 24" fill="none" xmlns="http://www.w3.org/2000/svg">
<path fill-rule="evenodd" clip-rule="evenodd" d="M4.47542 4.84032C3.30518 4.99968 2.3999 5.99232 2.3999 7.20672C2.3999 8.53152 3.4751 9.60672 4.7999 9.60672H10.0789C11.1397 9.60672 11.9989 8.74752 11.9989 7.68672C11.9989 6.62592 11.1397 5.76672 10.0789 5.76672C10.0789 4.176 8.78966 2.88672 7.19894 2.88672C5.93462 2.88672 4.86134 3.70464 4.47542 4.84032Z" stroke="currentColor" fill="transparent" stroke-width="1.5" stroke-linecap="round" stroke-linejoin="round"/>
<path fill-rule="evenodd" clip-rule="evenodd" d="M19.5245 15.4004C20.6947 15.5597 21.6 16.5524 21.6 17.7668C21.6 19.0916 20.5248 20.1668 19.2 20.1668H13.921C12.8602 20.1668 12.001 19.3076 12.001 18.2468C12.001 17.186 12.8602 16.3268 13.921 16.3268C13.921 14.7361 15.2103 13.4468 16.801 13.4468C18.0653 13.4468 19.1386 14.2647 19.5245 15.4004Z" stroke="currentColor" fill="transparent" stroke-width="1.5" stroke-linecap="round" stroke-linejoin="round"/>
<path d="M20.6399 10.5667V5.76668C20.6399 4.70588 19.7807 3.84668 18.7199 3.84668H14.8799" fill="transparent" stroke="currentColor" stroke-width="1.5" stroke-linecap="round" stroke-linejoin="round"/>
<path d="M3.35986 13.4468V17.2868C3.35986 18.3476 4.21906 19.2068 5.27986 19.2068H8.15986" fill="transparent" stroke="currentColor" stroke-width="1.5" stroke-linecap="round" stroke-linejoin="round"/>
</svg>
