<svg fill="none" height="231" viewBox="0 0 231 231" width="231" xmlns="http://www.w3.org/2000/svg"><g style="fill-rule:evenodd;clip-rule:evenodd;stroke:#0d0d0d;stroke-width:8;stroke-linecap:round;stroke-linejoin:round"><path d="m113.758 117.338c-4.909 5.381-19.8565 20.415-33.7165 20.415v-.019l-.0481.019c-12.2815.009-22.2434-9.962-22.2434-22.253s9.9619-22.2628 22.253-22.2532l.0481.0193v-.0193c13.86 0 28.8079 15.0242 33.7169 20.4142-.01 0 1.732 1.839 1.732 1.839z"/><path d="m117.242 117.338c4.909 5.381 19.856 20.415 33.717 20.415v-.019l.048.019c12.281.009 22.243-9.962 22.243-22.253s-9.962-22.2628-22.253-22.2532l-.048.0193v-.0193c-13.86 0-28.808 15.0242-33.716 20.4142.009 0-1.733 1.839-1.733 1.839z"/></g></svg>