<svg width="231" height="231" viewBox="0 0 231 231" fill="none" xmlns="http://www.w3.org/2000/svg">
<path fill-rule="evenodd" clip-rule="evenodd" d="M113.758 117.338C108.849 122.719 93.9015 137.753 80.0415 137.753V137.734L79.9934 137.753V137.753C67.7119 137.762 57.75 127.791 57.75 115.5C57.75 103.209 67.7119 93.2372 80.003 93.2468V93.2468L80.0511 93.2661V93.2468C93.9111 93.2468 108.859 108.271 113.768 113.661C113.758 113.661 115.5 115.5 115.5 115.5L113.758 117.338V117.338Z" stroke="#0D0D0D" stroke-width="8" stroke-linecap="round" stroke-linejoin="round"/>
<path fill-rule="evenodd" clip-rule="evenodd" d="M117.242 117.338C122.151 122.719 137.098 137.753 150.959 137.753V137.734L151.007 137.753V137.753C163.288 137.762 173.25 127.791 173.25 115.5C173.25 103.209 163.288 93.2372 150.997 93.2468V93.2468L150.949 93.2661V93.2468C137.089 93.2468 122.141 108.271 117.233 113.661C117.242 113.661 115.5 115.5 115.5 115.5L117.242 117.338V117.338Z" stroke="#0D0D0D" stroke-width="8" stroke-linecap="round" stroke-linejoin="round"/>
</svg>
