<svg width="11" height="15" viewBox="0 0 11 15" fill="none" xmlns="http://www.w3.org/2000/svg">
<path d="M5.5013 11.3346C6.23464 11.3346 6.83464 10.7346 6.83464 10.0013C6.83464 9.26797 6.23464 8.66797 5.5013 8.66797C4.76797 8.66797 4.16797 9.26797 4.16797 10.0013C4.16797 10.7346 4.76797 11.3346 5.5013 11.3346ZM9.5013 5.33464H8.83464V4.0013C8.83464 2.1613 7.3413 0.667969 5.5013 0.667969C3.6613 0.667969 2.16797 2.1613 2.16797 4.0013V5.33464H1.5013C0.767969 5.33464 0.167969 5.93464 0.167969 6.66797V13.3346C0.167969 14.068 0.767969 14.668 1.5013 14.668H9.5013C10.2346 14.668 10.8346 14.068 10.8346 13.3346V6.66797C10.8346 5.93464 10.2346 5.33464 9.5013 5.33464ZM3.43464 4.0013C3.43464 2.8613 4.3613 1.93464 5.5013 1.93464C6.6413 1.93464 7.56797 2.8613 7.56797 4.0013V5.33464H3.43464V4.0013ZM9.5013 13.3346H1.5013V6.66797H9.5013V13.3346Z" fill="currentColor"/>
</svg>
