<svg width="12" height="17" viewBox="0 0 12 17" fill="none" xmlns="http://www.w3.org/2000/svg">
<path d="M1.5 16.5C1.0875 16.5 0.734375 16.3531 0.440625 16.0594C0.146875 15.7656 0 15.4125 0 15V7.5C0 7.0875 0.146875 6.73438 0.440625 6.44063C0.734375 6.14687 1.0875 6 1.5 6H2.25V4.5C2.25 3.4625 2.61563 2.57812 3.34688 1.84687C4.07812 1.11562 4.9625 0.75 6 0.75C7.0375 0.75 7.92188 1.11562 8.65313 1.84687C9.38438 2.57812 9.75 3.4625 9.75 4.5V6H10.5C10.9125 6 11.2656 6.14687 11.5594 6.44063C11.8531 6.73438 12 7.0875 12 7.5V15C12 15.4125 11.8531 15.7656 11.5594 16.0594C11.2656 16.3531 10.9125 16.5 10.5 16.5H1.5ZM1.5 15H10.5V7.5H1.5V15ZM6 12.75C6.4125 12.75 6.76563 12.6031 7.05938 12.3094C7.35313 12.0156 7.5 11.6625 7.5 11.25C7.5 10.8375 7.35313 10.4844 7.05938 10.1906C6.76563 9.89688 6.4125 9.75 6 9.75C5.5875 9.75 5.23438 9.89688 4.94063 10.1906C4.64687 10.4844 4.5 10.8375 4.5 11.25C4.5 11.6625 4.64687 12.0156 4.94063 12.3094C5.23438 12.6031 5.5875 12.75 6 12.75ZM3.75 6H8.25V4.5C8.25 3.875 8.03125 3.34375 7.59375 2.90625C7.15625 2.46875 6.625 2.25 6 2.25C5.375 2.25 4.84375 2.46875 4.40625 2.90625C3.96875 3.34375 3.75 3.875 3.75 4.5V6Z" fill="#4E72B6"/>
</svg>
