<?xml version="1.0" encoding="UTF-8"?>
<svg id="Camada_1" data-name="Camada 1" xmlns="http://www.w3.org/2000/svg" version="1.1" viewBox="0 0 1080 1080">
  <defs>
    <style>
      .cls-1 {
        fill: #606060;
        stroke-width: 0px;
      }
    </style>
  </defs>
  <path class="cls-1" d="M756,1074.6c-105,0-194-29.5-274-86.6-41.5-29.6-78.2-64.6-111.3-103.3-15.1-17.7-19-38-10.9-59.8,7.9-21.5,23.8-34.6,46.6-38.3,29.8-4.9,59.1-12,87.3-23.1,61.2-24.2,110.6-63.4,148.9-116.8,2.9-4.1,5.6-8.3,9-12,18.5-20.3,41.4-28,68.2-22.7,38.9,7.7,66.5,36.1,72.8,75.3,4,24.9-2,47.7-16.9,68.1-26.4,36.2-57.2,68.3-92.5,96.1-2,1.5-4,3-5.9,4.6-5.7,4.8-8.5,10.9-7,18.4,1.5,7.6,6,13,13.5,15,10.9,2.9,21.9,5.8,33,7.9,59.7,11.1,117.8,4.1,174.5-16.9,9.7-3.6,19.3-7.5,29.7-8.9,41.3-5.6,81.9,20.4,93.3,60.5,5.5,19.2,5.2,38.5-2,57.2-7.3,18.9-20.6,32.4-39.4,39.7-48.8,19-99.1,33-151.1,40.3-24,3.4-48.1,5-65.8,5.3Z"/>
  <path class="cls-1" d="M107.5,727.1c-25.6-1.7-51.4-14.1-68.4-41.3-9.9-15.9-11.2-33.5-8.1-51.7,7.7-44.6,18.4-88.3,34.4-130.7,25.9-68.7,63.3-130,116.7-181,40.9-39.1,87.9-68.8,139.7-91.1,43.6-18.8,88.9-31.8,135.5-40.2,22.2-4,41.2,2.9,55.8,20.1,14.9,17.5,18.5,37.7,10.6,59.3-6.4,17.7-12.6,35.4-17.2,53.7-8.9,35.5-12.3,71.5-9.6,108,3.1,41.8,14.5,81.5,32.2,119.5,10.5,22.4,9.7,44.8-2.8,66.3-17.8,30.8-54.7,48-89.9,42.4-33.4-5.3-57-23.5-70.9-54.2-17.5-38.7-29.1-79.2-36-121.1-.8-4.9-1.6-9.9-2.2-14.8-1.7-13.4-19.6-21.9-31.7-10.7-7.6,7.1-14.8,14.6-21.6,22.4-37.2,42.7-60.5,92.2-71.8,147.5-2.1,10.1-3.4,20.5-5.7,30.6-8.7,39.3-43.2,67-89.3,67.1Z"/>
  <path class="cls-1" d="M1050.9,416c.1,54.1-8,104.2-21.9,153.4-4.3,15.3-9.1,30.6-14.5,45.5-7.4,20.5-22.2,33.6-43.6,38-23.7,4.8-43.7-2.3-59.2-21-13.5-16.3-27.6-32-43.1-46.4-50.8-46.8-110.2-75.5-178.5-85.7-9.9-1.5-19.9-2-29.7-3.6-22.3-3.5-39.5-15.2-50.2-34.9-31.4-57.9,6.6-123,64.3-132.6,12.7-2.1,25.3-1,37.9.7,42.5,5.6,83.6,16.5,123.2,33,12.9,5.4,25.5-2.5,27.3-14.3.4-2.9,0-6.2-.6-9.1-10.4-41.9-28.3-80.3-54.4-114.8-18.6-24.5-40.2-45.9-64.3-65-17.1-13.6-28.2-31-31.4-52.7-5.2-35.3,6.5-64,35.6-84.9,11-7.9,23.2-13.7,36.8-15.6,21.2-3,40,2.5,56.5,16,10.5,8.7,20.9,17.5,31.1,26.6,39.4,35.6,74.6,74.8,103.7,119.3,32.7,50.1,55.7,104.2,67.1,163,5.6,28.9,8.3,58.2,8.1,84.9Z"/>
</svg>