<svg xmlns="http://www.w3.org/2000/svg" width="98" height="26" viewBox="0 0 98 26" fill="none">
  <g clip-path="url(#clip0_11839_39941)">
    <path d="M66.0555 0H58.4661C57.9473 0 57.5056 0.377592 57.4248 0.889918L54.3556 20.3504C54.2949 20.7345 54.5913 21.0824 54.9805 21.0824H58.8744C59.2373 21.0824 59.5474 20.8181 59.6033 20.4592L60.4741 14.942C60.5546 14.4294 60.9964 14.0521 61.5158 14.0521H63.9175C68.9162 14.0521 71.8012 11.6327 72.5554 6.8376C72.8948 4.74088 72.569 3.09271 71.587 1.93947C70.5078 0.670593 68.5946 0 66.0555 0ZM66.9314 7.10741C66.5167 9.83173 64.4363 9.83174 62.4235 9.83174H61.2791L62.0821 4.74532C62.1308 4.43833 62.3959 4.21185 62.707 4.21185H63.2319C64.6017 4.21185 65.8962 4.21185 66.563 4.99227C66.9618 5.45889 67.0825 6.15097 66.9314 7.10741Z" fill="white"/>
    <path d="M11.9252 0H4.33587C3.81706 0 3.37534 0.377592 3.29416 0.889918L0.224986 20.3504C0.164612 20.7345 0.461365 21.0824 0.850214 21.0824H4.47401C4.99282 21.0824 5.43454 20.7048 5.51572 20.1922L6.3439 14.942C6.42474 14.4294 6.86646 14.0521 7.38526 14.0521H9.78692C14.786 14.0521 17.671 11.6327 18.4252 6.8376C18.7645 4.74088 18.4388 3.09271 17.4571 1.93947C16.3769 0.670593 14.464 0 11.9252 0ZM12.8008 7.10741C12.3861 9.83173 10.3054 9.83174 8.29326 9.83174H7.1482L7.95114 4.74532C7.99992 4.43833 8.26461 4.21185 8.57603 4.21185H9.10097C10.4708 4.21185 11.7649 4.21185 12.4318 4.99227C12.8309 5.45889 12.9516 6.15097 12.8008 7.10741Z" fill="white"/>
    <path d="M34.6093 7.02147H30.9756C30.6645 7.02147 30.3995 7.24795 30.3507 7.55562L30.1907 8.57174L29.9366 8.20404C29.1493 7.06103 27.3954 6.67969 25.6439 6.67969C21.6292 6.67969 18.1992 9.72226 17.5316 13.99C17.1841 16.1185 17.6773 18.1531 18.8844 19.5728C19.9933 20.8774 21.576 21.4205 23.4616 21.4205C26.6976 21.4205 28.4927 19.3412 28.4927 19.3412L28.3304 20.3515C28.2693 20.7355 28.5661 21.0835 28.9553 21.0835H32.2281C32.7469 21.0835 33.1883 20.7059 33.2694 20.1935L35.2345 7.75277C35.2945 7.36836 34.9981 7.02147 34.6093 7.02147ZM29.5443 14.0951C29.1937 16.1717 27.5452 17.5654 25.4427 17.5654C24.3887 17.5654 23.5448 17.2264 23.0025 16.5848C22.4649 15.9483 22.2626 15.042 22.4332 14.0323C22.7603 11.9745 24.4354 10.5354 26.5059 10.5354C27.5377 10.5354 28.3757 10.8779 28.9287 11.5253C29.4853 12.1778 29.704 13.0902 29.5443 14.0951Z" fill="white"/>
    <path d="M88.7393 7.02147H85.1056C84.7942 7.02147 84.5291 7.24795 84.4807 7.55562L84.3204 8.57174L84.0666 8.20404C83.279 7.06103 81.5254 6.67969 79.7739 6.67969C75.7589 6.67969 72.3292 9.72226 71.662 13.99C71.3141 16.1185 71.808 18.1531 73.0148 19.5728C74.1237 20.8774 75.7067 21.4205 77.5919 21.4205C80.8279 21.4205 82.6231 19.3412 82.6231 19.3412L82.4607 20.3515C82.3997 20.7355 82.6961 21.0835 83.0856 21.0835H86.3584C86.8772 21.0835 87.3183 20.7059 87.3998 20.1935L89.3645 7.75277C89.4252 7.36836 89.1281 7.02147 88.7393 7.02147ZM83.675 14.0951C83.324 16.1717 81.6759 17.5654 79.5734 17.5654C78.5187 17.5654 77.6755 17.2264 77.1328 16.5848C76.5956 15.9483 76.393 15.042 76.5635 14.0323C76.891 11.9745 78.5654 10.5354 80.6359 10.5354C81.6673 10.5354 82.5054 10.8779 83.059 11.5253C83.615 12.1778 83.834 13.0902 83.675 14.0951Z" fill="white"/>
    <path d="M53.9645 7.02344H50.3117C49.9625 7.02344 49.636 7.19705 49.4392 7.48562L44.4006 14.9068L42.265 7.77589C42.1309 7.3294 41.7206 7.02344 41.255 7.02344H37.6643C37.2307 7.02344 36.9258 7.44981 37.0653 7.86049L41.0875 19.6665L37.3044 25.0039C37.0073 25.4231 37.3071 26.0027 37.8208 26.0027H41.4695C41.8157 26.0027 42.1394 25.8331 42.3363 25.549L54.4844 8.01671C54.775 7.59716 54.4745 7.02344 53.9645 7.02344Z" fill="white"/>
    <path d="M93.0233 0.533816L89.9081 20.3504C89.8477 20.7345 90.1441 21.0821 90.533 21.0821H93.6659C94.1848 21.0821 94.6265 20.7045 94.708 20.1922L97.7792 0.731651C97.8399 0.347578 97.5435 1.53466e-06 97.1543 1.53466e-06H93.6486C93.3368 -0.000680656 93.0718 0.226148 93.0233 0.533816Z" fill="white"/>
  </g>
  <defs>
    <clipPath id="clip0_11839_39941">
      <rect width="97.5697" height="26" fill="white" transform="translate(0.21521)"/>
    </clipPath>
  </defs>
</svg>