<svg width="418" height="428" viewBox="0 0 418 428" fill="none" xmlns="http://www.w3.org/2000/svg">
<path opacity="0.05" fill-rule="evenodd" clip-rule="evenodd" d="M153.749 417.341C162.077 427.254 175.84 430.677 187.841 425.821L399.326 340.238C411.327 335.381 418.836 323.349 417.926 310.435L401.884 82.8544C400.973 69.9399 391.851 59.0803 379.287 55.9552L157.888 0.88582C145.324 -2.23921 132.177 3.08113 125.323 14.0643L4.53235 207.61C-2.32215 218.593 -1.32489 232.741 7.00256 242.654L153.749 417.341ZM173.002 360.033C179.03 367.209 188.993 369.687 197.681 366.171L350.772 304.219C359.46 300.703 364.895 291.993 364.236 282.645L352.624 117.902C351.965 108.553 345.361 100.692 336.266 98.4297L175.998 58.5655C166.903 56.3033 157.386 60.1547 152.424 68.1053L64.9855 208.211C60.0236 216.161 60.7455 226.403 66.7737 233.579L173.002 360.033Z" fill="#8DA8FF"/>
</svg>
