<svg width="16" height="14" viewBox="0 0 16 14" fill="none" xmlns="http://www.w3.org/2000/svg">
<path d="M12.3125 13.1875C11.525 13.1875 10.8594 12.9156 10.3156 12.3719C9.77188 11.8281 9.5 11.1625 9.5 10.375C9.5 9.5875 9.77188 8.92188 10.3156 8.37813C10.8594 7.83438 11.525 7.5625 12.3125 7.5625C13.1 7.5625 13.7656 7.83438 14.3094 8.37813C14.8531 8.92188 15.125 9.5875 15.125 10.375C15.125 11.1625 14.8531 11.8281 14.3094 12.3719C13.7656 12.9156 13.1 13.1875 12.3125 13.1875ZM12.3125 11.6875C12.675 11.6875 12.9844 11.5594 13.2406 11.3031C13.4969 11.0469 13.625 10.7375 13.625 10.375C13.625 10.0125 13.4969 9.70312 13.2406 9.44687C12.9844 9.19063 12.675 9.0625 12.3125 9.0625C11.95 9.0625 11.6406 9.19063 11.3844 9.44687C11.1281 9.70312 11 10.0125 11 10.375C11 10.7375 11.1281 11.0469 11.3844 11.3031C11.6406 11.5594 11.95 11.6875 12.3125 11.6875ZM2 11.125V9.625H8V11.125H2ZM3.6875 6.4375C2.9 6.4375 2.23438 6.16563 1.69062 5.62187C1.14687 5.07812 0.875 4.4125 0.875 3.625C0.875 2.8375 1.14687 2.17188 1.69062 1.62812C2.23438 1.08437 2.9 0.8125 3.6875 0.8125C4.475 0.8125 5.14062 1.08437 5.68437 1.62812C6.22813 2.17188 6.5 2.8375 6.5 3.625C6.5 4.4125 6.22813 5.07812 5.68437 5.62187C5.14062 6.16563 4.475 6.4375 3.6875 6.4375ZM3.6875 4.9375C4.05 4.9375 4.35938 4.80938 4.61563 4.55313C4.87188 4.29688 5 3.9875 5 3.625C5 3.2625 4.87188 2.95312 4.61563 2.69688C4.35938 2.44063 4.05 2.3125 3.6875 2.3125C3.325 2.3125 3.01562 2.44063 2.75938 2.69688C2.50313 2.95312 2.375 3.2625 2.375 3.625C2.375 3.9875 2.50313 4.29688 2.75938 4.55313C3.01562 4.80938 3.325 4.9375 3.6875 4.9375ZM8 4.375V2.875H14V4.375H8Z" fill="#4E72B6"/>
</svg>
