<svg width="48" height="48" viewBox="0 0 48 48" fill="none" xmlns="http://www.w3.org/2000/svg">
<path d="M1.12173 37.1306C2.05481 36.1695 2.97668 35.1972 3.92883 34.2551C4.28996 33.8973 4.70939 33.9198 5.0907 34.2686C5.33182 34.4884 5.52921 34.7564 5.72323 34.9773C7.38416 33.3153 8.98229 31.7149 10.7116 29.9833C10.5972 29.9183 10.4156 29.8566 10.2911 29.7355C9.42752 28.8887 8.57406 28.033 7.72285 27.1751C7.17556 26.6233 7.16995 26.2207 7.7049 25.6801C8.44957 24.9265 9.19874 24.1773 9.95238 23.4315C10.4795 22.91 10.89 22.91 11.4159 23.436C11.8376 23.8566 12.2413 24.294 12.6271 24.6977C16.0499 21.2749 19.4234 17.9015 22.8159 14.5089C22.7531 14.4405 22.6679 14.3418 22.577 14.2499C19.992 11.6637 17.4103 9.07528 14.8141 6.50033C14.629 6.31752 14.3531 6.17061 14.0974 6.12351C11.8253 5.70407 9.54976 5.3093 7.27425 4.91005C7.17556 4.89323 7.07351 4.89659 6.90192 4.88537C7.03762 5.66594 7.16547 6.40837 7.29556 7.1508C7.58603 8.80949 7.87088 10.4693 8.17929 12.1257C8.21966 12.3411 8.34304 12.5732 8.49668 12.7291C10.6713 14.9228 12.8582 17.1052 15.0428 19.2899C15.1169 19.3639 15.192 19.4368 15.2638 19.5119C15.6956 19.9628 15.7393 20.4114 15.3905 20.7758C15.0406 21.1415 14.5371 21.1089 14.0929 20.6659C12.0204 18.6013 9.98827 16.4951 7.86865 14.4809C6.99612 13.6521 6.54191 12.7493 6.37144 11.565C6.01593 9.1022 5.53481 6.65846 5.09967 4.20799C4.94378 3.3321 5.37892 2.90706 6.26266 3.06294C9.08098 3.55977 11.9027 4.03752 14.7165 4.55566C15.0709 4.6207 15.4556 4.82033 15.7124 5.07379C18.3782 7.70481 21.0215 10.3605 23.6705 13.0084C23.7849 13.1228 23.9038 13.2304 24.1449 13.4592C24.2526 13.2876 24.3232 13.1115 24.4466 12.9882C27.0799 10.3448 29.712 7.70145 32.3688 5.08164C32.6346 4.82033 33.0372 4.62182 33.4062 4.55341C36.2055 4.0364 39.0126 3.56089 41.8163 3.06631C42.7247 2.90594 43.1475 3.33098 42.986 4.24164C42.4892 7.04537 41.9946 9.84799 41.5135 12.654C41.4417 13.0712 41.2757 13.3998 40.9763 13.6992C35.8533 18.8121 30.7371 23.9317 25.6163 29.048C25.4907 29.1736 25.3314 29.2656 25.2204 29.3486C26.1815 30.3097 27.072 31.2013 27.9905 32.1198C28.9079 31.2024 29.8544 30.2525 30.8032 29.3059C30.94 29.1691 31.078 29.0267 31.2406 28.9258C31.5894 28.7093 31.937 28.7586 32.2219 29.0424C32.5056 29.325 32.5617 29.6727 32.3475 30.0226C32.2477 30.1852 32.1075 30.3265 31.9718 30.4633C30.4645 31.974 28.9561 33.4835 27.4432 34.9897C27.3277 35.1041 27.1797 35.1871 27.0776 35.2611C27.5969 35.7758 28.0455 36.2222 28.4761 36.6506C31.8653 33.2581 35.2802 29.8386 38.6604 26.4562C38.2432 26.0457 37.7935 25.6016 37.3068 25.1216C36.8122 25.6196 36.2357 26.2016 35.6582 26.7803C35.2051 27.2345 34.761 27.6988 34.2899 28.134C33.9221 28.4727 33.4365 28.4581 33.1225 28.1429C32.8107 27.8312 32.8006 27.3377 33.1438 26.9777C33.4814 26.6222 33.8582 26.3026 34.309 25.882C33.8156 25.4211 33.3692 25.0308 32.9554 24.6102C32.6638 24.3142 32.62 23.9486 32.8522 23.5874C33.0641 23.2577 33.3894 23.1523 33.7483 23.2644C33.9367 23.3228 34.1116 23.4652 34.2585 23.6065C34.623 23.9586 34.9673 24.331 35.3778 24.756C35.8084 24.3153 36.2066 23.9015 36.6126 23.4955C37.2182 22.8899 37.5984 22.8921 38.2062 23.4977C38.9251 24.2143 39.644 24.931 40.3584 25.651C40.918 26.2151 40.9214 26.6188 40.364 27.1796C39.3961 28.1519 38.4227 29.1186 37.4885 30.0517C39.1068 31.6734 40.706 33.276 42.3759 34.9482C42.5251 34.78 42.7157 34.5355 42.9367 34.3246C43.3763 33.9063 43.8047 33.8951 44.2376 34.3157C45.0507 35.1063 45.8526 35.9093 46.6443 36.7213C47.084 37.1721 47.0671 37.5915 46.6342 38.057C46.5838 38.1119 46.5344 38.1691 46.4761 38.2151C45.8829 38.6895 45.5901 39.1291 45.9019 40.0218C46.3169 41.2106 45.875 42.3534 44.8914 43.1934C43.8821 44.0547 42.7236 44.2185 41.5056 43.7172C41.1905 43.5882 41.0313 43.6252 40.8283 43.8551C40.5916 44.1231 40.3326 44.3721 40.0701 44.6166C39.6417 45.017 39.2167 45.0416 38.8017 44.6413C37.9651 43.8327 37.1408 43.0095 36.3322 42.1717C35.9318 41.7579 35.9531 41.3306 36.3546 40.9033C36.5576 40.6869 36.792 40.4985 36.9714 40.3336C35.3262 38.685 33.7213 37.0779 32.0997 35.454C31.2025 36.3489 30.2638 37.2854 29.3251 38.2229C28.6376 38.9093 28.2855 38.9104 27.6047 38.2308C26.9285 37.5557 26.2533 36.8805 25.5782 36.2043C24.9109 35.5358 24.912 35.1949 25.5927 34.5175C25.9729 34.1396 26.3621 33.7717 26.7109 33.433C25.7857 32.5056 24.8963 31.6151 24.0372 30.7549C23.1939 31.5972 22.309 32.4786 21.3602 33.4263C21.737 33.7886 22.1688 34.1912 22.586 34.6084C23.149 35.1702 23.1445 35.5639 22.577 36.1347C21.8514 36.8648 21.1225 37.5938 20.3924 38.3194C19.8305 38.8779 19.4279 38.8801 18.8649 38.3183C16.6466 36.1044 14.4305 33.8884 12.2167 31.67C12.1012 31.5545 12.0159 31.4099 11.9419 31.3134C10.2832 32.9721 8.6851 34.5714 7.12622 36.1302C8.03463 37.0398 8.98902 37.9942 9.99724 39.0024C10.226 38.7624 10.5075 38.4596 10.798 38.1669C11.5449 37.4155 12.2929 36.6652 13.0466 35.9194C13.5165 35.4551 13.9718 35.4069 14.3442 35.768C14.7187 36.1314 14.6683 36.6237 14.1961 37.097C13.1643 38.1321 12.127 39.1628 10.992 40.2966C11.2421 40.4973 11.4933 40.6633 11.6997 40.8719C12.1505 41.3295 12.1651 41.7534 11.7277 42.2031C10.937 43.0162 10.1341 43.8181 9.3221 44.6087C8.88584 45.0338 8.46304 45.0215 8.01892 44.6177C7.95276 44.5572 7.88434 44.4977 7.82938 44.4271C7.35836 43.8136 6.90527 43.5646 6.02266 43.8641C4.78901 44.2835 3.63276 43.8046 2.795 42.7773C1.97968 41.7781 1.85518 40.642 2.33967 39.4577C2.45631 39.174 2.43723 39.0215 2.22191 38.8084C1.83275 38.4203 1.48509 37.9897 1.12061 37.5781C1.12061 37.4289 1.12061 37.2798 1.12061 37.1306H1.12173ZM16.4795 28.3886C16.567 28.3056 16.687 28.1968 16.8002 28.0835C19.3528 25.531 21.9053 22.9773 24.4578 20.4237C25.0152 19.8663 25.4997 19.7777 25.8843 20.1613C26.2668 20.5426 26.1782 21.036 25.6264 21.5878C23.0739 24.1415 20.5202 26.694 17.9677 29.2476C17.8544 29.3609 17.7457 29.4809 17.6817 29.5482C18.5419 30.4084 19.3785 31.2439 20.2264 32.0929C20.2432 32.0783 20.3015 32.0323 20.3531 31.9807C26.7883 25.5456 33.2245 19.1115 39.6541 12.6708C39.7785 12.5452 39.8705 12.3512 39.903 12.1751C40.2092 10.5041 40.4985 8.8308 40.7924 7.15752C40.9225 6.41509 41.0503 5.67266 41.1871 4.8865C41.0212 4.89659 40.9191 4.8921 40.8215 4.91005C38.5471 5.3093 36.2705 5.70294 33.9995 6.12238C33.7438 6.16949 33.4645 6.31192 33.2806 6.49472C26.9206 12.8368 20.5729 19.19 14.2163 25.5355C14.1053 25.6465 13.9247 25.6891 13.8238 25.7407C14.795 26.7097 15.626 27.5396 16.4784 28.3897L16.4795 28.3886ZM20.924 35.4114C17.4922 31.9773 14.0604 28.5422 10.6713 25.1508C10.2574 25.5579 9.81331 25.9953 9.43313 26.3699C12.8436 29.7837 16.2709 33.2143 19.6836 36.6293C20.0851 36.2345 20.5281 35.7994 20.9251 35.4102L20.924 35.4114ZM40.9965 36.1448C39.423 34.5714 37.8249 32.9732 36.2537 31.4009C35.3318 32.3261 34.3696 33.2917 33.4556 34.2091C35.0234 35.7803 36.6193 37.3796 38.1871 38.9508C39.1068 38.0312 40.0522 37.0869 40.9954 36.1448H40.9965ZM4.49183 36.1C4.07127 36.5216 3.63276 36.9601 3.23014 37.3628C5.04809 39.1785 6.88621 41.0144 8.68958 42.8155C9.10116 42.4173 9.54864 41.9844 9.96696 41.5785C8.14341 39.7538 6.31426 37.9235 4.4907 36.0988L4.49183 36.1ZM39.3905 42.8401C41.2118 41.0177 43.0499 39.1785 44.8668 37.3605C44.4641 36.9489 44.029 36.5048 43.6242 36.0921C41.7972 37.9179 39.958 39.756 38.1378 41.574C38.546 41.9867 38.9845 42.4297 39.3905 42.839V42.8401ZM44.3341 40.5601C43.7554 41.1433 43.1576 41.7456 42.6002 42.3074C43.6724 42.4566 44.5438 41.583 44.3341 40.5601ZM5.54267 42.3041C4.94603 41.7097 4.34603 41.1108 3.7707 40.5366C3.52061 41.537 4.39874 42.4342 5.54267 42.3041Z" fill="#B1B1B2"/>
<path d="M19.0153 16.0319C19.0142 16.7564 18.3592 17.1623 17.8321 16.8764C17.6527 16.7799 17.499 16.6263 17.3521 16.4793C15.3985 14.5302 13.4471 12.5777 11.4957 10.6263C11.4531 10.5836 11.4104 10.5422 11.369 10.4995C10.9271 10.0364 10.8856 9.56084 11.2546 9.20196C11.6078 8.85879 12.0901 8.89131 12.5196 9.31972C14.5697 11.362 16.6175 13.4076 18.6553 15.4622C18.8347 15.6427 18.9346 15.9007 19.0142 16.0296L19.0153 16.0319Z" fill="#B1B1B2"/>
<path d="M30.594 16.4398C29.8505 16.4477 29.4378 15.8017 29.7103 15.2701C29.7966 15.1019 29.9368 14.9572 30.0714 14.8204C31.554 13.3322 33.04 11.8484 34.5282 10.3658C34.6538 10.2402 34.7862 10.1124 34.9376 10.0249C35.2942 9.81852 35.6374 9.88918 35.9133 10.1763C36.1768 10.4499 36.2228 10.7841 36.0299 11.1217C35.9503 11.2608 35.8348 11.3853 35.7204 11.4996C34.2165 13.0081 32.7125 14.5176 31.1974 16.0148C30.9955 16.2144 30.7275 16.3479 30.5929 16.441L30.594 16.4398Z" fill="#B1B1B2"/>
<path d="M27.2329 19.5596C27.0591 19.4138 26.7597 19.2736 26.6554 19.0437C26.5567 18.8273 26.5645 18.4381 26.7013 18.2632C27.0647 17.7978 27.5021 17.3806 27.9518 16.9925C28.258 16.7278 28.6325 16.785 28.932 17.0497C29.2337 17.3155 29.3537 17.7058 29.1058 18.0131C28.6976 18.5189 28.203 18.9563 27.7286 19.4049C27.6434 19.4856 27.4819 19.4856 27.2318 19.5596H27.2329Z" fill="#B1B1B2"/>
</svg>
