<svg width="48" height="48" viewBox="0 0 48 48" fill="none" xmlns="http://www.w3.org/2000/svg">
<path d="M38.8008 32.7377C37.0904 36.6497 34.4814 39.8098 30.8959 42.1387C29.9269 42.7693 28.88 43.2695 27.8227 43.7398C27.628 43.4148 27.9185 43.2665 28.0803 43.0973C28.9489 42.1927 29.87 41.3375 30.7177 40.4104C32.7067 38.9696 34.3302 37.1769 35.7515 35.1894C36.5048 34.454 37.2387 33.6962 37.989 32.9578C38.1748 32.7751 38.3635 32.5909 38.6166 32.513C38.8188 32.4501 38.8996 32.531 38.8023 32.7377H38.8008Z" fill="#B1B1B2"/>
<path d="M38.8008 32.7419C38.69 32.372 38.5088 32.709 38.4653 32.7494C37.9307 33.2362 37.4229 33.7514 36.8927 34.2426C36.5288 34.5796 36.2577 35.0304 35.75 35.1952C36.5947 33.8397 37.3136 32.4229 37.9082 30.9402C38.3755 30.3606 38.9491 29.8843 39.4778 29.3646C39.6006 29.2448 39.8178 29.0156 39.9361 29.4035C39.6904 30.5613 39.343 31.6845 38.8008 32.7419Z" fill="#B1B1B2"/>
<path d="M7.43213 11.3279C7.43213 10.9925 7.43213 10.6555 7.43213 10.32C8.50448 9.37793 9.50944 8.36848 10.444 7.28864C11.2857 6.96963 12.1379 6.68507 13.017 6.48438C13.2028 6.77643 12.9452 6.91721 12.7999 7.08196C12.3655 7.5747 11.8204 7.9671 11.4669 8.53473C10.7975 8.75489 10.1355 9.00201 9.45701 9.18773C9.03316 9.30455 8.89838 9.42436 8.9493 9.93957C9.05264 10.9925 8.98674 12.0633 8.98524 13.1267C8.98524 13.7976 8.97176 14.4686 8.96427 15.1396C8.89238 15.1621 8.83846 15.1396 8.80402 15.0707C8.6857 14.8206 8.74411 14.551 8.71116 14.2919C8.71266 13.5041 8.69319 12.7148 8.72015 11.9285C8.71266 11.4987 8.78904 11.0628 8.67821 10.621C8.33973 10.6914 8.20793 10.961 7.99526 11.1228C7.83051 11.2486 7.70021 11.4747 7.43512 11.3294L7.43213 11.3279Z" fill="#B1B1B2"/>
<path d="M30.7174 40.4141C30.5167 40.9637 30.0509 41.2962 29.666 41.6946C29.1598 42.2158 28.6386 42.722 28.1278 43.2387C27.9871 43.381 27.7998 43.5008 27.8223 43.7435C26.8593 44.2182 25.8438 44.5372 24.791 44.7469C24.7026 44.4653 24.9063 44.2901 25.0591 44.1269C25.5473 43.6057 26.0311 43.0755 26.5792 42.6142C28.032 42.0181 29.4084 41.2812 30.7159 40.4156L30.7174 40.4141Z" fill="#B1B1B2"/>
<path d="M21.4237 3.8315C22.1965 3.57839 22.9678 3.31929 23.7421 3.07366C24.0836 2.96583 24.3966 3.07816 24.6932 3.2474C24.3397 3.85696 23.7407 4.25685 23.3333 4.81998C22.2714 5.22885 21.1736 5.52091 20.0833 5.83393C19.7957 5.92828 19.7688 5.76653 19.8242 5.55535C19.8811 5.33369 20.0413 5.17194 20.2016 5.02067C20.6149 4.62977 20.9714 4.18046 21.4252 3.8315H21.4237Z" fill="#B1B1B2"/>
<path d="M11.4651 8.53199C11.3243 8.28338 11.5429 8.16955 11.6672 8.03775C12.0087 7.67681 12.3682 7.33383 12.7156 6.98038C12.8549 6.83959 13.0376 6.72127 13.0152 6.48164C14.0036 6.09524 15.0266 5.81367 16.0435 5.51562C16.1259 5.82565 15.8952 5.9889 15.7245 6.17162C15.2722 6.65687 14.76 7.08522 14.3661 7.62589C13.4181 7.98833 12.443 8.2654 11.4636 8.53199H11.4651Z" fill="#B1B1B2"/>
<path d="M14.3688 7.62508C14.3269 7.34501 14.5321 7.19973 14.6893 7.0215C15.1386 6.51678 15.7272 6.13636 16.0462 5.51332C16.9359 5.21678 17.815 4.88728 18.7331 4.68359C18.9203 4.97565 18.6612 5.11493 18.5174 5.28267C18.0891 5.78141 17.5275 6.15883 17.1845 6.73694C16.2754 7.12634 15.3079 7.32853 14.3703 7.62358L14.3688 7.62508Z" fill="#B1B1B2"/>
<path d="M26.5791 42.6094C26.4233 43.0003 26.0879 43.2414 25.8093 43.5305C25.4423 43.9124 25.026 44.2509 24.7908 44.7421C24.0105 45.1465 23.2827 44.7915 22.5443 44.5878C22.2792 44.4396 22.444 44.2628 22.5368 44.128C22.7764 43.7791 23.0415 43.4466 23.4444 43.2639C24.3415 43.4481 25.1293 43.0317 25.9516 42.8086C26.1627 42.7517 26.3694 42.6753 26.5791 42.6094Z" fill="#B1B1B2"/>
<path d="M17.1824 6.74148C16.9368 6.51383 17.2138 6.42397 17.3142 6.31763C17.6781 5.93122 18.0615 5.56428 18.4344 5.18686C18.5722 5.04608 18.755 4.92776 18.731 4.68963C19.6086 4.34216 20.5148 4.08605 21.4239 3.83594C21.1318 4.43202 20.5537 4.775 20.1568 5.27523C20.043 5.41751 19.6191 5.59274 20.0819 5.83836C19.1414 6.22178 18.1544 6.45841 17.1809 6.74298L17.1824 6.74148Z" fill="#B1B1B2"/>
<path d="M39.9356 29.4045C39.6825 29.1229 39.5896 29.4419 39.4728 29.5483C38.9531 30.0141 38.5278 30.5862 37.9077 30.9411C38.1728 29.9706 38.4364 29.0001 38.7015 28.0296C39.1358 27.6792 39.5013 27.2538 39.9281 26.8989C40.0944 26.7596 40.4194 26.469 40.3789 27.0576C40.343 27.8619 40.1902 28.6437 39.9356 29.4075V29.4045Z" fill="#B1B1B2"/>
<path d="M10.4452 7.28516C10.3883 7.59218 10.1921 7.81834 9.98544 8.02802C9.34592 8.67952 8.69592 9.31903 8.05191 9.96754C7.87668 10.1428 7.68647 10.2836 7.43336 10.3165C7.42737 9.83275 7.43186 9.34899 7.41239 8.86673C7.39591 8.4309 7.6011 8.14334 7.9935 8.01753C8.80525 7.75843 9.62599 7.52778 10.4437 7.28516H10.4452Z" fill="#B1B1B2"/>
<path d="M8.96421 20.0543C8.96421 21.5865 8.96721 23.1186 8.96871 24.6493C8.67965 24.5729 8.76202 24.3258 8.72907 24.1311C8.72009 23.4316 8.75903 22.7292 8.70212 21.9714C8.3876 22.0867 8.24981 22.3428 8.04312 22.5046C7.8649 22.6438 7.73011 22.8984 7.43506 22.7532C7.43506 21.9684 7.43506 21.1821 7.43506 20.3973C7.72861 19.9899 8.124 19.6829 8.48495 19.3429C8.60177 19.2321 8.75903 19.1317 8.91928 19.3025C8.96421 19.5511 8.89083 19.8072 8.96421 20.0543Z" fill="#B1B1B2"/>
<path d="M40.4751 8.41019C40.7237 8.90144 40.5559 9.42563 40.5904 9.93335C40.6159 10.3198 40.5844 10.7107 40.5769 11.0986C40.2639 11.4056 39.9194 11.6767 39.6019 11.9792C39.4611 12.114 39.2754 12.3252 39.0792 12.0182C39.0777 11.2558 39.0702 10.4935 39.0822 9.73116C39.0897 9.20098 39.9449 8.4042 40.4751 8.41019Z" fill="#B1B1B2"/>
<path d="M8.8759 11.776C8.8759 12.6356 8.8759 13.4938 8.8759 14.3535C8.4865 14.8717 8.14653 15.4453 7.43213 15.5831C7.43213 14.6875 7.43213 13.7919 7.43213 12.8962C7.69572 12.5712 8.00275 12.2867 8.30828 12.0021C8.46254 11.8583 8.6198 11.6831 8.8759 11.776Z" fill="#B1B1B2"/>
<path d="M7.43228 15.5812C8.0074 15.2816 8.36235 14.723 8.87606 14.3516C8.87606 14.6137 8.87606 14.8743 8.87756 15.1364C8.99288 15.7145 8.90002 16.3001 8.93147 16.8797C8.55405 17.4488 8.17514 18.0164 7.43228 18.1602C7.43228 17.3005 7.43228 16.4424 7.43228 15.5827V15.5812Z" fill="#B1B1B2"/>
<path d="M7.43273 22.7567C7.90151 22.6084 8.11268 22.1546 8.47063 21.8746C8.56649 21.7997 8.63388 21.6379 8.78365 21.7023C8.93492 21.7667 8.87202 21.93 8.87352 22.0498C8.87951 22.7342 8.87651 23.4172 8.87502 24.1016C8.74022 24.2529 8.6174 24.4162 8.46464 24.551C8.00335 24.9568 7.54056 25.3597 7.63642 26.0711C7.6454 26.143 7.58399 26.2059 7.52259 26.2523C7.31441 25.0916 7.44172 23.9234 7.43273 22.7567Z" fill="#B1B1B2"/>
<path d="M40.5736 16.7011C40.5811 17.4634 40.596 18.2242 40.593 18.9866C40.5915 19.4119 40.3729 19.7025 39.9475 19.7699C39.5671 19.8298 39.2496 19.713 39.1298 19.2921C39.016 18.8338 39.1073 18.368 39.0804 17.9067C39.0654 17.6476 39.2451 17.5068 39.4188 17.3616C39.648 17.1699 39.8367 16.9332 40.0703 16.7505C40.2171 16.6352 40.3789 16.4285 40.5736 16.7011Z" fill="#B1B1B2"/>
<path d="M38.9258 26.5655C38.9647 26.0039 39.0037 25.4437 39.0426 24.8821C38.9048 24.0599 39.4245 23.5866 39.9787 23.1373C40.1449 23.0025 40.3216 22.8273 40.5718 22.983C40.5897 24.0015 40.6796 25.0214 40.4909 26.0338C40.3037 25.929 40.419 25.6774 40.2527 25.5426C39.7555 25.8107 39.5219 26.4277 38.9258 26.564V26.5655Z" fill="#B1B1B2"/>
<path d="M12.425 37.8994C11.9203 37.3842 11.4949 36.8091 11.125 36.192C11.2778 35.6364 11.7915 35.1811 12.2528 35.1916C12.6931 35.7922 13.1319 36.3927 13.5722 36.9933C13.2817 37.4127 13.0795 37.9444 12.4235 37.9009L12.425 37.8994Z" fill="#B1B1B2"/>
<path d="M23.4452 43.2644C23.2235 43.6418 22.8087 43.8545 22.602 44.2499C22.5421 44.3667 22.4552 44.4551 22.5451 44.5869C21.7753 44.3997 21.0249 44.157 20.312 43.8051C20.4243 43.2135 20.8137 42.851 21.3215 42.5859C22.0299 42.8121 22.7368 43.0367 23.4452 43.2629V43.2644Z" fill="#B1B1B2"/>
<path d="M40.4774 8.41129C39.775 8.89655 39.0082 9.3159 39.125 10.3868C39.1864 10.9544 39.137 11.534 39.137 12.1091C39.3287 12.3877 39.3631 12.6618 39.119 12.9299C38.9228 12.1451 39.0516 11.3483 39.0366 10.5575C39.0127 9.36383 39.0306 9.36383 37.9178 8.9909C37.8325 8.96245 37.7501 8.9265 37.6662 8.89355C37.5809 8.76775 37.5928 8.62996 37.6887 8.53261C38.0047 8.2121 38.2129 7.76878 38.6877 7.625C39.3092 7.83019 40.0356 7.79724 40.4774 8.41129Z" fill="#B1B1B2"/>
<path d="M12.2534 35.1914C11.7352 35.3636 11.4731 35.8264 11.1257 36.1918C10.6928 35.5942 10.2585 34.9982 9.98291 34.3062C10.2974 33.8809 10.5236 33.3342 11.2035 33.4046C11.554 34.0007 11.903 34.5953 12.2534 35.1914Z" fill="#B1B1B2"/>
<path d="M9.08304 26.674C9.15942 27.1623 9.23431 27.652 9.31069 28.1403C9.02912 28.7094 8.48097 29.0359 8.08408 29.5017C7.82198 28.7753 7.68569 28.0234 7.63477 27.2551C7.95827 26.7159 8.30723 26.2082 9.00067 26.1094H8.99618C9.10551 26.2861 8.98719 26.4973 9.08454 26.674H9.08304Z" fill="#B1B1B2"/>
<path d="M7.43213 18.1578C7.82303 18.0066 8.05666 17.6666 8.35171 17.3985C8.50897 17.2547 8.62279 17.0436 8.8759 17.0391C8.96577 17.7864 8.96427 18.5338 8.8759 19.2796C8.52694 19.3201 8.38616 19.6346 8.16151 19.8353C7.93086 20.0405 7.73316 20.2831 7.43362 20.3984C7.43362 19.6511 7.43362 18.9037 7.43362 18.1578H7.43213Z" fill="#B1B1B2"/>
<path d="M22.4664 23.0811C21.9377 23.2623 21.6561 23.7206 21.3131 24.11C20.6152 23.812 20.1494 23.2773 19.793 22.6273C20.085 22.1705 20.3187 21.6403 20.9851 21.6328C21.4779 22.1151 21.9721 22.5973 22.4649 23.0796L22.4664 23.0811Z" fill="#B1B1B2"/>
<path d="M23.3335 4.81868C23.5896 4.12524 24.1663 3.70739 24.6934 3.24609C25.306 3.38238 25.9111 3.54563 26.4847 3.80773C26.2885 4.38285 25.8512 4.73481 25.3539 5.03285C25.1053 4.96396 24.8447 4.92202 24.6111 4.81718C24.1767 4.62248 23.7589 4.62847 23.332 4.81718L23.3335 4.81868Z" fill="#B1B1B2"/>
<path d="M8.085 29.502C8.29318 28.867 8.89825 28.5899 9.31161 28.1406C9.49733 28.8475 9.68304 29.556 9.86726 30.2629C9.41496 30.5594 9.11541 31.0357 8.63915 31.3038C8.37555 30.7272 8.17486 30.1311 8.0835 29.5005L8.085 29.502Z" fill="#B1B1B2"/>
<path d="M34.317 7.83454C33.715 7.66231 33.0979 7.5395 32.5243 7.2744C32.4824 6.69479 33.056 6.07474 33.6551 6.05078C34.2706 6.17809 34.8682 6.3653 35.4478 6.60942C35.1752 7.11415 34.7154 7.44514 34.3185 7.83454H34.317Z" fill="#B1B1B2"/>
<path d="M30.0702 4.92728C30.6648 5.12348 31.2983 5.19237 31.8615 5.48742C31.6653 6.06254 31.2264 6.413 30.7322 6.71254C30.1301 6.5418 29.5116 6.42049 28.9395 6.1524C29.0817 5.52786 29.4562 5.11599 30.0702 4.92578V4.92728Z" fill="#B1B1B2"/>
<path d="M9.00108 26.1085C8.43345 26.3571 8.12043 26.9068 7.63518 27.2542C7.47343 26.9337 7.53933 26.5877 7.52285 26.2523C7.34013 25.1365 8.07401 24.5988 8.87528 24.1016C8.90074 24.2858 8.81088 24.4895 8.96664 24.6527C8.97712 25.138 8.9891 25.6232 8.99958 26.1085H9.00108Z" fill="#B1B1B2"/>
<path d="M25.354 5.02981C25.7314 4.62093 26.1073 4.21356 26.4848 3.80469C27.0988 3.94098 27.7024 4.10573 28.2775 4.36483C28.0798 4.93995 27.644 5.2919 27.1468 5.58995C26.5492 5.40273 25.9516 5.21552 25.354 5.02981Z" fill="#B1B1B2"/>
<path d="M27.1465 5.59231C27.5239 5.18343 27.8998 4.77606 28.2772 4.36719C28.8913 4.50198 29.4904 4.6847 30.07 4.92883C29.6072 5.25832 29.2418 5.67618 28.9392 6.15544C28.3416 5.96823 27.7441 5.78102 27.1465 5.5938V5.59231Z" fill="#B1B1B2"/>
<path d="M8.64014 31.3065C9.00108 30.9021 9.24969 30.366 9.86824 30.2656C10.0944 30.8632 10.3206 31.4623 10.5482 32.0599C10.021 32.2096 9.80534 32.7758 9.31709 32.9765C9.00856 32.4538 8.77493 31.9011 8.64014 31.3065Z" fill="#B1B1B2"/>
<path d="M21.3221 42.5877C20.9941 43.0011 20.5733 43.3381 20.3127 43.8068C19.7211 43.6091 19.1669 43.3336 18.6353 43.0116C18.8659 42.4874 19.1535 42.0216 19.7795 41.9062C20.2947 42.1339 20.8084 42.3601 21.3236 42.5877H21.3221Z" fill="#B1B1B2"/>
<path d="M38.6865 7.6253C38.4019 8.09408 37.8253 8.32622 37.6636 8.89385C37.1439 8.72911 36.6257 8.56286 36.106 8.39811C36.0416 8.35917 35.9712 8.32023 35.9727 8.23486C35.9817 7.74661 36.7245 7.12657 37.2382 7.17449C37.74 7.26435 38.2207 7.42161 38.6865 7.6253Z" fill="#B1B1B2"/>
<path d="M30.7324 6.7134C31.1083 6.30453 31.4858 5.89566 31.8617 5.48828C32.4743 5.62457 33.0763 5.7998 33.6529 6.05291C33.1078 6.30603 32.7109 6.69543 32.5222 7.27654C31.9201 7.1058 31.309 6.96501 30.7324 6.7149V6.7134Z" fill="#B1B1B2"/>
<path d="M37.2379 7.17251C36.6673 7.29083 36.1057 7.8974 36.1057 8.39613C35.5006 8.23438 34.894 8.08162 34.3159 7.83449C34.5555 7.29982 35.0273 6.9808 35.4452 6.60938C36.0592 6.74417 36.6598 6.9209 37.2379 7.17251Z" fill="#B1B1B2"/>
<path d="M19.7789 41.9085C19.3101 42.1856 19.009 42.6379 18.6346 43.0138C18.1149 42.7787 17.6342 42.4761 17.1654 42.1541C17.2942 41.582 17.7525 41.3034 18.1868 41.0039C18.717 41.3049 19.2487 41.6075 19.7789 41.9085Z" fill="#B1B1B2"/>
<path d="M39.1165 12.9318C39.1225 12.6577 39.1285 12.3836 39.1345 12.111C39.4835 12.0691 39.6258 11.7546 39.8504 11.5539C40.0691 11.3592 40.2638 11.1375 40.5768 11.1016C40.5828 11.6198 40.5948 12.138 40.5933 12.6562C40.5933 13.08 40.3896 13.3736 39.9657 13.4485C39.5524 13.5203 39.2379 13.3676 39.1165 12.9318Z" fill="#B1B1B2"/>
<path d="M12.4243 37.8998C12.956 37.786 13.1402 37.2318 13.5731 36.9922C13.961 37.3906 14.3938 37.747 14.6933 38.2248C14.4612 38.6771 14.1047 39.0081 13.6779 39.2702C13.2256 38.8448 12.7583 38.433 12.4258 37.8983L12.4243 37.8998Z" fill="#B1B1B2"/>
<path d="M38.9253 26.5647C39.2968 26.2083 39.6652 25.8473 40.0426 25.4954C40.143 25.4025 40.2238 25.2093 40.3931 25.2947C40.5488 25.3726 40.4605 25.5613 40.4755 25.7006C40.4874 25.8099 40.4844 25.9222 40.4889 26.0331C40.4844 26.376 40.5294 26.725 40.3781 27.0515C40.3242 26.7115 40.1729 26.8209 40.0157 26.9751C39.7506 27.2372 39.4855 27.4978 39.2264 27.7644C39.0796 27.9142 38.9343 28.055 38.7007 28.025C38.7756 27.5382 38.849 27.0515 38.9238 26.5632L38.9253 26.5647Z" fill="#B1B1B2"/>
<path d="M9.31509 32.9736C9.52028 32.6336 9.85277 32.4104 10.1074 32.1154C10.2422 31.9596 10.383 31.9461 10.5462 32.057C10.7649 32.5063 10.985 32.9556 11.2037 33.4049C10.6406 33.4933 10.4324 34.0639 9.98307 34.3065C9.70001 33.8916 9.47385 33.4498 9.31509 32.9736Z" fill="#B1B1B2"/>
<path d="M15.9284 41.2697C15.4821 40.9747 15.0702 40.6407 14.6958 40.2573C14.8291 39.7256 15.3338 39.2568 15.7936 39.2344C16.174 39.5249 16.5844 39.778 16.9079 40.1405C16.7926 40.7006 16.3537 40.9792 15.9269 41.2697H15.9284Z" fill="#B1B1B2"/>
<path d="M15.9297 41.266C16.2562 40.8901 16.5842 40.5126 16.9107 40.1367C17.336 40.4258 17.7629 40.7133 18.1882 41.0024C17.8482 41.3858 17.5068 41.7692 17.1668 42.1526C16.7295 41.892 16.3101 41.6075 15.9297 41.2675V41.266Z" fill="#B1B1B2"/>
<path d="M8.8759 11.7734C8.48051 11.9172 8.24837 12.2601 7.95333 12.5267C7.79607 12.669 7.68524 12.8832 7.43213 12.8937C7.43213 12.371 7.43213 11.8483 7.43213 11.3241C7.85897 11.2177 8.03271 10.8044 8.34872 10.5647C8.47902 10.4659 8.61381 10.3176 8.78006 10.3835C8.9478 10.4494 8.86842 10.6426 8.87142 10.7804C8.8819 11.1114 8.87441 11.4424 8.87441 11.7734H8.8759Z" fill="#B1B1B2"/>
<path d="M15.7945 39.233C15.3122 39.4502 15.0217 39.871 14.6967 40.2559C14.3252 39.9609 13.9763 39.6419 13.6782 39.272C13.9538 38.8631 14.3177 38.5381 14.6937 38.2266C15.0965 38.5231 15.4635 38.8601 15.796 39.2345L15.7945 39.233Z" fill="#B1B1B2"/>
<path d="M40.5741 16.7038C40.4902 16.6664 40.4064 16.62 40.321 16.7008C40.2536 16.7652 40.1982 16.8446 40.1218 16.8926C39.2322 17.4632 38.9626 18.2884 39.1303 19.2949C38.9251 18.4022 39.009 17.4991 39.0824 16.605C39.1138 16.2261 39.4314 15.9999 39.8447 16.0254C40.2671 16.0508 40.5307 16.262 40.5741 16.7038Z" fill="#B1B1B2"/>
<path d="M40.5698 22.9834C39.752 23.3683 39.1245 23.906 39.0406 24.8825C39.0361 24.3268 39.0302 23.7712 39.0287 23.217C39.0287 22.7512 39.2368 22.4083 39.7041 22.3364C40.1699 22.266 40.4784 22.5041 40.5698 22.9849V22.9834Z" fill="#B1B1B2"/>
<path d="M8.87682 19.2784C8.87682 18.5311 8.87682 17.7837 8.87682 17.0379C8.87682 16.4029 8.87683 15.7678 8.87832 15.1328C8.90678 15.1328 8.93374 15.1328 8.96219 15.1328C8.96219 16.7728 8.96219 18.4143 8.96219 20.0543C8.79295 19.8116 8.91278 19.5361 8.87533 19.2784H8.87682Z" fill="#B1B1B2"/>
<path d="M9.0836 26.6725C8.92184 26.5063 9.01021 26.2996 8.99524 26.1094C9.12853 26.2801 9.08809 26.4793 9.0836 26.6725Z" fill="#B1B1B2"/>
<path d="M31.9352 17.157C31.8932 17.0986 31.8603 17.0267 31.8064 16.9848C30.7385 16.1656 29.3292 16.2569 28.3437 17.2334C26.3787 19.1774 24.4257 21.1334 22.4682 23.0835C21.7988 23.0879 21.5516 23.6002 21.2671 24.0674C21.2835 24.0824 21.2985 24.0974 21.315 24.1124C22.2571 25.2416 22.5386 25.2566 23.5571 24.2397C25.4636 22.3331 27.3702 20.425 29.2783 18.52C29.8848 17.9134 30.2098 17.87 30.9497 18.2893C31.3406 19.0172 31.2972 19.3347 30.7086 19.9233C28.2688 22.3631 25.8246 24.7998 23.3878 27.2426C23.2006 27.4298 22.9894 27.5736 22.7678 27.7084C22.5865 27.7668 22.4038 27.7608 22.2211 27.7128C22.1822 27.7054 22.1417 27.6979 22.1028 27.6904C21.6819 27.3175 21.2611 26.9445 20.8402 26.5716C20.4733 26.0414 19.9581 25.661 19.4953 25.2267C19.1463 24.7609 18.724 24.367 18.2807 23.9956C17.8838 23.5013 17.4135 23.0805 16.9552 22.6461C16.9507 22.6446 16.9477 22.6431 16.9432 22.6416C16.9462 22.6401 16.9492 22.6386 16.9522 22.6371C16.6901 21.8254 16.8039 21.5049 17.5063 21.072C17.9976 21.0106 18.402 21.1814 18.7375 21.5348C19.0849 21.9332 19.4474 22.3151 19.8607 22.6461C20.2037 22.2747 20.4718 21.8179 20.987 21.6367C20.6485 21.2203 20.2696 20.8444 19.8413 20.5194C19.5881 20.1165 19.2422 19.8379 18.7764 19.7166C17.7085 19.2523 16.5628 19.5354 15.8169 20.446C15.0966 21.3252 15.0411 22.5338 15.6777 23.4504C16.1 24.1154 16.7171 24.5961 17.2787 25.1293C17.6516 25.5786 18.071 25.9815 18.5083 26.3664C18.8902 26.8052 19.2961 27.2201 19.7424 27.596C20.0824 28.0019 20.4538 28.3763 20.8642 28.7133C21.2791 29.0907 21.7538 29.3079 22.3259 29.266C22.4008 29.266 22.4757 29.266 22.5506 29.2675C23.3309 29.2944 23.9315 28.938 24.4632 28.4048C26.9074 25.953 29.3502 23.4998 31.8109 21.0631C32.38 20.4999 32.723 19.8664 32.7439 19.0636C32.8308 18.2773 32.4774 17.6797 31.9367 17.16L31.9352 17.157Z" fill="#B1B1B2"/>
<path d="M22.2188 27.7076C22.4015 27.7061 22.5842 27.7046 22.7654 27.7031C22.5842 27.8454 22.4015 27.8409 22.2188 27.7076Z" fill="#B1B1B2"/>
</svg>
