<svg width="370" height="183" viewBox="0 0 370 183" fill="none" xmlns="http://www.w3.org/2000/svg">
<rect x="0.174355" y="0.197793" width="369.651" height="182.531" rx="8.30702" fill="#17181F"/>
<rect x="0.174355" y="0.197793" width="369.651" height="182.531" rx="8.30702" stroke="url(#paint0_linear_10739_3008)" stroke-width="0.34871"/>
<path d="M47.604 39.5238C47.604 39.4026 47.5853 39.2939 47.548 39.1976C47.5139 39.0982 47.4487 39.0082 47.3524 38.9274C47.2561 38.8436 47.121 38.7612 46.947 38.6805C46.7731 38.5997 46.5479 38.5159 46.2715 38.4289C45.964 38.3295 45.672 38.2177 45.3956 38.0935C45.1223 37.9692 44.88 37.8248 44.6688 37.6602C44.4607 37.4925 44.2961 37.2983 44.175 37.0778C44.0569 36.8573 43.9979 36.601 43.9979 36.3091C43.9979 36.0264 44.06 35.7702 44.1843 35.5404C44.3085 35.3074 44.4824 35.1086 44.7061 34.944C44.9297 34.7763 45.1937 34.6474 45.4981 34.5573C45.8056 34.4672 46.1426 34.4222 46.5091 34.4222C47.0092 34.4222 47.4455 34.5123 47.8183 34.6924C48.191 34.8726 48.4798 35.1195 48.6848 35.4332C48.8929 35.7469 48.997 36.1056 48.997 36.5094H47.6086C47.6086 36.3106 47.5667 36.1367 47.4828 35.9876C47.4021 35.8354 47.2778 35.7158 47.1101 35.6289C46.9455 35.5419 46.7374 35.4984 46.4858 35.4984C46.2435 35.4984 46.0416 35.5357 45.8801 35.6102C45.7186 35.6817 45.5975 35.7795 45.5167 35.9038C45.436 36.0249 45.3956 36.1615 45.3956 36.3137C45.3956 36.4287 45.4236 36.5327 45.4795 36.6259C45.5385 36.7191 45.6254 36.806 45.7404 36.8868C45.8553 36.9675 45.9966 37.0436 46.1643 37.1151C46.3321 37.1865 46.5262 37.2564 46.7467 37.3247C47.1163 37.4366 47.4409 37.5623 47.7204 37.7021C48.0031 37.8419 48.2391 37.9987 48.4286 38.1727C48.6181 38.3466 48.7609 38.5438 48.8572 38.7644C48.9535 38.9849 49.0016 39.2349 49.0016 39.5144C49.0016 39.8095 48.9442 40.0735 48.8293 40.3065C48.7143 40.5394 48.5482 40.7366 48.3307 40.8982C48.1133 41.0597 47.854 41.1824 47.5527 41.2662C47.2514 41.3501 46.9144 41.392 46.5417 41.392C46.2063 41.392 45.8755 41.3485 45.5494 41.2616C45.2232 41.1715 44.9266 41.0364 44.6595 40.8562C44.3955 40.6761 44.1843 40.4462 44.0259 40.1667C43.8675 39.8872 43.7883 39.5564 43.7883 39.1743H45.1906C45.1906 39.3855 45.2232 39.5641 45.2884 39.7101C45.3537 39.8561 45.4453 39.9741 45.5633 40.0642C45.6845 40.1543 45.8273 40.2195 45.992 40.2599C46.1597 40.3003 46.3429 40.3204 46.5417 40.3204C46.784 40.3204 46.9828 40.2863 47.1381 40.2179C47.2965 40.1496 47.4129 40.0549 47.4875 39.9338C47.5651 39.8126 47.604 39.676 47.604 39.5238ZM53.115 40.0922V36.2578H54.4568V41.2988H53.1942L53.115 40.0922ZM53.2641 39.0579L53.6601 39.0486C53.6601 39.384 53.6213 39.6961 53.5436 39.985C53.466 40.2708 53.3495 40.5192 53.1942 40.7304C53.0389 40.9385 52.8432 41.1016 52.6072 41.2196C52.3711 41.3345 52.0931 41.392 51.7732 41.392C51.5278 41.392 51.3011 41.3578 51.093 41.2895C50.888 41.2181 50.711 41.1078 50.5619 40.9587C50.4159 40.8065 50.301 40.6124 50.2171 40.3764C50.1364 40.1372 50.096 39.8499 50.096 39.5144V36.2578H51.4378V39.5238C51.4378 39.6729 51.4548 39.7986 51.489 39.9011C51.5263 40.0036 51.5775 40.0875 51.6428 40.1527C51.708 40.2179 51.7841 40.2645 51.871 40.2925C51.9611 40.3204 52.0605 40.3344 52.1692 40.3344C52.4456 40.3344 52.6631 40.2785 52.8215 40.1667C52.983 40.0549 53.0963 39.9027 53.1616 39.7101C53.2299 39.5144 53.2641 39.297 53.2641 39.0579ZM55.7468 34.1427H57.0886V40.1434L56.9534 41.2988H55.7468V34.1427ZM60.2799 38.7271V38.8249C60.2799 39.2007 60.2396 39.5455 60.1588 39.8592C60.0812 40.1729 59.96 40.4447 59.7954 40.6745C59.6308 40.9013 59.4258 41.0783 59.1804 41.2056C58.9382 41.3299 58.6524 41.392 58.3232 41.392C58.0157 41.392 57.7486 41.3299 57.5218 41.2056C57.2982 41.0814 57.1103 40.9059 56.9581 40.6792C56.8059 40.4525 56.6832 40.1869 56.59 39.8825C56.4969 39.5781 56.427 39.2458 56.3804 38.8855V38.6712C56.427 38.3109 56.4969 37.9785 56.59 37.6742C56.6832 37.3698 56.8059 37.1042 56.9581 36.8775C57.1103 36.6507 57.2982 36.4753 57.5218 36.351C57.7455 36.2268 58.0095 36.1647 58.3139 36.1647C58.6462 36.1647 58.9351 36.2283 59.1804 36.3557C59.4289 36.4799 59.6339 36.657 59.7954 36.8868C59.96 37.1135 60.0812 37.3837 60.1588 37.6975C60.2396 38.0081 60.2799 38.3513 60.2799 38.7271ZM58.9382 38.8249V38.7271C58.9382 38.5221 58.9226 38.3295 58.8916 38.1494C58.8636 37.9661 58.8139 37.8062 58.7425 37.6695C58.6711 37.5297 58.5732 37.4195 58.449 37.3387C58.3278 37.258 58.171 37.2176 57.9784 37.2176C57.7952 37.2176 57.6399 37.2486 57.5125 37.3108C57.3852 37.3729 57.2796 37.4598 57.1957 37.5717C57.115 37.6835 57.0544 37.817 57.014 37.9723C56.9736 38.1245 56.9488 38.2922 56.9395 38.4755V39.0858C56.9488 39.3312 56.9892 39.5486 57.0606 39.7381C57.1351 39.9244 57.247 40.072 57.396 40.1807C57.5482 40.2863 57.7455 40.3391 57.9877 40.3391C58.1772 40.3391 58.3341 40.3018 58.4583 40.2273C58.5825 40.1527 58.6788 40.0471 58.7471 39.9105C58.8186 39.7738 58.8683 39.6138 58.8962 39.4306C58.9242 39.2442 58.9382 39.0423 58.9382 38.8249ZM64.1044 39.9058C64.1044 39.8095 64.0765 39.7225 64.0206 39.6449C63.9647 39.5672 63.8606 39.4958 63.7084 39.4306C63.5593 39.3623 63.3435 39.3001 63.0608 39.2442C62.8061 39.1883 62.5685 39.1184 62.348 39.0346C62.1306 38.9476 61.9411 38.8436 61.7796 38.7224C61.6212 38.6013 61.497 38.4584 61.4069 38.2938C61.3168 38.1261 61.2718 37.9351 61.2718 37.7207C61.2718 37.5095 61.3168 37.3108 61.4069 37.1244C61.5001 36.938 61.6321 36.7734 61.8029 36.6306C61.9768 36.4846 62.188 36.3712 62.4365 36.2904C62.6881 36.2066 62.9708 36.1647 63.2845 36.1647C63.7224 36.1647 64.0982 36.2345 64.4119 36.3743C64.7287 36.5141 64.971 36.7066 65.1387 36.952C65.3095 37.1943 65.395 37.4707 65.395 37.7813H64.0532C64.0532 37.6509 64.0252 37.5344 63.9693 37.4319C63.9165 37.3263 63.8327 37.244 63.7177 37.185C63.6059 37.1228 63.4599 37.0918 63.2798 37.0918C63.1307 37.0918 63.0018 37.1182 62.8931 37.171C62.7844 37.2207 62.7005 37.289 62.6415 37.376C62.5856 37.4598 62.5577 37.553 62.5577 37.6555C62.5577 37.7332 62.5732 37.8031 62.6042 37.8652C62.6384 37.9242 62.6928 37.9785 62.7673 38.0282C62.8419 38.0779 62.9381 38.1245 63.0562 38.168C63.1773 38.2084 63.3264 38.2457 63.5034 38.2798C63.8668 38.3544 64.1914 38.4522 64.4771 38.5733C64.7629 38.6914 64.9896 38.8529 65.1574 39.0579C65.3251 39.2598 65.4089 39.5253 65.4089 39.8546C65.4089 40.0782 65.3592 40.2832 65.2599 40.4695C65.1605 40.6559 65.0176 40.819 64.8312 40.9587C64.6449 41.0954 64.4212 41.2025 64.1603 41.2802C63.9025 41.3547 63.6121 41.392 63.2891 41.392C62.8201 41.392 62.4225 41.3081 62.0964 41.1404C61.7734 40.9727 61.528 40.7599 61.3603 40.5021C61.1957 40.2412 61.1134 39.9741 61.1134 39.7008H62.3853C62.3915 39.8841 62.4381 40.0316 62.525 40.1434C62.6151 40.2552 62.7285 40.336 62.8651 40.3857C63.0049 40.4354 63.1556 40.4602 63.3171 40.4602C63.491 40.4602 63.6354 40.4369 63.7504 40.3903C63.8653 40.3406 63.9522 40.2754 64.0113 40.1947C64.0734 40.1108 64.1044 40.0145 64.1044 39.9058ZM68.6278 40.3437C68.7924 40.3437 68.9384 40.3127 69.0657 40.2506C69.1931 40.1853 69.2924 40.0953 69.3639 39.9803C69.4384 39.8623 69.4772 39.7241 69.4804 39.5657H70.7429C70.7398 39.9198 70.6451 40.235 70.4587 40.5115C70.2724 40.7848 70.0223 41.0007 69.7086 41.1591C69.3949 41.3144 69.044 41.392 68.6557 41.392C68.2644 41.392 67.9227 41.3268 67.6307 41.1963C67.3419 41.0659 67.1012 40.8857 66.9086 40.6559C66.716 40.4229 66.5716 40.1527 66.4753 39.8452C66.379 39.5346 66.3309 39.2023 66.3309 38.8482V38.7131C66.3309 38.3559 66.379 38.0236 66.4753 37.7161C66.5716 37.4055 66.716 37.1353 66.9086 36.9054C67.1012 36.6725 67.3419 36.4908 67.6307 36.3603C67.9196 36.2299 68.2582 36.1647 68.6464 36.1647C69.0595 36.1647 69.4213 36.2439 69.7319 36.4023C70.0456 36.5607 70.291 36.7874 70.4681 37.0825C70.6482 37.3744 70.7398 37.7207 70.7429 38.1214H69.4804C69.4772 37.9537 69.4415 37.8015 69.3732 37.6648C69.308 37.5282 69.2117 37.4195 69.0843 37.3387C68.9601 37.2549 68.8064 37.2129 68.6231 37.2129C68.4274 37.2129 68.2675 37.2549 68.1432 37.3387C68.019 37.4195 67.9227 37.5313 67.8544 37.6742C67.786 37.8139 67.7379 37.9739 67.7099 38.154C67.6851 38.3311 67.6727 38.5174 67.6727 38.7131V38.8482C67.6727 39.0439 67.6851 39.2318 67.7099 39.4119C67.7348 39.5921 67.7814 39.7521 67.8497 39.8918C67.9212 40.0316 68.019 40.1419 68.1432 40.2226C68.2675 40.3034 68.429 40.3437 68.6278 40.3437ZM73.1278 37.3573V41.2988H71.786V36.2578H73.0486L73.1278 37.3573ZM74.6466 36.2252L74.6233 37.4692C74.5581 37.4598 74.4789 37.4521 74.3857 37.4459C74.2956 37.4366 74.2133 37.4319 74.1388 37.4319C73.9493 37.4319 73.7847 37.4567 73.6449 37.5064C73.5083 37.553 73.3934 37.6229 73.3002 37.7161C73.2101 37.8093 73.1418 37.9226 73.0952 38.0562C73.0517 38.1897 73.0269 38.3419 73.0206 38.5128L72.7504 38.4289C72.7504 38.1028 72.783 37.8031 72.8483 37.5297C72.9135 37.2533 73.0082 37.0126 73.1325 36.8076C73.2598 36.6026 73.4151 36.4442 73.5984 36.3324C73.7816 36.2206 73.9913 36.1647 74.2273 36.1647C74.3019 36.1647 74.378 36.1709 74.4556 36.1833C74.5333 36.1926 74.5969 36.2066 74.6466 36.2252ZM76.9616 36.2578V41.2988H75.6152V36.2578H76.9616ZM75.5313 34.944C75.5313 34.7483 75.5996 34.5868 75.7363 34.4595C75.873 34.3321 76.0562 34.2685 76.2861 34.2685C76.5128 34.2685 76.6945 34.3321 76.8312 34.4595C76.9709 34.5868 77.0408 34.7483 77.0408 34.944C77.0408 35.1397 76.9709 35.3012 76.8312 35.4285C76.6945 35.5559 76.5128 35.6196 76.2861 35.6196C76.0562 35.6196 75.873 35.5559 75.7363 35.4285C75.5996 35.3012 75.5313 35.1397 75.5313 34.944ZM79.6773 37.2269V43.237H78.3355V36.2578H79.5794L79.6773 37.2269ZM82.8686 38.7224V38.8203C82.8686 39.1868 82.8252 39.5269 82.7382 39.8406C82.6543 40.1543 82.5301 40.4276 82.3655 40.6606C82.2009 40.8904 81.9959 41.0705 81.7505 41.201C81.5082 41.3283 81.2287 41.392 80.9119 41.392C80.6044 41.392 80.3373 41.3299 80.1105 41.2056C79.8838 41.0814 79.6928 40.9075 79.5375 40.6838C79.3853 40.4571 79.2626 40.1947 79.1694 39.8965C79.0763 39.5983 79.0048 39.2784 78.9551 38.9367V38.6805C79.0048 38.314 79.0763 37.9785 79.1694 37.6742C79.2626 37.3667 79.3853 37.1011 79.5375 36.8775C79.6928 36.6507 79.8823 36.4753 80.1059 36.351C80.3326 36.2268 80.5982 36.1647 80.9026 36.1647C81.2225 36.1647 81.5036 36.2252 81.7458 36.3464C81.9912 36.4675 82.1962 36.6414 82.3608 36.8682C82.5285 37.0949 82.6543 37.3651 82.7382 37.6788C82.8252 37.9925 82.8686 38.3404 82.8686 38.7224ZM81.5222 38.8203V38.7224C81.5222 38.5081 81.5036 38.3109 81.4663 38.1307C81.4321 37.9475 81.3762 37.7875 81.2986 37.6509C81.224 37.5142 81.1246 37.4086 81.0004 37.3341C80.8793 37.2564 80.7317 37.2176 80.5578 37.2176C80.3746 37.2176 80.2177 37.2471 80.0873 37.3061C79.9599 37.3651 79.8559 37.4505 79.7751 37.5623C79.6943 37.6742 79.6338 37.8077 79.5934 37.963C79.553 38.1183 79.5282 38.2938 79.5189 38.4895V39.1371C79.5344 39.3669 79.5779 39.5735 79.6493 39.7567C79.7207 39.9369 79.831 40.0797 79.9801 40.1853C80.1292 40.2909 80.3249 40.3437 80.5671 40.3437C80.7442 40.3437 80.8933 40.3049 81.0144 40.2273C81.1355 40.1465 81.2334 40.0363 81.3079 39.8965C81.3855 39.7567 81.4399 39.5952 81.471 39.4119C81.5051 39.2287 81.5222 39.0315 81.5222 38.8203ZM86.4369 36.2578V37.2083H83.5018V36.2578H86.4369ZM84.2285 35.0139H85.5703V39.78C85.5703 39.926 85.589 40.0378 85.6262 40.1155C85.6666 40.1931 85.7256 40.2475 85.8033 40.2785C85.8809 40.3065 85.9788 40.3204 86.0968 40.3204C86.1807 40.3204 86.2552 40.3173 86.3204 40.3111C86.3888 40.3018 86.4462 40.2925 86.4928 40.2832L86.4975 41.2709C86.3825 41.3081 86.2583 41.3377 86.1247 41.3594C85.9912 41.3811 85.8437 41.392 85.6821 41.392C85.3871 41.392 85.1293 41.3439 84.9088 41.2476C84.6913 41.1482 84.5236 40.9898 84.4056 40.7724C84.2876 40.5549 84.2285 40.2692 84.2285 39.9151V35.0139ZM88.8823 36.2578V41.2988H87.5359V36.2578H88.8823ZM87.452 34.944C87.452 34.7483 87.5204 34.5868 87.657 34.4595C87.7937 34.3321 87.9769 34.2685 88.2068 34.2685C88.4335 34.2685 88.6152 34.3321 88.7519 34.4595C88.8916 34.5868 88.9615 34.7483 88.9615 34.944C88.9615 35.1397 88.8916 35.3012 88.7519 35.4285C88.6152 35.5559 88.4335 35.6196 88.2068 35.6196C87.9769 35.6196 87.7937 35.5559 87.657 35.4285C87.5204 35.3012 87.452 35.1397 87.452 34.944ZM90.0419 38.8296V38.7317C90.0419 38.3621 90.0947 38.022 90.2003 37.7114C90.3059 37.3977 90.4596 37.126 90.6615 36.8961C90.8634 36.6663 91.1119 36.4877 91.407 36.3603C91.702 36.2299 92.0406 36.1647 92.4226 36.1647C92.8047 36.1647 93.1448 36.2299 93.4429 36.3603C93.7411 36.4877 93.9911 36.6663 94.193 36.8961C94.398 37.126 94.5533 37.3977 94.6589 37.7114C94.7645 38.022 94.8173 38.3621 94.8173 38.7317V38.8296C94.8173 39.1961 94.7645 39.5362 94.6589 39.8499C94.5533 40.1605 94.398 40.4323 94.193 40.6652C93.9911 40.8951 93.7427 41.0736 93.4476 41.201C93.1525 41.3283 92.814 41.392 92.4319 41.392C92.0499 41.392 91.7098 41.3283 91.4116 41.201C91.1166 41.0736 90.8665 40.8951 90.6615 40.6652C90.4596 40.4323 90.3059 40.1605 90.2003 39.8499C90.0947 39.5362 90.0419 39.1961 90.0419 38.8296ZM91.3837 38.7317V38.8296C91.3837 39.0408 91.4023 39.238 91.4396 39.4213C91.4769 39.6045 91.5359 39.766 91.6166 39.9058C91.7005 40.0425 91.8092 40.1496 91.9427 40.2273C92.0763 40.3049 92.2394 40.3437 92.4319 40.3437C92.6183 40.3437 92.7783 40.3049 92.9118 40.2273C93.0454 40.1496 93.1525 40.0425 93.2333 39.9058C93.314 39.766 93.373 39.6045 93.4103 39.4213C93.4507 39.238 93.4709 39.0408 93.4709 38.8296V38.7317C93.4709 38.5267 93.4507 38.3342 93.4103 38.154C93.373 37.9708 93.3125 37.8093 93.2286 37.6695C93.1479 37.5266 93.0407 37.4148 92.9072 37.3341C92.7736 37.2533 92.6121 37.2129 92.4226 37.2129C92.2332 37.2129 92.0716 37.2533 91.9381 37.3341C91.8076 37.4148 91.7005 37.5266 91.6166 37.6695C91.5359 37.8093 91.4769 37.9708 91.4396 38.154C91.4023 38.3342 91.3837 38.5267 91.3837 38.7317ZM97.2208 37.3341V41.2988H95.8791V36.2578H97.137L97.2208 37.3341ZM97.0252 38.6013H96.6618C96.6618 38.2286 96.7099 37.8931 96.8062 37.595C96.9025 37.2937 97.0376 37.0374 97.2115 36.8262C97.3854 36.6119 97.592 36.4489 97.8312 36.337C98.0734 36.2221 98.3436 36.1647 98.6418 36.1647C98.8779 36.1647 99.0937 36.1988 99.2894 36.2672C99.4851 36.3355 99.6528 36.4442 99.7926 36.5933C99.9355 36.7424 100.044 36.9396 100.119 37.185C100.196 37.4303 100.235 37.7301 100.235 38.0841V41.2988H98.8841V38.0795C98.8841 37.8559 98.853 37.6819 98.7909 37.5577C98.7288 37.4334 98.6372 37.3465 98.516 37.2968C98.398 37.244 98.252 37.2176 98.0781 37.2176C97.8979 37.2176 97.7411 37.2533 97.6075 37.3247C97.4771 37.3962 97.3684 37.4956 97.2814 37.6229C97.1975 37.7471 97.1339 37.8931 97.0904 38.0609C97.0469 38.2286 97.0252 38.4087 97.0252 38.6013Z" fill="#F6F1F2"/>
<path d="M181.663 34.5154H182.534L184.756 40.0456L186.974 34.5154H187.85L185.092 41.2988H184.411L181.663 34.5154ZM181.378 34.5154H182.147L182.273 38.6525V41.2988H181.378V34.5154ZM187.361 34.5154H188.129V41.2988H187.235V38.6525L187.361 34.5154ZM189.615 38.8342V38.7271C189.615 38.3637 189.668 38.0267 189.773 37.7161C189.879 37.4024 190.031 37.1306 190.23 36.9008C190.429 36.6678 190.669 36.4877 190.952 36.3603C191.235 36.2299 191.552 36.1647 191.902 36.1647C192.257 36.1647 192.575 36.2299 192.858 36.3603C193.143 36.4877 193.386 36.6678 193.584 36.9008C193.786 37.1306 193.94 37.4024 194.046 37.7161C194.151 38.0267 194.204 38.3637 194.204 38.7271V38.8342C194.204 39.1976 194.151 39.5346 194.046 39.8452C193.94 40.1558 193.786 40.4276 193.584 40.6606C193.386 40.8904 193.145 41.0705 192.862 41.201C192.583 41.3283 192.266 41.392 191.912 41.392C191.558 41.392 191.239 41.3283 190.957 41.201C190.674 41.0705 190.432 40.8904 190.23 40.6606C190.031 40.4276 189.879 40.1558 189.773 39.8452C189.668 39.5346 189.615 39.1976 189.615 38.8342ZM190.477 38.7271V38.8342C190.477 39.0858 190.506 39.3234 190.565 39.5471C190.624 39.7676 190.713 39.9633 190.831 40.1341C190.952 40.3049 191.103 40.44 191.283 40.5394C191.463 40.6357 191.673 40.6838 191.912 40.6838C192.148 40.6838 192.354 40.6357 192.531 40.5394C192.712 40.44 192.861 40.3049 192.979 40.1341C193.097 39.9633 193.185 39.7676 193.244 39.5471C193.306 39.3234 193.337 39.0858 193.337 38.8342V38.7271C193.337 38.4786 193.306 38.2441 193.244 38.0236C193.185 37.8 193.095 37.6027 192.974 37.4319C192.856 37.258 192.707 37.1213 192.527 37.0219C192.35 36.9225 192.142 36.8728 191.902 36.8728C191.666 36.8728 191.458 36.9225 191.278 37.0219C191.101 37.1213 190.952 37.258 190.831 37.4319C190.713 37.6027 190.624 37.8 190.565 38.0236C190.506 38.2441 190.477 38.4786 190.477 38.7271ZM196.412 37.3341V41.2988H195.55V36.2578H196.365L196.412 37.3341ZM196.207 38.5873L195.848 38.5733C195.851 38.2286 195.902 37.9102 196.002 37.6183C196.101 37.3232 196.241 37.0669 196.421 36.8495C196.601 36.6321 196.816 36.4644 197.064 36.3464C197.316 36.2252 197.594 36.1647 197.898 36.1647C198.147 36.1647 198.37 36.1988 198.569 36.2672C198.768 36.3324 198.937 36.438 199.077 36.584C199.22 36.7299 199.328 36.9194 199.403 37.1524C199.477 37.3822 199.515 37.6633 199.515 37.9956V41.2988H198.648V37.9863C198.648 37.7223 198.609 37.5111 198.532 37.3527C198.454 37.1912 198.341 37.0747 198.192 37.0033C198.042 36.9287 197.859 36.8915 197.642 36.8915C197.427 36.8915 197.232 36.9365 197.055 37.0266C196.881 37.1166 196.73 37.2409 196.603 37.3993C196.479 37.5577 196.381 37.7394 196.309 37.9444C196.241 38.1463 196.207 38.3606 196.207 38.5873ZM203.199 36.2578V36.9194H200.474V36.2578H203.199ZM201.396 35.0325H202.258V40.0502C202.258 40.2211 202.285 40.35 202.338 40.4369C202.39 40.5239 202.459 40.5813 202.543 40.6093C202.626 40.6373 202.716 40.6512 202.813 40.6512C202.884 40.6512 202.959 40.645 203.036 40.6326C203.117 40.6171 203.178 40.6046 203.218 40.5953L203.223 41.2988C203.154 41.3206 203.064 41.3408 202.952 41.3594C202.844 41.3811 202.712 41.392 202.556 41.392C202.345 41.392 202.151 41.3501 201.974 41.2662C201.797 41.1824 201.656 41.0426 201.55 40.8469C201.448 40.6481 201.396 40.381 201.396 40.0456V35.0325ZM205.337 34.1427V41.2988H204.475V34.1427H205.337ZM205.132 38.5873L204.774 38.5733C204.777 38.2286 204.828 37.9102 204.927 37.6183C205.027 37.3232 205.167 37.0669 205.347 36.8495C205.527 36.6321 205.741 36.4644 205.99 36.3464C206.241 36.2252 206.519 36.1647 206.824 36.1647C207.072 36.1647 207.296 36.1988 207.494 36.2672C207.693 36.3324 207.863 36.438 208.002 36.584C208.145 36.7299 208.254 36.9194 208.328 37.1524C208.403 37.3822 208.44 37.6633 208.44 37.9956V41.2988H207.574V37.9863C207.574 37.7223 207.535 37.5111 207.457 37.3527C207.38 37.1912 207.266 37.0747 207.117 37.0033C206.968 36.9287 206.785 36.8915 206.567 36.8915C206.353 36.8915 206.157 36.9365 205.98 37.0266C205.806 37.1166 205.656 37.2409 205.528 37.3993C205.404 37.5577 205.306 37.7394 205.235 37.9444C205.167 38.1463 205.132 38.3606 205.132 38.5873ZM210.932 34.1427V41.2988H210.066V34.1427H210.932ZM213.997 40.777L215.4 36.2578H216.322L214.3 42.0769C214.254 42.2011 214.191 42.3347 214.114 42.4775C214.039 42.6235 213.943 42.7617 213.825 42.8922C213.707 43.0226 213.564 43.1282 213.396 43.209C213.232 43.2929 213.034 43.3348 212.805 43.3348C212.736 43.3348 212.649 43.3255 212.544 43.3068C212.438 43.2882 212.364 43.2727 212.32 43.2602L212.315 42.5614C212.34 42.5645 212.379 42.5676 212.432 42.5707C212.488 42.5769 212.527 42.58 212.548 42.58C212.744 42.58 212.91 42.5536 213.047 42.5008C213.184 42.4511 213.298 42.3657 213.392 42.2446C213.488 42.1266 213.57 41.9635 213.639 41.7554L213.997 40.777ZM212.968 36.2578L214.277 40.1714L214.501 41.0799L213.881 41.3967L212.027 36.2578H212.968Z" fill="#F6F1F2"/>
<path d="M272.279 35.1164L270.033 41.2988H269.115L271.701 34.5154H272.293L272.279 35.1164ZM274.161 41.2988L271.911 35.1164L271.897 34.5154H272.488L275.084 41.2988H274.161ZM274.045 38.7876V39.5238H270.234V38.7876H274.045ZM276.989 37.3341V41.2988H276.127V36.2578H276.942L276.989 37.3341ZM276.784 38.5873L276.425 38.5733C276.428 38.2286 276.479 37.9102 276.579 37.6183C276.678 37.3232 276.818 37.0669 276.998 36.8495C277.178 36.6321 277.392 36.4644 277.641 36.3464C277.892 36.2252 278.17 36.1647 278.475 36.1647C278.723 36.1647 278.947 36.1988 279.146 36.2672C279.344 36.3324 279.514 36.438 279.653 36.584C279.796 36.7299 279.905 36.9194 279.98 37.1524C280.054 37.3822 280.091 37.6633 280.091 37.9956V41.2988H279.225V37.9863C279.225 37.7223 279.186 37.5111 279.108 37.3527C279.031 37.1912 278.917 37.0747 278.768 37.0033C278.619 36.9287 278.436 36.8915 278.218 36.8915C278.004 36.8915 277.808 36.9365 277.631 37.0266C277.458 37.1166 277.307 37.2409 277.18 37.3993C277.055 37.5577 276.957 37.7394 276.886 37.9444C276.818 38.1463 276.784 38.3606 276.784 38.5873ZM282.527 37.3341V41.2988H281.666V36.2578H282.481L282.527 37.3341ZM282.322 38.5873L281.964 38.5733C281.967 38.2286 282.018 37.9102 282.117 37.6183C282.217 37.3232 282.357 37.0669 282.537 36.8495C282.717 36.6321 282.931 36.4644 283.18 36.3464C283.431 36.2252 283.709 36.1647 284.014 36.1647C284.262 36.1647 284.486 36.1988 284.685 36.2672C284.883 36.3324 285.053 36.438 285.192 36.584C285.335 36.7299 285.444 36.9194 285.519 37.1524C285.593 37.3822 285.63 37.6633 285.63 37.9956V41.2988H284.764V37.9863C284.764 37.7223 284.725 37.5111 284.647 37.3527C284.57 37.1912 284.456 37.0747 284.307 37.0033C284.158 36.9287 283.975 36.8915 283.757 36.8915C283.543 36.8915 283.347 36.9365 283.17 37.0266C282.996 37.1166 282.846 37.2409 282.719 37.3993C282.594 37.5577 282.496 37.7394 282.425 37.9444C282.357 38.1463 282.322 38.3606 282.322 38.5873ZM290.289 40.1341V36.2578H291.155V41.2988H290.331L290.289 40.1341ZM290.452 39.0718L290.811 39.0625C290.811 39.398 290.775 39.7086 290.703 39.9943C290.635 40.277 290.523 40.5223 290.368 40.7304C290.213 40.9385 290.009 41.1016 289.758 41.2196C289.506 41.3345 289.2 41.392 288.84 41.392C288.594 41.392 288.369 41.3563 288.164 41.2849C287.962 41.2134 287.788 41.1032 287.643 40.9541C287.497 40.805 287.383 40.6109 287.302 40.3717C287.225 40.1325 287.186 39.8452 287.186 39.5098V36.2578H288.048V39.5191C288.048 39.7458 288.073 39.9338 288.122 40.0828C288.175 40.2288 288.245 40.3453 288.332 40.4323C288.422 40.5161 288.521 40.5751 288.63 40.6093C288.742 40.6435 288.857 40.6606 288.975 40.6606C289.341 40.6606 289.632 40.5907 289.846 40.4509C290.061 40.308 290.214 40.117 290.307 39.8778C290.404 39.6356 290.452 39.3669 290.452 39.0718ZM295.707 40.4369V37.8419C295.707 37.6431 295.666 37.4707 295.586 37.3247C295.508 37.1756 295.39 37.0607 295.231 36.98C295.073 36.8992 294.877 36.8588 294.644 36.8588C294.427 36.8588 294.236 36.8961 294.071 36.9707C293.91 37.0452 293.782 37.143 293.689 37.2642C293.599 37.3853 293.554 37.5158 293.554 37.6555H292.692C292.692 37.4754 292.739 37.2968 292.832 37.1197C292.925 36.9427 293.059 36.7827 293.233 36.6399C293.41 36.4939 293.621 36.379 293.866 36.2951C294.115 36.2081 294.391 36.1647 294.696 36.1647C295.062 36.1647 295.385 36.2268 295.665 36.351C295.947 36.4753 296.168 36.6632 296.326 36.9147C296.488 37.1632 296.569 37.4754 296.569 37.8512V40.1993C296.569 40.367 296.583 40.5456 296.61 40.7351C296.642 40.9246 296.687 41.0876 296.746 41.2243V41.2988H295.846C295.803 41.1994 295.769 41.0674 295.744 40.9028C295.719 40.7351 295.707 40.5798 295.707 40.4369ZM295.856 38.2426L295.865 38.8482H294.994C294.748 38.8482 294.529 38.8684 294.337 38.9088C294.144 38.9461 293.983 39.0035 293.852 39.0812C293.722 39.1588 293.623 39.2567 293.554 39.3747C293.486 39.4896 293.452 39.6247 293.452 39.78C293.452 39.9384 293.487 40.0828 293.559 40.2133C293.63 40.3437 293.737 40.4478 293.88 40.5254C294.026 40.6 294.205 40.6373 294.416 40.6373C294.68 40.6373 294.913 40.5813 295.115 40.4695C295.317 40.3577 295.477 40.2211 295.595 40.0595C295.716 39.898 295.781 39.7412 295.791 39.589L296.159 40.0036C296.137 40.1341 296.078 40.2785 295.982 40.4369C295.885 40.5953 295.756 40.7475 295.595 40.8935C295.436 41.0364 295.247 41.156 295.026 41.2522C294.809 41.3454 294.564 41.392 294.29 41.392C293.949 41.392 293.649 41.3252 293.391 41.1917C293.136 41.0581 292.938 40.8795 292.795 40.6559C292.655 40.4292 292.585 40.176 292.585 39.8965C292.585 39.6263 292.638 39.3887 292.744 39.1837C292.849 38.9756 293.001 38.8032 293.2 38.6665C293.399 38.5267 293.638 38.4211 293.918 38.3497C294.197 38.2783 294.509 38.2426 294.854 38.2426H295.856ZM299.126 34.1427V41.2988H298.259V34.1427H299.126ZM301.711 34.1427V41.2988H300.844V34.1427H301.711ZM304.776 40.777L306.178 36.2578H307.101L305.079 42.0769C305.032 42.2011 304.97 42.3347 304.893 42.4775C304.818 42.6235 304.722 42.7617 304.604 42.8922C304.486 43.0226 304.343 43.1282 304.175 43.209C304.01 43.2929 303.813 43.3348 303.583 43.3348C303.515 43.3348 303.428 43.3255 303.322 43.3068C303.217 43.2882 303.142 43.2727 303.099 43.2602L303.094 42.5614C303.119 42.5645 303.158 42.5676 303.211 42.5707C303.267 42.5769 303.305 42.58 303.327 42.58C303.523 42.58 303.689 42.5536 303.826 42.5008C303.962 42.4511 304.077 42.3657 304.17 42.2446C304.267 42.1266 304.349 41.9635 304.417 41.7554L304.776 40.777ZM303.746 36.2578L305.056 40.1714L305.279 41.0799L304.66 41.3967L302.805 36.2578H303.746Z" fill="#9FBFE5" fill-opacity="0.996078"/>
<path d="M12.7217 65.2246L357.278 65.2246" stroke="url(#paint1_linear_10739_3008)" stroke-width="0.530086" stroke-linecap="round"/>
<path d="M143.123 12.7461L143.123 170.182" stroke="url(#paint2_linear_10739_3008)" stroke-width="0.530086" stroke-linecap="round"/>
<path d="M249.67 12.7461L249.67 170.182" stroke="url(#paint3_linear_10739_3008)" stroke-width="0.530086" stroke-linecap="round"/>
<path d="M47.8695 94.7132C47.8695 94.5548 47.8447 94.4151 47.795 94.2939C47.7484 94.1697 47.6645 94.0579 47.5434 93.9585C47.4254 93.8591 47.2607 93.7644 47.0495 93.6743C46.8414 93.5842 46.5774 93.4926 46.2575 93.3994C45.9221 93.3 45.6192 93.1898 45.349 93.0686C45.0788 92.9444 44.8474 92.8031 44.6548 92.6447C44.4623 92.4863 44.3147 92.3046 44.2122 92.0996C44.1097 91.8946 44.0585 91.6601 44.0585 91.3961C44.0585 91.1321 44.1128 90.8882 44.2215 90.6646C44.3303 90.441 44.4856 90.2468 44.6874 90.0822C44.8924 89.9145 45.1363 89.7841 45.4189 89.6909C45.7015 89.5977 46.0168 89.5511 46.3647 89.5511C46.874 89.5511 47.3058 89.6489 47.6599 89.8446C48.017 90.0372 48.2888 90.2903 48.4752 90.604C48.6615 90.9146 48.7547 91.247 48.7547 91.6011H47.8602C47.8602 91.3464 47.8058 91.1212 47.6971 90.9255C47.5884 90.7267 47.4238 90.5714 47.2033 90.4596C46.9828 90.3447 46.7032 90.2872 46.3647 90.2872C46.0448 90.2872 45.7807 90.3354 45.5726 90.4317C45.3645 90.5279 45.2092 90.6584 45.1068 90.823C45.0074 90.9876 44.9577 91.1755 44.9577 91.3867C44.9577 91.5296 44.9872 91.6601 45.0462 91.7781C45.1083 91.893 45.203 92.0002 45.3304 92.0996C45.4608 92.199 45.6254 92.2906 45.8242 92.3744C46.0261 92.4583 46.2668 92.5391 46.5464 92.6167C46.9315 92.7254 47.2638 92.8465 47.5434 92.9801C47.8229 93.1137 48.0528 93.2643 48.2329 93.432C48.4162 93.5966 48.5513 93.7846 48.6382 93.9958C48.7283 94.2039 48.7734 94.4399 48.7734 94.7039C48.7734 94.9804 48.7174 95.2304 48.6056 95.454C48.4938 95.6776 48.3339 95.8687 48.1258 96.0271C47.9177 96.1855 47.6676 96.3082 47.3757 96.3951C47.0868 96.479 46.7638 96.5209 46.4066 96.5209C46.0929 96.5209 45.7839 96.4774 45.4795 96.3905C45.1782 96.3035 44.9033 96.173 44.6548 95.9991C44.4095 95.8252 44.2122 95.6109 44.0631 95.3562C43.9172 95.0984 43.8442 94.8002 43.8442 94.4617H44.7387C44.7387 94.6946 44.7837 94.8949 44.8738 95.0627C44.9639 95.2273 45.0866 95.3639 45.2419 95.4726C45.4003 95.5814 45.5789 95.6621 45.7776 95.7149C45.9795 95.7646 46.1892 95.7895 46.4066 95.7895C46.7203 95.7895 46.9859 95.746 47.2033 95.659C47.4207 95.572 47.5853 95.4478 47.6971 95.2863C47.8121 95.1248 47.8695 94.9338 47.8695 94.7132ZM52.1646 91.3867V92.0483H49.4391V91.3867H52.1646ZM50.3615 90.1614H51.2234V95.1791C51.2234 95.35 51.2498 95.4789 51.3026 95.5658C51.3554 95.6528 51.4238 95.7103 51.5076 95.7382C51.5915 95.7662 51.6816 95.7801 51.7779 95.7801C51.8493 95.7801 51.9238 95.7739 52.0015 95.7615C52.0822 95.746 52.1428 95.7335 52.1832 95.7242L52.1879 96.4277C52.1195 96.4495 52.0294 96.4697 51.9176 96.4883C51.8089 96.51 51.6769 96.5209 51.5216 96.5209C51.3104 96.5209 51.1163 96.479 50.9392 96.3951C50.7622 96.3113 50.6209 96.1715 50.5153 95.9758C50.4128 95.777 50.3615 95.5099 50.3615 95.1745V90.1614ZM56.413 95.5658V92.9708C56.413 92.772 56.3726 92.5996 56.2919 92.4536C56.2142 92.3046 56.0962 92.1896 55.9378 92.1089C55.7794 92.0281 55.5837 91.9877 55.3508 91.9877C55.1333 91.9877 54.9423 92.025 54.7777 92.0996C54.6162 92.1741 54.4889 92.2719 54.3957 92.3931C54.3056 92.5142 54.2606 92.6447 54.2606 92.7844H53.3987C53.3987 92.6043 53.4453 92.4257 53.5384 92.2486C53.6316 92.0716 53.7652 91.9117 53.9391 91.7688C54.1161 91.6228 54.3273 91.5079 54.5727 91.424C54.8212 91.337 55.0976 91.2936 55.402 91.2936C55.7685 91.2936 56.0915 91.3557 56.3711 91.4799C56.6537 91.6042 56.8742 91.7921 57.0326 92.0437C57.1942 92.2921 57.2749 92.6043 57.2749 92.9801V95.3282C57.2749 95.4959 57.2889 95.6745 57.3168 95.864C57.3479 96.0535 57.3929 96.2165 57.452 96.3532V96.4277H56.5528C56.5093 96.3283 56.4751 96.1963 56.4503 96.0317C56.4254 95.864 56.413 95.7087 56.413 95.5658ZM56.5621 93.3715L56.5714 93.9771H55.7002C55.4548 93.9771 55.2358 93.9973 55.0433 94.0377C54.8507 94.075 54.6892 94.1324 54.5587 94.2101C54.4283 94.2877 54.3289 94.3856 54.2606 94.5036C54.1922 94.6185 54.1581 94.7536 54.1581 94.9089C54.1581 95.0673 54.1938 95.2117 54.2652 95.3422C54.3367 95.4726 54.4438 95.5767 54.5867 95.6543C54.7327 95.7289 54.9113 95.7662 55.1225 95.7662C55.3865 95.7662 55.6194 95.7103 55.8213 95.5984C56.0232 95.4866 56.1832 95.35 56.3012 95.1885C56.4223 95.0269 56.4876 94.8701 56.4969 94.7179L56.8649 95.1325C56.8432 95.263 56.7842 95.4074 56.6879 95.5658C56.5916 95.7242 56.4627 95.8764 56.3012 96.0224C56.1428 96.1653 55.9533 96.2849 55.7328 96.3811C55.5154 96.4743 55.27 96.5209 54.9967 96.5209C54.655 96.5209 54.3553 96.4541 54.0975 96.3206C53.8428 96.187 53.644 96.0084 53.5012 95.7848C53.3614 95.5581 53.2915 95.3049 53.2915 95.0254C53.2915 94.7552 53.3443 94.5176 53.4499 94.3126C53.5555 94.1045 53.7077 93.9321 53.9065 93.7954C54.1053 93.6557 54.3444 93.5501 54.624 93.4786C54.9035 93.4072 55.2157 93.3715 55.5604 93.3715H56.5621ZM59.7576 92.463V96.4277H58.8957V91.3867H59.711L59.7576 92.463ZM59.5526 93.7162L59.1939 93.7022C59.197 93.3575 59.2482 93.0391 59.3476 92.7472C59.447 92.4521 59.5868 92.1958 59.7669 91.9784C59.9471 91.761 60.1614 91.5933 60.4099 91.4753C60.6615 91.3541 60.9394 91.2936 61.2438 91.2936C61.4923 91.2936 61.7159 91.3277 61.9147 91.3961C62.1135 91.4613 62.2828 91.5669 62.4225 91.7129C62.5654 91.8588 62.6741 92.0483 62.7487 92.2813C62.8232 92.5111 62.8605 92.7922 62.8605 93.1245V96.4277H61.9939V93.1152C61.9939 92.8512 61.9551 92.64 61.8774 92.4816C61.7998 92.3201 61.6864 92.2036 61.5373 92.1322C61.3883 92.0576 61.205 92.0204 60.9876 92.0204C60.7733 92.0204 60.5776 92.0654 60.4006 92.1555C60.2266 92.2455 60.076 92.3698 59.9486 92.5282C59.8244 92.6866 59.7266 92.8683 59.6551 93.0733C59.5868 93.2752 59.5526 93.4895 59.5526 93.7162ZM67.6121 95.4494V89.2716H68.4787V96.4277H67.6867L67.6121 95.4494ZM64.2204 93.9631V93.8653C64.2204 93.4802 64.267 93.1307 64.3602 92.817C64.4564 92.5002 64.5916 92.2285 64.7655 92.0017C64.9425 91.775 65.1522 91.6011 65.3944 91.4799C65.6398 91.3557 65.9131 91.2936 66.2144 91.2936C66.5312 91.2936 66.8077 91.3495 67.0437 91.4613C67.2829 91.57 67.4848 91.73 67.6494 91.9412C67.8171 92.1493 67.9491 92.4008 68.0454 92.6959C68.1417 92.991 68.2085 93.3249 68.2457 93.6976V94.1262C68.2116 94.4958 68.1448 94.8282 68.0454 95.1232C67.9491 95.4183 67.8171 95.6699 67.6494 95.878C67.4848 96.0861 67.2829 96.246 67.0437 96.3578C66.8046 96.4666 66.525 96.5209 66.2051 96.5209C65.91 96.5209 65.6398 96.4572 65.3944 96.3299C65.1522 96.2026 64.9425 96.024 64.7655 95.7941C64.5916 95.5643 64.4564 95.2941 64.3602 94.9835C64.267 94.6698 64.2204 94.3296 64.2204 93.9631ZM65.087 93.8653V93.9631C65.087 94.2147 65.1118 94.4508 65.1615 94.6713C65.2143 94.8918 65.2951 95.086 65.4038 95.2537C65.5125 95.4214 65.6507 95.5534 65.8184 95.6497C65.9861 95.7429 66.1865 95.7895 66.4194 95.7895C66.7052 95.7895 66.9397 95.7289 67.1229 95.6078C67.3093 95.4866 67.4584 95.3267 67.5702 95.1279C67.682 94.9291 67.769 94.7132 67.8311 94.4803V93.3575C67.7938 93.1867 67.7395 93.022 67.668 92.8636C67.5997 92.7021 67.5096 92.5592 67.3978 92.435C67.2891 92.3077 67.154 92.2067 66.9925 92.1322C66.8341 92.0576 66.6462 92.0204 66.4287 92.0204C66.1927 92.0204 65.9892 92.0701 65.8184 92.1694C65.6507 92.2657 65.5125 92.3993 65.4038 92.5701C65.2951 92.7378 65.2143 92.9335 65.1615 93.1571C65.1118 93.3777 65.087 93.6137 65.087 93.8653ZM73.0579 95.5658V92.9708C73.0579 92.772 73.0175 92.5996 72.9368 92.4536C72.8591 92.3046 72.7411 92.1896 72.5827 92.1089C72.4243 92.0281 72.2286 91.9877 71.9957 91.9877C71.7783 91.9877 71.5872 92.025 71.4226 92.0996C71.2611 92.1741 71.1338 92.2719 71.0406 92.3931C70.9505 92.5142 70.9055 92.6447 70.9055 92.7844H70.0436C70.0436 92.6043 70.0902 92.4257 70.1833 92.2486C70.2765 92.0716 70.4101 91.9117 70.584 91.7688C70.761 91.6228 70.9723 91.5079 71.2176 91.424C71.4661 91.337 71.7425 91.2936 72.0469 91.2936C72.4134 91.2936 72.7364 91.3557 73.016 91.4799C73.2986 91.6042 73.5192 91.7921 73.6776 92.0437C73.8391 92.2921 73.9198 92.6043 73.9198 92.9801V95.3282C73.9198 95.4959 73.9338 95.6745 73.9618 95.864C73.9928 96.0535 74.0379 96.2165 74.0969 96.3532V96.4277H73.1977C73.1542 96.3283 73.12 96.1963 73.0952 96.0317C73.0703 95.864 73.0579 95.7087 73.0579 95.5658ZM73.207 93.3715L73.2163 93.9771H72.3451C72.0997 93.9771 71.8808 93.9973 71.6882 94.0377C71.4956 94.075 71.3341 94.1324 71.2037 94.2101C71.0732 94.2877 70.9738 94.3856 70.9055 94.5036C70.8371 94.6185 70.803 94.7536 70.803 94.9089C70.803 95.0673 70.8387 95.2117 70.9101 95.3422C70.9816 95.4726 71.0887 95.5767 71.2316 95.6543C71.3776 95.7289 71.5562 95.7662 71.7674 95.7662C72.0314 95.7662 72.2643 95.7103 72.4662 95.5984C72.6681 95.4866 72.8281 95.35 72.9461 95.1885C73.0672 95.0269 73.1325 94.8701 73.1418 94.7179L73.5098 95.1325C73.4881 95.263 73.4291 95.4074 73.3328 95.5658C73.2365 95.7242 73.1076 95.8764 72.9461 96.0224C72.7877 96.1653 72.5982 96.2849 72.3777 96.3811C72.1603 96.4743 71.9149 96.5209 71.6416 96.5209C71.2999 96.5209 71.0002 96.4541 70.7424 96.3206C70.4877 96.187 70.2889 96.0084 70.1461 95.7848C70.0063 95.5581 69.9364 95.3049 69.9364 95.0254C69.9364 94.7552 69.9892 94.5176 70.0948 94.3126C70.2004 94.1045 70.3526 93.9321 70.5514 93.7954C70.7502 93.6557 70.9893 93.5501 71.2689 93.4786C71.5484 93.4072 71.8606 93.3715 72.2053 93.3715H73.207ZM76.4025 92.1788V96.4277H75.5406V91.3867H76.3792L76.4025 92.1788ZM77.9773 91.3588L77.9726 92.1601C77.9012 92.1446 77.8328 92.1353 77.7676 92.1322C77.7055 92.126 77.634 92.1229 77.5533 92.1229C77.3545 92.1229 77.179 92.1539 77.0268 92.216C76.8746 92.2782 76.7457 92.3651 76.6401 92.4769C76.5345 92.5888 76.4507 92.7223 76.3886 92.8776C76.3295 93.0298 76.2907 93.1975 76.2721 93.3808L76.0298 93.5205C76.0298 93.2162 76.0593 92.9304 76.1183 92.6633C76.1805 92.3962 76.2752 92.1601 76.4025 91.9551C76.5299 91.747 76.6914 91.5855 76.8871 91.4706C77.0858 91.3526 77.3219 91.2936 77.5952 91.2936C77.6573 91.2936 77.7288 91.3013 77.8095 91.3169C77.8903 91.3293 77.9462 91.3433 77.9773 91.3588ZM82.1232 95.4494V89.2716H82.9898V96.4277H82.1978L82.1232 95.4494ZM78.7315 93.9631V93.8653C78.7315 93.4802 78.7781 93.1307 78.8713 92.817C78.9675 92.5002 79.1027 92.2285 79.2766 92.0017C79.4536 91.775 79.6633 91.6011 79.9055 91.4799C80.1509 91.3557 80.4242 91.2936 80.7255 91.2936C81.0423 91.2936 81.3188 91.3495 81.5548 91.4613C81.794 91.57 81.9959 91.73 82.1605 91.9412C82.3282 92.1493 82.4602 92.4008 82.5565 92.6959C82.6528 92.991 82.7196 93.3249 82.7568 93.6976V94.1262C82.7227 94.4958 82.6559 94.8282 82.5565 95.1232C82.4602 95.4183 82.3282 95.6699 82.1605 95.878C81.9959 96.0861 81.794 96.246 81.5548 96.3578C81.3157 96.4666 81.0361 96.5209 80.7162 96.5209C80.4211 96.5209 80.1509 96.4572 79.9055 96.3299C79.6633 96.2026 79.4536 96.024 79.2766 95.7941C79.1027 95.5643 78.9675 95.2941 78.8713 94.9835C78.7781 94.6698 78.7315 94.3296 78.7315 93.9631ZM79.5981 93.8653V93.9631C79.5981 94.2147 79.6229 94.4508 79.6726 94.6713C79.7254 94.8918 79.8062 95.086 79.9149 95.2537C80.0236 95.4214 80.1618 95.5534 80.3295 95.6497C80.4972 95.7429 80.6976 95.7895 80.9305 95.7895C81.2163 95.7895 81.4508 95.7289 81.634 95.6078C81.8204 95.4866 81.9695 95.3267 82.0813 95.1279C82.1931 94.9291 82.2801 94.7132 82.3422 94.4803V93.3575C82.3049 93.1867 82.2506 93.022 82.1791 92.8636C82.1108 92.7021 82.0207 92.5592 81.9089 92.435C81.8002 92.3077 81.6651 92.2067 81.5036 92.1322C81.3452 92.0576 81.1573 92.0204 80.9398 92.0204C80.7038 92.0204 80.5003 92.0701 80.3295 92.1694C80.1618 92.2657 80.0236 92.3993 79.9149 92.5701C79.8062 92.7378 79.7254 92.9335 79.6726 93.1571C79.6229 93.3777 79.5981 93.6137 79.5981 93.8653ZM91.2398 89.6443H92.1343V94.2334C92.1343 94.7427 92.0209 95.1667 91.7942 95.5053C91.5674 95.8438 91.2662 96.0985 90.8903 96.2693C90.5176 96.4371 90.1123 96.5209 89.6744 96.5209C89.2147 96.5209 88.7985 96.4371 88.4257 96.2693C88.0561 96.0985 87.7626 95.8438 87.5452 95.5053C87.3309 95.1667 87.2237 94.7427 87.2237 94.2334V89.6443H88.1136V94.2334C88.1136 94.5874 88.1788 94.8794 88.3093 95.1092C88.4397 95.3391 88.6214 95.5099 88.8544 95.6217C89.0904 95.7335 89.3638 95.7895 89.6744 95.7895C89.9881 95.7895 90.2614 95.7335 90.4943 95.6217C90.7304 95.5099 90.9136 95.3391 91.0441 95.1092C91.1745 94.8794 91.2398 94.5874 91.2398 94.2334V89.6443ZM96.6157 95.0906C96.6157 94.9664 96.5877 94.8515 96.5318 94.7459C96.479 94.6371 96.3688 94.5393 96.201 94.4523C96.0364 94.3623 95.7879 94.2846 95.4556 94.2194C95.1761 94.1604 94.9229 94.0905 94.6962 94.0097C94.4726 93.929 94.2815 93.8311 94.1231 93.7162C93.9678 93.6013 93.8483 93.4662 93.7644 93.3109C93.6805 93.1556 93.6386 92.9739 93.6386 92.7658C93.6386 92.567 93.6821 92.3791 93.7691 92.2021C93.8591 92.025 93.9849 91.8682 94.1464 91.7315C94.3111 91.5948 94.5083 91.4877 94.7381 91.41C94.968 91.3324 95.2242 91.2936 95.5068 91.2936C95.9106 91.2936 96.2554 91.365 96.5411 91.5079C96.8269 91.6507 97.0459 91.8418 97.1981 92.0809C97.3502 92.317 97.4263 92.5794 97.4263 92.8683H96.5644C96.5644 92.7285 96.5225 92.5934 96.4386 92.463C96.3579 92.3294 96.2383 92.2191 96.0799 92.1322C95.9246 92.0452 95.7336 92.0017 95.5068 92.0017C95.2677 92.0017 95.0736 92.039 94.9245 92.1135C94.7785 92.185 94.6713 92.2766 94.603 92.3884C94.5378 92.5002 94.5052 92.6183 94.5052 92.7425C94.5052 92.8357 94.5207 92.9195 94.5518 92.9941C94.5859 93.0655 94.6449 93.1323 94.7288 93.1944C94.8127 93.2534 94.9307 93.3093 95.0829 93.3621C95.2351 93.4149 95.4292 93.4677 95.6653 93.5205C96.0783 93.6137 96.4185 93.7255 96.6856 93.856C96.9527 93.9864 97.1515 94.1464 97.2819 94.3359C97.4124 94.5253 97.4776 94.7552 97.4776 95.0254C97.4776 95.2459 97.431 95.4478 97.3378 95.6311C97.2477 95.8143 97.1157 95.9727 96.9418 96.1063C96.771 96.2367 96.566 96.3392 96.3268 96.4138C96.0908 96.4852 95.8252 96.5209 95.5301 96.5209C95.086 96.5209 94.7102 96.4417 94.4027 96.2833C94.0952 96.1249 93.8622 95.9199 93.7038 95.6683C93.5454 95.4167 93.4662 95.1512 93.4662 94.8716H94.3328C94.3452 95.1077 94.4135 95.2956 94.5378 95.4354C94.662 95.572 94.8142 95.6699 94.9944 95.7289C95.1745 95.7848 95.3531 95.8128 95.5301 95.8128C95.7662 95.8128 95.9634 95.7817 96.1218 95.7196C96.2833 95.6575 96.406 95.572 96.4899 95.4633C96.5738 95.3546 96.6157 95.2304 96.6157 95.0906ZM100.967 96.5209C100.616 96.5209 100.297 96.4619 100.012 96.3439C99.7289 96.2227 99.4851 96.0535 99.2801 95.836C99.0782 95.6186 98.9229 95.3608 98.8142 95.0627C98.7055 94.7645 98.6511 94.4384 98.6511 94.0843V93.8886C98.6511 93.4786 98.7117 93.1137 98.8328 92.7937C98.954 92.4707 99.1186 92.1974 99.3267 91.9738C99.5348 91.7501 99.7708 91.5809 100.035 91.4659C100.299 91.351 100.572 91.2936 100.855 91.2936C101.215 91.2936 101.526 91.3557 101.787 91.4799C102.051 91.6042 102.266 91.7781 102.434 92.0017C102.602 92.2222 102.726 92.4831 102.807 92.7844C102.888 93.0826 102.928 93.4087 102.928 93.7628V94.1495H99.1636V93.446H102.066V93.3808C102.054 93.1571 102.007 92.9397 101.926 92.7285C101.849 92.5173 101.724 92.3434 101.554 92.2067C101.383 92.0701 101.15 92.0017 100.855 92.0017C100.659 92.0017 100.479 92.0437 100.314 92.1275C100.15 92.2083 100.008 92.3294 99.8904 92.4909C99.7724 92.6524 99.6808 92.8497 99.6155 93.0826C99.5503 93.3155 99.5177 93.5842 99.5177 93.8886V94.0843C99.5177 94.3234 99.5503 94.5486 99.6155 94.7598C99.6839 94.9679 99.7817 95.1512 99.909 95.3096C100.039 95.468 100.196 95.5922 100.38 95.6823C100.566 95.7724 100.777 95.8174 101.013 95.8174C101.318 95.8174 101.575 95.7553 101.787 95.6311C101.998 95.5068 102.183 95.3406 102.341 95.1325L102.863 95.5472C102.754 95.7118 102.616 95.8687 102.448 96.0177C102.28 96.1668 102.074 96.288 101.829 96.3811C101.586 96.4743 101.299 96.5209 100.967 96.5209ZM105.061 92.1788V96.4277H104.199V91.3867H105.038L105.061 92.1788ZM106.636 91.3588L106.631 92.1601C106.56 92.1446 106.492 92.1353 106.426 92.1322C106.364 92.126 106.293 92.1229 106.212 92.1229C106.013 92.1229 105.838 92.1539 105.686 92.216C105.533 92.2782 105.405 92.3651 105.299 92.4769C105.193 92.5888 105.109 92.7223 105.047 92.8776C104.988 93.0298 104.95 93.1975 104.931 93.3808L104.689 93.5205C104.689 93.2162 104.718 92.9304 104.777 92.6633C104.839 92.3962 104.934 92.1601 105.061 91.9551C105.189 91.747 105.35 91.5855 105.546 91.4706C105.745 91.3526 105.981 91.2936 106.254 91.2936C106.316 91.2936 106.388 91.3013 106.468 91.3169C106.549 91.3293 106.605 91.3433 106.636 91.3588Z" fill="#F6F1F2"/>
<path d="M184.474 86.9171V88.8118H183.542V86.9171H184.474ZM184.362 97.0612V98.7198H183.437V97.0612H184.362ZM185.605 95.0983C185.605 94.8498 185.549 94.6261 185.437 94.4274C185.325 94.2286 185.141 94.0464 184.884 93.8807C184.627 93.7151 184.284 93.5618 183.853 93.421C183.331 93.2595 182.88 93.0628 182.499 92.8309C182.122 92.599 181.83 92.3112 181.623 91.9674C181.42 91.6237 181.318 91.2075 181.318 90.7188C181.318 90.2095 181.428 89.7705 181.648 89.4019C181.867 89.0333 182.178 88.7496 182.579 88.5509C182.981 88.3521 183.453 88.2527 183.996 88.2527C184.418 88.2527 184.795 88.3169 185.126 88.4453C185.458 88.5695 185.737 88.7559 185.965 89.0043C186.197 89.2528 186.373 89.5572 186.493 89.9175C186.617 90.2778 186.679 90.694 186.679 91.1661H185.536C185.536 90.8886 185.503 90.6339 185.437 90.402C185.371 90.1701 185.271 89.9693 185.139 89.7995C185.006 89.6255 184.845 89.493 184.654 89.4019C184.464 89.3067 184.244 89.259 183.996 89.259C183.648 89.259 183.36 89.3191 183.132 89.4392C182.909 89.5593 182.743 89.7291 182.635 89.9486C182.528 90.1639 182.474 90.4144 182.474 90.7002C182.474 90.9652 182.528 91.1972 182.635 91.3959C182.743 91.5947 182.925 91.7749 183.182 91.9364C183.443 92.0937 183.801 92.249 184.257 92.4023C184.791 92.5721 185.244 92.7729 185.617 93.0048C185.99 93.2326 186.273 93.5142 186.468 93.8497C186.663 94.181 186.76 94.593 186.76 95.0858C186.76 95.6201 186.64 96.0715 186.4 96.44C186.16 96.8045 185.822 97.0819 185.387 97.2724C184.952 97.4629 184.443 97.5582 183.859 97.5582C183.507 97.5582 183.159 97.5106 182.815 97.4153C182.472 97.3201 182.161 97.1648 181.884 96.9494C181.606 96.7299 181.385 96.4421 181.219 96.086C181.053 95.7257 180.97 95.2846 180.97 94.7628H182.126C182.126 95.1148 182.176 95.4068 182.275 95.6387C182.379 95.8665 182.515 96.0487 182.685 96.1853C182.855 96.3179 183.041 96.4131 183.244 96.4711C183.451 96.5249 183.656 96.5519 183.859 96.5519C184.232 96.5519 184.547 96.4939 184.803 96.3779C185.064 96.2578 185.263 96.088 185.4 95.8685C185.536 95.649 185.605 95.3923 185.605 95.0983ZM197.807 96.4835V97.4277H191.887V96.6015L194.85 93.303C195.214 92.8972 195.496 92.5534 195.695 92.2718C195.898 91.9861 196.039 91.7314 196.117 91.5078C196.2 91.28 196.242 91.0481 196.242 90.812C196.242 90.5138 196.179 90.2447 196.055 90.0045C195.935 89.7601 195.757 89.5655 195.521 89.4205C195.285 89.2756 194.999 89.2031 194.664 89.2031C194.262 89.2031 193.927 89.2818 193.657 89.4392C193.392 89.5924 193.194 89.8077 193.061 90.0852C192.928 90.3627 192.862 90.6816 192.862 91.0419H191.713C191.713 90.5325 191.825 90.0666 192.048 89.6442C192.272 89.2218 192.603 88.8863 193.042 88.6378C193.481 88.3852 194.022 88.2589 194.664 88.2589C195.235 88.2589 195.724 88.3604 196.13 88.5633C196.536 88.7621 196.846 89.0437 197.062 89.4081C197.281 89.7684 197.391 90.1908 197.391 90.6754C197.391 90.9404 197.345 91.2096 197.254 91.4829C197.167 91.7521 197.045 92.0213 196.888 92.2905C196.734 92.5596 196.554 92.8247 196.347 93.0856C196.144 93.3465 195.927 93.6032 195.695 93.8559L193.272 96.4835H197.807ZM199.445 96.819C199.445 96.6243 199.505 96.4607 199.625 96.3282C199.749 96.1916 199.927 96.1232 200.159 96.1232C200.391 96.1232 200.567 96.1916 200.687 96.3282C200.811 96.4607 200.874 96.6243 200.874 96.819C200.874 97.0095 200.811 97.171 200.687 97.3035C200.567 97.436 200.391 97.5023 200.159 97.5023C199.927 97.5023 199.749 97.436 199.625 97.3035C199.505 97.171 199.445 97.0095 199.445 96.819ZM209.034 94.3839V95.3281H202.499V94.651L206.549 88.3831H207.487L206.481 90.197L203.804 94.3839H209.034ZM207.773 88.3831V97.4277H206.624V88.3831H207.773ZM211.486 96.4649H211.604C212.266 96.4649 212.805 96.3717 213.219 96.1853C213.633 95.999 213.952 95.7484 214.175 95.4337C214.399 95.119 214.552 94.7649 214.635 94.3715C214.718 93.9739 214.759 93.566 214.759 93.1477V91.7624C214.759 91.3525 214.712 90.988 214.616 90.6691C214.525 90.3503 214.397 90.0831 214.231 89.8678C214.07 89.6525 213.886 89.4889 213.678 89.3771C213.471 89.2652 213.252 89.2093 213.02 89.2093C212.755 89.2093 212.517 89.2632 212.306 89.3708C212.099 89.4744 211.923 89.6214 211.778 89.8119C211.637 90.0024 211.529 90.226 211.455 90.4828C211.38 90.7395 211.343 91.0191 211.343 91.3214C211.343 91.5906 211.376 91.8515 211.442 92.1041C211.508 92.3567 211.61 92.5845 211.747 92.7874C211.883 92.9903 212.053 93.1518 212.256 93.2719C212.463 93.3879 212.705 93.4459 212.983 93.4459C213.239 93.4459 213.48 93.3962 213.703 93.2968C213.931 93.1933 214.132 93.0545 214.306 92.8806C214.484 92.7025 214.625 92.5017 214.728 92.278C214.836 92.0544 214.898 91.8204 214.915 91.5761H215.461C215.461 91.9198 215.393 92.2594 215.256 92.5948C215.124 92.9261 214.937 93.2285 214.697 93.5018C214.457 93.7751 214.175 93.9946 213.852 94.1603C213.529 94.3218 213.177 94.4025 212.796 94.4025C212.349 94.4025 211.962 94.3156 211.635 94.1416C211.308 93.9677 211.038 93.7358 210.827 93.4459C210.62 93.156 210.465 92.833 210.361 92.4768C210.262 92.1165 210.212 91.7521 210.212 91.3835C210.212 90.9528 210.272 90.549 210.392 90.1722C210.512 89.7953 210.691 89.464 210.927 89.1783C211.163 88.8884 211.455 88.6627 211.802 88.5012C212.154 88.3397 212.56 88.2589 213.02 88.2589C213.538 88.2589 213.979 88.3624 214.343 88.5695C214.708 88.7766 215.004 89.054 215.231 89.4019C215.463 89.7498 215.633 90.1411 215.741 90.576C215.848 91.0108 215.902 91.4581 215.902 91.9177V92.3339C215.902 92.8019 215.871 93.2782 215.809 93.7627C215.751 94.2431 215.637 94.7028 215.467 95.1417C215.302 95.5807 215.06 95.9741 214.741 96.322C214.422 96.6657 214.006 96.9391 213.492 97.142C212.983 97.3408 212.353 97.4402 211.604 97.4402H211.486V96.4649Z" fill="#F6F1F2"/>
<path d="M270.347 86.9171V88.8118H269.416V86.9171H270.347ZM270.236 97.0612V98.7198H269.31V97.0612H270.236ZM271.478 95.0983C271.478 94.8498 271.422 94.6261 271.31 94.4274C271.198 94.2286 271.014 94.0464 270.757 93.8807C270.501 93.7151 270.157 93.5618 269.726 93.421C269.204 93.2595 268.753 93.0628 268.372 92.8309C267.995 92.599 267.703 92.3112 267.496 91.9674C267.293 91.6237 267.192 91.2075 267.192 90.7188C267.192 90.2095 267.301 89.7705 267.521 89.4019C267.74 89.0333 268.051 88.7496 268.453 88.5509C268.854 88.3521 269.327 88.2527 269.869 88.2527C270.292 88.2527 270.668 88.3169 271 88.4453C271.331 88.5695 271.611 88.7559 271.838 89.0043C272.07 89.2528 272.246 89.5572 272.366 89.9175C272.491 90.2778 272.553 90.694 272.553 91.1661H271.41C271.41 90.8886 271.377 90.6339 271.31 90.402C271.244 90.1701 271.145 89.9693 271.012 89.7995C270.88 89.6255 270.718 89.493 270.528 89.4019C270.337 89.3067 270.118 89.259 269.869 89.259C269.521 89.259 269.233 89.3191 269.006 89.4392C268.782 89.5593 268.616 89.7291 268.509 89.9486C268.401 90.1639 268.347 90.4144 268.347 90.7002C268.347 90.9652 268.401 91.1972 268.509 91.3959C268.616 91.5947 268.799 91.7749 269.055 91.9364C269.316 92.0937 269.674 92.249 270.13 92.4023C270.664 92.5721 271.118 92.7729 271.49 93.0048C271.863 93.2326 272.147 93.5142 272.341 93.8497C272.536 94.181 272.633 94.593 272.633 95.0858C272.633 95.6201 272.513 96.0715 272.273 96.44C272.033 96.8045 271.695 97.0819 271.261 97.2724C270.826 97.4629 270.316 97.5582 269.732 97.5582C269.38 97.5582 269.033 97.5106 268.689 97.4153C268.345 97.3201 268.035 97.1648 267.757 96.9494C267.48 96.7299 267.258 96.4421 267.092 96.086C266.927 95.7257 266.844 95.2846 266.844 94.7628H267.999C267.999 95.1148 268.049 95.4068 268.148 95.6387C268.252 95.8665 268.389 96.0487 268.558 96.1853C268.728 96.3179 268.915 96.4131 269.117 96.4711C269.325 96.5249 269.53 96.5519 269.732 96.5519C270.105 96.5519 270.42 96.4939 270.677 96.3779C270.938 96.2578 271.136 96.088 271.273 95.8685C271.41 95.649 271.478 95.3923 271.478 95.0983ZM283.68 96.4835V97.4277H277.76V96.6015L280.723 93.303C281.088 92.8972 281.369 92.5534 281.568 92.2718C281.771 91.9861 281.912 91.7314 281.991 91.5078C282.073 91.28 282.115 91.0481 282.115 90.812C282.115 90.5138 282.053 90.2447 281.929 90.0045C281.808 89.7601 281.63 89.5655 281.394 89.4205C281.158 89.2756 280.873 89.2031 280.537 89.2031C280.135 89.2031 279.8 89.2818 279.531 89.4392C279.266 89.5924 279.067 89.8077 278.934 90.0852C278.802 90.3627 278.736 90.6816 278.736 91.0419H277.586C277.586 90.5325 277.698 90.0666 277.922 89.6442C278.145 89.2218 278.477 88.8863 278.916 88.6378C279.355 88.3852 279.895 88.2589 280.537 88.2589C281.109 88.2589 281.597 88.3604 282.003 88.5633C282.409 88.7621 282.72 89.0437 282.935 89.4081C283.154 89.7684 283.264 90.1908 283.264 90.6754C283.264 90.9404 283.219 91.2096 283.127 91.4829C283.04 91.7521 282.918 92.0213 282.761 92.2905C282.608 92.5596 282.428 92.8247 282.221 93.0856C282.018 93.3465 281.8 93.6032 281.568 93.8559L279.146 96.4835H283.68ZM291.288 94.3839V95.3281H284.753V94.651L288.803 88.3831H289.741L288.735 90.197L286.057 94.3839H291.288ZM290.027 88.3831V97.4277H288.878V88.3831H290.027ZM292.739 96.819C292.739 96.6243 292.799 96.4607 292.92 96.3282C293.044 96.1916 293.222 96.1232 293.454 96.1232C293.686 96.1232 293.862 96.1916 293.982 96.3282C294.106 96.4607 294.168 96.6243 294.168 96.819C294.168 97.0095 294.106 97.171 293.982 97.3035C293.862 97.436 293.686 97.5023 293.454 97.5023C293.222 97.5023 293.044 97.436 292.92 97.3035C292.799 97.171 292.739 97.0095 292.739 96.819ZM297.359 96.4649H297.477C298.14 96.4649 298.678 96.3717 299.092 96.1853C299.506 95.999 299.825 95.7484 300.049 95.4337C300.272 95.119 300.426 94.7649 300.508 94.3715C300.591 93.9739 300.633 93.566 300.633 93.1477V91.7624C300.633 91.3525 300.585 90.988 300.49 90.6691C300.399 90.3503 300.27 90.0831 300.105 89.8678C299.943 89.6525 299.759 89.4889 299.552 89.3771C299.345 89.2652 299.125 89.2093 298.893 89.2093C298.628 89.2093 298.39 89.2632 298.179 89.3708C297.972 89.4744 297.796 89.6214 297.651 89.8119C297.51 90.0024 297.403 90.226 297.328 90.4828C297.253 90.7395 297.216 91.0191 297.216 91.3214C297.216 91.5906 297.249 91.8515 297.316 92.1041C297.382 92.3567 297.483 92.5845 297.62 92.7874C297.757 92.9903 297.926 93.1518 298.129 93.2719C298.336 93.3879 298.579 93.4459 298.856 93.4459C299.113 93.4459 299.353 93.3962 299.577 93.2968C299.804 93.1933 300.005 93.0545 300.179 92.8806C300.357 92.7025 300.498 92.5017 300.602 92.278C300.709 92.0544 300.771 91.8204 300.788 91.5761H301.335C301.335 91.9198 301.266 92.2594 301.13 92.5948C300.997 92.9261 300.811 93.2285 300.571 93.5018C300.33 93.7751 300.049 93.9946 299.726 94.1603C299.403 94.3218 299.051 94.4025 298.67 94.4025C298.222 94.4025 297.835 94.3156 297.508 94.1416C297.181 93.9677 296.912 93.7358 296.701 93.4459C296.493 93.156 296.338 92.833 296.235 92.4768C296.135 92.1165 296.086 91.7521 296.086 91.3835C296.086 90.9528 296.146 90.549 296.266 90.1722C296.386 89.7953 296.564 89.464 296.8 89.1783C297.036 88.8884 297.328 88.6627 297.676 88.5012C298.028 88.3397 298.434 88.2589 298.893 88.2589C299.411 88.2589 299.852 88.3624 300.217 88.5695C300.581 88.7766 300.877 89.054 301.105 89.4019C301.337 89.7498 301.507 90.1411 301.614 90.576C301.722 91.0108 301.776 91.4581 301.776 91.9177V92.3339C301.776 92.8019 301.745 93.2782 301.683 93.7627C301.625 94.2431 301.511 94.7028 301.341 95.1417C301.175 95.5807 300.933 95.9741 300.614 96.322C300.295 96.6657 299.879 96.9391 299.365 97.142C298.856 97.3408 298.227 97.4402 297.477 97.4402H297.359V96.4649ZM304.78 96.4649H304.898C305.561 96.4649 306.099 96.3717 306.513 96.1853C306.927 95.999 307.246 95.7484 307.47 95.4337C307.694 95.119 307.847 94.7649 307.93 94.3715C308.013 93.9739 308.054 93.566 308.054 93.1477V91.7624C308.054 91.3525 308.006 90.988 307.911 90.6691C307.82 90.3503 307.692 90.0831 307.526 89.8678C307.364 89.6525 307.18 89.4889 306.973 89.3771C306.766 89.2652 306.546 89.2093 306.315 89.2093C306.05 89.2093 305.811 89.2632 305.6 89.3708C305.393 89.4744 305.217 89.6214 305.072 89.8119C304.931 90.0024 304.824 90.226 304.749 90.4828C304.675 90.7395 304.637 91.0191 304.637 91.3214C304.637 91.5906 304.67 91.8515 304.737 92.1041C304.803 92.3567 304.904 92.5845 305.041 92.7874C305.178 92.9903 305.348 93.1518 305.551 93.2719C305.758 93.3879 306 93.4459 306.277 93.4459C306.534 93.4459 306.774 93.3962 306.998 93.2968C307.226 93.1933 307.427 93.0545 307.6 92.8806C307.779 92.7025 307.919 92.5017 308.023 92.278C308.131 92.0544 308.193 91.8204 308.209 91.5761H308.756C308.756 91.9198 308.688 92.2594 308.551 92.5948C308.418 92.9261 308.232 93.2285 307.992 93.5018C307.752 93.7751 307.47 93.9946 307.147 94.1603C306.824 94.3218 306.472 94.4025 306.091 94.4025C305.644 94.4025 305.256 94.3156 304.929 94.1416C304.602 93.9677 304.333 93.7358 304.122 93.4459C303.915 93.156 303.759 92.833 303.656 92.4768C303.556 92.1165 303.507 91.7521 303.507 91.3835C303.507 90.9528 303.567 90.549 303.687 90.1722C303.807 89.7953 303.985 89.464 304.221 89.1783C304.457 88.8884 304.749 88.6627 305.097 88.5012C305.449 88.3397 305.855 88.2589 306.315 88.2589C306.832 88.2589 307.273 88.3624 307.638 88.5695C308.002 88.7766 308.298 89.054 308.526 89.4019C308.758 89.7498 308.928 90.1411 309.035 90.576C309.143 91.0108 309.197 91.4581 309.197 91.9177V92.3339C309.197 92.8019 309.166 93.2782 309.104 93.7627C309.046 94.2431 308.932 94.7028 308.762 95.1417C308.596 95.5807 308.354 95.9741 308.035 96.322C307.716 96.6657 307.3 96.9391 306.787 97.142C306.277 97.3408 305.648 97.4402 304.898 97.4402H304.78V96.4649Z" fill="#9FBFE5" fill-opacity="0.996078"/>
<path d="M12.7217 120.354L357.278 120.353" stroke="url(#paint4_linear_10739_3008)" stroke-width="0.530086" stroke-linecap="round"/>
<path d="M46.756 148.896H44.9437V148.165H46.756C47.107 148.165 47.3912 148.109 47.6086 147.997C47.826 147.885 47.9844 147.73 48.0838 147.531C48.1863 147.333 48.2376 147.106 48.2376 146.851C48.2376 146.618 48.1863 146.399 48.0838 146.194C47.9844 145.989 47.826 145.825 47.6086 145.7C47.3912 145.573 47.107 145.509 46.756 145.509H45.1533V151.557H44.2542V144.773H46.756C47.2685 144.773 47.7018 144.862 48.0559 145.039C48.41 145.216 48.6786 145.461 48.8619 145.775C49.0451 146.085 49.1367 146.441 49.1367 146.842C49.1367 147.277 49.0451 147.648 48.8619 147.955C48.6786 148.263 48.41 148.497 48.0559 148.659C47.7018 148.817 47.2685 148.896 46.756 148.896ZM51.27 147.308V151.557H50.4081V146.516H51.2467L51.27 147.308ZM52.8448 146.488L52.8401 147.289C52.7687 147.274 52.7003 147.264 52.6351 147.261C52.573 147.255 52.5016 147.252 52.4208 147.252C52.222 147.252 52.0465 147.283 51.8943 147.345C51.7421 147.407 51.6132 147.494 51.5076 147.606C51.402 147.718 51.3182 147.851 51.2561 148.007C51.197 148.159 51.1582 148.326 51.1396 148.51L50.8973 148.649C50.8973 148.345 50.9268 148.059 50.9858 147.792C51.048 147.525 51.1427 147.289 51.27 147.084C51.3974 146.876 51.5589 146.714 51.7546 146.6C51.9533 146.481 52.1894 146.422 52.4627 146.422C52.5248 146.422 52.5963 146.43 52.677 146.446C52.7578 146.458 52.8137 146.472 52.8448 146.488ZM55.9052 151.65C55.5542 151.65 55.2358 151.591 54.9501 151.473C54.6675 151.352 54.4236 151.182 54.2186 150.965C54.0168 150.748 53.8615 150.49 53.7527 150.192C53.644 149.893 53.5897 149.567 53.5897 149.213V149.018C53.5897 148.608 53.6502 148.243 53.7714 147.923C53.8925 147.6 54.0571 147.326 54.2652 147.103C54.4733 146.879 54.7094 146.71 54.9734 146.595C55.2374 146.48 55.5107 146.422 55.7934 146.422C56.1537 146.422 56.4643 146.485 56.7252 146.609C56.9892 146.733 57.205 146.907 57.3728 147.131C57.5405 147.351 57.6647 147.612 57.7455 147.913C57.8262 148.212 57.8666 148.538 57.8666 148.892V149.278H54.1022V148.575H57.0047V148.51C56.9923 148.286 56.9457 148.069 56.8649 147.857C56.7873 147.646 56.663 147.472 56.4922 147.336C56.3214 147.199 56.0884 147.131 55.7934 147.131C55.5977 147.131 55.4175 147.173 55.2529 147.256C55.0883 147.337 54.947 147.458 54.829 147.62C54.7109 147.781 54.6193 147.979 54.5541 148.212C54.4889 148.444 54.4562 148.713 54.4562 149.018V149.213C54.4562 149.452 54.4889 149.678 54.5541 149.889C54.6224 150.097 54.7203 150.28 54.8476 150.438C54.978 150.597 55.1349 150.721 55.3182 150.811C55.5045 150.901 55.7157 150.946 55.9518 150.946C56.2562 150.946 56.514 150.884 56.7252 150.76C56.9364 150.636 57.1212 150.47 57.2796 150.261L57.8014 150.676C57.6927 150.841 57.5545 150.998 57.3867 151.147C57.219 151.296 57.0125 151.417 56.7671 151.51C56.5248 151.603 56.2375 151.65 55.9052 151.65ZM59.9952 147.517V151.557H59.1287V146.516H59.9486L59.9952 147.517ZM59.8182 148.845L59.4175 148.831C59.4206 148.486 59.4657 148.168 59.5526 147.876C59.6396 147.581 59.7685 147.325 59.9393 147.107C60.1102 146.89 60.3229 146.722 60.5776 146.604C60.8323 146.483 61.1274 146.422 61.4628 146.422C61.6989 146.422 61.9163 146.457 62.1151 146.525C62.3138 146.59 62.4862 146.694 62.6322 146.837C62.7782 146.98 62.8915 147.163 62.9723 147.387C63.0531 147.611 63.0934 147.881 63.0934 148.198V151.557H62.2315V148.239C62.2315 147.975 62.1865 147.764 62.0964 147.606C62.0095 147.447 61.8852 147.333 61.7237 147.261C61.5622 147.187 61.3727 147.149 61.1553 147.149C60.9006 147.149 60.6879 147.194 60.517 147.284C60.3462 147.374 60.2095 147.499 60.107 147.657C60.0045 147.815 59.93 147.997 59.8834 148.202C59.8399 148.404 59.8182 148.618 59.8182 148.845ZM63.0841 148.37L62.5064 148.547C62.5095 148.271 62.5546 148.005 62.6415 147.75C62.7316 147.496 62.8605 147.269 63.0282 147.07C63.199 146.871 63.4087 146.714 63.6572 146.6C63.9056 146.481 64.1898 146.422 64.5098 146.422C64.78 146.422 65.0191 146.458 65.2272 146.53C65.4384 146.601 65.6155 146.711 65.7584 146.86C65.9043 147.006 66.0146 147.194 66.0891 147.424C66.1637 147.654 66.201 147.927 66.201 148.244V151.557H65.3344V148.235C65.3344 147.952 65.2894 147.733 65.1993 147.578C65.1123 147.419 64.9881 147.309 64.8266 147.247C64.6682 147.182 64.4787 147.149 64.2582 147.149C64.0687 147.149 63.901 147.182 63.755 147.247C63.609 147.312 63.4863 147.402 63.387 147.517C63.2876 147.629 63.2115 147.758 63.1587 147.904C63.109 148.05 63.0841 148.205 63.0841 148.37ZM68.707 146.516V151.557H67.8404V146.516H68.707ZM67.7752 145.179C67.7752 145.039 67.8171 144.921 67.901 144.824C67.9879 144.728 68.1153 144.68 68.283 144.68C68.4476 144.68 68.5734 144.728 68.6604 144.824C68.7504 144.921 68.7955 145.039 68.7955 145.179C68.7955 145.312 68.7504 145.427 68.6604 145.523C68.5734 145.616 68.4476 145.663 68.283 145.663C68.1153 145.663 67.9879 145.616 67.901 145.523C67.8171 145.427 67.7752 145.312 67.7752 145.179ZM73.44 150.392V146.516H74.3065V151.557H73.4819L73.44 150.392ZM73.603 149.33L73.9618 149.32C73.9618 149.656 73.926 149.966 73.8546 150.252C73.7863 150.535 73.6745 150.78 73.5192 150.988C73.3639 151.196 73.1604 151.359 72.9088 151.477C72.6572 151.592 72.3513 151.65 71.991 151.65C71.7456 151.65 71.5205 151.614 71.3155 151.543C71.1136 151.471 70.9396 151.361 70.7937 151.212C70.6477 151.063 70.5343 150.869 70.4536 150.63C70.3759 150.39 70.3371 150.103 70.3371 149.768V146.516H71.199V149.777C71.199 150.004 71.2238 150.192 71.2735 150.341C71.3263 150.487 71.3962 150.603 71.4832 150.69C71.5733 150.774 71.6727 150.833 71.7814 150.867C71.8932 150.901 72.0081 150.918 72.1261 150.918C72.4926 150.918 72.783 150.848 72.9973 150.709C73.2117 150.566 73.3654 150.375 73.4586 150.136C73.5549 149.893 73.603 149.625 73.603 149.33ZM76.7426 147.517V151.557H75.8761V146.516H76.696L76.7426 147.517ZM76.5656 148.845L76.1649 148.831C76.168 148.486 76.2131 148.168 76.3 147.876C76.387 147.581 76.5159 147.325 76.6867 147.107C76.8576 146.89 77.0703 146.722 77.325 146.604C77.5797 146.483 77.8748 146.422 78.2102 146.422C78.4463 146.422 78.6637 146.457 78.8625 146.525C79.0612 146.59 79.2336 146.694 79.3796 146.837C79.5256 146.98 79.639 147.163 79.7197 147.387C79.8005 147.611 79.8408 147.881 79.8408 148.198V151.557H78.9789V148.239C78.9789 147.975 78.9339 147.764 78.8438 147.606C78.7569 147.447 78.6326 147.333 78.4711 147.261C78.3096 147.187 78.1201 147.149 77.9027 147.149C77.648 147.149 77.4353 147.194 77.2644 147.284C77.0936 147.374 76.9569 147.499 76.8544 147.657C76.752 147.815 76.6774 147.997 76.6308 148.202C76.5873 148.404 76.5656 148.618 76.5656 148.845ZM79.8315 148.37L79.2538 148.547C79.2569 148.271 79.302 148.005 79.3889 147.75C79.479 147.496 79.6079 147.269 79.7756 147.07C79.9464 146.871 80.1561 146.714 80.4046 146.6C80.6531 146.481 80.9372 146.422 81.2572 146.422C81.5274 146.422 81.7665 146.458 81.9746 146.53C82.1859 146.601 82.3629 146.711 82.5058 146.86C82.6517 147.006 82.762 147.194 82.8366 147.424C82.9111 147.654 82.9484 147.927 82.9484 148.244V151.557H82.0818V148.235C82.0818 147.952 82.0368 147.733 81.9467 147.578C81.8597 147.419 81.7355 147.309 81.574 147.247C81.4156 147.182 81.2261 147.149 81.0056 147.149C80.8161 147.149 80.6484 147.182 80.5024 147.247C80.3564 147.312 80.2337 147.402 80.1344 147.517C80.035 147.629 79.9589 147.758 79.9061 147.904C79.8564 148.05 79.8315 148.205 79.8315 148.37ZM91.1611 144.773H92.0556V149.362C92.0556 149.872 91.9422 150.296 91.7155 150.634C91.4888 150.973 91.1875 151.227 90.8117 151.398C90.4389 151.566 90.0336 151.65 89.5957 151.65C89.136 151.65 88.7198 151.566 88.3471 151.398C87.9775 151.227 87.6839 150.973 87.4665 150.634C87.2522 150.296 87.1451 149.872 87.1451 149.362V144.773H88.0349V149.362C88.0349 149.716 88.1001 150.008 88.2306 150.238C88.361 150.468 88.5427 150.639 88.7757 150.751C89.0117 150.862 89.2851 150.918 89.5957 150.918C89.9094 150.918 90.1827 150.862 90.4156 150.751C90.6517 150.639 90.8349 150.468 90.9654 150.238C91.0958 150.008 91.1611 149.716 91.1611 149.362V144.773ZM96.537 150.22C96.537 150.095 96.509 149.98 96.4531 149.875C96.4003 149.766 96.2901 149.668 96.1223 149.581C95.9577 149.491 95.7093 149.414 95.3769 149.348C95.0974 149.289 94.8442 149.219 94.6175 149.139C94.3939 149.058 94.2029 148.96 94.0445 148.845C93.8892 148.73 93.7696 148.595 93.6857 148.44C93.6019 148.284 93.5599 148.103 93.5599 147.895C93.5599 147.696 93.6034 147.508 93.6904 147.331C93.7804 147.154 93.9062 146.997 94.0677 146.86C94.2324 146.724 94.4296 146.617 94.6594 146.539C94.8893 146.461 95.1455 146.422 95.4282 146.422C95.8319 146.422 96.1767 146.494 96.4625 146.637C96.7482 146.78 96.9672 146.971 97.1194 147.21C97.2716 147.446 97.3477 147.708 97.3477 147.997H96.4857C96.4857 147.857 96.4438 147.722 96.36 147.592C96.2792 147.458 96.1596 147.348 96.0012 147.261C95.8459 147.174 95.6549 147.131 95.4282 147.131C95.189 147.131 94.9949 147.168 94.8458 147.242C94.6998 147.314 94.5927 147.406 94.5243 147.517C94.4591 147.629 94.4265 147.747 94.4265 147.871C94.4265 147.965 94.442 148.048 94.4731 148.123C94.5072 148.194 94.5663 148.261 94.6501 148.323C94.734 148.382 94.852 148.438 95.0042 148.491C95.1564 148.544 95.3505 148.597 95.5866 148.649C95.9997 148.743 96.3398 148.854 96.6069 148.985C96.874 149.115 97.0728 149.275 97.2032 149.465C97.3337 149.654 97.3989 149.884 97.3989 150.154C97.3989 150.375 97.3523 150.577 97.2591 150.76C97.1691 150.943 97.0371 151.102 96.8631 151.235C96.6923 151.366 96.4873 151.468 96.2481 151.543C96.0121 151.614 95.7465 151.65 95.4515 151.65C95.0073 151.65 94.6315 151.571 94.324 151.412C94.0165 151.254 93.7836 151.049 93.6251 150.797C93.4667 150.546 93.3875 150.28 93.3875 150.001H94.2541C94.2665 150.237 94.3349 150.425 94.4591 150.564C94.5833 150.701 94.7355 150.799 94.9157 150.858C95.0958 150.914 95.2744 150.942 95.4515 150.942C95.6875 150.942 95.8847 150.911 96.0431 150.848C96.2047 150.786 96.3273 150.701 96.4112 150.592C96.4951 150.484 96.537 150.359 96.537 150.22ZM100.888 151.65C100.537 151.65 100.219 151.591 99.9329 151.473C99.6502 151.352 99.4064 151.182 99.2014 150.965C98.9995 150.748 98.8442 150.49 98.7355 150.192C98.6268 149.893 98.5724 149.567 98.5724 149.213V149.018C98.5724 148.608 98.633 148.243 98.7541 147.923C98.8753 147.6 99.0399 147.326 99.248 147.103C99.4561 146.879 99.6921 146.71 99.9562 146.595C100.22 146.48 100.493 146.422 100.776 146.422C101.136 146.422 101.447 146.485 101.708 146.609C101.972 146.733 102.188 146.907 102.356 147.131C102.523 147.351 102.647 147.612 102.728 147.913C102.809 148.212 102.849 148.538 102.849 148.892V149.278H99.0849V148.575H101.987V148.51C101.975 148.286 101.928 148.069 101.848 147.857C101.77 147.646 101.646 147.472 101.475 147.336C101.304 147.199 101.071 147.131 100.776 147.131C100.58 147.131 100.4 147.173 100.236 147.256C100.071 147.337 99.9298 147.458 99.8117 147.62C99.6937 147.781 99.6021 147.979 99.5368 148.212C99.4716 148.444 99.439 148.713 99.439 149.018V149.213C99.439 149.452 99.4716 149.678 99.5368 149.889C99.6052 150.097 99.703 150.28 99.8304 150.438C99.9608 150.597 100.118 150.721 100.301 150.811C100.487 150.901 100.698 150.946 100.935 150.946C101.239 150.946 101.497 150.884 101.708 150.76C101.919 150.636 102.104 150.47 102.262 150.261L102.784 150.676C102.675 150.841 102.537 150.998 102.369 151.147C102.202 151.296 101.995 151.417 101.75 151.51C101.508 151.603 101.22 151.65 100.888 151.65ZM104.983 147.308V151.557H104.121V146.516H104.959L104.983 147.308ZM106.557 146.488L106.553 147.289C106.481 147.274 106.413 147.264 106.348 147.261C106.286 147.255 106.214 147.252 106.133 147.252C105.935 147.252 105.759 147.283 105.607 147.345C105.455 147.407 105.326 147.494 105.22 147.606C105.115 147.718 105.031 147.851 104.969 148.007C104.91 148.159 104.871 148.326 104.852 148.51L104.61 148.649C104.61 148.345 104.639 148.059 104.698 147.792C104.761 147.525 104.855 147.289 104.983 147.084C105.11 146.876 105.272 146.714 105.467 146.6C105.666 146.481 105.902 146.422 106.175 146.422C106.237 146.422 106.309 146.43 106.39 146.446C106.47 146.458 106.526 146.472 106.557 146.488Z" fill="#F6F1F2"/>
<path d="M184.474 142.046V143.941H183.542V142.046H184.474ZM184.362 152.19V153.849H183.437V152.19H184.362ZM185.605 150.227C185.605 149.979 185.549 149.755 185.437 149.556C185.325 149.357 185.141 149.175 184.884 149.01C184.627 148.844 184.284 148.691 183.853 148.55C183.331 148.388 182.88 148.192 182.499 147.96C182.122 147.728 181.83 147.44 181.623 147.096C181.42 146.753 181.318 146.336 181.318 145.848C181.318 145.338 181.428 144.899 181.648 144.531C181.867 144.162 182.178 143.879 182.579 143.68C182.981 143.481 183.453 143.382 183.996 143.382C184.418 143.382 184.795 143.446 185.126 143.574C185.458 143.698 185.737 143.885 185.965 144.133C186.197 144.382 186.373 144.686 186.493 145.046C186.617 145.407 186.679 145.823 186.679 146.295H185.536C185.536 146.018 185.503 145.763 185.437 145.531C185.371 145.299 185.271 145.098 185.139 144.928C185.006 144.754 184.845 144.622 184.654 144.531C184.464 144.436 184.244 144.388 183.996 144.388C183.648 144.388 183.36 144.448 183.132 144.568C182.909 144.688 182.743 144.858 182.635 145.077C182.528 145.293 182.474 145.543 182.474 145.829C182.474 146.094 182.528 146.326 182.635 146.525C182.743 146.724 182.925 146.904 183.182 147.065C183.443 147.223 183.801 147.378 184.257 147.531C184.791 147.701 185.244 147.902 185.617 148.134C185.99 148.362 186.273 148.643 186.468 148.979C186.663 149.31 186.76 149.722 186.76 150.215C186.76 150.749 186.64 151.2 186.4 151.569C186.16 151.933 185.822 152.211 185.387 152.401C184.952 152.592 184.443 152.687 183.859 152.687C183.507 152.687 183.159 152.639 182.815 152.544C182.472 152.449 182.161 152.294 181.884 152.078C181.606 151.859 181.385 151.571 181.219 151.215C181.053 150.855 180.97 150.414 180.97 149.892H182.126C182.126 150.244 182.176 150.536 182.275 150.768C182.379 150.995 182.515 151.178 182.685 151.314C182.855 151.447 183.041 151.542 183.244 151.6C183.451 151.654 183.656 151.681 183.859 151.681C184.232 151.681 184.547 151.623 184.803 151.507C185.064 151.387 185.263 151.217 185.4 150.997C185.536 150.778 185.605 150.521 185.605 150.227ZM193.024 151.594H193.142C193.804 151.594 194.343 151.501 194.757 151.314C195.171 151.128 195.49 150.877 195.714 150.563C195.937 150.248 196.09 149.894 196.173 149.5C196.256 149.103 196.297 148.695 196.297 148.277V146.891C196.297 146.481 196.25 146.117 196.155 145.798C196.063 145.479 195.935 145.212 195.769 144.997C195.608 144.781 195.424 144.618 195.217 144.506C195.009 144.394 194.79 144.338 194.558 144.338C194.293 144.338 194.055 144.392 193.844 144.5C193.637 144.603 193.461 144.75 193.316 144.941C193.175 145.131 193.067 145.355 192.993 145.612C192.918 145.868 192.881 146.148 192.881 146.45C192.881 146.719 192.914 146.98 192.98 147.233C193.047 147.486 193.148 147.713 193.285 147.916C193.421 148.119 193.591 148.281 193.794 148.401C194.001 148.517 194.243 148.575 194.521 148.575C194.778 148.575 195.018 148.525 195.241 148.426C195.469 148.322 195.67 148.183 195.844 148.009C196.022 147.831 196.163 147.631 196.266 147.407C196.374 147.183 196.436 146.949 196.453 146.705H196.999C196.999 147.049 196.931 147.388 196.794 147.724C196.662 148.055 196.476 148.357 196.235 148.631C195.995 148.904 195.714 149.124 195.39 149.289C195.067 149.451 194.715 149.531 194.334 149.531C193.887 149.531 193.5 149.444 193.173 149.271C192.846 149.097 192.576 148.865 192.365 148.575C192.158 148.285 192.003 147.962 191.899 147.606C191.8 147.245 191.75 146.881 191.75 146.512C191.75 146.082 191.81 145.678 191.93 145.301C192.051 144.924 192.229 144.593 192.465 144.307C192.701 144.017 192.993 143.792 193.341 143.63C193.693 143.469 194.098 143.388 194.558 143.388C195.076 143.388 195.517 143.491 195.881 143.698C196.246 143.905 196.542 144.183 196.77 144.531C197.001 144.879 197.171 145.27 197.279 145.705C197.387 146.14 197.44 146.587 197.44 147.047V147.463C197.44 147.931 197.409 148.407 197.347 148.892C197.289 149.372 197.175 149.832 197.006 150.271C196.84 150.71 196.598 151.103 196.279 151.451C195.96 151.795 195.544 152.068 195.03 152.271C194.521 152.47 193.891 152.569 193.142 152.569H193.024V151.594ZM199.445 151.948C199.445 151.753 199.505 151.59 199.625 151.457C199.749 151.32 199.927 151.252 200.159 151.252C200.391 151.252 200.567 151.32 200.687 151.457C200.811 151.59 200.874 151.753 200.874 151.948C200.874 152.138 200.811 152.3 200.687 152.432C200.567 152.565 200.391 152.631 200.159 152.631C199.927 152.631 199.749 152.565 199.625 152.432C199.505 152.3 199.445 152.138 199.445 151.948ZM204.064 151.594H204.182C204.845 151.594 205.383 151.501 205.798 151.314C206.212 151.128 206.531 150.877 206.754 150.563C206.978 150.248 207.131 149.894 207.214 149.5C207.297 149.103 207.338 148.695 207.338 148.277V146.891C207.338 146.481 207.291 146.117 207.195 145.798C207.104 145.479 206.976 145.212 206.81 144.997C206.649 144.781 206.464 144.618 206.257 144.506C206.05 144.394 205.831 144.338 205.599 144.338C205.334 144.338 205.096 144.392 204.884 144.5C204.677 144.603 204.501 144.75 204.356 144.941C204.216 145.131 204.108 145.355 204.033 145.612C203.959 145.868 203.922 146.148 203.922 146.45C203.922 146.719 203.955 146.98 204.021 147.233C204.087 147.486 204.189 147.713 204.325 147.916C204.462 148.119 204.632 148.281 204.835 148.401C205.042 148.517 205.284 148.575 205.562 148.575C205.818 148.575 206.058 148.525 206.282 148.426C206.51 148.322 206.711 148.183 206.885 148.009C207.063 147.831 207.204 147.631 207.307 147.407C207.415 147.183 207.477 146.949 207.493 146.705H208.04C208.04 147.049 207.972 147.388 207.835 147.724C207.703 148.055 207.516 148.357 207.276 148.631C207.036 148.904 206.754 149.124 206.431 149.289C206.108 149.451 205.756 149.531 205.375 149.531C204.928 149.531 204.541 149.444 204.214 149.271C203.886 149.097 203.617 148.865 203.406 148.575C203.199 148.285 203.044 147.962 202.94 147.606C202.841 147.245 202.791 146.881 202.791 146.512C202.791 146.082 202.851 145.678 202.971 145.301C203.091 144.924 203.269 144.593 203.505 144.307C203.741 144.017 204.033 143.792 204.381 143.63C204.733 143.469 205.139 143.388 205.599 143.388C206.116 143.388 206.557 143.491 206.922 143.698C207.286 143.905 207.582 144.183 207.81 144.531C208.042 144.879 208.212 145.27 208.32 145.705C208.427 146.14 208.481 146.587 208.481 147.047V147.463C208.481 147.931 208.45 148.407 208.388 148.892C208.33 149.372 208.216 149.832 208.046 150.271C207.881 150.71 207.638 151.103 207.319 151.451C207.001 151.795 206.584 152.068 206.071 152.271C205.562 152.47 204.932 152.569 204.182 152.569H204.064V151.594ZM211.486 151.594H211.604C212.266 151.594 212.805 151.501 213.219 151.314C213.633 151.128 213.952 150.877 214.175 150.563C214.399 150.248 214.552 149.894 214.635 149.5C214.718 149.103 214.759 148.695 214.759 148.277V146.891C214.759 146.481 214.712 146.117 214.616 145.798C214.525 145.479 214.397 145.212 214.231 144.997C214.07 144.781 213.886 144.618 213.678 144.506C213.471 144.394 213.252 144.338 213.02 144.338C212.755 144.338 212.517 144.392 212.306 144.5C212.099 144.603 211.923 144.75 211.778 144.941C211.637 145.131 211.529 145.355 211.455 145.612C211.38 145.868 211.343 146.148 211.343 146.45C211.343 146.719 211.376 146.98 211.442 147.233C211.508 147.486 211.61 147.713 211.747 147.916C211.883 148.119 212.053 148.281 212.256 148.401C212.463 148.517 212.705 148.575 212.983 148.575C213.239 148.575 213.48 148.525 213.703 148.426C213.931 148.322 214.132 148.183 214.306 148.009C214.484 147.831 214.625 147.631 214.728 147.407C214.836 147.183 214.898 146.949 214.915 146.705H215.461C215.461 147.049 215.393 147.388 215.256 147.724C215.124 148.055 214.937 148.357 214.697 148.631C214.457 148.904 214.175 149.124 213.852 149.289C213.529 149.451 213.177 149.531 212.796 149.531C212.349 149.531 211.962 149.444 211.635 149.271C211.308 149.097 211.038 148.865 210.827 148.575C210.62 148.285 210.465 147.962 210.361 147.606C210.262 147.245 210.212 146.881 210.212 146.512C210.212 146.082 210.272 145.678 210.392 145.301C210.512 144.924 210.691 144.593 210.927 144.307C211.163 144.017 211.455 143.792 211.802 143.63C212.154 143.469 212.56 143.388 213.02 143.388C213.538 143.388 213.979 143.491 214.343 143.698C214.708 143.905 215.004 144.183 215.231 144.531C215.463 144.879 215.633 145.27 215.741 145.705C215.848 146.14 215.902 146.587 215.902 147.047V147.463C215.902 147.931 215.871 148.407 215.809 148.892C215.751 149.372 215.637 149.832 215.467 150.271C215.302 150.71 215.06 151.103 214.741 151.451C214.422 151.795 214.006 152.068 213.492 152.271C212.983 152.47 212.353 152.569 211.604 152.569H211.486V151.594Z" fill="#F6F1F2"/>
<path d="M270.347 142.046V143.941H269.416V142.046H270.347ZM270.236 152.19V153.849H269.31V152.19H270.236ZM271.478 150.227C271.478 149.979 271.422 149.755 271.31 149.556C271.198 149.357 271.014 149.175 270.757 149.01C270.501 148.844 270.157 148.691 269.726 148.55C269.204 148.388 268.753 148.192 268.372 147.96C267.995 147.728 267.703 147.44 267.496 147.096C267.293 146.753 267.192 146.336 267.192 145.848C267.192 145.338 267.301 144.899 267.521 144.531C267.74 144.162 268.051 143.879 268.453 143.68C268.854 143.481 269.327 143.382 269.869 143.382C270.292 143.382 270.668 143.446 271 143.574C271.331 143.698 271.611 143.885 271.838 144.133C272.07 144.382 272.246 144.686 272.366 145.046C272.491 145.407 272.553 145.823 272.553 146.295H271.41C271.41 146.018 271.377 145.763 271.31 145.531C271.244 145.299 271.145 145.098 271.012 144.928C270.88 144.754 270.718 144.622 270.528 144.531C270.337 144.436 270.118 144.388 269.869 144.388C269.521 144.388 269.233 144.448 269.006 144.568C268.782 144.688 268.616 144.858 268.509 145.077C268.401 145.293 268.347 145.543 268.347 145.829C268.347 146.094 268.401 146.326 268.509 146.525C268.616 146.724 268.799 146.904 269.055 147.065C269.316 147.223 269.674 147.378 270.13 147.531C270.664 147.701 271.118 147.902 271.49 148.134C271.863 148.362 272.147 148.643 272.341 148.979C272.536 149.31 272.633 149.722 272.633 150.215C272.633 150.749 272.513 151.2 272.273 151.569C272.033 151.933 271.695 152.211 271.261 152.401C270.826 152.592 270.316 152.687 269.732 152.687C269.38 152.687 269.033 152.639 268.689 152.544C268.345 152.449 268.035 152.294 267.757 152.078C267.48 151.859 267.258 151.571 267.092 151.215C266.927 150.855 266.844 150.414 266.844 149.892H267.999C267.999 150.244 268.049 150.536 268.148 150.768C268.252 150.995 268.389 151.178 268.558 151.314C268.728 151.447 268.915 151.542 269.117 151.6C269.325 151.654 269.53 151.681 269.732 151.681C270.105 151.681 270.42 151.623 270.677 151.507C270.938 151.387 271.136 151.217 271.273 150.997C271.41 150.778 271.478 150.521 271.478 150.227ZM278.897 151.594H279.015C279.678 151.594 280.216 151.501 280.63 151.314C281.044 151.128 281.363 150.877 281.587 150.563C281.811 150.248 281.964 149.894 282.047 149.5C282.129 149.103 282.171 148.695 282.171 148.277V146.891C282.171 146.481 282.123 146.117 282.028 145.798C281.937 145.479 281.808 145.212 281.643 144.997C281.481 144.781 281.297 144.618 281.09 144.506C280.883 144.394 280.663 144.338 280.431 144.338C280.166 144.338 279.928 144.392 279.717 144.5C279.51 144.603 279.334 144.75 279.189 144.941C279.048 145.131 278.941 145.355 278.866 145.612C278.792 145.868 278.754 146.148 278.754 146.45C278.754 146.719 278.787 146.98 278.854 147.233C278.92 147.486 279.021 147.713 279.158 147.916C279.295 148.119 279.464 148.281 279.667 148.401C279.874 148.517 280.117 148.575 280.394 148.575C280.651 148.575 280.891 148.525 281.115 148.426C281.343 148.322 281.543 148.183 281.717 148.009C281.895 147.831 282.036 147.631 282.14 147.407C282.247 147.183 282.31 146.949 282.326 146.705H282.873C282.873 147.049 282.804 147.388 282.668 147.724C282.535 148.055 282.349 148.357 282.109 148.631C281.869 148.904 281.587 149.124 281.264 149.289C280.941 149.451 280.589 149.531 280.208 149.531C279.761 149.531 279.373 149.444 279.046 149.271C278.719 149.097 278.45 148.865 278.239 148.575C278.032 148.285 277.876 147.962 277.773 147.606C277.673 147.245 277.624 146.881 277.624 146.512C277.624 146.082 277.684 145.678 277.804 145.301C277.924 144.924 278.102 144.593 278.338 144.307C278.574 144.017 278.866 143.792 279.214 143.63C279.566 143.469 279.972 143.388 280.431 143.388C280.949 143.388 281.39 143.491 281.755 143.698C282.119 143.905 282.415 144.183 282.643 144.531C282.875 144.879 283.045 145.27 283.152 145.705C283.26 146.14 283.314 146.587 283.314 147.047V147.463C283.314 147.931 283.283 148.407 283.221 148.892C283.163 149.372 283.049 149.832 282.879 150.271C282.713 150.71 282.471 151.103 282.152 151.451C281.833 151.795 281.417 152.068 280.904 152.271C280.394 152.47 279.765 152.569 279.015 152.569H278.897V151.594ZM286.318 151.594H286.436C287.099 151.594 287.637 151.501 288.051 151.314C288.466 151.128 288.784 150.877 289.008 150.563C289.232 150.248 289.385 149.894 289.468 149.5C289.551 149.103 289.592 148.695 289.592 148.277V146.891C289.592 146.481 289.544 146.117 289.449 145.798C289.358 145.479 289.23 145.212 289.064 144.997C288.902 144.781 288.718 144.618 288.511 144.506C288.304 144.394 288.085 144.338 287.853 144.338C287.588 144.338 287.35 144.392 287.138 144.5C286.931 144.603 286.755 144.75 286.61 144.941C286.469 145.131 286.362 145.355 286.287 145.612C286.213 145.868 286.175 146.148 286.175 146.45C286.175 146.719 286.209 146.98 286.275 147.233C286.341 147.486 286.443 147.713 286.579 147.916C286.716 148.119 286.886 148.281 287.089 148.401C287.296 148.517 287.538 148.575 287.815 148.575C288.072 148.575 288.312 148.525 288.536 148.426C288.764 148.322 288.965 148.183 289.139 148.009C289.317 147.831 289.457 147.631 289.561 147.407C289.669 147.183 289.731 146.949 289.747 146.705H290.294C290.294 147.049 290.226 147.388 290.089 147.724C289.956 148.055 289.77 148.357 289.53 148.631C289.29 148.904 289.008 149.124 288.685 149.289C288.362 149.451 288.01 149.531 287.629 149.531C287.182 149.531 286.795 149.444 286.467 149.271C286.14 149.097 285.871 148.865 285.66 148.575C285.453 148.285 285.297 147.962 285.194 147.606C285.095 147.245 285.045 146.881 285.045 146.512C285.045 146.082 285.105 145.678 285.225 145.301C285.345 144.924 285.523 144.593 285.759 144.307C285.995 144.017 286.287 143.792 286.635 143.63C286.987 143.469 287.393 143.388 287.853 143.388C288.37 143.388 288.811 143.491 289.176 143.698C289.54 143.905 289.836 144.183 290.064 144.531C290.296 144.879 290.466 145.27 290.574 145.705C290.681 146.14 290.735 146.587 290.735 147.047V147.463C290.735 147.931 290.704 148.407 290.642 148.892C290.584 149.372 290.47 149.832 290.3 150.271C290.135 150.71 289.892 151.103 289.573 151.451C289.255 151.795 288.838 152.068 288.325 152.271C287.815 152.47 287.186 152.569 286.436 152.569H286.318V151.594ZM292.739 151.948C292.739 151.753 292.799 151.59 292.92 151.457C293.044 151.32 293.222 151.252 293.454 151.252C293.686 151.252 293.862 151.32 293.982 151.457C294.106 151.59 294.168 151.753 294.168 151.948C294.168 152.138 294.106 152.3 293.982 152.432C293.862 152.565 293.686 152.631 293.454 152.631C293.222 152.631 293.044 152.565 292.92 152.432C292.799 152.3 292.739 152.138 292.739 151.948ZM297.359 151.594H297.477C298.14 151.594 298.678 151.501 299.092 151.314C299.506 151.128 299.825 150.877 300.049 150.563C300.272 150.248 300.426 149.894 300.508 149.5C300.591 149.103 300.633 148.695 300.633 148.277V146.891C300.633 146.481 300.585 146.117 300.49 145.798C300.399 145.479 300.27 145.212 300.105 144.997C299.943 144.781 299.759 144.618 299.552 144.506C299.345 144.394 299.125 144.338 298.893 144.338C298.628 144.338 298.39 144.392 298.179 144.5C297.972 144.603 297.796 144.75 297.651 144.941C297.51 145.131 297.403 145.355 297.328 145.612C297.253 145.868 297.216 146.148 297.216 146.45C297.216 146.719 297.249 146.98 297.316 147.233C297.382 147.486 297.483 147.713 297.62 147.916C297.757 148.119 297.926 148.281 298.129 148.401C298.336 148.517 298.579 148.575 298.856 148.575C299.113 148.575 299.353 148.525 299.577 148.426C299.804 148.322 300.005 148.183 300.179 148.009C300.357 147.831 300.498 147.631 300.602 147.407C300.709 147.183 300.771 146.949 300.788 146.705H301.335C301.335 147.049 301.266 147.388 301.13 147.724C300.997 148.055 300.811 148.357 300.571 148.631C300.33 148.904 300.049 149.124 299.726 149.289C299.403 149.451 299.051 149.531 298.67 149.531C298.222 149.531 297.835 149.444 297.508 149.271C297.181 149.097 296.912 148.865 296.701 148.575C296.493 148.285 296.338 147.962 296.235 147.606C296.135 147.245 296.086 146.881 296.086 146.512C296.086 146.082 296.146 145.678 296.266 145.301C296.386 144.924 296.564 144.593 296.8 144.307C297.036 144.017 297.328 143.792 297.676 143.63C298.028 143.469 298.434 143.388 298.893 143.388C299.411 143.388 299.852 143.491 300.217 143.698C300.581 143.905 300.877 144.183 301.105 144.531C301.337 144.879 301.507 145.27 301.614 145.705C301.722 146.14 301.776 146.587 301.776 147.047V147.463C301.776 147.931 301.745 148.407 301.683 148.892C301.625 149.372 301.511 149.832 301.341 150.271C301.175 150.71 300.933 151.103 300.614 151.451C300.295 151.795 299.879 152.068 299.365 152.271C298.856 152.47 298.227 152.569 297.477 152.569H297.359V151.594ZM304.78 151.594H304.898C305.561 151.594 306.099 151.501 306.513 151.314C306.927 151.128 307.246 150.877 307.47 150.563C307.694 150.248 307.847 149.894 307.93 149.5C308.013 149.103 308.054 148.695 308.054 148.277V146.891C308.054 146.481 308.006 146.117 307.911 145.798C307.82 145.479 307.692 145.212 307.526 144.997C307.364 144.781 307.18 144.618 306.973 144.506C306.766 144.394 306.546 144.338 306.315 144.338C306.05 144.338 305.811 144.392 305.6 144.5C305.393 144.603 305.217 144.75 305.072 144.941C304.931 145.131 304.824 145.355 304.749 145.612C304.675 145.868 304.637 146.148 304.637 146.45C304.637 146.719 304.67 146.98 304.737 147.233C304.803 147.486 304.904 147.713 305.041 147.916C305.178 148.119 305.348 148.281 305.551 148.401C305.758 148.517 306 148.575 306.277 148.575C306.534 148.575 306.774 148.525 306.998 148.426C307.226 148.322 307.427 148.183 307.6 148.009C307.779 147.831 307.919 147.631 308.023 147.407C308.131 147.183 308.193 146.949 308.209 146.705H308.756C308.756 147.049 308.688 147.388 308.551 147.724C308.418 148.055 308.232 148.357 307.992 148.631C307.752 148.904 307.47 149.124 307.147 149.289C306.824 149.451 306.472 149.531 306.091 149.531C305.644 149.531 305.256 149.444 304.929 149.271C304.602 149.097 304.333 148.865 304.122 148.575C303.915 148.285 303.759 147.962 303.656 147.606C303.556 147.245 303.507 146.881 303.507 146.512C303.507 146.082 303.567 145.678 303.687 145.301C303.807 144.924 303.985 144.593 304.221 144.307C304.457 144.017 304.749 143.792 305.097 143.63C305.449 143.469 305.855 143.388 306.315 143.388C306.832 143.388 307.273 143.491 307.638 143.698C308.002 143.905 308.298 144.183 308.526 144.531C308.758 144.879 308.928 145.27 309.035 145.705C309.143 146.14 309.197 146.587 309.197 147.047V147.463C309.197 147.931 309.166 148.407 309.104 148.892C309.046 149.372 308.932 149.832 308.762 150.271C308.596 150.71 308.354 151.103 308.035 151.451C307.716 151.795 307.3 152.068 306.787 152.271C306.277 152.47 305.648 152.569 304.898 152.569H304.78V151.594Z" fill="#9FBFE5" fill-opacity="0.996078"/>
<defs>
<linearGradient id="paint0_linear_10739_3008" x1="0" y1="0.0234375" x2="235.001" y2="291.679" gradientUnits="userSpaceOnUse">
<stop stop-color="#9FBFE5"/>
<stop offset="1" stop-color="#4E72B6"/>
</linearGradient>
<linearGradient id="paint1_linear_10739_3008" x1="12.7217" y1="65.7246" x2="357.278" y2="65.7246" gradientUnits="userSpaceOnUse">
<stop stop-color="white" stop-opacity="0"/>
<stop offset="0.505" stop-color="#CDD8FF"/>
<stop offset="1" stop-color="white" stop-opacity="0"/>
</linearGradient>
<linearGradient id="paint2_linear_10739_3008" x1="142.623" y1="12.7461" x2="142.623" y2="170.182" gradientUnits="userSpaceOnUse">
<stop stop-color="white" stop-opacity="0"/>
<stop offset="0.505" stop-color="#CDD8FF"/>
<stop offset="1" stop-color="white" stop-opacity="0"/>
</linearGradient>
<linearGradient id="paint3_linear_10739_3008" x1="249.17" y1="12.7461" x2="249.17" y2="170.182" gradientUnits="userSpaceOnUse">
<stop stop-color="white" stop-opacity="0"/>
<stop offset="0.505" stop-color="#CDD8FF"/>
<stop offset="1" stop-color="white" stop-opacity="0"/>
</linearGradient>
<linearGradient id="paint4_linear_10739_3008" x1="12.7217" y1="120.854" x2="357.278" y2="120.853" gradientUnits="userSpaceOnUse">
<stop stop-color="white" stop-opacity="0"/>
<stop offset="0.505" stop-color="#CDD8FF"/>
<stop offset="1" stop-color="white" stop-opacity="0"/>
</linearGradient>
</defs>
</svg>
