<svg width="370" height="134" viewBox="0 0 370 134" fill="none" xmlns="http://www.w3.org/2000/svg">
<rect x="0.174355" y="0.732949" width="369.651" height="133.095" rx="8.30702" fill="#17181F"/>
<rect x="0.174355" y="0.732949" width="369.651" height="133.095" rx="8.30702" stroke="url(#paint0_linear_11984_8053)" stroke-width="0.34871"/>
<path d="M47.604 40.057C47.604 39.9358 47.5853 39.8271 47.548 39.7308C47.5139 39.6314 47.4487 39.5414 47.3524 39.4606C47.2561 39.3768 47.121 39.2945 46.947 39.2137C46.7731 39.1329 46.5479 39.0491 46.2715 38.9621C45.964 38.8627 45.672 38.7509 45.3956 38.6267C45.1223 38.5024 44.88 38.358 44.6688 38.1934C44.4607 38.0257 44.2961 37.8315 44.175 37.611C44.0569 37.3905 43.9979 37.1342 43.9979 36.8423C43.9979 36.5596 44.06 36.3034 44.1843 36.0736C44.3085 35.8406 44.4824 35.6418 44.7061 35.4772C44.9297 35.3095 45.1937 35.1806 45.4981 35.0905C45.8056 35.0004 46.1426 34.9554 46.5091 34.9554C47.0092 34.9554 47.4455 35.0455 47.8183 35.2256C48.191 35.4058 48.4798 35.6527 48.6848 35.9664C48.8929 36.2801 48.997 36.6388 48.997 37.0426H47.6086C47.6086 36.8438 47.5667 36.6699 47.4828 36.5208C47.4021 36.3686 47.2778 36.249 47.1101 36.1621C46.9455 36.0751 46.7374 36.0316 46.4858 36.0316C46.2435 36.0316 46.0416 36.0689 45.8801 36.1434C45.7186 36.2149 45.5975 36.3127 45.5167 36.437C45.436 36.5581 45.3956 36.6948 45.3956 36.8469C45.3956 36.9619 45.4236 37.0659 45.4795 37.1591C45.5385 37.2523 45.6254 37.3392 45.7404 37.42C45.8553 37.5008 45.9966 37.5768 46.1643 37.6483C46.3321 37.7197 46.5262 37.7896 46.7467 37.8579C47.1163 37.9698 47.4409 38.0955 47.7204 38.2353C48.0031 38.3751 48.2391 38.5319 48.4286 38.7059C48.6181 38.8798 48.7609 39.077 48.8572 39.2976C48.9535 39.5181 49.0016 39.7681 49.0016 40.0477C49.0016 40.3427 48.9442 40.6067 48.8293 40.8397C48.7143 41.0726 48.5482 41.2699 48.3307 41.4314C48.1133 41.5929 47.854 41.7156 47.5527 41.7994C47.2514 41.8833 46.9144 41.9252 46.5417 41.9252C46.2063 41.9252 45.8755 41.8817 45.5494 41.7948C45.2232 41.7047 44.9266 41.5696 44.6595 41.3894C44.3955 41.2093 44.1843 40.9794 44.0259 40.6999C43.8675 40.4204 43.7883 40.0896 43.7883 39.7075H45.1906C45.1906 39.9188 45.2232 40.0973 45.2884 40.2433C45.3537 40.3893 45.4453 40.5073 45.5633 40.5974C45.6845 40.6875 45.8273 40.7527 45.992 40.7931C46.1597 40.8335 46.3429 40.8536 46.5417 40.8536C46.784 40.8536 46.9828 40.8195 47.1381 40.7512C47.2965 40.6828 47.4129 40.5881 47.4875 40.467C47.5651 40.3458 47.604 40.2092 47.604 40.057ZM53.115 40.6254V36.791H54.4568V41.832H53.1942L53.115 40.6254ZM53.2641 39.5911L53.6601 39.5818C53.6601 39.9172 53.6213 40.2293 53.5436 40.5182C53.466 40.804 53.3495 41.0524 53.1942 41.2636C53.0389 41.4717 52.8432 41.6348 52.6072 41.7528C52.3711 41.8677 52.0931 41.9252 51.7732 41.9252C51.5278 41.9252 51.3011 41.891 51.093 41.8227C50.888 41.7513 50.711 41.641 50.5619 41.4919C50.4159 41.3397 50.301 41.1456 50.2171 40.9096C50.1364 40.6704 50.096 40.3831 50.096 40.0477V36.791H51.4378V40.057C51.4378 40.2061 51.4548 40.3318 51.489 40.4343C51.5263 40.5368 51.5775 40.6207 51.6428 40.6859C51.708 40.7512 51.7841 40.7977 51.871 40.8257C51.9611 40.8536 52.0605 40.8676 52.1692 40.8676C52.4456 40.8676 52.6631 40.8117 52.8215 40.6999C52.983 40.5881 53.0963 40.4359 53.1616 40.2433C53.2299 40.0477 53.2641 39.8302 53.2641 39.5911ZM55.7468 34.6759H57.0886V40.6766L56.9534 41.832H55.7468V34.6759ZM60.2799 39.2603V39.3581C60.2799 39.7339 60.2396 40.0787 60.1588 40.3924C60.0812 40.7061 59.96 40.9779 59.7954 41.2077C59.6308 41.4345 59.4258 41.6115 59.1804 41.7389C58.9382 41.8631 58.6524 41.9252 58.3232 41.9252C58.0157 41.9252 57.7486 41.8631 57.5218 41.7389C57.2982 41.6146 57.1103 41.4391 56.9581 41.2124C56.8059 40.9857 56.6832 40.7201 56.59 40.4157C56.4969 40.1113 56.427 39.779 56.3804 39.4187V39.2044C56.427 38.8441 56.4969 38.5117 56.59 38.2074C56.6832 37.903 56.8059 37.6374 56.9581 37.4107C57.1103 37.1839 57.2982 37.0085 57.5218 36.8842C57.7455 36.76 58.0095 36.6979 58.3139 36.6979C58.6462 36.6979 58.9351 36.7615 59.1804 36.8889C59.4289 37.0131 59.6339 37.1902 59.7954 37.42C59.96 37.6467 60.0812 37.917 60.1588 38.2307C60.2396 38.5413 60.2799 38.8845 60.2799 39.2603ZM58.9382 39.3581V39.2603C58.9382 39.0553 58.9226 38.8627 58.8916 38.6826C58.8636 38.4993 58.8139 38.3394 58.7425 38.2027C58.6711 38.0629 58.5732 37.9527 58.449 37.8719C58.3278 37.7912 58.171 37.7508 57.9784 37.7508C57.7952 37.7508 57.6399 37.7818 57.5125 37.844C57.3852 37.9061 57.2796 37.993 57.1957 38.1049C57.115 38.2167 57.0544 38.3502 57.014 38.5055C56.9736 38.6577 56.9488 38.8254 56.9395 39.0087V39.619C56.9488 39.8644 56.9892 40.0818 57.0606 40.2713C57.1351 40.4576 57.247 40.6052 57.396 40.7139C57.5482 40.8195 57.7455 40.8723 57.9877 40.8723C58.1772 40.8723 58.3341 40.835 58.4583 40.7605C58.5825 40.6859 58.6788 40.5803 58.7471 40.4437C58.8186 40.307 58.8683 40.147 58.8962 39.9638C58.9242 39.7774 58.9382 39.5755 58.9382 39.3581ZM64.1044 40.439C64.1044 40.3427 64.0765 40.2558 64.0206 40.1781C63.9647 40.1005 63.8606 40.029 63.7084 39.9638C63.5593 39.8955 63.3435 39.8333 63.0608 39.7774C62.8061 39.7215 62.5685 39.6516 62.348 39.5678C62.1306 39.4808 61.9411 39.3768 61.7796 39.2556C61.6212 39.1345 61.497 38.9916 61.4069 38.827C61.3168 38.6593 61.2718 38.4683 61.2718 38.254C61.2718 38.0427 61.3168 37.844 61.4069 37.6576C61.5001 37.4712 61.6321 37.3066 61.8029 37.1638C61.9768 37.0178 62.188 36.9044 62.4365 36.8237C62.6881 36.7398 62.9708 36.6979 63.2845 36.6979C63.7224 36.6979 64.0982 36.7677 64.4119 36.9075C64.7287 37.0473 64.971 37.2399 65.1387 37.4852C65.3095 37.7275 65.395 38.0039 65.395 38.3145H64.0532C64.0532 38.1841 64.0252 38.0676 63.9693 37.9651C63.9165 37.8595 63.8327 37.7772 63.7177 37.7182C63.6059 37.6561 63.4599 37.625 63.2798 37.625C63.1307 37.625 63.0018 37.6514 62.8931 37.7042C62.7844 37.7539 62.7005 37.8222 62.6415 37.9092C62.5856 37.993 62.5577 38.0862 62.5577 38.1887C62.5577 38.2664 62.5732 38.3363 62.6042 38.3984C62.6384 38.4574 62.6928 38.5117 62.7673 38.5614C62.8419 38.6111 62.9381 38.6577 63.0562 38.7012C63.1773 38.7416 63.3264 38.7789 63.5034 38.813C63.8668 38.8876 64.1914 38.9854 64.4771 39.1065C64.7629 39.2246 64.9896 39.3861 65.1574 39.5911C65.3251 39.793 65.4089 40.0585 65.4089 40.3878C65.4089 40.6114 65.3592 40.8164 65.2599 41.0027C65.1605 41.1891 65.0176 41.3522 64.8312 41.4919C64.6449 41.6286 64.4212 41.7357 64.1603 41.8134C63.9025 41.8879 63.6121 41.9252 63.2891 41.9252C62.8201 41.9252 62.4225 41.8413 62.0964 41.6736C61.7734 41.5059 61.528 41.2931 61.3603 41.0353C61.1957 40.7744 61.1134 40.5073 61.1134 40.234H62.3853C62.3915 40.4173 62.4381 40.5648 62.525 40.6766C62.6151 40.7884 62.7285 40.8692 62.8651 40.9189C63.0049 40.9686 63.1556 40.9934 63.3171 40.9934C63.491 40.9934 63.6354 40.9701 63.7504 40.9235C63.8653 40.8738 63.9522 40.8086 64.0113 40.7279C64.0734 40.644 64.1044 40.5477 64.1044 40.439ZM68.6278 40.8769C68.7924 40.8769 68.9384 40.8459 69.0657 40.7838C69.1931 40.7185 69.2924 40.6285 69.3639 40.5135C69.4384 40.3955 69.4772 40.2573 69.4804 40.0989H70.7429C70.7398 40.453 70.6451 40.7682 70.4587 41.0447C70.2724 41.318 70.0223 41.5339 69.7086 41.6923C69.3949 41.8476 69.044 41.9252 68.6557 41.9252C68.2644 41.9252 67.9227 41.86 67.6307 41.7295C67.3419 41.5991 67.1012 41.4189 66.9086 41.1891C66.716 40.9561 66.5716 40.6859 66.4753 40.3784C66.379 40.0678 66.3309 39.7355 66.3309 39.3814V39.2463C66.3309 38.8891 66.379 38.5568 66.4753 38.2493C66.5716 37.9387 66.716 37.6685 66.9086 37.4386C67.1012 37.2057 67.3419 37.024 67.6307 36.8935C67.9196 36.7631 68.2582 36.6979 68.6464 36.6979C69.0595 36.6979 69.4213 36.7771 69.7319 36.9355C70.0456 37.0939 70.291 37.3206 70.4681 37.6157C70.6482 37.9076 70.7398 38.254 70.7429 38.6546H69.4804C69.4772 38.4869 69.4415 38.3347 69.3732 38.198C69.308 38.0614 69.2117 37.9527 69.0843 37.8719C68.9601 37.7881 68.8064 37.7461 68.6231 37.7461C68.4274 37.7461 68.2675 37.7881 68.1432 37.8719C68.019 37.9527 67.9227 38.0645 67.8544 38.2074C67.786 38.3471 67.7379 38.5071 67.7099 38.6872C67.6851 38.8643 67.6727 39.0506 67.6727 39.2463V39.3814C67.6727 39.5771 67.6851 39.765 67.7099 39.9452C67.7348 40.1253 67.7814 40.2853 67.8497 40.425C67.9212 40.5648 68.019 40.6751 68.1432 40.7558C68.2675 40.8366 68.429 40.8769 68.6278 40.8769ZM73.1278 37.8906V41.832H71.786V36.791H73.0486L73.1278 37.8906ZM74.6466 36.7584L74.6233 38.0024C74.5581 37.993 74.4789 37.9853 74.3857 37.9791C74.2956 37.9698 74.2133 37.9651 74.1388 37.9651C73.9493 37.9651 73.7847 37.9899 73.6449 38.0396C73.5083 38.0862 73.3934 38.1561 73.3002 38.2493C73.2101 38.3425 73.1418 38.4558 73.0952 38.5894C73.0517 38.723 73.0269 38.8751 73.0206 39.046L72.7504 38.9621C72.7504 38.636 72.783 38.3363 72.8483 38.0629C72.9135 37.7865 73.0082 37.5458 73.1325 37.3408C73.2598 37.1358 73.4151 36.9774 73.5984 36.8656C73.7816 36.7538 73.9913 36.6979 74.2273 36.6979C74.3019 36.6979 74.378 36.7041 74.4556 36.7165C74.5333 36.7258 74.5969 36.7398 74.6466 36.7584ZM76.9616 36.791V41.832H75.6152V36.791H76.9616ZM75.5313 35.4772C75.5313 35.2815 75.5996 35.12 75.7363 34.9927C75.873 34.8653 76.0562 34.8017 76.2861 34.8017C76.5128 34.8017 76.6945 34.8653 76.8312 34.9927C76.9709 35.12 77.0408 35.2815 77.0408 35.4772C77.0408 35.6729 76.9709 35.8344 76.8312 35.9617C76.6945 36.0891 76.5128 36.1528 76.2861 36.1528C76.0562 36.1528 75.873 36.0891 75.7363 35.9617C75.5996 35.8344 75.5313 35.6729 75.5313 35.4772ZM79.6773 37.7601V43.7702H78.3355V36.791H79.5794L79.6773 37.7601ZM82.8686 39.2556V39.3535C82.8686 39.72 82.8252 40.0601 82.7382 40.3738C82.6543 40.6875 82.5301 40.9608 82.3655 41.1938C82.2009 41.4236 81.9959 41.6037 81.7505 41.7342C81.5082 41.8615 81.2287 41.9252 80.9119 41.9252C80.6044 41.9252 80.3373 41.8631 80.1105 41.7389C79.8838 41.6146 79.6928 41.4407 79.5375 41.217C79.3853 40.9903 79.2626 40.7279 79.1694 40.4297C79.0763 40.1315 79.0048 39.8116 78.9551 39.4699V39.2137C79.0048 38.8472 79.0763 38.5117 79.1694 38.2074C79.2626 37.8999 79.3853 37.6343 79.5375 37.4107C79.6928 37.1839 79.8823 37.0085 80.1059 36.8842C80.3326 36.76 80.5982 36.6979 80.9026 36.6979C81.2225 36.6979 81.5036 36.7584 81.7458 36.8796C81.9912 37.0007 82.1962 37.1746 82.3608 37.4014C82.5285 37.6281 82.6543 37.8983 82.7382 38.212C82.8252 38.5257 82.8686 38.8736 82.8686 39.2556ZM81.5222 39.3535V39.2556C81.5222 39.0413 81.5036 38.8441 81.4663 38.6639C81.4321 38.4807 81.3762 38.3207 81.2986 38.1841C81.224 38.0474 81.1246 37.9418 81.0004 37.8673C80.8793 37.7896 80.7317 37.7508 80.5578 37.7508C80.3746 37.7508 80.2177 37.7803 80.0873 37.8393C79.9599 37.8983 79.8559 37.9837 79.7751 38.0955C79.6943 38.2074 79.6338 38.3409 79.5934 38.4962C79.553 38.6515 79.5282 38.827 79.5189 39.0227V39.6703C79.5344 39.9001 79.5779 40.1067 79.6493 40.2899C79.7207 40.4701 79.831 40.6129 79.9801 40.7185C80.1292 40.8241 80.3249 40.8769 80.5671 40.8769C80.7442 40.8769 80.8933 40.8381 81.0144 40.7605C81.1355 40.6797 81.2334 40.5695 81.3079 40.4297C81.3855 40.2899 81.4399 40.1284 81.471 39.9452C81.5051 39.7619 81.5222 39.5647 81.5222 39.3535ZM86.4369 36.791V37.7415H83.5018V36.791H86.4369ZM84.2285 35.5471H85.5703V40.3132C85.5703 40.4592 85.589 40.571 85.6262 40.6487C85.6666 40.7263 85.7256 40.7807 85.8033 40.8117C85.8809 40.8397 85.9788 40.8536 86.0968 40.8536C86.1807 40.8536 86.2552 40.8505 86.3204 40.8443C86.3888 40.835 86.4462 40.8257 86.4928 40.8164L86.4975 41.8041C86.3825 41.8413 86.2583 41.8709 86.1247 41.8926C85.9912 41.9143 85.8437 41.9252 85.6821 41.9252C85.3871 41.9252 85.1293 41.8771 84.9088 41.7808C84.6913 41.6814 84.5236 41.523 84.4056 41.3056C84.2876 41.0882 84.2285 40.8024 84.2285 40.4483V35.5471ZM88.8823 36.791V41.832H87.5359V36.791H88.8823ZM87.452 35.4772C87.452 35.2815 87.5204 35.12 87.657 34.9927C87.7937 34.8653 87.9769 34.8017 88.2068 34.8017C88.4335 34.8017 88.6152 34.8653 88.7519 34.9927C88.8916 35.12 88.9615 35.2815 88.9615 35.4772C88.9615 35.6729 88.8916 35.8344 88.7519 35.9617C88.6152 36.0891 88.4335 36.1528 88.2068 36.1528C87.9769 36.1528 87.7937 36.0891 87.657 35.9617C87.5204 35.8344 87.452 35.6729 87.452 35.4772ZM90.0419 39.3628V39.2649C90.0419 38.8953 90.0947 38.5552 90.2003 38.2446C90.3059 37.9309 90.4596 37.6592 90.6615 37.4293C90.8634 37.1995 91.1119 37.0209 91.407 36.8935C91.702 36.7631 92.0406 36.6979 92.4226 36.6979C92.8047 36.6979 93.1448 36.7631 93.4429 36.8935C93.7411 37.0209 93.9911 37.1995 94.193 37.4293C94.398 37.6592 94.5533 37.9309 94.6589 38.2446C94.7645 38.5552 94.8173 38.8953 94.8173 39.2649V39.3628C94.8173 39.7293 94.7645 40.0694 94.6589 40.3831C94.5533 40.6937 94.398 40.9655 94.193 41.1984C93.9911 41.4283 93.7427 41.6068 93.4476 41.7342C93.1525 41.8615 92.814 41.9252 92.4319 41.9252C92.0499 41.9252 91.7098 41.8615 91.4116 41.7342C91.1166 41.6068 90.8665 41.4283 90.6615 41.1984C90.4596 40.9655 90.3059 40.6937 90.2003 40.3831C90.0947 40.0694 90.0419 39.7293 90.0419 39.3628ZM91.3837 39.2649V39.3628C91.3837 39.574 91.4023 39.7712 91.4396 39.9545C91.4769 40.1377 91.5359 40.2992 91.6166 40.439C91.7005 40.5757 91.8092 40.6828 91.9427 40.7605C92.0763 40.8381 92.2394 40.8769 92.4319 40.8769C92.6183 40.8769 92.7783 40.8381 92.9118 40.7605C93.0454 40.6828 93.1525 40.5757 93.2333 40.439C93.314 40.2992 93.373 40.1377 93.4103 39.9545C93.4507 39.7712 93.4709 39.574 93.4709 39.3628V39.2649C93.4709 39.06 93.4507 38.8674 93.4103 38.6872C93.373 38.504 93.3125 38.3425 93.2286 38.2027C93.1479 38.0598 93.0407 37.948 92.9072 37.8673C92.7736 37.7865 92.6121 37.7461 92.4226 37.7461C92.2332 37.7461 92.0716 37.7865 91.9381 37.8673C91.8076 37.948 91.7005 38.0598 91.6166 38.2027C91.5359 38.3425 91.4769 38.504 91.4396 38.6872C91.4023 38.8674 91.3837 39.06 91.3837 39.2649ZM97.2208 37.8673V41.832H95.8791V36.791H97.137L97.2208 37.8673ZM97.0252 39.1345H96.6618C96.6618 38.7618 96.7099 38.4263 96.8062 38.1282C96.9025 37.8269 97.0376 37.5706 97.2115 37.3594C97.3854 37.1451 97.592 36.9821 97.8312 36.8702C98.0734 36.7553 98.3436 36.6979 98.6418 36.6979C98.8779 36.6979 99.0937 36.732 99.2894 36.8004C99.4851 36.8687 99.6528 36.9774 99.7926 37.1265C99.9355 37.2756 100.044 37.4728 100.119 37.7182C100.196 37.9635 100.235 38.2633 100.235 38.6173V41.832H98.8841V38.6127C98.8841 38.3891 98.853 38.2151 98.7909 38.0909C98.7288 37.9666 98.6372 37.8797 98.516 37.83C98.398 37.7772 98.252 37.7508 98.0781 37.7508C97.8979 37.7508 97.7411 37.7865 97.6075 37.8579C97.4771 37.9294 97.3684 38.0288 97.2814 38.1561C97.1975 38.2804 97.1339 38.4263 97.0904 38.5941C97.0469 38.7618 97.0252 38.9419 97.0252 39.1345Z" fill="#F6F1F2"/>
<path d="M181.663 35.0486H182.534L184.756 40.5788L186.974 35.0486H187.85L185.092 41.832H184.411L181.663 35.0486ZM181.378 35.0486H182.147L182.273 39.1857V41.832H181.378V35.0486ZM187.361 35.0486H188.129V41.832H187.235V39.1857L187.361 35.0486ZM189.615 39.3674V39.2603C189.615 38.8969 189.668 38.5599 189.773 38.2493C189.879 37.9356 190.031 37.6638 190.23 37.434C190.429 37.201 190.669 37.0209 190.952 36.8935C191.235 36.7631 191.552 36.6979 191.902 36.6979C192.257 36.6979 192.575 36.7631 192.858 36.8935C193.143 37.0209 193.386 37.201 193.584 37.434C193.786 37.6638 193.94 37.9356 194.046 38.2493C194.151 38.5599 194.204 38.8969 194.204 39.2603V39.3674C194.204 39.7308 194.151 40.0678 194.046 40.3784C193.94 40.689 193.786 40.9608 193.584 41.1938C193.386 41.4236 193.145 41.6037 192.862 41.7342C192.583 41.8615 192.266 41.9252 191.912 41.9252C191.558 41.9252 191.239 41.8615 190.957 41.7342C190.674 41.6037 190.432 41.4236 190.23 41.1938C190.031 40.9608 189.879 40.689 189.773 40.3784C189.668 40.0678 189.615 39.7308 189.615 39.3674ZM190.477 39.2603V39.3674C190.477 39.619 190.506 39.8566 190.565 40.0803C190.624 40.3008 190.713 40.4965 190.831 40.6673C190.952 40.8381 191.103 40.9732 191.283 41.0726C191.463 41.1689 191.673 41.217 191.912 41.217C192.148 41.217 192.354 41.1689 192.531 41.0726C192.712 40.9732 192.861 40.8381 192.979 40.6673C193.097 40.4965 193.185 40.3008 193.244 40.0803C193.306 39.8566 193.337 39.619 193.337 39.3674V39.2603C193.337 39.0118 193.306 38.7773 193.244 38.5568C193.185 38.3332 193.095 38.1359 192.974 37.9651C192.856 37.7912 192.707 37.6545 192.527 37.5551C192.35 37.4557 192.142 37.406 191.902 37.406C191.666 37.406 191.458 37.4557 191.278 37.5551C191.101 37.6545 190.952 37.7912 190.831 37.9651C190.713 38.1359 190.624 38.3332 190.565 38.5568C190.506 38.7773 190.477 39.0118 190.477 39.2603ZM196.412 37.8673V41.832H195.55V36.791H196.365L196.412 37.8673ZM196.207 39.1205L195.848 39.1065C195.851 38.7618 195.902 38.4434 196.002 38.1515C196.101 37.8564 196.241 37.6001 196.421 37.3827C196.601 37.1653 196.816 36.9976 197.064 36.8796C197.316 36.7584 197.594 36.6979 197.898 36.6979C198.147 36.6979 198.37 36.732 198.569 36.8004C198.768 36.8656 198.937 36.9712 199.077 37.1172C199.22 37.2631 199.328 37.4526 199.403 37.6856C199.477 37.9154 199.515 38.1965 199.515 38.5288V41.832H198.648V38.5195C198.648 38.2555 198.609 38.0443 198.532 37.8859C198.454 37.7244 198.341 37.6079 198.192 37.5365C198.042 37.4619 197.859 37.4247 197.642 37.4247C197.427 37.4247 197.232 37.4697 197.055 37.5598C196.881 37.6498 196.73 37.7741 196.603 37.9325C196.479 38.0909 196.381 38.2726 196.309 38.4776C196.241 38.6795 196.207 38.8938 196.207 39.1205ZM203.199 36.791V37.4526H200.474V36.791H203.199ZM201.396 35.5657H202.258V40.5834C202.258 40.7543 202.285 40.8832 202.338 40.9701C202.39 41.0571 202.459 41.1146 202.543 41.1425C202.626 41.1705 202.716 41.1844 202.813 41.1844C202.884 41.1844 202.959 41.1782 203.036 41.1658C203.117 41.1503 203.178 41.1378 203.218 41.1285L203.223 41.832C203.154 41.8538 203.064 41.874 202.952 41.8926C202.844 41.9143 202.712 41.9252 202.556 41.9252C202.345 41.9252 202.151 41.8833 201.974 41.7994C201.797 41.7156 201.656 41.5758 201.55 41.3801C201.448 41.1813 201.396 40.9142 201.396 40.5788V35.5657ZM205.337 34.6759V41.832H204.475V34.6759H205.337ZM205.132 39.1205L204.774 39.1065C204.777 38.7618 204.828 38.4434 204.927 38.1515C205.027 37.8564 205.167 37.6001 205.347 37.3827C205.527 37.1653 205.741 36.9976 205.99 36.8796C206.241 36.7584 206.519 36.6979 206.824 36.6979C207.072 36.6979 207.296 36.732 207.494 36.8004C207.693 36.8656 207.863 36.9712 208.002 37.1172C208.145 37.2631 208.254 37.4526 208.328 37.6856C208.403 37.9154 208.44 38.1965 208.44 38.5288V41.832H207.574V38.5195C207.574 38.2555 207.535 38.0443 207.457 37.8859C207.38 37.7244 207.266 37.6079 207.117 37.5365C206.968 37.4619 206.785 37.4247 206.567 37.4247C206.353 37.4247 206.157 37.4697 205.98 37.5598C205.806 37.6498 205.656 37.7741 205.528 37.9325C205.404 38.0909 205.306 38.2726 205.235 38.4776C205.167 38.6795 205.132 38.8938 205.132 39.1205ZM210.932 34.6759V41.832H210.066V34.6759H210.932ZM213.997 41.3102L215.4 36.791H216.322L214.3 42.6101C214.254 42.7343 214.191 42.8679 214.114 43.0107C214.039 43.1567 213.943 43.2949 213.825 43.4254C213.707 43.5558 213.564 43.6614 213.396 43.7422C213.232 43.8261 213.034 43.868 212.805 43.868C212.736 43.868 212.649 43.8587 212.544 43.84C212.438 43.8214 212.364 43.8059 212.32 43.7935L212.315 43.0946C212.34 43.0977 212.379 43.1008 212.432 43.1039C212.488 43.1101 212.527 43.1132 212.548 43.1132C212.744 43.1132 212.91 43.0868 213.047 43.034C213.184 42.9843 213.298 42.8989 213.392 42.7778C213.488 42.6598 213.57 42.4967 213.639 42.2886L213.997 41.3102ZM212.968 36.791L214.277 40.7046L214.501 41.6131L213.881 41.9299L212.027 36.791H212.968Z" fill="#F6F1F2"/>
<path d="M272.279 35.6496L270.033 41.832H269.115L271.701 35.0486H272.293L272.279 35.6496ZM274.161 41.832L271.911 35.6496L271.897 35.0486H272.488L275.084 41.832H274.161ZM274.045 39.3209V40.057H270.234V39.3209H274.045ZM276.989 37.8673V41.832H276.127V36.791H276.942L276.989 37.8673ZM276.784 39.1205L276.425 39.1065C276.428 38.7618 276.479 38.4434 276.579 38.1515C276.678 37.8564 276.818 37.6001 276.998 37.3827C277.178 37.1653 277.392 36.9976 277.641 36.8796C277.892 36.7584 278.17 36.6979 278.475 36.6979C278.723 36.6979 278.947 36.732 279.146 36.8004C279.344 36.8656 279.514 36.9712 279.653 37.1172C279.796 37.2631 279.905 37.4526 279.98 37.6856C280.054 37.9154 280.091 38.1965 280.091 38.5288V41.832H279.225V38.5195C279.225 38.2555 279.186 38.0443 279.108 37.8859C279.031 37.7244 278.917 37.6079 278.768 37.5365C278.619 37.4619 278.436 37.4247 278.218 37.4247C278.004 37.4247 277.808 37.4697 277.631 37.5598C277.458 37.6498 277.307 37.7741 277.18 37.9325C277.055 38.0909 276.957 38.2726 276.886 38.4776C276.818 38.6795 276.784 38.8938 276.784 39.1205ZM282.527 37.8673V41.832H281.666V36.791H282.481L282.527 37.8673ZM282.322 39.1205L281.964 39.1065C281.967 38.7618 282.018 38.4434 282.117 38.1515C282.217 37.8564 282.357 37.6001 282.537 37.3827C282.717 37.1653 282.931 36.9976 283.18 36.8796C283.431 36.7584 283.709 36.6979 284.014 36.6979C284.262 36.6979 284.486 36.732 284.685 36.8004C284.883 36.8656 285.053 36.9712 285.192 37.1172C285.335 37.2631 285.444 37.4526 285.519 37.6856C285.593 37.9154 285.63 38.1965 285.63 38.5288V41.832H284.764V38.5195C284.764 38.2555 284.725 38.0443 284.647 37.8859C284.57 37.7244 284.456 37.6079 284.307 37.5365C284.158 37.4619 283.975 37.4247 283.757 37.4247C283.543 37.4247 283.347 37.4697 283.17 37.5598C282.996 37.6498 282.846 37.7741 282.719 37.9325C282.594 38.0909 282.496 38.2726 282.425 38.4776C282.357 38.6795 282.322 38.8938 282.322 39.1205ZM290.289 40.6673V36.791H291.155V41.832H290.331L290.289 40.6673ZM290.452 39.605L290.811 39.5957C290.811 39.9312 290.775 40.2418 290.703 40.5275C290.635 40.8102 290.523 41.0555 290.368 41.2636C290.213 41.4717 290.009 41.6348 289.758 41.7528C289.506 41.8677 289.2 41.9252 288.84 41.9252C288.594 41.9252 288.369 41.8895 288.164 41.8181C287.962 41.7466 287.788 41.6364 287.643 41.4873C287.497 41.3382 287.383 41.1441 287.302 40.9049C287.225 40.6657 287.186 40.3784 287.186 40.043V36.791H288.048V40.0523C288.048 40.279 288.073 40.467 288.122 40.616C288.175 40.762 288.245 40.8785 288.332 40.9655C288.422 41.0493 288.521 41.1083 288.63 41.1425C288.742 41.1767 288.857 41.1938 288.975 41.1938C289.341 41.1938 289.632 41.1239 289.846 40.9841C290.061 40.8412 290.214 40.6502 290.307 40.411C290.404 40.1688 290.452 39.9001 290.452 39.605ZM295.707 40.9701V38.3751C295.707 38.1763 295.666 38.0039 295.586 37.8579C295.508 37.7089 295.39 37.5939 295.231 37.5132C295.073 37.4324 294.877 37.392 294.644 37.392C294.427 37.392 294.236 37.4293 294.071 37.5039C293.91 37.5784 293.782 37.6762 293.689 37.7974C293.599 37.9185 293.554 38.049 293.554 38.1887H292.692C292.692 38.0086 292.739 37.83 292.832 37.6529C292.925 37.4759 293.059 37.3159 293.233 37.1731C293.41 37.0271 293.621 36.9122 293.866 36.8283C294.115 36.7413 294.391 36.6979 294.696 36.6979C295.062 36.6979 295.385 36.76 295.665 36.8842C295.947 37.0085 296.168 37.1964 296.326 37.448C296.488 37.6964 296.569 38.0086 296.569 38.3844V40.7325C296.569 40.9002 296.583 41.0788 296.61 41.2683C296.642 41.4578 296.687 41.6208 296.746 41.7575V41.832H295.846C295.803 41.7326 295.769 41.6006 295.744 41.436C295.719 41.2683 295.707 41.113 295.707 40.9701ZM295.856 38.7758L295.865 39.3814H294.994C294.748 39.3814 294.529 39.4016 294.337 39.442C294.144 39.4793 293.983 39.5367 293.852 39.6144C293.722 39.692 293.623 39.7899 293.554 39.9079C293.486 40.0228 293.452 40.1579 293.452 40.3132C293.452 40.4716 293.487 40.616 293.559 40.7465C293.63 40.8769 293.737 40.981 293.88 41.0586C294.026 41.1332 294.205 41.1705 294.416 41.1705C294.68 41.1705 294.913 41.1146 295.115 41.0027C295.317 40.8909 295.477 40.7543 295.595 40.5927C295.716 40.4312 295.781 40.2744 295.791 40.1222L296.159 40.5368C296.137 40.6673 296.078 40.8117 295.982 40.9701C295.885 41.1285 295.756 41.2807 295.595 41.4267C295.436 41.5696 295.247 41.6892 295.026 41.7854C294.809 41.8786 294.564 41.9252 294.29 41.9252C293.949 41.9252 293.649 41.8584 293.391 41.7249C293.136 41.5913 292.938 41.4127 292.795 41.1891C292.655 40.9624 292.585 40.7092 292.585 40.4297C292.585 40.1595 292.638 39.9219 292.744 39.7169C292.849 39.5088 293.001 39.3364 293.2 39.1997C293.399 39.06 293.638 38.9543 293.918 38.8829C294.197 38.8115 294.509 38.7758 294.854 38.7758H295.856ZM299.126 34.6759V41.832H298.259V34.6759H299.126ZM301.711 34.6759V41.832H300.844V34.6759H301.711ZM304.776 41.3102L306.178 36.791H307.101L305.079 42.6101C305.032 42.7343 304.97 42.8679 304.893 43.0107C304.818 43.1567 304.722 43.2949 304.604 43.4254C304.486 43.5558 304.343 43.6614 304.175 43.7422C304.01 43.8261 303.813 43.868 303.583 43.868C303.515 43.868 303.428 43.8587 303.322 43.84C303.217 43.8214 303.142 43.8059 303.099 43.7935L303.094 43.0946C303.119 43.0977 303.158 43.1008 303.211 43.1039C303.267 43.1101 303.305 43.1132 303.327 43.1132C303.523 43.1132 303.689 43.0868 303.826 43.034C303.962 42.9843 304.077 42.8989 304.17 42.7778C304.267 42.6598 304.349 42.4967 304.417 42.2886L304.776 41.3102ZM303.746 36.791L305.056 40.7046L305.279 41.6131L304.66 41.9299L302.805 36.791H303.746Z" fill="#9FBFE5" fill-opacity="0.996078"/>
<path d="M12.7217 65.7578L357.278 65.7578" stroke="url(#paint1_linear_11984_8053)" stroke-width="0.530086" stroke-linecap="round"/>
<path d="M142.896 13.2812L142.896 121.281" stroke="url(#paint2_linear_11984_8053)" stroke-width="0.530086" stroke-linecap="round"/>
<path d="M249.896 13.2812L249.896 121.281" stroke="url(#paint3_linear_11984_8053)" stroke-width="0.530086" stroke-linecap="round"/>
<path d="M47.8695 95.2464C47.8695 95.088 47.8447 94.9483 47.795 94.8271C47.7484 94.7029 47.6645 94.5911 47.5434 94.4917C47.4254 94.3923 47.2607 94.2976 47.0495 94.2075C46.8414 94.1174 46.5774 94.0258 46.2575 93.9326C45.9221 93.8332 45.6192 93.723 45.349 93.6018C45.0788 93.4776 44.8474 93.3363 44.6548 93.1779C44.4623 93.0195 44.3147 92.8378 44.2122 92.6328C44.1097 92.4278 44.0585 92.1933 44.0585 91.9293C44.0585 91.6653 44.1128 91.4214 44.2215 91.1978C44.3303 90.9742 44.4856 90.7801 44.6874 90.6154C44.8924 90.4477 45.1363 90.3173 45.4189 90.2241C45.7015 90.1309 46.0168 90.0843 46.3647 90.0843C46.874 90.0843 47.3058 90.1822 47.6599 90.3778C48.017 90.5704 48.2888 90.8235 48.4752 91.1372C48.6615 91.4478 48.7547 91.7802 48.7547 92.1343H47.8602C47.8602 91.8796 47.8058 91.6544 47.6971 91.4587C47.5884 91.2599 47.4238 91.1046 47.2033 90.9928C46.9828 90.8779 46.7032 90.8204 46.3647 90.8204C46.0448 90.8204 45.7807 90.8686 45.5726 90.9649C45.3645 91.0611 45.2092 91.1916 45.1068 91.3562C45.0074 91.5208 44.9577 91.7087 44.9577 91.9199C44.9577 92.0628 44.9872 92.1933 45.0462 92.3113C45.1083 92.4262 45.203 92.5334 45.3304 92.6328C45.4608 92.7322 45.6254 92.8238 45.8242 92.9076C46.0261 92.9915 46.2668 93.0723 46.5464 93.1499C46.9315 93.2586 47.2638 93.3798 47.5434 93.5133C47.8229 93.6469 48.0528 93.7975 48.2329 93.9652C48.4162 94.1298 48.5513 94.3178 48.6382 94.529C48.7283 94.7371 48.7734 94.9731 48.7734 95.2371C48.7734 95.5136 48.7174 95.7636 48.6056 95.9872C48.4938 96.2108 48.3339 96.4019 48.1258 96.5603C47.9177 96.7187 47.6676 96.8414 47.3757 96.9283C47.0868 97.0122 46.7638 97.0541 46.4066 97.0541C46.0929 97.0541 45.7839 97.0106 45.4795 96.9237C45.1782 96.8367 44.9033 96.7062 44.6548 96.5323C44.4095 96.3584 44.2122 96.1441 44.0631 95.8894C43.9172 95.6316 43.8442 95.3334 43.8442 94.9949H44.7387C44.7387 95.2278 44.7837 95.4281 44.8738 95.5959C44.9639 95.7605 45.0866 95.8971 45.2419 96.0059C45.4003 96.1146 45.5789 96.1953 45.7776 96.2481C45.9795 96.2978 46.1892 96.3227 46.4066 96.3227C46.7203 96.3227 46.9859 96.2792 47.2033 96.1922C47.4207 96.1052 47.5853 95.981 47.6971 95.8195C47.8121 95.658 47.8695 95.467 47.8695 95.2464ZM52.1646 91.9199V92.5815H49.4391V91.9199H52.1646ZM50.3615 90.6946H51.2234V95.7123C51.2234 95.8832 51.2498 96.0121 51.3026 96.099C51.3554 96.186 51.4238 96.2435 51.5076 96.2714C51.5915 96.2994 51.6816 96.3133 51.7779 96.3133C51.8493 96.3133 51.9238 96.3071 52.0015 96.2947C52.0822 96.2792 52.1428 96.2668 52.1832 96.2574L52.1879 96.9609C52.1195 96.9827 52.0294 97.0029 51.9176 97.0215C51.8089 97.0432 51.6769 97.0541 51.5216 97.0541C51.3104 97.0541 51.1163 97.0122 50.9392 96.9283C50.7622 96.8445 50.6209 96.7047 50.5153 96.509C50.4128 96.3102 50.3615 96.0431 50.3615 95.7077V90.6946ZM56.413 96.099V93.504C56.413 93.3052 56.3726 93.1328 56.2919 92.9868C56.2142 92.8378 56.0962 92.7228 55.9378 92.6421C55.7794 92.5613 55.5837 92.5209 55.3508 92.5209C55.1333 92.5209 54.9423 92.5582 54.7777 92.6328C54.6162 92.7073 54.4889 92.8051 54.3957 92.9263C54.3056 93.0474 54.2606 93.1779 54.2606 93.3176H53.3987C53.3987 93.1375 53.4453 92.9589 53.5384 92.7819C53.6316 92.6048 53.7652 92.4449 53.9391 92.302C54.1161 92.156 54.3273 92.0411 54.5727 91.9572C54.8212 91.8702 55.0976 91.8268 55.402 91.8268C55.7685 91.8268 56.0915 91.8889 56.3711 92.0131C56.6537 92.1374 56.8742 92.3253 57.0326 92.5769C57.1942 92.8253 57.2749 93.1375 57.2749 93.5133V95.8614C57.2749 96.0291 57.2889 96.2077 57.3168 96.3972C57.3479 96.5867 57.3929 96.7497 57.452 96.8864V96.9609H56.5528C56.5093 96.8615 56.4751 96.7295 56.4503 96.5649C56.4254 96.3972 56.413 96.2419 56.413 96.099ZM56.5621 93.9047L56.5714 94.5103H55.7002C55.4548 94.5103 55.2358 94.5305 55.0433 94.5709C54.8507 94.6082 54.6892 94.6656 54.5587 94.7433C54.4283 94.8209 54.3289 94.9188 54.2606 95.0368C54.1922 95.1517 54.1581 95.2868 54.1581 95.4421C54.1581 95.6005 54.1938 95.7449 54.2652 95.8754C54.3367 96.0059 54.4438 96.1099 54.5867 96.1876C54.7327 96.2621 54.9113 96.2994 55.1225 96.2994C55.3865 96.2994 55.6194 96.2435 55.8213 96.1316C56.0232 96.0198 56.1832 95.8832 56.3012 95.7217C56.4223 95.5601 56.4876 95.4033 56.4969 95.2511L56.8649 95.6657C56.8432 95.7962 56.7842 95.9406 56.6879 96.099C56.5916 96.2574 56.4627 96.4096 56.3012 96.5556C56.1428 96.6985 55.9533 96.8181 55.7328 96.9143C55.5154 97.0075 55.27 97.0541 54.9967 97.0541C54.655 97.0541 54.3553 96.9873 54.0975 96.8538C53.8428 96.7202 53.644 96.5416 53.5012 96.318C53.3614 96.0913 53.2915 95.8381 53.2915 95.5586C53.2915 95.2884 53.3443 95.0508 53.4499 94.8458C53.5555 94.6377 53.7077 94.4653 53.9065 94.3286C54.1053 94.1889 54.3444 94.0833 54.624 94.0118C54.9035 93.9404 55.2157 93.9047 55.5604 93.9047H56.5621ZM59.7576 92.9962V96.9609H58.8957V91.9199H59.711L59.7576 92.9962ZM59.5526 94.2494L59.1939 94.2354C59.197 93.8907 59.2482 93.5723 59.3476 93.2804C59.447 92.9853 59.5868 92.729 59.7669 92.5116C59.9471 92.2942 60.1614 92.1265 60.4099 92.0085C60.6615 91.8873 60.9394 91.8268 61.2438 91.8268C61.4923 91.8268 61.7159 91.8609 61.9147 91.9293C62.1135 91.9945 62.2828 92.1001 62.4225 92.2461C62.5654 92.3921 62.6741 92.5815 62.7487 92.8145C62.8232 93.0443 62.8605 93.3254 62.8605 93.6577V96.9609H61.9939V93.6484C61.9939 93.3844 61.9551 93.1732 61.8774 93.0148C61.7998 92.8533 61.6864 92.7368 61.5373 92.6654C61.3883 92.5908 61.205 92.5536 60.9876 92.5536C60.7733 92.5536 60.5776 92.5986 60.4006 92.6887C60.2266 92.7787 60.076 92.903 59.9486 93.0614C59.8244 93.2198 59.7266 93.4015 59.6551 93.6065C59.5868 93.8084 59.5526 94.0227 59.5526 94.2494ZM67.6121 95.9826V89.8048H68.4787V96.9609H67.6867L67.6121 95.9826ZM64.2204 94.4963V94.3985C64.2204 94.0134 64.267 93.6639 64.3602 93.3502C64.4564 93.0334 64.5916 92.7617 64.7655 92.5349C64.9425 92.3082 65.1522 92.1343 65.3944 92.0131C65.6398 91.8889 65.9131 91.8268 66.2144 91.8268C66.5312 91.8268 66.8077 91.8827 67.0437 91.9945C67.2829 92.1032 67.4848 92.2632 67.6494 92.4744C67.8171 92.6825 67.9491 92.934 68.0454 93.2291C68.1417 93.5242 68.2085 93.8581 68.2457 94.2308V94.6594C68.2116 95.029 68.1448 95.3614 68.0454 95.6564C67.9491 95.9515 67.8171 96.2031 67.6494 96.4112C67.4848 96.6193 67.2829 96.7792 67.0437 96.8911C66.8046 96.9998 66.525 97.0541 66.2051 97.0541C65.91 97.0541 65.6398 96.9904 65.3944 96.8631C65.1522 96.7358 64.9425 96.5572 64.7655 96.3273C64.5916 96.0975 64.4564 95.8273 64.3602 95.5167C64.267 95.203 64.2204 94.8629 64.2204 94.4963ZM65.087 94.3985V94.4963C65.087 94.7479 65.1118 94.984 65.1615 95.2045C65.2143 95.425 65.2951 95.6192 65.4038 95.7869C65.5125 95.9546 65.6507 96.0866 65.8184 96.1829C65.9861 96.2761 66.1865 96.3227 66.4194 96.3227C66.7052 96.3227 66.9397 96.2621 67.1229 96.141C67.3093 96.0198 67.4584 95.8599 67.5702 95.6611C67.682 95.4623 67.769 95.2464 67.8311 95.0135V93.8907C67.7938 93.7199 67.7395 93.5552 67.668 93.3968C67.5997 93.2353 67.5096 93.0924 67.3978 92.9682C67.2891 92.8409 67.154 92.7399 66.9925 92.6654C66.8341 92.5908 66.6462 92.5536 66.4287 92.5536C66.1927 92.5536 65.9892 92.6033 65.8184 92.7026C65.6507 92.7989 65.5125 92.9325 65.4038 93.1033C65.2951 93.271 65.2143 93.4667 65.1615 93.6903C65.1118 93.9109 65.087 94.1469 65.087 94.3985ZM73.0579 96.099V93.504C73.0579 93.3052 73.0175 93.1328 72.9368 92.9868C72.8591 92.8378 72.7411 92.7228 72.5827 92.6421C72.4243 92.5613 72.2286 92.5209 71.9957 92.5209C71.7783 92.5209 71.5872 92.5582 71.4226 92.6328C71.2611 92.7073 71.1338 92.8051 71.0406 92.9263C70.9505 93.0474 70.9055 93.1779 70.9055 93.3176H70.0436C70.0436 93.1375 70.0902 92.9589 70.1833 92.7819C70.2765 92.6048 70.4101 92.4449 70.584 92.302C70.761 92.156 70.9723 92.0411 71.2176 91.9572C71.4661 91.8702 71.7425 91.8268 72.0469 91.8268C72.4134 91.8268 72.7364 91.8889 73.016 92.0131C73.2986 92.1374 73.5192 92.3253 73.6776 92.5769C73.8391 92.8253 73.9198 93.1375 73.9198 93.5133V95.8614C73.9198 96.0291 73.9338 96.2077 73.9618 96.3972C73.9928 96.5867 74.0379 96.7497 74.0969 96.8864V96.9609H73.1977C73.1542 96.8615 73.12 96.7295 73.0952 96.5649C73.0703 96.3972 73.0579 96.2419 73.0579 96.099ZM73.207 93.9047L73.2163 94.5103H72.3451C72.0997 94.5103 71.8808 94.5305 71.6882 94.5709C71.4956 94.6082 71.3341 94.6656 71.2037 94.7433C71.0732 94.8209 70.9738 94.9188 70.9055 95.0368C70.8371 95.1517 70.803 95.2868 70.803 95.4421C70.803 95.6005 70.8387 95.7449 70.9101 95.8754C70.9816 96.0059 71.0887 96.1099 71.2316 96.1876C71.3776 96.2621 71.5562 96.2994 71.7674 96.2994C72.0314 96.2994 72.2643 96.2435 72.4662 96.1316C72.6681 96.0198 72.8281 95.8832 72.9461 95.7217C73.0672 95.5601 73.1325 95.4033 73.1418 95.2511L73.5098 95.6657C73.4881 95.7962 73.4291 95.9406 73.3328 96.099C73.2365 96.2574 73.1076 96.4096 72.9461 96.5556C72.7877 96.6985 72.5982 96.8181 72.3777 96.9143C72.1603 97.0075 71.9149 97.0541 71.6416 97.0541C71.2999 97.0541 71.0002 96.9873 70.7424 96.8538C70.4877 96.7202 70.2889 96.5416 70.1461 96.318C70.0063 96.0913 69.9364 95.8381 69.9364 95.5586C69.9364 95.2884 69.9892 95.0508 70.0948 94.8458C70.2004 94.6377 70.3526 94.4653 70.5514 94.3286C70.7502 94.1889 70.9893 94.0833 71.2689 94.0118C71.5484 93.9404 71.8606 93.9047 72.2053 93.9047H73.207ZM76.4025 92.712V96.9609H75.5406V91.9199H76.3792L76.4025 92.712ZM77.9773 91.892L77.9726 92.6933C77.9012 92.6778 77.8328 92.6685 77.7676 92.6654C77.7055 92.6592 77.634 92.6561 77.5533 92.6561C77.3545 92.6561 77.179 92.6871 77.0268 92.7492C76.8746 92.8114 76.7457 92.8983 76.6401 93.0101C76.5345 93.122 76.4507 93.2555 76.3886 93.4108C76.3295 93.563 76.2907 93.7307 76.2721 93.914L76.0298 94.0537C76.0298 93.7494 76.0593 93.4636 76.1183 93.1965C76.1805 92.9294 76.2752 92.6933 76.4025 92.4883C76.5299 92.2802 76.6914 92.1187 76.8871 92.0038C77.0858 91.8858 77.3219 91.8268 77.5952 91.8268C77.6573 91.8268 77.7288 91.8345 77.8095 91.8501C77.8903 91.8625 77.9462 91.8765 77.9773 91.892ZM82.1232 95.9826V89.8048H82.9898V96.9609H82.1978L82.1232 95.9826ZM78.7315 94.4963V94.3985C78.7315 94.0134 78.7781 93.6639 78.8713 93.3502C78.9675 93.0334 79.1027 92.7617 79.2766 92.5349C79.4536 92.3082 79.6633 92.1343 79.9055 92.0131C80.1509 91.8889 80.4242 91.8268 80.7255 91.8268C81.0423 91.8268 81.3188 91.8827 81.5548 91.9945C81.794 92.1032 81.9959 92.2632 82.1605 92.4744C82.3282 92.6825 82.4602 92.934 82.5565 93.2291C82.6528 93.5242 82.7196 93.8581 82.7568 94.2308V94.6594C82.7227 95.029 82.6559 95.3614 82.5565 95.6564C82.4602 95.9515 82.3282 96.2031 82.1605 96.4112C81.9959 96.6193 81.794 96.7792 81.5548 96.8911C81.3157 96.9998 81.0361 97.0541 80.7162 97.0541C80.4211 97.0541 80.1509 96.9904 79.9055 96.8631C79.6633 96.7358 79.4536 96.5572 79.2766 96.3273C79.1027 96.0975 78.9675 95.8273 78.8713 95.5167C78.7781 95.203 78.7315 94.8629 78.7315 94.4963ZM79.5981 94.3985V94.4963C79.5981 94.7479 79.6229 94.984 79.6726 95.2045C79.7254 95.425 79.8062 95.6192 79.9149 95.7869C80.0236 95.9546 80.1618 96.0866 80.3295 96.1829C80.4972 96.2761 80.6976 96.3227 80.9305 96.3227C81.2163 96.3227 81.4508 96.2621 81.634 96.141C81.8204 96.0198 81.9695 95.8599 82.0813 95.6611C82.1931 95.4623 82.2801 95.2464 82.3422 95.0135V93.8907C82.3049 93.7199 82.2506 93.5552 82.1791 93.3968C82.1108 93.2353 82.0207 93.0924 81.9089 92.9682C81.8002 92.8409 81.6651 92.7399 81.5036 92.6654C81.3452 92.5908 81.1573 92.5536 80.9398 92.5536C80.7038 92.5536 80.5003 92.6033 80.3295 92.7026C80.1618 92.7989 80.0236 92.9325 79.9149 93.1033C79.8062 93.271 79.7254 93.4667 79.6726 93.6903C79.6229 93.9109 79.5981 94.1469 79.5981 94.3985ZM91.2398 90.1775H92.1343V94.7666C92.1343 95.2759 92.0209 95.6999 91.7942 96.0385C91.5674 96.377 91.2662 96.6317 90.8903 96.8025C90.5176 96.9703 90.1123 97.0541 89.6744 97.0541C89.2147 97.0541 88.7985 96.9703 88.4257 96.8025C88.0561 96.6317 87.7626 96.377 87.5452 96.0385C87.3309 95.6999 87.2237 95.2759 87.2237 94.7666V90.1775H88.1136V94.7666C88.1136 95.1206 88.1788 95.4126 88.3093 95.6425C88.4397 95.8723 88.6214 96.0431 88.8544 96.1549C89.0904 96.2668 89.3638 96.3227 89.6744 96.3227C89.9881 96.3227 90.2614 96.2668 90.4943 96.1549C90.7304 96.0431 90.9136 95.8723 91.0441 95.6425C91.1745 95.4126 91.2398 95.1206 91.2398 94.7666V90.1775ZM96.6157 95.6238C96.6157 95.4996 96.5877 95.3847 96.5318 95.2791C96.479 95.1703 96.3688 95.0725 96.201 94.9855C96.0364 94.8955 95.7879 94.8178 95.4556 94.7526C95.1761 94.6936 94.9229 94.6237 94.6962 94.5429C94.4726 94.4622 94.2815 94.3643 94.1231 94.2494C93.9678 94.1345 93.8483 93.9994 93.7644 93.8441C93.6805 93.6888 93.6386 93.5071 93.6386 93.299C93.6386 93.1002 93.6821 92.9123 93.7691 92.7353C93.8591 92.5582 93.9849 92.4014 94.1464 92.2647C94.3111 92.128 94.5083 92.0209 94.7381 91.9432C94.968 91.8656 95.2242 91.8268 95.5068 91.8268C95.9106 91.8268 96.2554 91.8982 96.5411 92.0411C96.8269 92.184 97.0459 92.375 97.1981 92.6141C97.3502 92.8502 97.4263 93.1126 97.4263 93.4015H96.5644C96.5644 93.2617 96.5225 93.1266 96.4386 92.9962C96.3579 92.8626 96.2383 92.7523 96.0799 92.6654C95.9246 92.5784 95.7336 92.5349 95.5068 92.5349C95.2677 92.5349 95.0736 92.5722 94.9245 92.6467C94.7785 92.7182 94.6713 92.8098 94.603 92.9216C94.5378 93.0334 94.5052 93.1515 94.5052 93.2757C94.5052 93.3689 94.5207 93.4527 94.5518 93.5273C94.5859 93.5987 94.6449 93.6655 94.7288 93.7276C94.8127 93.7866 94.9307 93.8425 95.0829 93.8953C95.2351 93.9481 95.4292 94.0009 95.6653 94.0537C96.0783 94.1469 96.4185 94.2587 96.6856 94.3892C96.9527 94.5196 97.1515 94.6796 97.2819 94.8691C97.4124 95.0585 97.4776 95.2884 97.4776 95.5586C97.4776 95.7791 97.431 95.981 97.3378 96.1643C97.2477 96.3475 97.1157 96.5059 96.9418 96.6395C96.771 96.7699 96.566 96.8724 96.3268 96.947C96.0908 97.0184 95.8252 97.0541 95.5301 97.0541C95.086 97.0541 94.7102 96.9749 94.4027 96.8165C94.0952 96.6581 93.8622 96.4531 93.7038 96.2015C93.5454 95.9499 93.4662 95.6844 93.4662 95.4048H94.3328C94.3452 95.6409 94.4135 95.8288 94.5378 95.9686C94.662 96.1052 94.8142 96.2031 94.9944 96.2621C95.1745 96.318 95.3531 96.346 95.5301 96.346C95.7662 96.346 95.9634 96.3149 96.1218 96.2528C96.2833 96.1907 96.406 96.1052 96.4899 95.9965C96.5738 95.8878 96.6157 95.7636 96.6157 95.6238ZM100.967 97.0541C100.616 97.0541 100.297 96.9951 100.012 96.8771C99.7289 96.7559 99.4851 96.5867 99.2801 96.3692C99.0782 96.1518 98.9229 95.894 98.8142 95.5959C98.7055 95.2977 98.6511 94.9716 98.6511 94.6175V94.4218C98.6511 94.0118 98.7117 93.6469 98.8328 93.3269C98.954 93.0039 99.1186 92.7306 99.3267 92.507C99.5348 92.2833 99.7708 92.1141 100.035 91.9991C100.299 91.8842 100.572 91.8268 100.855 91.8268C101.215 91.8268 101.526 91.8889 101.787 92.0131C102.051 92.1374 102.266 92.3113 102.434 92.5349C102.602 92.7555 102.726 93.0164 102.807 93.3176C102.888 93.6158 102.928 93.9419 102.928 94.296V94.6827H99.1636V93.9792H102.066V93.914C102.054 93.6903 102.007 93.4729 101.926 93.2617C101.849 93.0505 101.724 92.8766 101.554 92.7399C101.383 92.6033 101.15 92.5349 100.855 92.5349C100.659 92.5349 100.479 92.5769 100.314 92.6607C100.15 92.7415 100.008 92.8626 99.8904 93.0241C99.7724 93.1856 99.6808 93.3829 99.6155 93.6158C99.5503 93.8488 99.5177 94.1174 99.5177 94.4218V94.6175C99.5177 94.8566 99.5503 95.0818 99.6155 95.293C99.6839 95.5011 99.7817 95.6844 99.909 95.8428C100.039 96.0012 100.196 96.1254 100.38 96.2155C100.566 96.3056 100.777 96.3506 101.013 96.3506C101.318 96.3506 101.575 96.2885 101.787 96.1643C101.998 96.04 102.183 95.8738 102.341 95.6657L102.863 96.0804C102.754 96.245 102.616 96.4019 102.448 96.5509C102.28 96.7 102.074 96.8212 101.829 96.9143C101.586 97.0075 101.299 97.0541 100.967 97.0541ZM105.061 92.712V96.9609H104.199V91.9199H105.038L105.061 92.712ZM106.636 91.892L106.631 92.6933C106.56 92.6778 106.492 92.6685 106.426 92.6654C106.364 92.6592 106.293 92.6561 106.212 92.6561C106.013 92.6561 105.838 92.6871 105.686 92.7492C105.533 92.8114 105.405 92.8983 105.299 93.0101C105.193 93.122 105.109 93.2555 105.047 93.4108C104.988 93.563 104.95 93.7307 104.931 93.914L104.689 94.0537C104.689 93.7494 104.718 93.4636 104.777 93.1965C104.839 92.9294 104.934 92.6933 105.061 92.4883C105.189 92.2802 105.35 92.1187 105.546 92.0038C105.745 91.8858 105.981 91.8268 106.254 91.8268C106.316 91.8268 106.388 91.8345 106.468 91.8501C106.549 91.8625 106.605 91.8765 106.636 91.892Z" fill="#F6F1F2"/>
<path d="M184.474 87.4503V89.345H183.542V87.4503H184.474ZM184.362 97.5944V99.253H183.437V97.5944H184.362ZM185.605 95.6315C185.605 95.383 185.549 95.1594 185.437 94.9606C185.325 94.7618 185.141 94.5796 184.884 94.4139C184.627 94.2483 184.284 94.095 183.853 93.9542C183.331 93.7927 182.88 93.596 182.499 93.3641C182.122 93.1322 181.83 92.8444 181.623 92.5006C181.42 92.1569 181.318 91.7407 181.318 91.252C181.318 90.7427 181.428 90.3037 181.648 89.9351C181.867 89.5665 182.178 89.2829 182.579 89.0841C182.981 88.8853 183.453 88.7859 183.996 88.7859C184.418 88.7859 184.795 88.8501 185.126 88.9785C185.458 89.1027 185.737 89.2891 185.965 89.5375C186.197 89.786 186.373 90.0904 186.493 90.4507C186.617 90.811 186.679 91.2272 186.679 91.6993H185.536C185.536 91.4218 185.503 91.1671 185.437 90.9352C185.371 90.7033 185.271 90.5025 185.139 90.3327C185.006 90.1587 184.845 90.0262 184.654 89.9351C184.464 89.8399 184.244 89.7922 183.996 89.7922C183.648 89.7922 183.36 89.8523 183.132 89.9724C182.909 90.0925 182.743 90.2623 182.635 90.4818C182.528 90.6971 182.474 90.9477 182.474 91.2334C182.474 91.4984 182.528 91.7304 182.635 91.9291C182.743 92.1279 182.925 92.3081 183.182 92.4696C183.443 92.6269 183.801 92.7822 184.257 92.9355C184.791 93.1053 185.244 93.3061 185.617 93.538C185.99 93.7658 186.273 94.0474 186.468 94.3829C186.663 94.7142 186.76 95.1262 186.76 95.619C186.76 96.1533 186.64 96.6047 186.4 96.9732C186.16 97.3377 185.822 97.6151 185.387 97.8056C184.952 97.9961 184.443 98.0914 183.859 98.0914C183.507 98.0914 183.159 98.0438 182.815 97.9485C182.472 97.8533 182.161 97.698 181.884 97.4826C181.606 97.2631 181.385 96.9753 181.219 96.6192C181.053 96.2589 180.97 95.8178 180.97 95.296H182.126C182.126 95.648 182.176 95.94 182.275 96.1719C182.379 96.3997 182.515 96.5819 182.685 96.7185C182.855 96.8511 183.041 96.9463 183.244 97.0043C183.451 97.0581 183.656 97.0851 183.859 97.0851C184.232 97.0851 184.547 97.0271 184.803 96.9111C185.064 96.791 185.263 96.6212 185.4 96.4017C185.536 96.1823 185.605 95.9255 185.605 95.6315ZM193.558 92.8734H194.378C194.78 92.8734 195.111 92.8071 195.372 92.6746C195.637 92.5379 195.834 92.3536 195.962 92.1217C196.095 91.8857 196.161 91.6206 196.161 91.3266C196.161 90.9787 196.103 90.6868 195.987 90.4507C195.871 90.2146 195.697 90.0366 195.465 89.9165C195.233 89.7964 194.939 89.7363 194.583 89.7363C194.26 89.7363 193.974 89.8005 193.726 89.9289C193.481 90.0531 193.289 90.2312 193.148 90.4631C193.011 90.695 192.943 90.9684 192.943 91.2831H191.794C191.794 90.8234 191.91 90.4051 192.142 90.0283C192.374 89.6514 192.699 89.3512 193.117 89.1276C193.539 88.9039 194.028 88.7921 194.583 88.7921C195.13 88.7921 195.608 88.8894 196.018 89.0841C196.428 89.2746 196.747 89.5603 196.975 89.9413C197.202 90.3182 197.316 90.7882 197.316 91.3514C197.316 91.5792 197.262 91.8235 197.155 92.0844C197.051 92.3412 196.888 92.5814 196.664 92.805C196.444 93.0287 196.159 93.2129 195.807 93.3579C195.455 93.4987 195.032 93.5691 194.539 93.5691H193.558V92.8734ZM193.558 93.8176V93.128H194.539C195.115 93.128 195.591 93.1964 195.968 93.333C196.345 93.4697 196.641 93.6519 196.857 93.8797C197.076 94.1075 197.229 94.358 197.316 94.6313C197.407 94.9005 197.453 95.1697 197.453 95.4389C197.453 95.8613 197.38 96.2361 197.235 96.5632C197.095 96.8904 196.894 97.1679 196.633 97.3957C196.376 97.6234 196.074 97.7953 195.726 97.9112C195.378 98.0272 194.999 98.0852 194.589 98.0852C194.196 98.0852 193.825 98.0293 193.477 97.9175C193.133 97.8056 192.829 97.6441 192.564 97.4329C192.299 97.2176 192.092 96.9546 191.943 96.644C191.794 96.3293 191.719 95.971 191.719 95.5693H192.868C192.868 95.8841 192.937 96.1595 193.073 96.3955C193.214 96.6316 193.413 96.8159 193.67 96.9484C193.931 97.0768 194.237 97.141 194.589 97.141C194.941 97.141 195.243 97.0809 195.496 96.9608C195.753 96.8366 195.95 96.6502 196.086 96.4017C196.227 96.1533 196.297 95.8406 196.297 95.4637C196.297 95.0869 196.219 94.7784 196.061 94.5382C195.904 94.2938 195.68 94.1137 195.39 93.9977C195.105 93.8776 194.767 93.8176 194.378 93.8176H193.558ZM199.445 97.3522C199.445 97.1575 199.505 96.9939 199.625 96.8614C199.749 96.7248 199.927 96.6564 200.159 96.6564C200.391 96.6564 200.567 96.7248 200.687 96.8614C200.811 96.9939 200.874 97.1575 200.874 97.3522C200.874 97.5427 200.811 97.7042 200.687 97.8367C200.567 97.9692 200.391 98.0355 200.159 98.0355C199.927 98.0355 199.749 97.9692 199.625 97.8367C199.505 97.7042 199.445 97.5427 199.445 97.3522ZM208.848 97.0167V97.9609H202.928V97.1347L205.891 93.8362C206.255 93.4304 206.537 93.0866 206.736 92.805C206.938 92.5193 207.079 92.2646 207.158 92.041C207.241 91.8132 207.282 91.5813 207.282 91.3452C207.282 91.047 207.22 90.7779 207.096 90.5377C206.976 90.2933 206.798 90.0987 206.562 89.9537C206.326 89.8088 206.04 89.7363 205.704 89.7363C205.303 89.7363 204.967 89.815 204.698 89.9724C204.433 90.1256 204.234 90.341 204.102 90.6184C203.969 90.8959 203.903 91.2148 203.903 91.5751H202.754C202.754 91.0657 202.866 90.5998 203.089 90.1774C203.313 89.755 203.644 89.4195 204.083 89.171C204.522 88.9184 205.062 88.7921 205.704 88.7921C206.276 88.7921 206.765 88.8936 207.17 89.0965C207.576 89.2953 207.887 89.5769 208.102 89.9413C208.322 90.3016 208.431 90.724 208.431 91.2086C208.431 91.4736 208.386 91.7428 208.295 92.0161C208.208 92.2853 208.086 92.5545 207.928 92.8237C207.775 93.0928 207.595 93.3579 207.388 93.6188C207.185 93.8797 206.967 94.1365 206.736 94.3891L204.313 97.0167H208.848ZM211.486 96.9981H211.604C212.266 96.9981 212.805 96.9049 213.219 96.7185C213.633 96.5322 213.952 96.2816 214.175 95.9669C214.399 95.6522 214.552 95.2981 214.635 94.9047C214.718 94.5071 214.759 94.0992 214.759 93.6809V92.2956C214.759 91.8857 214.712 91.5212 214.616 91.2023C214.525 90.8835 214.397 90.6163 214.231 90.401C214.07 90.1857 213.886 90.0221 213.678 89.9103C213.471 89.7984 213.252 89.7425 213.02 89.7425C212.755 89.7425 212.517 89.7964 212.306 89.904C212.099 90.0076 211.923 90.1546 211.778 90.3451C211.637 90.5356 211.529 90.7592 211.455 91.016C211.38 91.2727 211.343 91.5523 211.343 91.8546C211.343 92.1238 211.376 92.3847 211.442 92.6373C211.508 92.8899 211.61 93.1177 211.747 93.3206C211.883 93.5235 212.053 93.685 212.256 93.8051C212.463 93.9211 212.705 93.9791 212.983 93.9791C213.239 93.9791 213.48 93.9294 213.703 93.83C213.931 93.7265 214.132 93.5877 214.306 93.4138C214.484 93.2357 214.625 93.0349 214.728 92.8112C214.836 92.5876 214.898 92.3536 214.915 92.1093H215.461C215.461 92.453 215.393 92.7926 215.256 93.128C215.124 93.4593 214.937 93.7617 214.697 94.035C214.457 94.3083 214.175 94.5278 213.852 94.6935C213.529 94.855 213.177 94.9357 212.796 94.9357C212.349 94.9357 211.962 94.8488 211.635 94.6748C211.308 94.5009 211.038 94.269 210.827 93.9791C210.62 93.6892 210.465 93.3662 210.361 93.01C210.262 92.6497 210.212 92.2853 210.212 91.9167C210.212 91.486 210.272 91.0822 210.392 90.7054C210.512 90.3285 210.691 89.9972 210.927 89.7115C211.163 89.4216 211.455 89.1959 211.802 89.0344C212.154 88.8729 212.56 88.7921 213.02 88.7921C213.538 88.7921 213.979 88.8956 214.343 89.1027C214.708 89.3098 215.004 89.5872 215.231 89.9351C215.463 90.283 215.633 90.6743 215.741 91.1092C215.848 91.544 215.902 91.9913 215.902 92.4509V92.8671C215.902 93.3351 215.871 93.8114 215.809 94.2959C215.751 94.7763 215.637 95.236 215.467 95.6749C215.302 96.1139 215.06 96.5073 214.741 96.8552C214.422 97.1989 214.006 97.4723 213.492 97.6752C212.983 97.874 212.353 97.9734 211.604 97.9734H211.486V96.9981Z" fill="#F6F1F2"/>
<path d="M270.347 87.4503V89.345H269.416V87.4503H270.347ZM270.236 97.5944V99.253H269.31V97.5944H270.236ZM271.478 95.6315C271.478 95.383 271.422 95.1594 271.31 94.9606C271.198 94.7618 271.014 94.5796 270.757 94.4139C270.501 94.2483 270.157 94.095 269.726 93.9542C269.204 93.7927 268.753 93.596 268.372 93.3641C267.995 93.1322 267.703 92.8444 267.496 92.5006C267.293 92.1569 267.192 91.7407 267.192 91.252C267.192 90.7427 267.301 90.3037 267.521 89.9351C267.74 89.5665 268.051 89.2829 268.453 89.0841C268.854 88.8853 269.327 88.7859 269.869 88.7859C270.292 88.7859 270.668 88.8501 271 88.9785C271.331 89.1027 271.611 89.2891 271.838 89.5375C272.07 89.786 272.246 90.0904 272.366 90.4507C272.491 90.811 272.553 91.2272 272.553 91.6993H271.41C271.41 91.4218 271.377 91.1671 271.31 90.9352C271.244 90.7033 271.145 90.5025 271.012 90.3327C270.88 90.1587 270.718 90.0262 270.528 89.9351C270.337 89.8399 270.118 89.7922 269.869 89.7922C269.521 89.7922 269.233 89.8523 269.006 89.9724C268.782 90.0925 268.616 90.2623 268.509 90.4818C268.401 90.6971 268.347 90.9477 268.347 91.2334C268.347 91.4984 268.401 91.7304 268.509 91.9291C268.616 92.1279 268.799 92.3081 269.055 92.4696C269.316 92.6269 269.674 92.7822 270.13 92.9355C270.664 93.1053 271.118 93.3061 271.49 93.538C271.863 93.7658 272.147 94.0474 272.341 94.3829C272.536 94.7142 272.633 95.1262 272.633 95.619C272.633 96.1533 272.513 96.6047 272.273 96.9732C272.033 97.3377 271.695 97.6151 271.261 97.8056C270.826 97.9961 270.316 98.0914 269.732 98.0914C269.38 98.0914 269.033 98.0438 268.689 97.9485C268.345 97.8533 268.035 97.698 267.757 97.4826C267.48 97.2631 267.258 96.9753 267.092 96.6192C266.927 96.2589 266.844 95.8178 266.844 95.296H267.999C267.999 95.648 268.049 95.94 268.148 96.1719C268.252 96.3997 268.389 96.5819 268.558 96.7185C268.728 96.8511 268.915 96.9463 269.117 97.0043C269.325 97.0581 269.53 97.0851 269.732 97.0851C270.105 97.0851 270.42 97.0271 270.677 96.9111C270.938 96.791 271.136 96.6212 271.273 96.4017C271.41 96.1823 271.478 95.9255 271.478 95.6315ZM279.431 92.8734H280.251C280.653 92.8734 280.984 92.8071 281.245 92.6746C281.51 92.5379 281.707 92.3536 281.835 92.1217C281.968 91.8857 282.034 91.6206 282.034 91.3266C282.034 90.9787 281.976 90.6868 281.86 90.4507C281.744 90.2146 281.57 90.0366 281.338 89.9165C281.107 89.7964 280.812 89.7363 280.456 89.7363C280.133 89.7363 279.848 89.8005 279.599 89.9289C279.355 90.0531 279.162 90.2312 279.021 90.4631C278.885 90.695 278.816 90.9684 278.816 91.2831H277.667C277.667 90.8234 277.783 90.4051 278.015 90.0283C278.247 89.6514 278.572 89.3512 278.99 89.1276C279.413 88.9039 279.901 88.7921 280.456 88.7921C281.003 88.7921 281.481 88.8894 281.891 89.0841C282.301 89.2746 282.62 89.5603 282.848 89.9413C283.076 90.3182 283.19 90.7882 283.19 91.3514C283.19 91.5792 283.136 91.8235 283.028 92.0844C282.925 92.3412 282.761 92.5814 282.537 92.805C282.318 93.0287 282.032 93.2129 281.68 93.3579C281.328 93.4987 280.906 93.5691 280.413 93.5691H279.431V92.8734ZM279.431 93.8176V93.128H280.413C280.988 93.128 281.465 93.1964 281.842 93.333C282.218 93.4697 282.515 93.6519 282.73 93.8797C282.949 94.1075 283.103 94.358 283.19 94.6313C283.281 94.9005 283.326 95.1697 283.326 95.4389C283.326 95.8613 283.254 96.2361 283.109 96.5632C282.968 96.8904 282.767 97.1679 282.506 97.3957C282.25 97.6234 281.947 97.7953 281.599 97.9112C281.251 98.0272 280.873 98.0852 280.463 98.0852C280.069 98.0852 279.698 98.0293 279.351 97.9175C279.007 97.8056 278.702 97.6441 278.437 97.4329C278.172 97.2176 277.965 96.9546 277.816 96.644C277.667 96.3293 277.593 95.971 277.593 95.5693H278.742C278.742 95.8841 278.81 96.1595 278.947 96.3955C279.088 96.6316 279.286 96.8159 279.543 96.9484C279.804 97.0768 280.111 97.141 280.463 97.141C280.815 97.141 281.117 97.0809 281.369 96.9608C281.626 96.8366 281.823 96.6502 281.96 96.4017C282.1 96.1533 282.171 95.8406 282.171 95.4637C282.171 95.0869 282.092 94.7784 281.935 94.5382C281.777 94.2938 281.554 94.1137 281.264 93.9977C280.978 93.8776 280.641 93.8176 280.251 93.8176H279.431ZM291.102 97.0167V97.9609H285.182V97.1347L288.145 93.8362C288.509 93.4304 288.791 93.0866 288.989 92.805C289.192 92.5193 289.333 92.2646 289.412 92.041C289.495 91.8132 289.536 91.5813 289.536 91.3452C289.536 91.047 289.474 90.7779 289.35 90.5377C289.23 90.2933 289.052 90.0987 288.816 89.9537C288.579 89.8088 288.294 89.7363 287.958 89.7363C287.557 89.7363 287.221 89.815 286.952 89.9724C286.687 90.1256 286.488 90.341 286.356 90.6184C286.223 90.8959 286.157 91.2148 286.157 91.5751H285.008C285.008 91.0657 285.119 90.5998 285.343 90.1774C285.567 89.755 285.898 89.4195 286.337 89.171C286.776 88.9184 287.316 88.7921 287.958 88.7921C288.53 88.7921 289.018 88.8936 289.424 89.0965C289.83 89.2953 290.141 89.5769 290.356 89.9413C290.576 90.3016 290.685 90.724 290.685 91.2086C290.685 91.4736 290.64 91.7428 290.549 92.0161C290.462 92.2853 290.34 92.5545 290.182 92.8237C290.029 93.0928 289.849 93.3579 289.642 93.6188C289.439 93.8797 289.221 94.1365 288.989 94.3891L286.567 97.0167H291.102ZM292.739 97.3522C292.739 97.1575 292.799 96.9939 292.92 96.8614C293.044 96.7248 293.222 96.6564 293.454 96.6564C293.686 96.6564 293.862 96.7248 293.982 96.8614C294.106 96.9939 294.168 97.1575 294.168 97.3522C294.168 97.5427 294.106 97.7042 293.982 97.8367C293.862 97.9692 293.686 98.0355 293.454 98.0355C293.222 98.0355 293.044 97.9692 292.92 97.8367C292.799 97.7042 292.739 97.5427 292.739 97.3522ZM302.329 94.9171V95.8613H295.794V95.1842L299.844 88.9163H300.782L299.775 90.7302L297.098 94.9171H302.329ZM301.068 88.9163V97.9609H299.918V88.9163H301.068ZM304.78 96.9981H304.898C305.561 96.9981 306.099 96.9049 306.513 96.7185C306.927 96.5322 307.246 96.2816 307.47 95.9669C307.694 95.6522 307.847 95.2981 307.93 94.9047C308.013 94.5071 308.054 94.0992 308.054 93.6809V92.2956C308.054 91.8857 308.006 91.5212 307.911 91.2023C307.82 90.8835 307.692 90.6163 307.526 90.401C307.364 90.1857 307.18 90.0221 306.973 89.9103C306.766 89.7984 306.546 89.7425 306.315 89.7425C306.05 89.7425 305.811 89.7964 305.6 89.904C305.393 90.0076 305.217 90.1546 305.072 90.3451C304.931 90.5356 304.824 90.7592 304.749 91.016C304.675 91.2727 304.637 91.5523 304.637 91.8546C304.637 92.1238 304.67 92.3847 304.737 92.6373C304.803 92.8899 304.904 93.1177 305.041 93.3206C305.178 93.5235 305.348 93.685 305.551 93.8051C305.758 93.9211 306 93.9791 306.277 93.9791C306.534 93.9791 306.774 93.9294 306.998 93.83C307.226 93.7265 307.427 93.5877 307.6 93.4138C307.779 93.2357 307.919 93.0349 308.023 92.8112C308.131 92.5876 308.193 92.3536 308.209 92.1093H308.756C308.756 92.453 308.688 92.7926 308.551 93.128C308.418 93.4593 308.232 93.7617 307.992 94.035C307.752 94.3083 307.47 94.5278 307.147 94.6935C306.824 94.855 306.472 94.9357 306.091 94.9357C305.644 94.9357 305.256 94.8488 304.929 94.6748C304.602 94.5009 304.333 94.269 304.122 93.9791C303.915 93.6892 303.759 93.3662 303.656 93.01C303.556 92.6497 303.507 92.2853 303.507 91.9167C303.507 91.486 303.567 91.0822 303.687 90.7054C303.807 90.3285 303.985 89.9972 304.221 89.7115C304.457 89.4216 304.749 89.1959 305.097 89.0344C305.449 88.8729 305.855 88.7921 306.315 88.7921C306.832 88.7921 307.273 88.8956 307.638 89.1027C308.002 89.3098 308.298 89.5872 308.526 89.9351C308.758 90.283 308.928 90.6743 309.035 91.1092C309.143 91.544 309.197 91.9913 309.197 92.4509V92.8671C309.197 93.3351 309.166 93.8114 309.104 94.2959C309.046 94.7763 308.932 95.236 308.762 95.6749C308.596 96.1139 308.354 96.5073 308.035 96.8552C307.716 97.1989 307.3 97.4723 306.787 97.6752C306.277 97.874 305.648 97.9734 304.898 97.9734H304.78V96.9981Z" fill="#9FBFE5" fill-opacity="0.996078"/>
<defs>
<linearGradient id="paint0_linear_11984_8053" x1="0" y1="0.558594" x2="153.348" y2="261.381" gradientUnits="userSpaceOnUse">
<stop stop-color="#9FBFE5"/>
<stop offset="1" stop-color="#4E72B6"/>
</linearGradient>
<linearGradient id="paint1_linear_11984_8053" x1="12.7217" y1="66.2578" x2="357.278" y2="66.2578" gradientUnits="userSpaceOnUse">
<stop stop-color="white" stop-opacity="0"/>
<stop offset="0.505" stop-color="#CDD8FF"/>
<stop offset="1" stop-color="white" stop-opacity="0"/>
</linearGradient>
<linearGradient id="paint2_linear_11984_8053" x1="142.396" y1="13.2813" x2="142.396" y2="121.281" gradientUnits="userSpaceOnUse">
<stop stop-color="white" stop-opacity="0"/>
<stop offset="0.505" stop-color="#CDD8FF"/>
<stop offset="1" stop-color="white" stop-opacity="0"/>
</linearGradient>
<linearGradient id="paint3_linear_11984_8053" x1="249.396" y1="13.2813" x2="249.396" y2="121.281" gradientUnits="userSpaceOnUse">
<stop stop-color="white" stop-opacity="0"/>
<stop offset="0.505" stop-color="#CDD8FF"/>
<stop offset="1" stop-color="white" stop-opacity="0"/>
</linearGradient>
</defs>
</svg>
