<svg width="370" height="122" viewBox="0 0 370 122" fill="none" xmlns="http://www.w3.org/2000/svg">
<rect x="0.223971" y="0.223971" width="369.552" height="121.11" rx="6.9431" fill="#17181F"/>
<rect x="0.223971" y="0.223971" width="369.552" height="121.11" rx="6.9431" stroke="#303032" stroke-width="0.447942"/>
<path d="M170.256 16.6037V22.3359H169.173V16.6037H170.256ZM172.567 19.08V19.9344H169.973V19.08H172.567ZM172.87 16.6037V17.458H169.973V16.6037H172.87ZM174.689 18.9462V22.3359H173.649V18.0761H174.633L174.689 18.9462ZM175.984 18.0486L175.968 19.0171C175.91 19.0066 175.845 18.9987 175.771 18.9934C175.7 18.9882 175.633 18.9856 175.57 18.9856C175.41 18.9856 175.27 19.0079 175.149 19.0525C175.028 19.0945 174.927 19.1562 174.846 19.2375C174.767 19.3189 174.707 19.4186 174.665 19.5367C174.623 19.6522 174.599 19.7835 174.594 19.9304L174.37 19.9029C174.37 19.6325 174.397 19.3819 174.452 19.1509C174.507 18.9199 174.588 18.7178 174.693 18.5446C174.798 18.3714 174.929 18.2375 175.086 18.143C175.246 18.0459 175.43 17.9974 175.637 17.9974C175.695 17.9974 175.757 18.0026 175.822 18.0131C175.891 18.021 175.944 18.0328 175.984 18.0486ZM178.613 22.4147C178.29 22.4147 178 22.3622 177.743 22.2572C177.486 22.1522 177.267 22.0065 177.086 21.8202C176.907 21.6312 176.77 21.4121 176.672 21.1627C176.578 20.9107 176.531 20.6404 176.531 20.3517V20.1942C176.531 19.8661 176.578 19.5682 176.672 19.3005C176.767 19.0302 176.901 18.7979 177.074 18.6037C177.247 18.4094 177.455 18.2598 177.696 18.1549C177.937 18.0499 178.204 17.9974 178.495 17.9974C178.797 17.9974 179.063 18.0486 179.294 18.1509C179.525 18.2507 179.718 18.3924 179.873 18.5761C180.028 18.7598 180.145 18.9803 180.224 19.2375C180.302 19.4921 180.342 19.7743 180.342 20.084V20.521H177.003V19.8045H179.318V19.7257C179.313 19.5604 179.281 19.4094 179.224 19.273C179.166 19.1339 179.077 19.0236 178.956 18.9423C178.835 18.8583 178.679 18.8163 178.487 18.8163C178.332 18.8163 178.197 18.8504 178.082 18.9186C177.969 18.9842 177.874 19.0787 177.798 19.2021C177.725 19.3228 177.67 19.4672 177.633 19.6352C177.596 19.8031 177.578 19.9895 177.578 20.1942V20.3517C177.578 20.5302 177.602 20.6955 177.649 20.8478C177.699 21 177.771 21.1325 177.865 21.2454C177.962 21.3556 178.078 21.4422 178.212 21.5052C178.348 21.5656 178.503 21.5958 178.676 21.5958C178.894 21.5958 179.091 21.5538 179.267 21.4698C179.445 21.3832 179.6 21.2559 179.731 21.0879L180.255 21.6312C180.166 21.7624 180.045 21.8884 179.893 22.0092C179.743 22.1299 179.562 22.2283 179.35 22.3044C179.137 22.3779 178.892 22.4147 178.613 22.4147ZM183.176 22.4147C182.853 22.4147 182.563 22.3622 182.306 22.2572C182.049 22.1522 181.829 22.0065 181.648 21.8202C181.47 21.6312 181.332 21.4121 181.235 21.1627C181.14 20.9107 181.093 20.6404 181.093 20.3517V20.1942C181.093 19.8661 181.14 19.5682 181.235 19.3005C181.329 19.0302 181.463 18.7979 181.636 18.6037C181.81 18.4094 182.017 18.2598 182.259 18.1549C182.5 18.0499 182.766 17.9974 183.058 17.9974C183.36 17.9974 183.626 18.0486 183.857 18.1509C184.088 18.2507 184.281 18.3924 184.436 18.5761C184.591 18.7598 184.707 18.9803 184.786 19.2375C184.865 19.4921 184.904 19.7743 184.904 20.084V20.521H181.566V19.8045H183.881V19.7257C183.875 19.5604 183.844 19.4094 183.786 19.273C183.728 19.1339 183.639 19.0236 183.518 18.9423C183.398 18.8583 183.241 18.8163 183.05 18.8163C182.895 18.8163 182.76 18.8504 182.644 18.9186C182.532 18.9842 182.437 19.0787 182.361 19.2021C182.287 19.3228 182.232 19.4672 182.196 19.6352C182.159 19.8031 182.14 19.9895 182.14 20.1942V20.3517C182.14 20.5302 182.164 20.6955 182.211 20.8478C182.261 21 182.333 21.1325 182.428 21.2454C182.525 21.3556 182.64 21.4422 182.774 21.5052C182.911 21.5656 183.066 21.5958 183.239 21.5958C183.457 21.5958 183.654 21.5538 183.829 21.4698C184.008 21.3832 184.163 21.2559 184.294 21.0879L184.818 21.6312C184.728 21.7624 184.608 21.8884 184.455 22.0092C184.306 22.1299 184.125 22.2283 183.912 22.3044C183.699 22.3779 183.454 22.4147 183.176 22.4147ZM190.399 16.6037V22.3359H189.321V16.6037H190.399ZM192.179 16.6037V17.458H187.561V16.6037H192.179ZM193.808 18.9462V22.3359H192.769V18.0761H193.753L193.808 18.9462ZM195.104 18.0486L195.088 19.0171C195.03 19.0066 194.965 18.9987 194.891 18.9934C194.82 18.9882 194.753 18.9856 194.69 18.9856C194.53 18.9856 194.39 19.0079 194.269 19.0525C194.148 19.0945 194.047 19.1562 193.966 19.2375C193.887 19.3189 193.827 19.4186 193.785 19.5367C193.743 19.6522 193.719 19.7835 193.714 19.9304L193.489 19.9029C193.489 19.6325 193.517 19.3819 193.572 19.1509C193.627 18.9199 193.707 18.7178 193.812 18.5446C193.917 18.3714 194.049 18.2375 194.206 18.143C194.366 18.0459 194.55 17.9974 194.757 17.9974C194.815 17.9974 194.877 18.0026 194.942 18.0131C195.01 18.021 195.064 18.0328 195.104 18.0486ZM197.001 18.0761V22.3359H195.958V18.0761H197.001ZM195.887 16.9619C195.887 16.8071 195.939 16.6785 196.044 16.5761C196.152 16.4738 196.296 16.4226 196.477 16.4226C196.658 16.4226 196.801 16.4738 196.906 16.5761C197.014 16.6785 197.068 16.8071 197.068 16.9619C197.068 17.1142 197.014 17.2415 196.906 17.3438C196.801 17.4462 196.658 17.4974 196.477 17.4974C196.296 17.4974 196.152 17.4462 196.044 17.3438C195.939 17.2415 195.887 17.1142 195.887 16.9619ZM200.563 21.4304V19.4659C200.563 19.3215 200.538 19.1968 200.489 19.0919C200.439 18.9869 200.363 18.9055 200.26 18.8478C200.158 18.79 200.028 18.7612 199.87 18.7612C199.731 18.7612 199.609 18.7848 199.504 18.832C199.402 18.8793 199.323 18.9462 199.268 19.0328C199.213 19.1168 199.185 19.2139 199.185 19.3241H198.142C198.142 19.1483 198.184 18.9816 198.268 18.8241C198.352 18.664 198.471 18.5223 198.626 18.3989C198.784 18.273 198.971 18.1745 199.189 18.1037C199.41 18.0328 199.657 17.9974 199.929 17.9974C200.252 17.9974 200.54 18.0525 200.792 18.1627C201.046 18.2703 201.246 18.4331 201.39 18.6509C201.537 18.8688 201.611 19.143 201.611 19.4737V21.332C201.611 21.5446 201.624 21.727 201.65 21.8792C201.679 22.0289 201.721 22.1588 201.776 22.269V22.3359H200.717C200.667 22.2283 200.629 22.0918 200.603 21.9265C200.576 21.7585 200.563 21.5932 200.563 21.4304ZM200.709 19.7415L200.717 20.3596H200.059C199.897 20.3596 199.754 20.3766 199.63 20.4107C199.507 20.4422 199.406 20.4895 199.327 20.5525C199.248 20.6128 199.189 20.6863 199.15 20.773C199.111 20.8569 199.091 20.9527 199.091 21.0604C199.091 21.1653 199.115 21.2598 199.162 21.3438C199.212 21.4278 199.283 21.4947 199.374 21.5446C199.469 21.5918 199.579 21.6155 199.705 21.6155C199.889 21.6155 200.049 21.5787 200.185 21.5052C200.322 21.4291 200.428 21.3373 200.504 21.2296C200.58 21.122 200.621 21.0197 200.626 20.9226L200.926 21.3714C200.889 21.479 200.834 21.5932 200.76 21.7139C200.687 21.8346 200.592 21.9475 200.477 22.0525C200.361 22.1575 200.222 22.2441 200.059 22.3123C199.897 22.3806 199.708 22.4147 199.492 22.4147C199.217 22.4147 198.97 22.3596 198.752 22.2493C198.534 22.1391 198.363 21.9882 198.237 21.7966C198.111 21.605 198.048 21.3871 198.048 21.143C198.048 20.9173 198.09 20.7178 198.174 20.5446C198.258 20.3714 198.382 20.2257 198.548 20.1076C198.713 19.9869 198.918 19.8963 199.162 19.8359C199.409 19.773 199.691 19.7415 200.008 19.7415H200.709ZM203.874 16.2887V22.3359H202.831V16.2887H203.874ZM210.59 16.6037H211.672V20.4107C211.672 20.8491 211.578 21.2178 211.389 21.517C211.2 21.8136 210.943 22.038 210.617 22.1903C210.292 22.3399 209.922 22.4147 209.507 22.4147C209.087 22.4147 208.713 22.3399 208.385 22.1903C208.057 22.038 207.8 21.8136 207.613 21.517C207.427 21.2178 207.334 20.8491 207.334 20.4107V16.6037H208.416V20.4107C208.416 20.6785 208.461 20.8976 208.55 21.0682C208.639 21.2362 208.765 21.3609 208.928 21.4422C209.091 21.5236 209.284 21.5643 209.507 21.5643C209.733 21.5643 209.926 21.5236 210.086 21.4422C210.248 21.3609 210.373 21.2362 210.46 21.0682C210.546 20.8976 210.59 20.6785 210.59 20.4107V16.6037ZM215.188 21.1706C215.188 21.0814 215.164 21.0013 215.117 20.9304C215.069 20.8596 214.98 20.7953 214.849 20.7375C214.72 20.6772 214.531 20.6207 214.282 20.5682C214.062 20.521 213.858 20.4619 213.672 20.3911C213.485 20.3202 213.325 20.2349 213.191 20.1352C213.058 20.0328 212.953 19.9134 212.877 19.7769C212.803 19.6378 212.766 19.4777 212.766 19.2966C212.766 19.1207 212.804 18.9554 212.88 18.8005C212.957 18.643 213.067 18.5052 213.211 18.3871C213.356 18.2664 213.531 18.1719 213.739 18.1037C213.946 18.0328 214.18 17.9974 214.439 17.9974C214.802 17.9974 215.113 18.0564 215.373 18.1745C215.635 18.2926 215.836 18.4554 215.975 18.6627C216.114 18.8674 216.184 19.0984 216.184 19.3556H215.144C215.144 19.2428 215.118 19.1404 215.065 19.0486C215.016 18.9567 214.938 18.8832 214.833 18.8281C214.728 18.7703 214.596 18.7415 214.436 18.7415C214.291 18.7415 214.169 18.7651 214.069 18.8123C213.972 18.8596 213.899 18.9213 213.849 18.9974C213.799 19.0735 213.774 19.1575 213.774 19.2493C213.774 19.3176 213.787 19.3793 213.814 19.4344C213.842 19.4869 213.888 19.5354 213.951 19.58C214.014 19.6247 214.1 19.6653 214.207 19.7021C214.317 19.7388 214.453 19.7743 214.613 19.8084C214.93 19.8714 215.207 19.9554 215.443 20.0604C215.682 20.1627 215.869 20.2992 216.002 20.4698C216.136 20.6404 216.203 20.8583 216.203 21.1233C216.203 21.3123 216.163 21.4855 216.081 21.643C216 21.7979 215.882 21.9331 215.727 22.0485C215.572 22.164 215.387 22.2546 215.172 22.3202C214.957 22.3832 214.714 22.4147 214.443 22.4147C214.052 22.4147 213.722 22.3451 213.451 22.206C213.181 22.0643 212.976 21.8858 212.837 21.6706C212.698 21.4527 212.628 21.227 212.628 20.9934H213.625C213.632 21.1588 213.677 21.2913 213.758 21.3911C213.84 21.4908 213.942 21.563 214.065 21.6076C214.191 21.6496 214.324 21.6706 214.463 21.6706C214.621 21.6706 214.753 21.6496 214.861 21.6076C214.968 21.563 215.05 21.5039 215.105 21.4304C215.16 21.3543 215.188 21.2677 215.188 21.1706ZM219.132 22.4147C218.809 22.4147 218.519 22.3622 218.262 22.2572C218.005 22.1522 217.785 22.0065 217.604 21.8202C217.426 21.6312 217.288 21.4121 217.191 21.1627C217.097 20.9107 217.049 20.6404 217.049 20.3517V20.1942C217.049 19.8661 217.097 19.5682 217.191 19.3005C217.285 19.0302 217.419 18.7979 217.593 18.6037C217.766 18.4094 217.973 18.2598 218.215 18.1549C218.456 18.0499 218.722 17.9974 219.014 17.9974C219.316 17.9974 219.582 18.0486 219.813 18.1509C220.044 18.2507 220.237 18.3924 220.392 18.5761C220.547 18.7598 220.663 18.9803 220.742 19.2375C220.821 19.4921 220.86 19.7743 220.86 20.084V20.521H217.522V19.8045H219.837V19.7257C219.831 19.5604 219.8 19.4094 219.742 19.273C219.684 19.1339 219.595 19.0236 219.474 18.9423C219.354 18.8583 219.198 18.8163 219.006 18.8163C218.851 18.8163 218.716 18.8504 218.6 18.9186C218.488 18.9842 218.393 19.0787 218.317 19.2021C218.243 19.3228 218.188 19.4672 218.152 19.6352C218.115 19.8031 218.097 19.9895 218.097 20.1942V20.3517C218.097 20.5302 218.12 20.6955 218.167 20.8478C218.217 21 218.289 21.1325 218.384 21.2454C218.481 21.3556 218.597 21.4422 218.73 21.5052C218.867 21.5656 219.022 21.5958 219.195 21.5958C219.413 21.5958 219.61 21.5538 219.785 21.4698C219.964 21.3832 220.119 21.2559 220.25 21.0879L220.774 21.6312C220.684 21.7624 220.564 21.8884 220.411 22.0092C220.262 22.1299 220.081 22.2283 219.868 22.3044C219.656 22.3779 219.41 22.4147 219.132 22.4147ZM222.82 18.9462V22.3359H221.781V18.0761H222.765L222.82 18.9462ZM224.116 18.0486L224.1 19.0171C224.042 19.0066 223.977 18.9987 223.903 18.9934C223.832 18.9882 223.765 18.9856 223.702 18.9856C223.542 18.9856 223.402 19.0079 223.281 19.0525C223.16 19.0945 223.059 19.1562 222.978 19.2375C222.899 19.3189 222.839 19.4186 222.797 19.5367C222.755 19.6522 222.731 19.7835 222.726 19.9304L222.502 19.9029C222.502 19.6325 222.529 19.3819 222.584 19.1509C222.639 18.9199 222.719 18.7178 222.824 18.5446C222.929 18.3714 223.061 18.2375 223.218 18.143C223.378 18.0459 223.562 17.9974 223.769 17.9974C223.827 17.9974 223.889 18.0026 223.954 18.0131C224.023 18.021 224.076 18.0328 224.116 18.0486Z" fill="#F6F1F2"/>
<path d="M299.688 20.8478C299.688 20.7375 299.671 20.6391 299.637 20.5525C299.606 20.4632 299.547 20.3832 299.46 20.3123C299.376 20.2388 299.257 20.168 299.102 20.0997C298.95 20.0289 298.753 19.9554 298.511 19.8793C298.244 19.7953 297.994 19.7008 297.763 19.5958C297.532 19.4908 297.329 19.3688 297.153 19.2297C296.98 19.0905 296.845 18.9304 296.748 18.7493C296.65 18.5656 296.602 18.353 296.602 18.1115C296.602 17.8753 296.652 17.6601 296.751 17.4659C296.854 17.2717 296.998 17.105 297.185 16.9659C297.371 16.8242 297.59 16.7152 297.842 16.6391C298.097 16.563 298.377 16.5249 298.685 16.5249C299.11 16.5249 299.477 16.6024 299.787 16.7572C300.099 16.9121 300.341 17.1221 300.511 17.3871C300.682 17.6522 300.767 17.9501 300.767 18.2808H299.688C299.688 18.1024 299.65 17.9449 299.574 17.8084C299.501 17.6719 299.388 17.5643 299.236 17.4856C299.086 17.4068 298.897 17.3675 298.669 17.3675C298.448 17.3675 298.265 17.4003 298.118 17.4659C297.973 17.5315 297.864 17.6207 297.791 17.7336C297.72 17.8465 297.685 17.9724 297.685 18.1115C297.685 18.2165 297.709 18.311 297.759 18.395C297.809 18.4764 297.884 18.5538 297.984 18.6273C298.083 18.6982 298.207 18.7651 298.354 18.8281C298.503 18.8884 298.677 18.9488 298.873 19.0092C299.188 19.1037 299.464 19.2087 299.7 19.3241C299.939 19.4396 300.137 19.5709 300.295 19.7178C300.455 19.8648 300.574 20.0302 300.653 20.2139C300.734 20.3976 300.775 20.6063 300.775 20.8399C300.775 21.0866 300.727 21.3071 300.629 21.5013C300.532 21.6955 300.393 21.8609 300.212 21.9974C300.031 22.1338 299.813 22.2375 299.559 22.3084C299.307 22.3792 299.024 22.4147 298.712 22.4147C298.434 22.4147 298.158 22.3779 297.885 22.3044C297.615 22.2283 297.37 22.1155 297.149 21.9659C296.929 21.8136 296.753 21.622 296.622 21.3911C296.49 21.1575 296.425 20.8845 296.425 20.5722H297.511C297.511 20.7533 297.54 20.9081 297.598 21.0367C297.658 21.1627 297.742 21.2664 297.85 21.3478C297.96 21.4265 298.089 21.4842 298.236 21.521C298.383 21.5577 298.541 21.5761 298.712 21.5761C298.933 21.5761 299.114 21.5459 299.255 21.4855C299.4 21.4226 299.507 21.3359 299.578 21.2257C299.652 21.1155 299.688 20.9895 299.688 20.8478ZM303.771 18.0761V18.8241H301.33V18.0761H303.771ZM301.983 17.0289H303.027V21.1076C303.027 21.2336 303.044 21.3307 303.078 21.3989C303.112 21.4672 303.163 21.5131 303.231 21.5367C303.3 21.5604 303.381 21.5722 303.475 21.5722C303.544 21.5722 303.607 21.5682 303.664 21.5604C303.722 21.5525 303.771 21.5446 303.81 21.5367L303.814 22.3163C303.727 22.3451 303.629 22.3687 303.519 22.3871C303.411 22.4055 303.289 22.4147 303.153 22.4147C302.919 22.4147 302.714 22.3753 302.538 22.2966C302.363 22.2152 302.226 22.0853 302.129 21.9068C302.032 21.7257 301.983 21.4869 301.983 21.1903V17.0289ZM307.034 21.4304V19.4659C307.034 19.3215 307.009 19.1968 306.959 19.0919C306.909 18.9869 306.833 18.9055 306.731 18.8478C306.628 18.79 306.499 18.7612 306.341 18.7612C306.202 18.7612 306.08 18.7848 305.975 18.832C305.873 18.8793 305.794 18.9462 305.739 19.0328C305.684 19.1168 305.656 19.2139 305.656 19.3241H304.613C304.613 19.1483 304.655 18.9816 304.739 18.8241C304.823 18.664 304.942 18.5223 305.097 18.3989C305.254 18.273 305.442 18.1745 305.66 18.1037C305.88 18.0328 306.127 17.9974 306.4 17.9974C306.723 17.9974 307.01 18.0525 307.262 18.1627C307.517 18.2703 307.716 18.4331 307.861 18.6509C308.008 18.8688 308.081 19.143 308.081 19.4737V21.332C308.081 21.5446 308.094 21.727 308.121 21.8792C308.149 22.0289 308.191 22.1588 308.247 22.269V22.3359H307.188C307.138 22.2283 307.1 22.0918 307.073 21.9265C307.047 21.7585 307.034 21.5932 307.034 21.4304ZM307.18 19.7415L307.188 20.3596H306.53C306.367 20.3596 306.224 20.3766 306.101 20.4107C305.978 20.4422 305.877 20.4895 305.798 20.5525C305.719 20.6128 305.66 20.6863 305.621 20.773C305.581 20.8569 305.562 20.9527 305.562 21.0604C305.562 21.1653 305.585 21.2598 305.632 21.3438C305.682 21.4278 305.753 21.4947 305.845 21.5446C305.94 21.5918 306.05 21.6155 306.176 21.6155C306.359 21.6155 306.52 21.5787 306.656 21.5052C306.793 21.4291 306.899 21.3373 306.975 21.2296C307.051 21.122 307.092 21.0197 307.097 20.9226L307.396 21.3714C307.359 21.479 307.304 21.5932 307.231 21.7139C307.157 21.8346 307.063 21.9475 306.947 22.0525C306.832 22.1575 306.693 22.2441 306.53 22.3123C306.367 22.3806 306.178 22.4147 305.963 22.4147C305.688 22.4147 305.441 22.3596 305.223 22.2493C305.005 22.1391 304.833 21.9882 304.707 21.7966C304.581 21.605 304.518 21.3871 304.518 21.143C304.518 20.9173 304.56 20.7178 304.644 20.5446C304.728 20.3714 304.853 20.2257 305.018 20.1076C305.184 19.9869 305.388 19.8963 305.632 19.8359C305.879 19.773 306.161 19.7415 306.479 19.7415H307.18ZM310.262 18.9856V22.3359H309.223V18.0761H310.199L310.262 18.9856ZM310.097 20.0525H309.789C309.792 19.7428 309.834 19.4619 309.915 19.21C309.997 18.958 310.111 18.7415 310.258 18.5604C310.408 18.3793 310.585 18.2402 310.789 18.143C310.994 18.0459 311.223 17.9974 311.474 17.9974C311.679 17.9974 311.864 18.0262 312.03 18.084C312.195 18.1417 312.337 18.2336 312.455 18.3596C312.576 18.4856 312.667 18.6509 312.73 18.8556C312.796 19.0577 312.829 19.3071 312.829 19.6037V22.3359H311.782V19.5958C311.782 19.4016 311.753 19.248 311.695 19.1352C311.64 19.0223 311.558 18.9423 311.451 18.895C311.346 18.8478 311.216 18.8241 311.061 18.8241C310.901 18.8241 310.761 18.857 310.64 18.9226C310.522 18.9856 310.422 19.0735 310.341 19.1863C310.262 19.2992 310.202 19.4291 310.16 19.5761C310.118 19.7231 310.097 19.8819 310.097 20.0525ZM316.525 21.4304V16.2887H317.572V22.3359H316.628L316.525 21.4304ZM313.789 20.2572V20.1745C313.789 19.8491 313.826 19.5538 313.899 19.2887C313.975 19.021 314.086 18.7913 314.23 18.5997C314.374 18.4081 314.549 18.2598 314.754 18.1549C314.961 18.0499 315.196 17.9974 315.458 17.9974C315.713 17.9974 315.935 18.0486 316.124 18.1509C316.315 18.2533 316.478 18.3989 316.612 18.5879C316.748 18.7769 316.857 19.0013 316.939 19.2611C317.02 19.5184 317.079 19.8018 317.116 20.1115V20.3359C317.079 20.6378 317.02 20.9147 316.939 21.1667C316.857 21.4186 316.748 21.6391 316.612 21.8281C316.478 22.0144 316.315 22.1588 316.124 22.2611C315.932 22.3635 315.708 22.4147 315.45 22.4147C315.191 22.4147 314.957 22.3609 314.75 22.2533C314.545 22.1456 314.37 21.9947 314.226 21.8005C314.084 21.6063 313.975 21.3779 313.899 21.1155C313.826 20.853 313.789 20.5669 313.789 20.2572ZM314.832 20.1745V20.2572C314.832 20.4409 314.848 20.6128 314.88 20.773C314.911 20.9331 314.962 21.0748 315.033 21.1981C315.104 21.3189 315.195 21.4134 315.305 21.4816C315.418 21.5499 315.554 21.584 315.714 21.584C315.919 21.584 316.087 21.5394 316.218 21.4501C316.352 21.3583 316.456 21.2336 316.529 21.0761C316.603 20.916 316.65 20.7362 316.671 20.5367V19.9186C316.66 19.7611 316.633 19.6155 316.588 19.4816C316.546 19.3478 316.486 19.2323 316.407 19.1352C316.331 19.0381 316.236 18.9619 316.124 18.9068C316.011 18.8517 315.877 18.8241 315.722 18.8241C315.562 18.8241 315.425 18.8596 315.313 18.9304C315.2 18.9987 315.108 19.0945 315.037 19.2178C314.966 19.3412 314.914 19.4842 314.88 19.647C314.848 19.8097 314.832 19.9856 314.832 20.1745ZM321.084 21.4304V19.4659C321.084 19.3215 321.059 19.1968 321.009 19.0919C320.959 18.9869 320.883 18.9055 320.781 18.8478C320.678 18.79 320.548 18.7612 320.391 18.7612C320.252 18.7612 320.13 18.7848 320.025 18.832C319.922 18.8793 319.844 18.9462 319.789 19.0328C319.733 19.1168 319.706 19.2139 319.706 19.3241H318.663C318.663 19.1483 318.705 18.9816 318.789 18.8241C318.873 18.664 318.992 18.5223 319.147 18.3989C319.304 18.273 319.492 18.1745 319.71 18.1037C319.93 18.0328 320.177 17.9974 320.45 17.9974C320.773 17.9974 321.06 18.0525 321.312 18.1627C321.567 18.2703 321.766 18.4331 321.911 18.6509C322.058 18.8688 322.131 19.143 322.131 19.4737V21.332C322.131 21.5446 322.144 21.727 322.17 21.8792C322.199 22.0289 322.241 22.1588 322.296 22.269V22.3359H321.237C321.187 22.2283 321.149 22.0918 321.123 21.9265C321.097 21.7585 321.084 21.5932 321.084 21.4304ZM321.229 19.7415L321.237 20.3596H320.58C320.417 20.3596 320.274 20.3766 320.151 20.4107C320.027 20.4422 319.926 20.4895 319.848 20.5525C319.769 20.6128 319.71 20.6863 319.67 20.773C319.631 20.8569 319.611 20.9527 319.611 21.0604C319.611 21.1653 319.635 21.2598 319.682 21.3438C319.732 21.4278 319.803 21.4947 319.895 21.5446C319.989 21.5918 320.1 21.6155 320.226 21.6155C320.409 21.6155 320.569 21.5787 320.706 21.5052C320.842 21.4291 320.949 21.3373 321.025 21.2296C321.101 21.122 321.142 21.0197 321.147 20.9226L321.446 21.3714C321.409 21.479 321.354 21.5932 321.281 21.7139C321.207 21.8346 321.113 21.9475 320.997 22.0525C320.882 22.1575 320.743 22.2441 320.58 22.3123C320.417 22.3806 320.228 22.4147 320.013 22.4147C319.737 22.4147 319.491 22.3596 319.273 22.2493C319.055 22.1391 318.883 21.9882 318.757 21.7966C318.631 21.605 318.568 21.3871 318.568 21.143C318.568 20.9173 318.61 20.7178 318.694 20.5446C318.778 20.3714 318.903 20.2257 319.068 20.1076C319.233 19.9869 319.438 19.8963 319.682 19.8359C319.929 19.773 320.211 19.7415 320.529 19.7415H321.229ZM324.331 18.9462V22.3359H323.292V18.0761H324.276L324.331 18.9462ZM325.627 18.0486L325.611 19.0171C325.553 19.0066 325.488 18.9987 325.414 18.9934C325.343 18.9882 325.276 18.9856 325.213 18.9856C325.053 18.9856 324.913 19.0079 324.792 19.0525C324.671 19.0945 324.57 19.1562 324.489 19.2375C324.41 19.3189 324.35 19.4186 324.308 19.5367C324.266 19.6522 324.242 19.7835 324.237 19.9304L324.012 19.9029C324.012 19.6325 324.04 19.3819 324.095 19.1509C324.15 18.9199 324.23 18.7178 324.335 18.5446C324.44 18.3714 324.572 18.2375 324.729 18.143C324.889 18.0459 325.073 17.9974 325.28 17.9974C325.338 17.9974 325.4 18.0026 325.465 18.0131C325.533 18.021 325.587 18.0328 325.627 18.0486ZM328.898 21.4304V16.2887H329.945V22.3359H329L328.898 21.4304ZM326.162 20.2572V20.1745C326.162 19.8491 326.198 19.5538 326.272 19.2887C326.348 19.021 326.458 18.7913 326.603 18.5997C326.747 18.4081 326.921 18.2598 327.126 18.1549C327.334 18.0499 327.568 17.9974 327.831 17.9974C328.086 17.9974 328.307 18.0486 328.496 18.1509C328.688 18.2533 328.851 18.3989 328.984 18.5879C329.121 18.7769 329.23 19.0013 329.311 19.2611C329.393 19.5184 329.452 19.8018 329.488 20.1115V20.3359C329.452 20.6378 329.393 20.9147 329.311 21.1667C329.23 21.4186 329.121 21.6391 328.984 21.8281C328.851 22.0144 328.688 22.1588 328.496 22.2611C328.305 22.3635 328.08 22.4147 327.823 22.4147C327.563 22.4147 327.33 22.3609 327.122 22.2533C326.918 22.1456 326.743 21.9947 326.599 21.8005C326.457 21.6063 326.348 21.3779 326.272 21.1155C326.198 20.853 326.162 20.5669 326.162 20.2572ZM327.205 20.1745V20.2572C327.205 20.4409 327.221 20.6128 327.252 20.773C327.284 20.9331 327.335 21.0748 327.406 21.1981C327.477 21.3189 327.567 21.4134 327.677 21.4816C327.79 21.5499 327.927 21.584 328.087 21.584C328.292 21.584 328.46 21.5394 328.591 21.4501C328.725 21.3583 328.828 21.2336 328.902 21.0761C328.975 20.916 329.023 20.7362 329.044 20.5367V19.9186C329.033 19.7611 329.005 19.6155 328.961 19.4816C328.919 19.3478 328.858 19.2323 328.78 19.1352C328.704 19.0381 328.609 18.9619 328.496 18.9068C328.383 18.8517 328.25 18.8241 328.095 18.8241C327.935 18.8241 327.798 18.8596 327.685 18.9304C327.572 18.9987 327.481 19.0945 327.41 19.2178C327.339 19.3412 327.286 19.4842 327.252 19.647C327.221 19.8097 327.205 19.9856 327.205 20.1745ZM336.61 16.6037H337.692V20.4107C337.692 20.8491 337.598 21.2178 337.409 21.517C337.22 21.8136 336.963 22.038 336.637 22.1903C336.312 22.3399 335.942 22.4147 335.527 22.4147C335.107 22.4147 334.733 22.3399 334.405 22.1903C334.077 22.038 333.82 21.8136 333.633 21.517C333.447 21.2178 333.354 20.8491 333.354 20.4107V16.6037H334.436V20.4107C334.436 20.6785 334.481 20.8976 334.57 21.0682C334.659 21.2362 334.785 21.3609 334.948 21.4422C335.111 21.5236 335.304 21.5643 335.527 21.5643C335.753 21.5643 335.946 21.5236 336.106 21.4422C336.268 21.3609 336.393 21.2362 336.48 21.0682C336.566 20.8976 336.61 20.6785 336.61 20.4107V16.6037ZM341.208 21.1706C341.208 21.0814 341.184 21.0013 341.137 20.9304C341.089 20.8596 341 20.7953 340.869 20.7375C340.74 20.6772 340.551 20.6207 340.302 20.5682C340.082 20.521 339.878 20.4619 339.692 20.3911C339.505 20.3202 339.345 20.2349 339.211 20.1352C339.078 20.0328 338.973 19.9134 338.896 19.7769C338.823 19.6378 338.786 19.4777 338.786 19.2966C338.786 19.1207 338.824 18.9554 338.9 18.8005C338.977 18.643 339.087 18.5052 339.231 18.3871C339.375 18.2664 339.551 18.1719 339.759 18.1037C339.966 18.0328 340.2 17.9974 340.459 17.9974C340.822 17.9974 341.133 18.0564 341.393 18.1745C341.655 18.2926 341.856 18.4554 341.995 18.6627C342.134 18.8674 342.204 19.0984 342.204 19.3556H341.164C341.164 19.2428 341.138 19.1404 341.085 19.0486C341.036 18.9567 340.958 18.8832 340.853 18.8281C340.748 18.7703 340.616 18.7415 340.456 18.7415C340.311 18.7415 340.189 18.7651 340.089 18.8123C339.992 18.8596 339.919 18.9213 339.869 18.9974C339.819 19.0735 339.794 19.1575 339.794 19.2493C339.794 19.3176 339.807 19.3793 339.833 19.4344C339.862 19.4869 339.908 19.5354 339.971 19.58C340.034 19.6247 340.12 19.6653 340.227 19.7021C340.337 19.7388 340.473 19.7743 340.633 19.8084C340.95 19.8714 341.227 19.9554 341.463 20.0604C341.702 20.1627 341.889 20.2992 342.022 20.4698C342.156 20.6404 342.223 20.8583 342.223 21.1233C342.223 21.3123 342.183 21.4855 342.101 21.643C342.02 21.7979 341.902 21.9331 341.747 22.0485C341.592 22.164 341.407 22.2546 341.192 22.3202C340.977 22.3832 340.734 22.4147 340.463 22.4147C340.072 22.4147 339.742 22.3451 339.471 22.206C339.201 22.0643 338.996 21.8858 338.857 21.6706C338.718 21.4527 338.648 21.227 338.648 20.9934H339.645C339.652 21.1588 339.697 21.2913 339.778 21.3911C339.86 21.4908 339.962 21.563 340.085 21.6076C340.211 21.6496 340.344 21.6706 340.483 21.6706C340.641 21.6706 340.773 21.6496 340.881 21.6076C340.988 21.563 341.07 21.5039 341.125 21.4304C341.18 21.3543 341.208 21.2677 341.208 21.1706ZM345.152 22.4147C344.829 22.4147 344.539 22.3622 344.282 22.2572C344.025 22.1522 343.805 22.0065 343.624 21.8202C343.446 21.6312 343.308 21.4121 343.211 21.1627C343.117 20.9107 343.069 20.6404 343.069 20.3517V20.1942C343.069 19.8661 343.117 19.5682 343.211 19.3005C343.305 19.0302 343.439 18.7979 343.613 18.6037C343.786 18.4094 343.993 18.2598 344.235 18.1549C344.476 18.0499 344.742 17.9974 345.034 17.9974C345.336 17.9974 345.602 18.0486 345.833 18.1509C346.064 18.2507 346.257 18.3924 346.412 18.5761C346.567 18.7598 346.683 18.9803 346.762 19.2375C346.841 19.4921 346.88 19.7743 346.88 20.084V20.521H343.542V19.8045H345.857V19.7257C345.851 19.5604 345.82 19.4094 345.762 19.273C345.704 19.1339 345.615 19.0236 345.494 18.9423C345.374 18.8583 345.218 18.8163 345.026 18.8163C344.871 18.8163 344.736 18.8504 344.62 18.9186C344.508 18.9842 344.413 19.0787 344.337 19.2021C344.263 19.3228 344.208 19.4672 344.172 19.6352C344.135 19.8031 344.117 19.9895 344.117 20.1942V20.3517C344.117 20.5302 344.14 20.6955 344.187 20.8478C344.237 21 344.309 21.1325 344.404 21.2454C344.501 21.3556 344.617 21.4422 344.75 21.5052C344.887 21.5656 345.042 21.5958 345.215 21.5958C345.433 21.5958 345.63 21.5538 345.805 21.4698C345.984 21.3832 346.139 21.2559 346.27 21.0879L346.794 21.6312C346.704 21.7624 346.584 21.8884 346.431 22.0092C346.282 22.1299 346.101 22.2283 345.888 22.3044C345.676 22.3779 345.43 22.4147 345.152 22.4147ZM348.84 18.9462V22.3359H347.801V18.0761H348.785L348.84 18.9462ZM350.136 18.0486L350.12 19.0171C350.062 19.0066 349.997 18.9987 349.923 18.9934C349.852 18.9882 349.785 18.9856 349.722 18.9856C349.562 18.9856 349.422 19.0079 349.301 19.0525C349.18 19.0945 349.079 19.1562 348.998 19.2375C348.919 19.3189 348.859 19.4186 348.817 19.5367C348.775 19.6522 348.751 19.7835 348.746 19.9304L348.522 19.9029C348.522 19.6325 348.549 19.3819 348.604 19.1509C348.659 18.9199 348.739 18.7178 348.844 18.5446C348.949 18.3714 349.081 18.2375 349.238 18.143C349.398 18.0459 349.582 17.9974 349.789 17.9974C349.847 17.9974 349.909 18.0026 349.974 18.0131C350.043 18.021 350.096 18.0328 350.136 18.0486Z" fill="#F6F1F2"/>
<path d="M14.334 36.0859L355.666 36.0859" stroke="url(#paint0_linear_11984_8023)" stroke-width="0.447942" stroke-linecap="round"/>
<path d="M17.6411 61.9934C17.6411 61.8744 17.6224 61.7694 17.5851 61.6785C17.5501 61.5851 17.4871 61.5011 17.3961 61.4265C17.3074 61.3518 17.1838 61.2807 17.0251 61.213C16.8688 61.1454 16.6705 61.0765 16.4302 61.0065C16.1782 60.9319 15.9508 60.8491 15.7478 60.7581C15.5448 60.6648 15.371 60.5586 15.2264 60.4396C15.0817 60.3206 14.9709 60.1842 14.8939 60.0302C14.8169 59.8762 14.7784 59.7 14.7784 59.5017C14.7784 59.3034 14.8193 59.1203 14.9009 58.9523C14.9826 58.7843 15.0992 58.6385 15.2509 58.5149C15.4048 58.3889 15.588 58.2909 15.8003 58.2209C16.0126 58.1509 16.2494 58.1159 16.5107 58.1159C16.8933 58.1159 17.2176 58.1894 17.4836 58.3364C17.7519 58.481 17.956 58.6712 18.096 58.9068C18.236 59.1401 18.306 59.3898 18.306 59.6557H17.6341C17.6341 59.4644 17.5932 59.2953 17.5116 59.1483C17.4299 58.999 17.3063 58.8823 17.1406 58.7983C16.975 58.712 16.765 58.6688 16.5107 58.6688C16.2704 58.6688 16.0721 58.705 15.9158 58.7773C15.7595 58.8497 15.6428 58.9476 15.5658 59.0713C15.4912 59.1949 15.4538 59.3361 15.4538 59.4947C15.4538 59.6021 15.476 59.7 15.5203 59.7887C15.567 59.875 15.6381 59.9555 15.7338 60.0302C15.8318 60.1048 15.9554 60.1737 16.1048 60.2366C16.2564 60.2996 16.4372 60.3603 16.6472 60.4186C16.9365 60.5003 17.1861 60.5913 17.3961 60.6916C17.6061 60.7919 17.7787 60.9051 17.914 61.031C18.0517 61.1547 18.1532 61.2958 18.2185 61.4545C18.2861 61.6108 18.32 61.7881 18.32 61.9864C18.32 62.1941 18.278 62.3819 18.194 62.5498C18.11 62.7178 17.9898 62.8613 17.8335 62.9803C17.6772 63.0993 17.4894 63.1914 17.2701 63.2568C17.0531 63.3197 16.8105 63.3512 16.5422 63.3512C16.3066 63.3512 16.0744 63.3186 15.8458 63.2533C15.6195 63.1879 15.413 63.0899 15.2264 62.9593C15.0421 62.8286 14.8939 62.6677 14.7819 62.4764C14.6723 62.2827 14.6174 62.0587 14.6174 61.8044H15.2894C15.2894 61.9794 15.3232 62.1299 15.3908 62.2559C15.4585 62.3795 15.5507 62.4822 15.6673 62.5638C15.7863 62.6455 15.9204 62.7062 16.0698 62.7458C16.2214 62.7831 16.3789 62.8018 16.5422 62.8018C16.7778 62.8018 16.9773 62.7691 17.1406 62.7038C17.3039 62.6385 17.4276 62.5452 17.5116 62.4239C17.5979 62.3025 17.6411 62.1591 17.6411 61.9934ZM20.0102 59.4947V63.2812H19.3593V59.4947H20.0102ZM19.3103 58.4904C19.3103 58.3854 19.3418 58.2967 19.4048 58.2244C19.4702 58.1521 19.5658 58.1159 19.6918 58.1159C19.8154 58.1159 19.9099 58.1521 19.9753 58.2244C20.0429 58.2967 20.0767 58.3854 20.0767 58.4904C20.0767 58.5907 20.0429 58.677 19.9753 58.7493C19.9099 58.8193 19.8154 58.8543 19.6918 58.8543C19.5658 58.8543 19.4702 58.8193 19.4048 58.7493C19.3418 58.677 19.3103 58.5907 19.3103 58.4904ZM21.977 57.9059V63.2812H21.3261V57.9059H21.977ZM24.8116 63.3512C24.548 63.3512 24.3089 63.3069 24.0942 63.2183C23.8819 63.1273 23.6988 63.0001 23.5448 62.8368C23.3931 62.6735 23.2765 62.4799 23.1948 62.2559C23.1132 62.0319 23.0724 61.7869 23.0724 61.521V61.374C23.0724 61.066 23.1178 60.7919 23.2088 60.5516C23.2998 60.309 23.4235 60.1037 23.5798 59.9357C23.7361 59.7677 23.9134 59.6406 24.1117 59.5542C24.31 59.4679 24.5153 59.4248 24.7276 59.4248C24.9983 59.4248 25.2316 59.4714 25.4275 59.5647C25.6259 59.6581 25.788 59.7887 25.914 59.9567C26.04 60.1223 26.1333 60.3183 26.1939 60.5446C26.2546 60.7686 26.2849 61.0135 26.2849 61.2795V61.57H23.4573V61.0415H25.6375V60.9925C25.6282 60.8246 25.5932 60.6613 25.5325 60.5026C25.4742 60.344 25.3809 60.2133 25.2526 60.1107C25.1243 60.008 24.9493 59.9567 24.7276 59.9567C24.5807 59.9567 24.4453 59.9882 24.3217 60.0512C24.198 60.1118 24.0919 60.2028 24.0032 60.3241C23.9146 60.4455 23.8458 60.5936 23.7968 60.7686C23.7478 60.9436 23.7233 61.1454 23.7233 61.374V61.521C23.7233 61.7006 23.7478 61.8698 23.7968 62.0284C23.8481 62.1847 23.9216 62.3224 24.0172 62.4414C24.1152 62.5603 24.233 62.6537 24.3707 62.7213C24.5107 62.789 24.6693 62.8228 24.8466 62.8228C25.0753 62.8228 25.2689 62.7761 25.4275 62.6828C25.5862 62.5895 25.725 62.4647 25.844 62.3084L26.2359 62.6198C26.1543 62.7435 26.0505 62.8613 25.9245 62.9733C25.7985 63.0853 25.6434 63.1763 25.459 63.2463C25.2771 63.3162 25.0613 63.3512 24.8116 63.3512ZM27.9122 60.3031V63.2812H27.2648V59.4947H27.8772L27.9122 60.3031ZM27.7582 61.2445L27.4888 61.234C27.4911 60.975 27.5296 60.7359 27.6043 60.5166C27.6789 60.295 27.7839 60.1025 27.9192 59.9392C28.0545 59.7759 28.2155 59.6499 28.4022 59.5612C28.5911 59.4702 28.7999 59.4248 29.0286 59.4248C29.2152 59.4248 29.3832 59.4504 29.5325 59.5017C29.6818 59.5507 29.809 59.6301 29.914 59.7397C30.0213 59.8494 30.1029 59.9917 30.1589 60.1667C30.2149 60.3393 30.2429 60.5504 30.2429 60.8001V63.2812H29.592V60.7931C29.592 60.5948 29.5628 60.4361 29.5045 60.3171C29.4462 60.1958 29.361 60.1083 29.249 60.0547C29.1371 59.9987 28.9994 59.9707 28.8361 59.9707C28.6751 59.9707 28.5281 60.0045 28.3952 60.0722C28.2645 60.1398 28.1514 60.2331 28.0557 60.3521C27.9624 60.4711 27.8889 60.6076 27.8352 60.7616C27.7839 60.9132 27.7582 61.0742 27.7582 61.2445ZM33.0356 59.4947V59.9917H30.9883V59.4947H33.0356ZM31.6812 58.5744H32.3286V62.3434C32.3286 62.4717 32.3485 62.5685 32.3881 62.6338C32.4278 62.6992 32.4791 62.7423 32.5421 62.7633C32.6051 62.7843 32.6728 62.7948 32.7451 62.7948C32.7988 62.7948 32.8547 62.7901 32.9131 62.7808C32.9737 62.7691 33.0192 62.7598 33.0496 62.7528L33.0531 63.2812C33.0017 63.2976 32.9341 63.3127 32.8501 63.3267C32.7684 63.3431 32.6693 63.3512 32.5526 63.3512C32.394 63.3512 32.2482 63.3197 32.1152 63.2568C31.9822 63.1938 31.876 63.0888 31.7967 62.9418C31.7197 62.7925 31.6812 62.5918 31.6812 62.3399V58.5744ZM37.9979 61.283H36.6366V60.7336H37.9979C38.2615 60.7336 38.475 60.6916 38.6383 60.6076C38.8016 60.5236 38.9206 60.407 38.9953 60.2576C39.0723 60.1083 39.1108 59.938 39.1108 59.7467C39.1108 59.5717 39.0723 59.4073 38.9953 59.2533C38.9206 59.0993 38.8016 58.9756 38.6383 58.8823C38.475 58.7867 38.2615 58.7388 37.9979 58.7388H36.7941V63.2812H36.1187V58.1859H37.9979C38.3829 58.1859 38.7083 58.2524 38.9743 58.3854C39.2403 58.5184 39.4421 58.7027 39.5797 58.9383C39.7174 59.1716 39.7862 59.4387 39.7862 59.7397C39.7862 60.0663 39.7174 60.3451 39.5797 60.5761C39.4421 60.8071 39.2403 60.9832 38.9743 61.1045C38.7083 61.2235 38.3829 61.283 37.9979 61.283ZM42.9568 62.6338V60.6846C42.9568 60.5353 42.9264 60.4058 42.8658 60.2961C42.8075 60.1842 42.7188 60.0978 42.5998 60.0372C42.4808 59.9765 42.3339 59.9462 42.1589 59.9462C41.9956 59.9462 41.8521 59.9742 41.7284 60.0302C41.6071 60.0862 41.5115 60.1597 41.4415 60.2506C41.3738 60.3416 41.34 60.4396 41.34 60.5446H40.6926C40.6926 60.4093 40.7276 60.2751 40.7975 60.1422C40.8675 60.0092 40.9679 59.889 41.0985 59.7817C41.2315 59.6721 41.3901 59.5857 41.5744 59.5227C41.7611 59.4574 41.9687 59.4248 42.1974 59.4248C42.4727 59.4248 42.7153 59.4714 42.9253 59.5647C43.1376 59.6581 43.3032 59.7992 43.4222 59.9882C43.5435 60.1748 43.6042 60.4093 43.6042 60.6916V62.4554C43.6042 62.5813 43.6147 62.7155 43.6357 62.8578C43.659 63.0001 43.6928 63.1226 43.7372 63.2253V63.2812H43.0618C43.0291 63.2066 43.0034 63.1074 42.9848 62.9838C42.9661 62.8578 42.9568 62.7412 42.9568 62.6338ZM43.0688 60.9855L43.0758 61.4405H42.4213C42.237 61.4405 42.0726 61.4557 41.9279 61.486C41.7833 61.514 41.6619 61.5571 41.564 61.6155C41.466 61.6738 41.3913 61.7473 41.34 61.8359C41.2887 61.9223 41.263 62.0237 41.263 62.1404C41.263 62.2594 41.2898 62.3679 41.3435 62.4659C41.3971 62.5638 41.4776 62.642 41.5849 62.7003C41.6946 62.7563 41.8287 62.7843 41.9874 62.7843C42.1857 62.7843 42.3607 62.7423 42.5123 62.6583C42.664 62.5743 42.7841 62.4717 42.8728 62.3504C42.9638 62.2291 43.0128 62.1112 43.0198 61.9969L43.2962 62.3084C43.2799 62.4064 43.2356 62.5148 43.1632 62.6338C43.0909 62.7528 42.9941 62.8671 42.8728 62.9768C42.7538 63.0841 42.6115 63.1739 42.4458 63.2463C42.2825 63.3162 42.0982 63.3512 41.8929 63.3512C41.6363 63.3512 41.4111 63.3011 41.2175 63.2008C41.0262 63.1004 40.8769 62.9663 40.7696 62.7983C40.6646 62.628 40.6121 62.4379 40.6121 62.2279C40.6121 62.0249 40.6517 61.8464 40.7311 61.6925C40.8104 61.5361 40.9247 61.4067 41.074 61.304C41.2233 61.199 41.403 61.1197 41.6129 61.066C41.8229 61.0124 42.0574 60.9855 42.3164 60.9855H43.0688ZM47.0512 62.2769C47.0512 62.1836 47.0302 62.0972 46.9882 62.0179C46.9486 61.9363 46.8658 61.8628 46.7398 61.7974C46.6161 61.7298 46.4295 61.6715 46.1799 61.6225C45.9699 61.5781 45.7797 61.5256 45.6094 61.465C45.4414 61.4043 45.298 61.3308 45.179 61.2445C45.0623 61.1582 44.9725 61.0567 44.9095 60.9401C44.8465 60.8234 44.815 60.6869 44.815 60.5306C44.815 60.3813 44.8477 60.2401 44.913 60.1072C44.9807 59.9742 45.0752 59.8564 45.1965 59.7537C45.3201 59.6511 45.4683 59.5706 45.6409 59.5122C45.8136 59.4539 46.006 59.4248 46.2183 59.4248C46.5216 59.4248 46.7806 59.4784 46.9952 59.5857C47.2099 59.693 47.3744 59.8365 47.4887 60.0162C47.603 60.1935 47.6602 60.3906 47.6602 60.6076H47.0127C47.0127 60.5026 46.9812 60.4011 46.9183 60.3031C46.8576 60.2028 46.7678 60.12 46.6488 60.0547C46.5321 59.9893 46.3887 59.9567 46.2183 59.9567C46.0387 59.9567 45.8929 59.9847 45.7809 60.0407C45.6713 60.0943 45.5908 60.1632 45.5394 60.2471C45.4904 60.3311 45.4659 60.4198 45.4659 60.5131C45.4659 60.5831 45.4776 60.6461 45.5009 60.7021C45.5266 60.7557 45.5709 60.8059 45.6339 60.8526C45.6969 60.8969 45.7856 60.9389 45.8999 60.9785C46.0142 61.0182 46.16 61.0579 46.3373 61.0975C46.6476 61.1675 46.9031 61.2515 47.1037 61.3495C47.3044 61.4475 47.4537 61.5676 47.5517 61.71C47.6497 61.8523 47.6987 62.0249 47.6987 62.2279C47.6987 62.3935 47.6637 62.5452 47.5937 62.6828C47.526 62.8205 47.4269 62.9395 47.2962 63.0398C47.1679 63.1378 47.0139 63.2148 46.8343 63.2708C46.657 63.3244 46.4575 63.3512 46.2358 63.3512C45.9022 63.3512 45.6199 63.2917 45.389 63.1728C45.158 63.0538 44.983 62.8998 44.864 62.7108C44.745 62.5218 44.6855 62.3224 44.6855 62.1124H45.3365C45.3458 62.2897 45.3971 62.4309 45.4904 62.5358C45.5838 62.6385 45.6981 62.712 45.8334 62.7563C45.9687 62.7983 46.1029 62.8193 46.2358 62.8193C46.4132 62.8193 46.5613 62.796 46.6803 62.7493C46.8016 62.7027 46.8938 62.6385 46.9568 62.5568C47.0197 62.4752 47.0512 62.3819 47.0512 62.2769ZM50.9777 62.2769C50.9777 62.1836 50.9567 62.0972 50.9147 62.0179C50.8751 61.9363 50.7923 61.8628 50.6663 61.7974C50.5426 61.7298 50.356 61.6715 50.1063 61.6225C49.8964 61.5781 49.7062 61.5256 49.5359 61.465C49.3679 61.4043 49.2245 61.3308 49.1055 61.2445C48.9888 61.1582 48.899 61.0567 48.836 60.9401C48.773 60.8234 48.7415 60.6869 48.7415 60.5306C48.7415 60.3813 48.7742 60.2401 48.8395 60.1072C48.9072 59.9742 49.0017 59.8564 49.123 59.7537C49.2466 59.6511 49.3948 59.5706 49.5674 59.5122C49.7401 59.4539 49.9325 59.4248 50.1448 59.4248C50.4481 59.4248 50.7071 59.4784 50.9217 59.5857C51.1364 59.693 51.3009 59.8365 51.4152 60.0162C51.5295 60.1935 51.5866 60.3906 51.5866 60.6076H50.9392C50.9392 60.5026 50.9077 60.4011 50.8447 60.3031C50.7841 60.2028 50.6943 60.12 50.5753 60.0547C50.4586 59.9893 50.3151 59.9567 50.1448 59.9567C49.9652 59.9567 49.8194 59.9847 49.7074 60.0407C49.5977 60.0943 49.5173 60.1632 49.4659 60.2471C49.4169 60.3311 49.3924 60.4198 49.3924 60.5131C49.3924 60.5831 49.4041 60.6461 49.4274 60.7021C49.4531 60.7557 49.4974 60.8059 49.5604 60.8526C49.6234 60.8969 49.7121 60.9389 49.8264 60.9785C49.9407 61.0182 50.0865 61.0579 50.2638 61.0975C50.5741 61.1675 50.8296 61.2515 51.0302 61.3495C51.2309 61.4475 51.3802 61.5676 51.4782 61.71C51.5762 61.8523 51.6251 62.0249 51.6251 62.2279C51.6251 62.3935 51.5901 62.5452 51.5202 62.6828C51.4525 62.8205 51.3533 62.9395 51.2227 63.0398C51.0944 63.1378 50.9404 63.2148 50.7608 63.2708C50.5834 63.3244 50.384 63.3512 50.1623 63.3512C49.8287 63.3512 49.5464 63.2917 49.3154 63.1728C49.0845 63.0538 48.9095 62.8998 48.7905 62.7108C48.6715 62.5218 48.612 62.3224 48.612 62.1124H49.263C49.2723 62.2897 49.3236 62.4309 49.4169 62.5358C49.5103 62.6385 49.6246 62.712 49.7599 62.7563C49.8952 62.7983 50.0294 62.8193 50.1623 62.8193C50.3396 62.8193 50.4878 62.796 50.6068 62.7493C50.7281 62.7027 50.8202 62.6385 50.8832 62.5568C50.9462 62.4752 50.9777 62.3819 50.9777 62.2769ZM57.5149 61.9934C57.5149 61.8744 57.4962 61.7694 57.4589 61.6785C57.4239 61.5851 57.3609 61.5011 57.2699 61.4265C57.1813 61.3518 57.0576 61.2807 56.899 61.213C56.7426 61.1454 56.5443 61.0765 56.304 61.0065C56.0521 60.9319 55.8246 60.8491 55.6216 60.7581C55.4187 60.6648 55.2448 60.5586 55.1002 60.4396C54.9555 60.3206 54.8447 60.1842 54.7677 60.0302C54.6907 59.8762 54.6523 59.7 54.6523 59.5017C54.6523 59.3034 54.6931 59.1203 54.7747 58.9523C54.8564 58.7843 54.973 58.6385 55.1247 58.5149C55.2787 58.3889 55.4618 58.2909 55.6741 58.2209C55.8864 58.1509 56.1232 58.1159 56.3845 58.1159C56.7671 58.1159 57.0914 58.1894 57.3574 58.3364C57.6257 58.481 57.8298 58.6712 57.9698 58.9068C58.1098 59.1401 58.1798 59.3898 58.1798 59.6557H57.5079C57.5079 59.4644 57.4671 59.2953 57.3854 59.1483C57.3037 58.999 57.1801 58.8823 57.0144 58.7983C56.8488 58.712 56.6388 58.6688 56.3845 58.6688C56.1442 58.6688 55.9459 58.705 55.7896 58.7773C55.6333 58.8497 55.5166 58.9476 55.4396 59.0713C55.365 59.1949 55.3277 59.3361 55.3277 59.4947C55.3277 59.6021 55.3498 59.7 55.3942 59.7887C55.4408 59.875 55.512 59.9555 55.6076 60.0302C55.7056 60.1048 55.8293 60.1737 55.9786 60.2366C56.1302 60.2996 56.311 60.3603 56.521 60.4186C56.8103 60.5003 57.0599 60.5913 57.2699 60.6916C57.4799 60.7919 57.6525 60.9051 57.7878 61.031C57.9255 61.1547 58.027 61.2958 58.0923 61.4545C58.16 61.6108 58.1938 61.7881 58.1938 61.9864C58.1938 62.1941 58.1518 62.3819 58.0678 62.5498C57.9838 62.7178 57.8637 62.8613 57.7074 62.9803C57.551 63.0993 57.3632 63.1914 57.1439 63.2568C56.927 63.3197 56.6843 63.3512 56.416 63.3512C56.1804 63.3512 55.9483 63.3186 55.7196 63.2533C55.4933 63.1879 55.2868 63.0899 55.1002 62.9593C54.9159 62.8286 54.7677 62.6677 54.6558 62.4764C54.5461 62.2827 54.4913 62.0587 54.4913 61.8044H55.1632C55.1632 61.9794 55.197 62.1299 55.2647 62.2559C55.3323 62.3795 55.4245 62.4822 55.5411 62.5638C55.6601 62.6455 55.7943 62.7062 55.9436 62.7458C56.0952 62.7831 56.2527 62.8018 56.416 62.8018C56.6517 62.8018 56.8511 62.7691 57.0144 62.7038C57.1778 62.6385 57.3014 62.5452 57.3854 62.4239C57.4717 62.3025 57.5149 62.1591 57.5149 61.9934ZM60.752 63.3512C60.4883 63.3512 60.2492 63.3069 60.0346 63.2183C59.8222 63.1273 59.6391 63.0001 59.4851 62.8368C59.3335 62.6735 59.2168 62.4799 59.1352 62.2559C59.0535 62.0319 59.0127 61.7869 59.0127 61.521V61.374C59.0127 61.066 59.0582 60.7919 59.1492 60.5516C59.2402 60.309 59.3638 60.1037 59.5201 59.9357C59.6764 59.7677 59.8537 59.6406 60.0521 59.5542C60.2504 59.4679 60.4557 59.4248 60.668 59.4248C60.9386 59.4248 61.1719 59.4714 61.3679 59.5647C61.5662 59.6581 61.7283 59.7887 61.8543 59.9567C61.9803 60.1223 62.0736 60.3183 62.1343 60.5446C62.1949 60.7686 62.2253 61.0135 62.2253 61.2795V61.57H59.3976V61.0415H61.5779V60.9925C61.5685 60.8246 61.5335 60.6613 61.4729 60.5026C61.4145 60.344 61.3212 60.2133 61.1929 60.1107C61.0646 60.008 60.8896 59.9567 60.668 59.9567C60.521 59.9567 60.3857 59.9882 60.262 60.0512C60.1384 60.1118 60.0322 60.2028 59.9436 60.3241C59.8549 60.4455 59.7861 60.5936 59.7371 60.7686C59.6881 60.9436 59.6636 61.1454 59.6636 61.374V61.521C59.6636 61.7006 59.6881 61.8698 59.7371 62.0284C59.7884 62.1847 59.8619 62.3224 59.9576 62.4414C60.0556 62.5603 60.1734 62.6537 60.311 62.7213C60.451 62.789 60.6096 62.8228 60.787 62.8228C61.0156 62.8228 61.2092 62.7761 61.3679 62.6828C61.5265 62.5895 61.6653 62.4647 61.7843 62.3084L62.1763 62.6198C62.0946 62.7435 61.9908 62.8613 61.8648 62.9733C61.7388 63.0853 61.5837 63.1763 61.3994 63.2463C61.2174 63.3162 61.0016 63.3512 60.752 63.3512ZM63.8526 60.0897V63.2812H63.2051V59.4947H63.8351L63.8526 60.0897ZM65.0354 59.4737L65.0319 60.0757C64.9782 60.064 64.9269 60.057 64.8779 60.0547C64.8313 60.05 64.7776 60.0477 64.7169 60.0477C64.5676 60.0477 64.4358 60.071 64.3215 60.1177C64.2072 60.1643 64.1104 60.2296 64.031 60.3136C63.9517 60.3976 63.8887 60.4979 63.8421 60.6146C63.7977 60.7289 63.7686 60.8549 63.7546 60.9925L63.5726 61.0975C63.5726 60.8689 63.5948 60.6543 63.6391 60.4536C63.6857 60.253 63.7569 60.0757 63.8526 59.9217C63.9482 59.7654 64.0695 59.6441 64.2165 59.5577C64.3658 59.4691 64.5431 59.4248 64.7484 59.4248C64.7951 59.4248 64.8488 59.4306 64.9094 59.4422C64.9701 59.4516 65.0121 59.4621 65.0354 59.4737ZM67.0721 62.6968L68.108 59.4947H68.7694L67.4081 63.2812H66.9742L67.0721 62.6968ZM66.2078 59.4947L67.2751 62.7143L67.3486 63.2812H66.9147L65.5428 59.4947H66.2078ZM70.3197 59.4947V63.2812H69.6688V59.4947H70.3197ZM69.6198 58.4904C69.6198 58.3854 69.6513 58.2967 69.7143 58.2244C69.7796 58.1521 69.8753 58.1159 70.0013 58.1159C70.1249 58.1159 70.2194 58.1521 70.2847 58.2244C70.3524 58.2967 70.3862 58.3854 70.3862 58.4904C70.3862 58.5907 70.3524 58.677 70.2847 58.7493C70.2194 58.8193 70.1249 58.8543 70.0013 58.8543C69.8753 58.8543 69.7796 58.8193 69.7143 58.7493C69.6513 58.677 69.6198 58.5907 69.6198 58.4904ZM73.0984 62.8193C73.2523 62.8193 73.3947 62.7878 73.5253 62.7248C73.656 62.6618 73.7633 62.5755 73.8473 62.4659C73.9312 62.3539 73.9791 62.2267 73.9907 62.0844H74.6067C74.595 62.3084 74.5192 62.5172 74.3792 62.7108C74.2415 62.9021 74.0607 63.0573 73.8368 63.1763C73.6128 63.2929 73.3667 63.3512 73.0984 63.3512C72.8137 63.3512 72.5653 63.3011 72.353 63.2008C72.143 63.1004 71.968 62.9628 71.828 62.7878C71.6904 62.6128 71.5866 62.4122 71.5166 62.1859C71.4489 61.9573 71.4151 61.7158 71.4151 61.4615V61.3145C71.4151 61.0602 71.4489 60.8199 71.5166 60.5936C71.5866 60.365 71.6904 60.1632 71.828 59.9882C71.968 59.8132 72.143 59.6756 72.353 59.5752C72.5653 59.4749 72.8137 59.4248 73.0984 59.4248C73.3947 59.4248 73.6536 59.4854 73.8753 59.6067C74.0969 59.7257 74.2707 59.889 74.3967 60.0967C74.525 60.302 74.595 60.5353 74.6067 60.7966H73.9907C73.9791 60.6403 73.9347 60.4991 73.8578 60.3731C73.7831 60.2471 73.6804 60.1468 73.5498 60.0722C73.4215 59.9952 73.271 59.9567 73.0984 59.9567C72.9001 59.9567 72.7332 59.9963 72.5979 60.0757C72.4649 60.1527 72.3588 60.2576 72.2795 60.3906C72.2025 60.5213 72.1465 60.6671 72.1115 60.8281C72.0788 60.9867 72.0625 61.1489 72.0625 61.3145V61.4615C72.0625 61.6271 72.0788 61.7904 72.1115 61.9514C72.1441 62.1124 72.199 62.2582 72.276 62.3889C72.3553 62.5195 72.4614 62.6245 72.5944 62.7038C72.7297 62.7808 72.8977 62.8193 73.0984 62.8193ZM77.1298 63.3512C76.8662 63.3512 76.6271 63.3069 76.4124 63.2183C76.2001 63.1273 76.017 63.0001 75.863 62.8368C75.7114 62.6735 75.5947 62.4799 75.513 62.2559C75.4314 62.0319 75.3906 61.7869 75.3906 61.521V61.374C75.3906 61.066 75.4361 60.7919 75.527 60.5516C75.618 60.309 75.7417 60.1037 75.898 59.9357C76.0543 59.7677 76.2316 59.6406 76.4299 59.5542C76.6282 59.4679 76.8335 59.4248 77.0458 59.4248C77.3165 59.4248 77.5498 59.4714 77.7458 59.5647C77.9441 59.6581 78.1062 59.7887 78.2322 59.9567C78.3582 60.1223 78.4515 60.3183 78.5122 60.5446C78.5728 60.7686 78.6031 61.0135 78.6031 61.2795V61.57H75.7755V61.0415H77.9557V60.9925C77.9464 60.8246 77.9114 60.6613 77.8507 60.5026C77.7924 60.344 77.6991 60.2133 77.5708 60.1107C77.4425 60.008 77.2675 59.9567 77.0458 59.9567C76.8989 59.9567 76.7635 59.9882 76.6399 60.0512C76.5162 60.1118 76.4101 60.2028 76.3214 60.3241C76.2328 60.4455 76.164 60.5936 76.115 60.7686C76.066 60.9436 76.0415 61.1454 76.0415 61.374V61.521C76.0415 61.7006 76.066 61.8698 76.115 62.0284C76.1663 62.1847 76.2398 62.3224 76.3354 62.4414C76.4334 62.5603 76.5512 62.6537 76.6889 62.7213C76.8289 62.789 76.9875 62.8228 77.1648 62.8228C77.3935 62.8228 77.5871 62.7761 77.7458 62.6828C77.9044 62.5895 78.0432 62.4647 78.1622 62.3084L78.5541 62.6198C78.4725 62.7435 78.3687 62.8613 78.2427 62.9733C78.1167 63.0853 77.9616 63.1763 77.7772 63.2463C77.5953 63.3162 77.3795 63.3512 77.1298 63.3512Z" fill="#F6F1F2"/>
<rect x="187.634" y="47.0856" width="17.5745" height="17.5959" rx="8.78727" stroke="#9FBFE5" stroke-opacity="0.996078" stroke-width="0.499255"/>
<path d="M195.066 55.6009L196.434 56.9701L199.216 54.1886C198.643 53.2499 197.613 52.6211 196.433 52.6211C194.631 52.6211 193.171 54.0813 193.171 55.8829C193.171 57.6845 194.631 59.1447 196.433 59.1447C198.111 59.1447 199.493 57.8762 199.673 56.2453" stroke="#9FBFE5" stroke-opacity="0.996078" stroke-width="0.895884" stroke-linecap="round" stroke-linejoin="round"/>
<path d="M170.792 71.2161V71.1767C170.792 70.8355 170.828 70.5162 170.9 70.2187C170.971 69.9213 171.065 69.6536 171.18 69.4156C171.298 69.1776 171.425 68.9755 171.564 68.8093C171.704 68.6413 171.841 68.5171 171.976 68.4366L172.052 68.6518C171.936 68.734 171.822 68.853 171.708 69.0088C171.596 69.1645 171.494 69.3517 171.403 69.5704C171.313 69.7892 171.24 70.0333 171.186 70.3027C171.131 70.5722 171.104 70.8609 171.104 71.1689V71.2214C171.104 71.5293 171.131 71.818 171.186 72.0875C171.24 72.357 171.313 72.601 171.403 72.8198C171.494 73.0402 171.596 73.2292 171.708 73.3867C171.822 73.5459 171.936 73.6684 172.052 73.7541L171.976 73.9562C171.841 73.8758 171.704 73.7533 171.564 73.5888C171.425 73.4261 171.298 73.2266 171.18 72.9904C171.065 72.7559 170.971 72.4891 170.9 72.1899C170.828 71.8906 170.792 71.5661 170.792 71.2161ZM173.124 68.6912V72.7227H172.811V68.6912H173.124ZM174.555 69.8828V72.7227H174.243V69.8828H174.555ZM174.187 69.0613C174.187 69.0018 174.206 68.9519 174.243 68.9117C174.281 68.8697 174.333 68.8487 174.4 68.8487C174.466 68.8487 174.519 68.8697 174.557 68.9117C174.598 68.9519 174.618 69.0018 174.618 69.0613C174.618 69.119 174.598 69.1689 174.557 69.2109C174.519 69.2511 174.466 69.2712 174.4 69.2712C174.333 69.2712 174.281 69.2511 174.243 69.2109C174.206 69.1689 174.187 69.119 174.187 69.0613ZM175.934 70.4707V72.7227H175.619V69.8828H175.921L175.934 70.4707ZM175.876 71.1269L175.724 71.0481C175.734 70.8801 175.766 70.7227 175.818 70.5757C175.872 70.4287 175.948 70.2992 176.044 70.1872C176.14 70.0752 176.256 69.9878 176.39 69.9248C176.525 69.8618 176.678 69.8303 176.85 69.8303C176.988 69.8303 177.113 69.8495 177.225 69.888C177.339 69.9248 177.435 69.9834 177.514 70.0639C177.594 70.1426 177.656 70.2459 177.7 70.3736C177.744 70.5013 177.766 70.6544 177.766 70.8329V72.7227H177.453V70.8434C177.453 70.6544 177.424 70.5066 177.364 70.3998C177.306 70.2931 177.225 70.217 177.12 70.1715C177.017 70.126 176.897 70.1032 176.76 70.1032C176.599 70.1032 176.463 70.1365 176.351 70.203C176.241 70.2677 176.151 70.3526 176.081 70.4576C176.012 70.5608 175.962 70.6719 175.928 70.7909C175.895 70.9081 175.878 71.0201 175.876 71.1269ZM177.763 70.8801L177.553 70.8854C177.562 70.7472 177.593 70.6151 177.648 70.4891C177.704 70.3631 177.78 70.2511 177.876 70.1531C177.972 70.0534 178.087 69.9746 178.22 69.9169C178.354 69.8592 178.506 69.8303 178.674 69.8303C178.821 69.8303 178.952 69.8504 179.068 69.8906C179.183 69.9291 179.28 69.9913 179.359 70.077C179.439 70.161 179.501 70.2686 179.543 70.3998C179.585 70.5311 179.606 70.6885 179.606 70.8723V72.7227H179.291V70.8696C179.291 70.6684 179.261 70.5127 179.201 70.4025C179.144 70.2905 179.063 70.2126 178.96 70.1689C178.857 70.1251 178.736 70.1032 178.598 70.1032C178.461 70.105 178.341 70.1304 178.238 70.1794C178.135 70.2266 178.048 70.2896 177.978 70.3683C177.91 70.4453 177.858 70.5284 177.821 70.6177C177.786 70.7069 177.767 70.7944 177.763 70.8801ZM180.977 69.8828V72.7227H180.664V69.8828H180.977ZM180.609 69.0613C180.609 69.0018 180.627 68.9519 180.664 68.9117C180.703 68.8697 180.755 68.8487 180.822 68.8487C180.888 68.8487 180.941 68.8697 180.979 68.9117C181.019 68.9519 181.039 69.0018 181.039 69.0613C181.039 69.119 181.019 69.1689 180.979 69.2109C180.941 69.2511 180.888 69.2712 180.822 69.2712C180.755 69.2712 180.703 69.2511 180.664 69.2109C180.627 69.1689 180.609 69.119 180.609 69.0613ZM183.132 69.8828V70.14H181.71V69.8828H183.132ZM182.232 69.1531H182.544V72.0324C182.544 72.1636 182.562 72.2625 182.597 72.329C182.632 72.3954 182.677 72.4401 182.733 72.4628C182.789 72.4856 182.85 72.4969 182.914 72.4969C182.962 72.4969 183.007 72.4943 183.051 72.4891C183.095 72.4821 183.134 72.4751 183.169 72.4681L183.182 72.7332C183.144 72.7454 183.094 72.755 183.032 72.762C182.971 72.7708 182.91 72.7751 182.849 72.7751C182.728 72.7751 182.621 72.7533 182.529 72.7095C182.436 72.664 182.363 72.587 182.311 72.4786C182.258 72.3683 182.232 72.2187 182.232 72.0297V69.1531ZM185.112 72.7751C184.927 72.7751 184.756 72.741 184.6 72.6728C184.446 72.6045 184.312 72.5083 184.196 72.3841C184.082 72.2598 183.994 72.1129 183.931 71.9431C183.87 71.7717 183.839 71.5844 183.839 71.3815V71.2686C183.839 71.0499 183.872 70.8521 183.936 70.6754C184.001 70.4987 184.09 70.3473 184.204 70.2214C184.318 70.0954 184.447 69.9991 184.592 69.9326C184.739 69.8644 184.893 69.8303 185.054 69.8303C185.235 69.8303 185.395 69.8627 185.535 69.9274C185.675 69.9904 185.792 70.0805 185.886 70.1977C185.983 70.3132 186.055 70.4506 186.104 70.6098C186.153 70.7673 186.178 70.9414 186.178 71.1321V71.3237H184.028V71.056H185.865V71.0193C185.862 70.86 185.829 70.7113 185.768 70.5731C185.709 70.4331 185.62 70.3193 185.501 70.2319C185.382 70.1444 185.233 70.1006 185.054 70.1006C184.921 70.1006 184.799 70.1286 184.687 70.1846C184.577 70.2406 184.481 70.3211 184.401 70.4261C184.322 70.5293 184.261 70.6527 184.217 70.7962C184.175 70.9379 184.154 71.0954 184.154 71.2686V71.3815C184.154 71.5389 184.177 71.6859 184.222 71.8224C184.27 71.9571 184.336 72.0761 184.422 72.1794C184.509 72.2826 184.613 72.3631 184.732 72.4208C184.851 72.4786 184.982 72.5074 185.125 72.5074C185.293 72.5074 185.442 72.4768 185.571 72.4156C185.701 72.3526 185.817 72.2537 185.92 72.119L186.117 72.2712C186.056 72.3622 185.979 72.4462 185.886 72.5232C185.795 72.6002 185.686 72.6614 185.558 72.7069C185.431 72.7524 185.282 72.7751 185.112 72.7751ZM188.866 72.1715V68.6912H189.181V72.7227H188.887L188.866 72.1715ZM186.895 71.3316V71.2765C186.895 71.056 186.92 70.8574 186.971 70.6807C187.022 70.5022 187.095 70.35 187.189 70.224C187.285 70.0962 187.401 69.9991 187.536 69.9326C187.67 69.8644 187.822 69.8303 187.992 69.8303C188.158 69.8303 188.305 69.8574 188.433 69.9116C188.561 69.9659 188.67 70.0438 188.761 70.1452C188.854 70.2467 188.928 70.3675 188.984 70.5074C189.042 70.6474 189.084 70.8032 189.11 70.9746V71.6754C189.089 71.8364 189.051 71.9843 188.995 72.119C188.939 72.252 188.864 72.3683 188.772 72.4681C188.679 72.5661 188.567 72.6422 188.436 72.6964C188.306 72.7489 188.157 72.7751 187.987 72.7751C187.819 72.7751 187.668 72.7402 187.533 72.6702C187.398 72.6002 187.284 72.5013 187.189 72.3736C187.095 72.2441 187.022 72.091 186.971 71.9143C186.92 71.7375 186.895 71.5433 186.895 71.3316ZM187.21 71.2765V71.3316C187.21 71.4978 187.227 71.6518 187.26 71.7935C187.293 71.9353 187.344 72.0586 187.412 72.1636C187.48 72.2686 187.567 72.3508 187.672 72.4103C187.777 72.4698 187.901 72.4996 188.045 72.4996C188.225 72.4996 188.376 72.4654 188.499 72.3972C188.621 72.3272 188.719 72.2353 188.793 72.1216C188.866 72.0061 188.92 71.8801 188.953 71.7437V70.9274C188.932 70.8347 188.901 70.7402 188.861 70.6439C188.821 70.5477 188.766 70.4593 188.696 70.3788C188.627 70.2966 188.54 70.231 188.433 70.182C188.328 70.1312 188.2 70.1059 188.05 70.1059C187.905 70.1059 187.78 70.1356 187.675 70.1951C187.57 70.2546 187.482 70.3377 187.412 70.4445C187.344 70.5494 187.293 70.6728 187.26 70.8145C187.227 70.9563 187.21 71.1102 187.21 71.2765ZM193.018 68.9012V72.7227H192.697V68.9012H193.018ZM194.327 68.9012V69.1794H191.39V68.9012H194.327ZM195.213 70.3526V72.7227H194.9V69.8828H195.205L195.213 70.3526ZM196.218 69.8618L196.21 70.1505C196.175 70.1452 196.141 70.1409 196.108 70.1374C196.074 70.1339 196.039 70.1321 196 70.1321C195.864 70.1321 195.744 70.1575 195.64 70.2082C195.539 70.2572 195.453 70.3263 195.383 70.4156C195.313 70.5031 195.26 70.6063 195.223 70.7253C195.186 70.8425 195.165 70.9685 195.16 71.1032L195.045 71.1479C195.045 70.9624 195.064 70.79 195.102 70.6308C195.141 70.4716 195.2 70.3325 195.278 70.2135C195.359 70.0927 195.459 69.9991 195.58 69.9326C195.703 69.8644 195.846 69.8303 196.011 69.8303C196.051 69.8303 196.09 69.8338 196.129 69.8408C196.169 69.846 196.199 69.853 196.218 69.8618ZM197.284 69.8828V72.7227H196.972V69.8828H197.284ZM196.917 69.0613C196.917 69.0018 196.935 68.9519 196.972 68.9117C197.011 68.8697 197.063 68.8487 197.13 68.8487C197.196 68.8487 197.249 68.8697 197.287 68.9117C197.327 68.9519 197.347 69.0018 197.347 69.0613C197.347 69.119 197.327 69.1689 197.287 69.2109C197.249 69.2511 197.196 69.2712 197.13 69.2712C197.063 69.2712 197.011 69.2511 196.972 69.2109C196.935 69.1689 196.917 69.119 196.917 69.0613ZM200.094 72.2135V70.7489C200.094 70.6142 200.066 70.4978 200.01 70.3998C199.954 70.3018 199.871 70.2266 199.763 70.1741C199.654 70.1216 199.521 70.0954 199.361 70.0954C199.214 70.0954 199.083 70.1216 198.968 70.1741C198.854 70.2249 198.764 70.294 198.697 70.3815C198.633 70.4672 198.6 70.5626 198.6 70.6675L198.285 70.6649C198.285 70.5582 198.312 70.455 198.364 70.3552C198.416 70.2555 198.491 70.1662 198.587 70.0875C198.683 70.0088 198.798 69.9466 198.931 69.9011C199.066 69.8539 199.214 69.8303 199.374 69.8303C199.577 69.8303 199.756 69.8644 199.91 69.9326C200.066 70.0009 200.187 70.1032 200.275 70.2397C200.362 70.3762 200.406 70.5477 200.406 70.7542V72.1269C200.406 72.2248 200.413 72.3263 200.427 72.4313C200.443 72.5363 200.465 72.6229 200.493 72.6912V72.7227H200.159C200.138 72.6597 200.122 72.5809 200.109 72.4864C200.099 72.3902 200.094 72.2992 200.094 72.2135ZM200.167 71.0691L200.172 71.3106H199.556C199.395 71.3106 199.25 71.3255 199.123 71.3552C198.997 71.3832 198.89 71.4252 198.802 71.4812C198.715 71.5354 198.647 71.6011 198.6 71.678C198.555 71.755 198.532 71.8425 198.532 71.9405C198.532 72.042 198.557 72.1347 198.608 72.2187C198.661 72.3027 198.734 72.3701 198.829 72.4208C198.925 72.4698 199.039 72.4943 199.17 72.4943C199.345 72.4943 199.499 72.4619 199.632 72.3972C199.766 72.3325 199.878 72.2476 199.965 72.1426C200.053 72.0376 200.111 71.923 200.141 71.7988L200.277 71.9799C200.255 72.0674 200.213 72.1575 200.151 72.2502C200.092 72.3412 200.014 72.4269 199.918 72.5074C199.822 72.5862 199.708 72.6509 199.577 72.7017C199.447 72.7507 199.3 72.7751 199.136 72.7751C198.95 72.7751 198.788 72.7402 198.65 72.6702C198.514 72.6002 198.407 72.5048 198.33 72.3841C198.255 72.2616 198.217 72.1234 198.217 71.9694C198.217 71.8294 198.247 71.7043 198.306 71.5941C198.366 71.4821 198.451 71.3876 198.563 71.3106C198.677 71.2318 198.814 71.1724 198.973 71.1321C199.134 71.0901 199.314 71.0691 199.514 71.0691H200.167ZM201.822 68.6912V72.7227H201.509V68.6912H201.822ZM205.813 71.1662H204.724V70.8906H205.813C206.04 70.8906 206.225 70.8539 206.367 70.7804C206.51 70.7052 206.614 70.6037 206.679 70.4759C206.745 70.3482 206.779 70.2047 206.779 70.0455C206.779 69.8898 206.745 69.7463 206.679 69.6151C206.614 69.4838 206.51 69.3788 206.367 69.3001C206.225 69.2196 206.04 69.1794 205.813 69.1794H204.836V72.7227H204.514V68.9012H205.813C206.093 68.9012 206.328 68.9493 206.519 69.0455C206.711 69.1417 206.857 69.2756 206.955 69.4471C207.052 69.6186 207.101 69.8163 207.101 70.0403C207.101 70.2747 207.052 70.4768 206.955 70.6466C206.857 70.8145 206.712 70.9431 206.521 71.0324C206.331 71.1216 206.094 71.1662 205.813 71.1662ZM209.037 72.7751C208.851 72.7751 208.681 72.741 208.525 72.6728C208.371 72.6045 208.236 72.5083 208.121 72.3841C208.007 72.2598 207.919 72.1129 207.856 71.9431C207.794 71.7717 207.764 71.5844 207.764 71.3815V71.2686C207.764 71.0499 207.796 70.8521 207.861 70.6754C207.926 70.4987 208.015 70.3473 208.129 70.2214C208.242 70.0954 208.372 69.9991 208.517 69.9326C208.664 69.8644 208.818 69.8303 208.979 69.8303C209.159 69.8303 209.319 69.8627 209.459 69.9274C209.599 69.9904 209.717 70.0805 209.811 70.1977C209.907 70.3132 209.98 70.4506 210.029 70.6098C210.078 70.7673 210.102 70.9414 210.102 71.1321V71.3237H207.953V71.056H209.79V71.0193C209.787 70.86 209.754 70.7113 209.693 70.5731C209.633 70.4331 209.544 70.3193 209.425 70.2319C209.306 70.1444 209.157 70.1006 208.979 70.1006C208.846 70.1006 208.724 70.1286 208.612 70.1846C208.501 70.2406 208.406 70.3211 208.325 70.4261C208.247 70.5293 208.185 70.6527 208.142 70.7962C208.1 70.9379 208.079 71.0954 208.079 71.2686V71.3815C208.079 71.5389 208.101 71.6859 208.147 71.8224C208.194 71.9571 208.261 72.0761 208.346 72.1794C208.434 72.2826 208.537 72.3631 208.656 72.4208C208.775 72.4786 208.906 72.5074 209.05 72.5074C209.218 72.5074 209.367 72.4768 209.496 72.4156C209.626 72.3526 209.742 72.2537 209.845 72.119L210.042 72.2712C209.981 72.3622 209.904 72.4462 209.811 72.5232C209.72 72.6002 209.611 72.6614 209.483 72.7069C209.355 72.7524 209.206 72.7751 209.037 72.7751ZM211.258 70.3526V72.7227H210.946V69.8828H211.25L211.258 70.3526ZM212.263 69.8618L212.255 70.1505C212.22 70.1452 212.186 70.1409 212.153 70.1374C212.12 70.1339 212.084 70.1321 212.045 70.1321C211.909 70.1321 211.789 70.1575 211.686 70.2082C211.584 70.2572 211.499 70.3263 211.429 70.4156C211.359 70.5031 211.305 70.6063 211.269 70.7253C211.232 70.8425 211.211 70.9685 211.206 71.1032L211.09 71.1479C211.09 70.9624 211.109 70.79 211.148 70.6308C211.186 70.4716 211.245 70.3325 211.324 70.2135C211.404 70.0927 211.505 69.9991 211.626 69.9326C211.748 69.8644 211.891 69.8303 212.056 69.8303C212.096 69.8303 212.136 69.8338 212.174 69.8408C212.214 69.846 212.244 69.853 212.263 69.8618ZM213.33 69.8828V72.7227H213.017V69.8828H213.33ZM212.962 69.0613C212.962 69.0018 212.981 68.9519 213.017 68.9117C213.056 68.8697 213.108 68.8487 213.175 68.8487C213.241 68.8487 213.294 68.8697 213.332 68.9117C213.373 68.9519 213.393 69.0018 213.393 69.0613C213.393 69.119 213.373 69.1689 213.332 69.2109C213.294 69.2511 213.241 69.2712 213.175 69.2712C213.108 69.2712 213.056 69.2511 213.017 69.2109C212.981 69.1689 212.962 69.119 212.962 69.0613ZM214.239 71.3473V71.2607C214.239 71.0542 214.269 70.8635 214.328 70.6885C214.388 70.5136 214.472 70.3622 214.583 70.2345C214.695 70.1067 214.828 70.0079 214.984 69.9379C215.14 69.8662 215.313 69.8303 215.504 69.8303C215.696 69.8303 215.87 69.8662 216.026 69.9379C216.182 70.0079 216.316 70.1067 216.428 70.2345C216.54 70.3622 216.626 70.5136 216.685 70.6885C216.744 70.8635 216.774 71.0542 216.774 71.2607V71.3473C216.774 71.5538 216.744 71.7445 216.685 71.9195C216.626 72.0927 216.54 72.2432 216.428 72.371C216.318 72.4987 216.185 72.5984 216.029 72.6702C215.873 72.7402 215.7 72.7751 215.509 72.7751C215.317 72.7751 215.143 72.7402 214.987 72.6702C214.831 72.5984 214.697 72.4987 214.585 72.371C214.473 72.2432 214.388 72.0927 214.328 71.9195C214.269 71.7445 214.239 71.5538 214.239 71.3473ZM214.551 71.2607V71.3473C214.551 71.5031 214.572 71.6509 214.614 71.7909C214.656 71.9291 214.717 72.0525 214.798 72.161C214.878 72.2677 214.978 72.3517 215.097 72.4129C215.216 72.4742 215.353 72.5048 215.509 72.5048C215.663 72.5048 215.799 72.4742 215.916 72.4129C216.035 72.3517 216.135 72.2677 216.215 72.161C216.296 72.0525 216.356 71.9291 216.396 71.7909C216.438 71.6509 216.459 71.5031 216.459 71.3473V71.2607C216.459 71.1067 216.438 70.9606 216.396 70.8224C216.356 70.6842 216.295 70.5608 216.213 70.4523C216.132 70.3438 216.032 70.2581 215.913 70.1951C215.794 70.1321 215.658 70.1006 215.504 70.1006C215.35 70.1006 215.213 70.1321 215.094 70.1951C214.977 70.2581 214.877 70.3438 214.795 70.4523C214.715 70.5608 214.654 70.6842 214.612 70.8224C214.571 70.9606 214.551 71.1067 214.551 71.2607ZM219.494 72.1715V68.6912H219.809V72.7227H219.515L219.494 72.1715ZM217.523 71.3316V71.2765C217.523 71.056 217.549 70.8574 217.599 70.6807C217.65 70.5022 217.723 70.35 217.817 70.224C217.913 70.0962 218.029 69.9991 218.164 69.9326C218.298 69.8644 218.451 69.8303 218.62 69.8303C218.786 69.8303 218.933 69.8574 219.061 69.9116C219.189 69.9659 219.298 70.0438 219.389 70.1452C219.482 70.2467 219.556 70.3675 219.612 70.5074C219.67 70.6474 219.712 70.8032 219.738 70.9746V71.6754C219.717 71.8364 219.679 71.9843 219.623 72.119C219.567 72.252 219.493 72.3683 219.4 72.4681C219.307 72.5661 219.195 72.6422 219.064 72.6964C218.934 72.7489 218.785 72.7751 218.615 72.7751C218.447 72.7751 218.296 72.7402 218.161 72.6702C218.026 72.6002 217.912 72.5013 217.817 72.3736C217.723 72.2441 217.65 72.091 217.599 71.9143C217.549 71.7375 217.523 71.5433 217.523 71.3316ZM217.838 71.2765V71.3316C217.838 71.4978 217.855 71.6518 217.888 71.7935C217.921 71.9353 217.972 72.0586 218.04 72.1636C218.108 72.2686 218.195 72.3508 218.3 72.4103C218.405 72.4698 218.529 72.4996 218.673 72.4996C218.853 72.4996 219.004 72.4654 219.127 72.3972C219.249 72.3272 219.347 72.2353 219.421 72.1216C219.494 72.0061 219.548 71.8801 219.581 71.7437V70.9274C219.56 70.8347 219.529 70.7402 219.489 70.6439C219.449 70.5477 219.394 70.4593 219.324 70.3788C219.255 70.2966 219.168 70.231 219.061 70.182C218.956 70.1312 218.828 70.1059 218.678 70.1059C218.533 70.1059 218.408 70.1356 218.303 70.1951C218.198 70.2546 218.11 70.3377 218.04 70.4445C217.972 70.5494 217.921 70.6728 217.888 70.8145C217.855 70.9563 217.838 71.1102 217.838 71.2765ZM221.797 71.1767V71.2161C221.797 71.5661 221.761 71.8906 221.689 72.1899C221.618 72.4891 221.523 72.7559 221.406 72.9904C221.289 73.2266 221.161 73.4261 221.023 73.5888C220.884 73.7533 220.747 73.8758 220.611 73.9562L220.534 73.7541C220.652 73.6719 220.766 73.552 220.878 73.3946C220.99 73.2371 221.092 73.0472 221.183 72.825C221.276 72.6045 221.349 72.3596 221.403 72.0901C221.458 71.8189 221.485 71.5293 221.485 71.2214V71.1689C221.485 70.8609 221.457 70.5722 221.401 70.3027C221.345 70.0315 221.27 69.7857 221.178 69.5652C221.085 69.3447 220.982 69.1557 220.87 68.9983C220.758 68.8408 220.646 68.7218 220.534 68.6413L220.611 68.4366C220.747 68.5171 220.884 68.6413 221.023 68.8093C221.161 68.9755 221.289 69.1776 221.406 69.4156C221.523 69.6536 221.618 69.9213 221.689 70.2187C221.761 70.5162 221.797 70.8355 221.797 71.1767Z" fill="#F6F1F2"/>
<path d="M209.193 56.9872L209.896 56.0213L208.839 55.7063L209.004 55.1814L210.061 55.5698L210.029 54.366H210.561L210.526 55.5908L211.569 55.2024L211.73 55.7378L210.655 56.0563L211.345 57.0047L210.911 57.3301L210.264 56.3223L209.63 57.3056L209.193 56.9872Z" fill="#929092"/>
<rect x="314.402" y="51.9801" width="17.5745" height="17.5959" rx="8.78727" stroke="#9FBFE5" stroke-opacity="0.996078" stroke-width="0.499255"/>
<path d="M321.833 60.4954L323.202 61.8647L325.984 59.0831C325.411 58.1444 324.38 57.5156 323.2 57.5156C321.399 57.5156 319.938 58.9758 319.938 60.7774C319.938 62.579 321.399 64.0392 323.2 64.0392C324.879 64.0392 326.26 62.7707 326.441 61.1398" stroke="#9FBFE5" stroke-opacity="0.996078" stroke-width="0.895884" stroke-linecap="round" stroke-linejoin="round"/>
<path d="M14.334 85.4727L355.666 85.4726" stroke="url(#paint1_linear_11984_8023)" stroke-width="0.447942" stroke-linecap="round"/>
<path d="M16.3042 104.223H15.2404L15.2474 103.673H16.3042C16.6682 103.673 16.9715 103.597 17.2141 103.446C17.4567 103.292 17.6387 103.077 17.76 102.802C17.8837 102.524 17.9455 102.2 17.9455 101.829V101.518C17.9455 101.226 17.9105 100.967 17.8405 100.741C17.7705 100.512 17.6679 100.319 17.5326 100.163C17.3973 100.005 17.2316 99.8844 17.0356 99.8027C16.842 99.7211 16.6192 99.6802 16.3672 99.6802H15.2194V99.1273H16.3672C16.7008 99.1273 17.0053 99.1833 17.2806 99.2953C17.5559 99.4049 17.7927 99.5648 17.991 99.7747C18.1917 99.9824 18.3456 100.234 18.4529 100.531C18.5603 100.825 18.6139 101.156 18.6139 101.525V101.829C18.6139 102.198 18.5603 102.53 18.4529 102.826C18.3456 103.12 18.1905 103.371 17.9875 103.579C17.7869 103.786 17.5442 103.946 17.2596 104.058C16.9773 104.168 16.6588 104.223 16.3042 104.223ZM15.6008 99.1273V104.223H14.9254V99.1273H15.6008ZM21.3261 104.293C21.0624 104.293 20.8233 104.248 20.6087 104.16C20.3964 104.069 20.2132 103.942 20.0592 103.778C19.9076 103.615 19.7909 103.421 19.7093 103.197C19.6276 102.973 19.5868 102.728 19.5868 102.462V102.315C19.5868 102.007 19.6323 101.733 19.7233 101.493C19.8143 101.25 19.9379 101.045 20.0942 100.877C20.2505 100.709 20.4279 100.582 20.6262 100.496C20.8245 100.409 21.0298 100.366 21.2421 100.366C21.5127 100.366 21.746 100.413 21.942 100.506C22.1403 100.599 22.3025 100.73 22.4284 100.898C22.5544 101.064 22.6477 101.26 22.7084 101.486C22.7691 101.71 22.7994 101.955 22.7994 102.221V102.511H19.9718V101.983H22.152V101.934C22.1426 101.766 22.1076 101.603 22.047 101.444C21.9887 101.285 21.8953 101.155 21.767 101.052C21.6387 100.949 21.4637 100.898 21.2421 100.898C21.0951 100.898 20.9598 100.93 20.8361 100.993C20.7125 101.053 20.6063 101.144 20.5177 101.266C20.429 101.387 20.3602 101.535 20.3112 101.71C20.2622 101.885 20.2377 102.087 20.2377 102.315V102.462C20.2377 102.642 20.2622 102.811 20.3112 102.97C20.3625 103.126 20.436 103.264 20.5317 103.383C20.6297 103.502 20.7475 103.595 20.8851 103.663C21.0251 103.73 21.1838 103.764 21.3611 103.764C21.5897 103.764 21.7834 103.718 21.942 103.624C22.1006 103.531 22.2395 103.406 22.3584 103.25L22.7504 103.561C22.6687 103.685 22.5649 103.803 22.4389 103.915C22.3129 104.027 22.1578 104.118 21.9735 104.188C21.7915 104.258 21.5757 104.293 21.3261 104.293ZM24.8816 103.638L25.9175 100.436H26.5789L25.2176 104.223H24.7836L24.8816 103.638ZM24.0172 100.436L25.0846 103.656L25.1581 104.223H24.7241L23.3523 100.436H24.0172ZM28.1292 100.436V104.223H27.4783V100.436H28.1292ZM27.4293 99.4318C27.4293 99.3268 27.4608 99.2381 27.5238 99.1658C27.5891 99.0935 27.6848 99.0573 27.8107 99.0573C27.9344 99.0573 28.0289 99.0935 28.0942 99.1658C28.1619 99.2381 28.1957 99.3268 28.1957 99.4318C28.1957 99.5321 28.1619 99.6184 28.0942 99.6907C28.0289 99.7607 27.9344 99.7957 27.8107 99.7957C27.6848 99.7957 27.5891 99.7607 27.5238 99.6907C27.4608 99.6184 27.4293 99.5321 27.4293 99.4318ZM30.9078 103.761C31.0618 103.761 31.2041 103.729 31.3348 103.666C31.4654 103.603 31.5727 103.517 31.6567 103.407C31.7407 103.295 31.7886 103.168 31.8002 103.026H32.4161C32.4045 103.25 32.3286 103.459 32.1887 103.652C32.051 103.844 31.8702 103.999 31.6462 104.118C31.4223 104.234 31.1761 104.293 30.9078 104.293C30.6232 104.293 30.3747 104.242 30.1624 104.142C29.9525 104.042 29.7775 103.904 29.6375 103.729C29.4998 103.554 29.396 103.354 29.326 103.127C29.2584 102.899 29.2246 102.657 29.2246 102.403V102.256C29.2246 102.002 29.2584 101.761 29.326 101.535C29.396 101.306 29.4998 101.105 29.6375 100.93C29.7775 100.755 29.9525 100.617 30.1624 100.517C30.3747 100.416 30.6232 100.366 30.9078 100.366C31.2041 100.366 31.4631 100.427 31.6847 100.548C31.9064 100.667 32.0802 100.83 32.2062 101.038C32.3345 101.243 32.4045 101.477 32.4161 101.738H31.8002C31.7886 101.582 31.7442 101.441 31.6672 101.315C31.5926 101.189 31.4899 101.088 31.3593 101.014C31.231 100.937 31.0805 100.898 30.9078 100.898C30.7095 100.898 30.5427 100.938 30.4074 101.017C30.2744 101.094 30.1683 101.199 30.0889 101.332C30.012 101.463 29.956 101.608 29.921 101.769C29.8883 101.928 29.872 102.09 29.872 102.256V102.403C29.872 102.569 29.8883 102.732 29.921 102.893C29.9536 103.054 30.0085 103.2 30.0854 103.33C30.1648 103.461 30.2709 103.566 30.4039 103.645C30.5392 103.722 30.7072 103.761 30.9078 103.761ZM34.9393 104.293C34.6757 104.293 34.4365 104.248 34.2219 104.16C34.0096 104.069 33.8265 103.942 33.6725 103.778C33.5208 103.615 33.4042 103.421 33.3225 103.197C33.2409 102.973 33.2 102.728 33.2 102.462V102.315C33.2 102.007 33.2455 101.733 33.3365 101.493C33.4275 101.25 33.5512 101.045 33.7075 100.877C33.8638 100.709 34.0411 100.582 34.2394 100.496C34.4377 100.409 34.643 100.366 34.8553 100.366C35.126 100.366 35.3593 100.413 35.5552 100.506C35.7535 100.599 35.9157 100.73 36.0417 100.898C36.1677 101.064 36.261 101.26 36.3216 101.486C36.3823 101.71 36.4126 101.955 36.4126 102.221V102.511H33.585V101.983H35.7652V101.934C35.7559 101.766 35.7209 101.603 35.6602 101.444C35.6019 101.285 35.5086 101.155 35.3803 101.052C35.2519 100.949 35.077 100.898 34.8553 100.898C34.7083 100.898 34.573 100.93 34.4494 100.993C34.3257 101.053 34.2196 101.144 34.1309 101.266C34.0423 101.387 33.9734 101.535 33.9244 101.71C33.8754 101.885 33.851 102.087 33.851 102.315V102.462C33.851 102.642 33.8754 102.811 33.9244 102.97C33.9758 103.126 34.0493 103.264 34.1449 103.383C34.2429 103.502 34.3607 103.595 34.4984 103.663C34.6383 103.73 34.797 103.764 34.9743 103.764C35.2029 103.764 35.3966 103.718 35.5552 103.624C35.7139 103.531 35.8527 103.406 35.9717 103.25L36.3636 103.561C36.282 103.685 36.1781 103.803 36.0522 103.915C35.9262 104.027 35.771 104.118 35.5867 104.188C35.4048 104.258 35.1889 104.293 34.9393 104.293ZM39.5972 103.218C39.5972 103.125 39.5762 103.039 39.5342 102.959C39.4946 102.878 39.4117 102.804 39.2857 102.739C39.1621 102.671 38.9755 102.613 38.7258 102.564C38.5158 102.52 38.3257 102.467 38.1554 102.406C37.9874 102.346 37.8439 102.272 37.7249 102.186C37.6083 102.1 37.5185 101.998 37.4555 101.881C37.3925 101.765 37.361 101.628 37.361 101.472C37.361 101.323 37.3937 101.182 37.459 101.049C37.5266 100.916 37.6211 100.798 37.7424 100.695C37.8661 100.592 38.0142 100.512 38.1869 100.454C38.3595 100.395 38.552 100.366 38.7643 100.366C39.0676 100.366 39.3266 100.42 39.5412 100.527C39.7559 100.634 39.9203 100.778 40.0346 100.958C40.149 101.135 40.2061 101.332 40.2061 101.549H39.5587C39.5587 101.444 39.5272 101.343 39.4642 101.245C39.4036 101.144 39.3137 101.061 39.1948 100.996C39.0781 100.931 38.9346 100.898 38.7643 100.898C38.5847 100.898 38.4389 100.926 38.3269 100.982C38.2172 101.036 38.1367 101.105 38.0854 101.189C38.0364 101.273 38.0119 101.361 38.0119 101.455C38.0119 101.525 38.0236 101.587 38.0469 101.643C38.0726 101.697 38.1169 101.747 38.1799 101.794C38.2429 101.838 38.3315 101.88 38.4459 101.92C38.5602 101.96 38.706 101.999 38.8833 102.039C39.1936 102.109 39.4491 102.193 39.6497 102.291C39.8503 102.389 39.9997 102.509 40.0976 102.651C40.1956 102.794 40.2446 102.966 40.2446 103.169C40.2446 103.335 40.2096 103.487 40.1396 103.624C40.072 103.762 39.9728 103.881 39.8422 103.981C39.7139 104.079 39.5599 104.156 39.3802 104.212C39.2029 104.266 39.0034 104.293 38.7818 104.293C38.4482 104.293 38.1659 104.233 37.9349 104.114C37.704 103.995 37.529 103.841 37.41 103.652C37.291 103.463 37.2315 103.264 37.2315 103.054H37.8824C37.8918 103.231 37.9431 103.372 38.0364 103.477C38.1297 103.58 38.244 103.653 38.3794 103.698C38.5147 103.74 38.6488 103.761 38.7818 103.761C38.9591 103.761 39.1073 103.737 39.2263 103.691C39.3476 103.644 39.4397 103.58 39.5027 103.498C39.5657 103.417 39.5972 103.323 39.5972 103.218Z" fill="#F6F1F2"/>
<path d="M197.209 98.4747V104.223H196.166V99.6912L194.784 100.148V99.3054L197.091 98.4747H197.209Z" fill="#F6F1F2"/>
<path d="M323.977 98.4747V104.223H322.934V99.6912L321.552 100.148V99.3054L323.859 98.4747H323.977Z" fill="#F6F1F2"/>
<path d="M128 7.97266L128 115.973" stroke="url(#paint2_linear_11984_8023)" stroke-width="0.530086" stroke-linecap="round"/>
<path d="M266 7.97266L266 115.973" stroke="url(#paint3_linear_11984_8023)" stroke-width="0.530086" stroke-linecap="round"/>
<defs>
<linearGradient id="paint0_linear_11984_8023" x1="14.334" y1="36.5859" x2="355.666" y2="36.5859" gradientUnits="userSpaceOnUse">
<stop stop-color="white" stop-opacity="0"/>
<stop offset="0.505" stop-color="#CDD8FF"/>
<stop offset="1" stop-color="white" stop-opacity="0"/>
</linearGradient>
<linearGradient id="paint1_linear_11984_8023" x1="14.334" y1="85.9727" x2="355.666" y2="85.9726" gradientUnits="userSpaceOnUse">
<stop stop-color="white" stop-opacity="0"/>
<stop offset="0.505" stop-color="#CDD8FF"/>
<stop offset="1" stop-color="white" stop-opacity="0"/>
</linearGradient>
<linearGradient id="paint2_linear_11984_8023" x1="127.5" y1="7.97266" x2="127.5" y2="115.973" gradientUnits="userSpaceOnUse">
<stop stop-color="white" stop-opacity="0"/>
<stop offset="0.505" stop-color="#CDD8FF"/>
<stop offset="1" stop-color="white" stop-opacity="0"/>
</linearGradient>
<linearGradient id="paint3_linear_11984_8023" x1="265.5" y1="7.97266" x2="265.5" y2="115.973" gradientUnits="userSpaceOnUse">
<stop stop-color="white" stop-opacity="0"/>
<stop offset="0.505" stop-color="#CDD8FF"/>
<stop offset="1" stop-color="white" stop-opacity="0"/>
</linearGradient>
</defs>
</svg>
