<svg xmlns="http://www.w3.org/2000/svg" width="18" height="19" viewBox="0 0 18 19" fill="none">
  <circle cx="9" cy="9.5" r="9" fill="#9FBFE5" fill-opacity="0.996078"/>
  <path d="M15.0568 9.79074C14.6253 8.99827 14.1216 8.40094 13.556 8.00272C12.9967 7.60927 12.3772 7.41016 11.7053 7.41016C11.4951 7.41016 11.2809 7.42919 11.062 7.46806C10.7716 7.51883 10.4733 7.60371 10.1679 7.7235C10.0894 7.75364 10.0426 7.84328 10.0688 7.92895C10.5003 9.31954 10.5551 10.5967 10.2417 11.6462C10.1092 12.0912 9.91013 12.495 9.64597 12.8496C9.33422 13.2684 8.94394 13.6032 8.49257 13.8451C8.36882 13.9117 8.23952 13.9712 8.10704 14.0236C7.63743 14.2108 7.11388 14.3068 6.55463 14.3068H6.49989C6.35314 14.3068 6.27619 14.4861 6.3809 14.5924C7.16306 15.3888 8.13877 16.0718 9.06848 16.4764C9.09466 16.4883 9.12083 16.4994 9.14622 16.5105C9.16526 16.5184 9.18667 16.5232 9.20968 16.5232C9.23268 16.5232 9.25569 16.5192 9.2779 16.5097C9.2779 16.5097 9.27869 16.5097 9.28028 16.5097C9.49049 16.4137 9.7023 16.3098 9.91568 16.1963C9.91568 16.1963 9.91568 16.1963 9.91727 16.1963C10.87 15.691 11.841 15.0168 12.6842 14.1949C13.8709 13.0376 14.8038 11.5867 15.0743 9.90021C15.0806 9.86213 15.0743 9.82485 15.0561 9.79312L15.0568 9.79074ZM12.3954 13.8959C11.6395 14.6328 10.7185 15.3 9.73085 15.8235C9.72689 15.8259 9.72213 15.8283 9.71737 15.8314C9.54999 15.9195 9.37864 16.0044 9.20809 16.0853C8.49098 15.7688 7.74135 15.2754 7.08849 14.6939C7.50178 14.6503 7.89366 14.5551 8.25856 14.4091C8.41007 14.3488 8.55444 14.2822 8.68771 14.2092C9.19699 13.9355 9.6309 13.5619 9.97676 13.0971C10.2679 12.7052 10.4908 12.2578 10.6376 11.7644C10.9581 10.6895 10.9208 9.40283 10.5305 8.03128C10.7367 7.96068 10.9382 7.90912 11.1334 7.87501C11.3277 7.84011 11.5197 7.82345 11.7053 7.82345C11.9956 7.82345 12.278 7.86708 12.5462 7.95354C12.8151 8.04001 13.0729 8.16931 13.3164 8.33986C13.8138 8.69048 14.2628 9.21959 14.6507 9.9137C14.4048 11.3194 13.6258 12.6949 12.3947 13.8951L12.3954 13.8959Z" fill="white"/>
  <path d="M15.6724 5.54527C15.6701 5.51829 15.6661 5.49132 15.6629 5.46515C15.6566 5.41755 15.6296 5.37471 15.5939 5.34933C13.9725 4.19513 11.6982 3.20117 9.42471 3.20117C8.59654 3.20117 7.76837 3.33285 6.97194 3.63747C6.93703 3.65095 6.90768 3.67475 6.88864 3.70648C6.38572 4.52909 6.11204 5.31363 6.07317 6.03709C6.07079 6.09182 6.06841 6.14497 6.06841 6.19891C6.06365 7.06516 6.39682 7.85049 7.06316 8.54063C7.20754 8.68976 7.36698 8.83493 7.54229 8.97534C7.57244 8.99993 7.60972 9.01183 7.647 9.01183C7.69143 9.01183 7.73506 8.99437 7.76837 8.95947C7.76837 8.95947 7.76996 8.95947 7.77075 8.95788C8.03729 8.66914 8.31097 8.40815 8.58861 8.17731C8.87656 7.93695 9.17007 7.72753 9.46516 7.55064C10.0062 7.22619 10.5551 7.00963 11.1001 6.90809C11.342 6.86288 11.5824 6.83987 11.8211 6.83987C11.9631 6.83987 12.1035 6.8478 12.244 6.86446C12.8873 6.93982 13.4783 7.18415 13.9883 7.57602C14.0264 7.60537 14.0637 7.63551 14.1002 7.66645C14.4794 7.98138 14.8094 8.38118 15.0775 8.85714C15.11 8.91505 15.1663 8.94202 15.2227 8.94202C15.2933 8.94202 15.3631 8.89918 15.3853 8.81986C15.5622 8.17969 15.6709 7.50066 15.7058 6.84384C15.7296 6.39485 15.7192 5.95618 15.6724 5.54606V5.54527ZM15.2917 6.82083C15.2679 7.26427 15.2092 7.71722 15.1187 8.1551C14.8958 7.8497 14.6444 7.57999 14.3667 7.34835C14.3294 7.31662 14.2906 7.28569 14.2477 7.25237C14.2454 7.25078 14.243 7.2484 14.2406 7.24682C13.6639 6.80338 13.0087 6.53526 12.2923 6.45197C12.1377 6.43372 11.979 6.4242 11.8211 6.4242C11.5602 6.4242 11.292 6.44959 11.0239 6.49956C10.4306 6.61062 9.83482 6.84463 9.25257 7.19446C8.93764 7.38246 8.6251 7.60616 8.32286 7.85842C8.08806 8.05436 7.85484 8.27171 7.62797 8.50572C7.53436 8.42323 7.44472 8.33835 7.36143 8.25267C6.77441 7.64503 6.47853 6.95489 6.48249 6.19891C6.48249 6.14973 6.48487 6.10055 6.48646 6.0593C6.52057 5.42548 6.75934 4.73138 7.19802 3.99523C7.88657 3.74297 8.63541 3.61526 9.42471 3.61526C12.0607 3.61526 14.3271 4.97174 15.2639 5.6238C15.3044 6.00139 15.3139 6.40358 15.2917 6.82004V6.82083Z" fill="white"/>
  <path d="M9.78584 11.3047C9.85168 11.0897 9.90245 10.8621 9.93894 10.6209C9.95243 10.5329 9.89373 10.452 9.81202 10.4329C9.81202 10.4329 9.81149 10.4329 9.81043 10.4329C9.41856 10.3441 9.0489 10.2346 8.70304 10.1061C8.49124 10.0276 8.28737 9.94189 8.09381 9.84828C7.48617 9.55715 6.97134 9.1986 6.56202 8.78134C6.21616 8.42834 5.94645 8.03409 5.76082 7.60493C5.28963 6.51261 5.39989 5.28702 6.0694 4.15424C6.13762 4.03842 6.04957 3.90039 5.92662 3.90039C5.91234 3.90039 5.89806 3.90198 5.88378 3.90594C4.92155 4.15582 3.9617 4.58101 3.18668 5.09663C3.0669 5.17675 2.95029 5.25925 2.84003 5.34255C2.80592 5.36793 2.77974 5.41315 2.77498 5.45757C2.77498 5.45757 2.75356 5.65826 2.7377 5.95415C2.67186 7.19085 2.68375 11.411 5.60296 13.7829C5.63231 13.8067 5.66722 13.8194 5.7045 13.8201C5.76796 13.8217 5.82984 13.8225 5.89171 13.8225C6.81745 13.8225 7.59723 13.648 8.21915 13.3061C8.98227 12.8873 9.51058 12.2154 9.78584 11.3047ZM5.89171 13.4092C5.86157 13.4092 5.83063 13.4092 5.7989 13.4092C3.09784 11.1508 3.08911 7.15515 3.15178 5.97716C3.16051 5.82168 3.17002 5.69317 3.17716 5.60908C3.25411 5.55276 3.33423 5.49723 3.41594 5.4425C4.01088 5.04745 4.71451 4.71031 5.44114 4.46996C4.95328 5.56783 4.92869 6.72124 5.38006 7.76993C5.58393 8.24272 5.8814 8.68139 6.26534 9.07247C6.70401 9.52066 7.25454 9.9046 7.89946 10.2156C7.90422 10.2179 7.90898 10.2203 7.91295 10.2227C8.11285 10.3187 8.32941 10.4107 8.55787 10.4956C8.85217 10.6051 9.16472 10.701 9.48916 10.7827C9.4614 10.9224 9.42729 11.0572 9.38842 11.1857C9.14647 11.9861 8.68559 12.5779 8.01845 12.9444C7.45761 13.253 6.7413 13.41 5.89092 13.41L5.89171 13.4092Z" fill="white"/>
</svg>