<svg fill="none" height="24" viewBox="0 0 24 24" width="24" xmlns="http://www.w3.org/2000/svg" xmlns:xlink="http://www.w3.org/1999/xlink"><mask id="a" height="20" maskUnits="userSpaceOnUse" width="20" x="2" y="2"><path d="m22 2h-20v19.9999h20z" fill="#fff"/></mask><mask id="b" height="20" maskUnits="userSpaceOnUse" width="20" x="2" y="2"><path d="m22 2h-20v19.9999h20z" fill="#fff"/></mask><g mask="url(#a)"><g fill="#999" mask="url(#b)"><path d="m13.9865 2.79561.5322 1.24666c1.0447 2.44777 2.9944 4.39745 5.4421 5.44213l1.2467.5322c.3262.1392.5911.3387.7956.5763-.6208-4.45141-4.1415-7.97254-8.5929-8.5929.2371.20397.4371.46933.5763.79561z"/><path d="m2.79561 10.0166 1.24667-.5322c2.44777-1.04468 4.39744-2.99436 5.44259-5.44213l.53173-1.24666c.1396-.32628.3392-.59164.5763-.79561-4.45141.62036-7.97206 4.14149-8.5929 8.5929.20446-.2376.46935-.4371.79561-.5763z"/><path d="m21.2075 13.9825-1.2467.5323c-2.4477 1.0446-4.3974 2.9948-5.4421 5.4426l-.5322 1.2461c-.1392.3263-.3392.5917-.5763.7962 4.4514-.6209 7.9721-4.142 8.5929-8.5935-.2045.2377-.4694.4372-.7956.5763z"/><path d="m10.0166 21.2035-.53173-1.2461c-1.04515-2.4478-2.99482-4.398-5.44259-5.4426l-1.24667-.5323c-.32626-.1391-.59115-.3386-.79561-.5763.62084 4.4515 4.14149 7.9726 8.5929 8.5935-.2371-.2045-.4367-.4699-.5763-.7962z"/></g><path d="m7.46176 11.022.6144-.2624c1.20607-.5149 2.16704-1.47538 2.68194-2.68145l.262-.61443c.3673-.86048 1.5872-.86048 1.9546 0l.2619.61443c.5149 1.20607 1.4759 2.16655 2.682 2.68145l.6144.2624c.8605.3674.8605 1.5868 0 1.9542l-.6144.2624c-1.2061.5149-2.1671 1.4753-2.682 2.682l-.2619.6138c-.3674.8605-1.5873.8605-1.9546 0l-.262-.6138c-.5149-1.2067-1.47587-2.1671-2.68194-2.682l-.6144-.2624c-.86047-.3674-.86047-1.5868 0-1.9542z" fill="#fff"/></g></svg>