<svg width="36" height="36" viewBox="0 0 25 24" fill="none" xmlns="http://www.w3.org/2000/svg">
<g clip-path="url(#clip0_10628_1026)">
<mask id="mask0_10628_1026" style="mask-type:alpha" maskUnits="userSpaceOnUse" x="0" y="0" width="25" height="24">
<rect x="0.5" width="24" height="24" fill="#D9D9D9"/>
</mask>
<g mask="url(#mask0_10628_1026)">
<path d="M22.1 23L19.025 19.95C18.725 20.1333 18.4042 20.2708 18.0625 20.3625C17.7208 20.4542 17.3667 20.5 17 20.5C15.9 20.5 14.9583 20.1083 14.175 19.325C13.3917 18.5417 13 17.6 13 16.5C13 15.4 13.3917 14.4583 14.175 13.675C14.9583 12.8917 15.9 12.5 17 12.5C18.1 12.5 19.0417 12.8917 19.825 13.675C20.6083 14.4583 21 15.4 21 16.5C21 16.8833 20.95 17.2458 20.85 17.5875C20.75 17.9292 20.6083 18.25 20.425 18.55L23.5 21.6L22.1 23ZM6 20.5C4.9 20.5 3.95833 20.1083 3.175 19.325C2.39167 18.5417 2 17.6 2 16.5C2 15.4 2.39167 14.4583 3.175 13.675C3.95833 12.8917 4.9 12.5 6 12.5C7.1 12.5 8.04167 12.8917 8.825 13.675C9.60833 14.4583 10 15.4 10 16.5C10 17.6 9.60833 18.5417 8.825 19.325C8.04167 20.1083 7.1 20.5 6 20.5ZM6 18.5C6.55 18.5 7.02083 18.3042 7.4125 17.9125C7.80417 17.5208 8 17.05 8 16.5C8 15.95 7.80417 15.4792 7.4125 15.0875C7.02083 14.6958 6.55 14.5 6 14.5C5.45 14.5 4.97917 14.6958 4.5875 15.0875C4.19583 15.4792 4 15.95 4 16.5C4 17.05 4.19583 17.5208 4.5875 17.9125C4.97917 18.3042 5.45 18.5 6 18.5ZM17 18.5C17.55 18.5 18.0208 18.3042 18.4125 17.9125C18.8042 17.5208 19 17.05 19 16.5C19 15.95 18.8042 15.4792 18.4125 15.0875C18.0208 14.6958 17.55 14.5 17 14.5C16.45 14.5 15.9792 14.6958 15.5875 15.0875C15.1958 15.4792 15 15.95 15 16.5C15 17.05 15.1958 17.5208 15.5875 17.9125C15.9792 18.3042 16.45 18.5 17 18.5ZM6 9.5C4.9 9.5 3.95833 9.10833 3.175 8.325C2.39167 7.54167 2 6.6 2 5.5C2 4.4 2.39167 3.45833 3.175 2.675C3.95833 1.89167 4.9 1.5 6 1.5C7.1 1.5 8.04167 1.89167 8.825 2.675C9.60833 3.45833 10 4.4 10 5.5C10 6.6 9.60833 7.54167 8.825 8.325C8.04167 9.10833 7.1 9.5 6 9.5ZM17 9.5C15.9 9.5 14.9583 9.10833 14.175 8.325C13.3917 7.54167 13 6.6 13 5.5C13 4.4 13.3917 3.45833 14.175 2.675C14.9583 1.89167 15.9 1.5 17 1.5C18.1 1.5 19.0417 1.89167 19.825 2.675C20.6083 3.45833 21 4.4 21 5.5C21 6.6 20.6083 7.54167 19.825 8.325C19.0417 9.10833 18.1 9.5 17 9.5ZM6 7.5C6.55 7.5 7.02083 7.30417 7.4125 6.9125C7.80417 6.52083 8 6.05 8 5.5C8 4.95 7.80417 4.47917 7.4125 4.0875C7.02083 3.69583 6.55 3.5 6 3.5C5.45 3.5 4.97917 3.69583 4.5875 4.0875C4.19583 4.47917 4 4.95 4 5.5C4 6.05 4.19583 6.52083 4.5875 6.9125C4.97917 7.30417 5.45 7.5 6 7.5ZM17 7.5C17.55 7.5 18.0208 7.30417 18.4125 6.9125C18.8042 6.52083 19 6.05 19 5.5C19 4.95 18.8042 4.47917 18.4125 4.0875C18.0208 3.69583 17.55 3.5 17 3.5C16.45 3.5 15.9792 3.69583 15.5875 4.0875C15.1958 4.47917 15 4.95 15 5.5C15 6.05 15.1958 6.52083 15.5875 6.9125C15.9792 7.30417 16.45 7.5 17 7.5Z" fill="#9FBFE5"/>
</g>
</g>
<defs>
<clipPath id="clip0_10628_1026">
<rect width="24" height="24" fill="white" transform="translate(0.5)"/>
</clipPath>
</defs>
</svg>
