<svg width="20" height="20" viewBox="0 0 20 20" fill="none" xmlns="http://www.w3.org/2000/svg">
<g clip-path="url(#clip0_10370_18505)">
<path d="M10 0C15.5226 0 20 4.4774 20 10C20 15.5226 15.5224 20 10 20C4.4776 20 0 15.5238 0 10C0 4.4762 4.4768 0 10 0Z" fill="#53AE94"/>
<path d="M11.2348 8.66826V7.18066H14.6366V4.91406H5.37344V7.18066H8.77564V8.66706C6.01064 8.79406 3.93164 9.34166 3.93164 9.99766C3.93164 10.6537 6.01164 11.2013 8.77564 11.3291V16.0941H11.2356V11.3287C13.9956 11.2013 16.0704 10.6541 16.0704 9.99866C16.0704 9.34326 13.9956 8.79606 11.2356 8.66866M11.2356 10.9251V10.9239C11.1662 10.9283 10.8096 10.9497 10.0156 10.9497C9.38084 10.9497 8.93424 10.9317 8.77684 10.9235V10.9255C6.33404 10.8173 4.51064 10.3919 4.51064 9.88286C4.51064 9.37386 6.33424 8.94906 8.77684 8.84066V10.5017C8.93684 10.5127 9.39444 10.5397 10.026 10.5397C10.7846 10.5397 11.166 10.5081 11.236 10.5017V8.84066C13.674 8.94926 15.4932 9.37506 15.4932 9.88226C15.4932 10.3895 13.6732 10.8155 11.236 10.9241" fill="#F6F1F2"/>
</g>
<defs>
<clipPath id="clip0_10370_18505">
<rect width="20" height="20" fill="white"/>
</clipPath>
</defs>
</svg>
