<svg viewBox="0 0 2500 2500" xmlns="http://www.w3.org/2000/svg"><circle cx="1250" cy="1250" fill="#26a17b" r="1206.4"/><path d="m1378.6 1361.3v-.2c-8.3.6-51.4 3.1-147.2 3.1s-130.3-2.1-149.3-3.1v.2c-294.6-13-514.4-64.2-514.4-125.7s219.9-112.7 514.4-125.7v200.4c19.2 1.4 74.5 4.7 150.7 4.7s137.3-3.9 145.9-4.7v-200.2c294 13.2 513.2 64.4 513.2 125.7s-219.4 112.5-513.2 125.7m-.1-272.1v-179.2h410.2v-273.3h-1116.8v273.3h410.2v179.2c-333.4 15.3-584 81.3-584 160.4s250.8 145.1 584 160.6v574.5h296.5v-574.5c332.8-15.3 583-81.3 583-160.4s-250.2-145.1-583-160.4" fill="#fff"/><g fill="#f0b90b"><path d="m1696.7 538.6.5 184.2 156.5 92.1v107.8l-248.1-145.5v-292.5zm0-184.2v107.3l-91.2-53.9v-107.3l91.2-53.9 91.6 53.9zm222.4-53.9 91.2-53.9 91.6 53.9-91.6 53.9z"/><path d="m1762.5 684.7v-107.8l91.2 53.9v107.3zm156.6 168.9 91.2 53.9 91.6-53.9v107.3l-91.6 53.9-91.2-53.9zm313.5-553.1 91.2-53.9 91.6 53.9v107.3l-91.6 53.9v-107.3zm91.1 422.3.5-184.2 91.2-53.9v292.5l-248.1 145.5v-107.8l156.5-92z"/><path d="m2258.3 684.7-91.1 53.4v-107.4l91.1-53.9z"/><path d="m2258.3 392.6.5 107.8-157 92.1v184.7l-91.2 53.4-91.2-53.4v-184.7l-157-92.1v-107.8l91.5-53.9 156 92.6 157-92.6 91.6 53.9h-.4zm-495.8-184.1 247.7-146 248.1 146-91.2 53.9-157-92.6-156.5 92.6-91.2-53.9z"/></g></svg>