<?xml version="1.0" encoding="UTF-8"?>
<svg id="Layer_2" data-name="Layer 2" xmlns="http://www.w3.org/2000/svg" version="1.1" viewBox="0 0 2500 2500">
  <defs>
    <style>
      .cls-1 {
        fill: #26a17b;
      }

      .cls-1, .cls-2 {
        stroke-width: 0px;
      }

      .cls-2 {
        fill: #fff;
      }
    </style>
  </defs>
  <circle class="cls-1" cx="1250" cy="1250" r="1206.4"/>
  <path class="cls-2" d="M1378.6,1361.3v-.2c-8.3.6-51.4,3.1-147.2,3.1s-130.3-2.1-149.3-3.1v.2c-294.6-13-514.4-64.2-514.4-125.7s219.9-112.7,514.4-125.7v200.4c19.2,1.4,74.5,4.7,150.7,4.7s137.3-3.9,145.9-4.7v-200.2c294,13.2,513.2,64.4,513.2,125.7s-219.4,112.5-513.2,125.7M1378.6,1089.4v-179.2h410.2v-273.3H672v273.3h410.2v179.2c-333.4,15.3-584,81.3-584,160.4s250.8,145.1,584,160.6v574.5h296.5v-574.5c332.8-15.3,583-81.3,583-160.4s-250.2-145.1-583-160.4"/>
</svg>