<?xml version="1.0" encoding="UTF-8"?>
<svg id="Layer_2_copy" data-name="Layer 2 copy" xmlns="http://www.w3.org/2000/svg" version="1.1" viewBox="0 0 2500 2500">
  <defs>
    <style>
      .cls-1 {
        fill: #f0b90b;
      }

      .cls-1, .cls-2, .cls-3 {
        stroke-width: 0px;
      }

      .cls-2 {
        fill: #26a17b;
      }

      .cls-3 {
        fill: #fff;
      }
    </style>
  </defs>
  <circle class="cls-2" cx="1250" cy="1250" r="1206.4"/>
  <path class="cls-3" d="M1378.6,1361.3v-.2c-8.3.6-51.4,3.1-147.2,3.1s-130.3-2.1-149.3-3.1v.2c-294.6-13-514.4-64.2-514.4-125.7s219.9-112.7,514.4-125.7v200.4c19.2,1.4,74.5,4.7,150.7,4.7s137.3-3.9,145.9-4.7v-200.2c294,13.2,513.2,64.4,513.2,125.7s-219.4,112.5-513.2,125.7M1378.6,1089.4v-179.2h410.2v-273.3H672v273.3h410.2v179.2c-333.4,15.3-584,81.3-584,160.4s250.8,145.1,584,160.6v574.5h296.5v-574.5c332.8-15.3,583-81.3,583-160.4s-250.2-145.1-583-160.4"/>
  <path class="cls-1" d="M1696.7,538.6l.5,184.2,156.5,92.1v107.8l-248.1-145.5v-292.5l91.1,53.9h0ZM1696.7,354.4v107.3l-91.2-53.9v-107.3l91.2-53.9,91.6,53.9-91.6,53.9h0ZM1919.1,300.5l91.2-53.9,91.6,53.9-91.6,53.9-91.2-53.9h0Z"/>
  <path class="cls-1" d="M1762.5,684.7v-107.8l91.2,53.9v107.3l-91.2-53.4h0ZM1919.1,853.6l91.2,53.9,91.6-53.9v107.3l-91.6,53.9-91.2-53.9v-107.3h0ZM2232.6,300.5l91.2-53.9,91.6,53.9v107.3l-91.6,53.9v-107.3l-91.2-53.9h0ZM2323.7,722.8l.5-184.2,91.2-53.9v292.5l-248.1,145.5v-107.8l156.5-92h0Z"/>
  <polygon class="cls-1" points="2258.3 684.7 2167.2 738.1 2167.2 630.7 2258.3 576.8 2258.3 684.7"/>
  <path class="cls-1" d="M2258.3,392.6l.5,107.8-157,92.1v184.7l-91.2,53.4-91.2-53.4v-184.7l-157-92.1v-107.8l91.5-53.9,156,92.6,157-92.6,91.6,53.9h-.4ZM1762.5,208.5l247.7-146,248.1,146-91.2,53.9-157-92.6-156.5,92.6-91.2-53.9h0Z"/>
</svg>