<svg width="22" height="21" viewBox="0 0 22 21" fill="none" xmlns="http://www.w3.org/2000/svg">
<path d="M15.1 11.3008L13.65 9.85078C13.8 9.06745 13.575 8.33412 12.975 7.65078C12.375 6.96745 11.6 6.70078 10.65 6.85078L9.2 5.40078C9.48333 5.26745 9.77083 5.16745 10.0625 5.10078C10.3542 5.03411 10.6667 5.00078 11 5.00078C12.25 5.00078 13.3125 5.43828 14.1875 6.31328C15.0625 7.18828 15.5 8.25078 15.5 9.50078C15.5 9.83412 15.4667 10.1466 15.4 10.4383C15.3333 10.7299 15.2333 11.0174 15.1 11.3008ZM18.3 14.4508L16.85 13.0508C17.4833 12.5674 18.0458 12.0383 18.5375 11.4633C19.0292 10.8883 19.45 10.2341 19.8 9.50078C18.9667 7.81745 17.7708 6.47995 16.2125 5.48828C14.6542 4.49661 12.9167 4.00078 11 4.00078C10.5167 4.00078 10.0417 4.03411 9.575 4.10078C9.10833 4.16745 8.65 4.26745 8.2 4.40078L6.65 2.85078C7.33333 2.56745 8.03333 2.35495 8.75 2.21328C9.46667 2.07161 10.2167 2.00078 11 2.00078C13.5167 2.00078 15.7583 2.69661 17.725 4.08828C19.6917 5.47995 21.1167 7.28412 22 9.50078C21.6167 10.4841 21.1125 11.3966 20.4875 12.2383C19.8625 13.0799 19.1333 13.8174 18.3 14.4508ZM18.8 20.6008L14.6 16.4508C14.0167 16.6341 13.4292 16.7716 12.8375 16.8633C12.2458 16.955 11.6333 17.0008 11 17.0008C8.48333 17.0008 6.24167 16.3049 4.275 14.9133C2.30833 13.5216 0.883333 11.7174 0 9.50078C0.35 8.61745 0.791667 7.79662 1.325 7.03828C1.85833 6.27995 2.46667 5.60078 3.15 5.00078L0.4 2.20078L1.8 0.800781L20.2 19.2008L18.8 20.6008ZM4.55 6.40078C4.06667 6.83412 3.625 7.30911 3.225 7.82578C2.825 8.34245 2.48333 8.90078 2.2 9.50078C3.03333 11.1841 4.22917 12.5216 5.7875 13.5133C7.34583 14.5049 9.08333 15.0008 11 15.0008C11.3333 15.0008 11.6583 14.9799 11.975 14.9383C12.2917 14.8966 12.6167 14.8508 12.95 14.8008L12.05 13.8508C11.8667 13.9008 11.6917 13.9383 11.525 13.9633C11.3583 13.9883 11.1833 14.0008 11 14.0008C9.75 14.0008 8.6875 13.5633 7.8125 12.6883C6.9375 11.8133 6.5 10.7508 6.5 9.50078C6.5 9.31745 6.5125 9.14245 6.5375 8.97578C6.5625 8.80912 6.6 8.63412 6.65 8.45078L4.55 6.40078Z" fill="#989899"/>
</svg>
